<svg xmlns="http://www.w3.org/2000/svg" viewBox="0 0 553.48 137.11"><defs><style>.cls-1{fill:#fff;}.cls-2{fill:none;}</style></defs><title>alan</title><g id="Layer_2" data-name="Layer 2"><g id="Layer_1-2" data-name="Layer 1"><path class="cls-1" d="M206.68,72.39l-7.23,1.78L197.3,80l-2.35.58,8-21.25,1.39-.35,7.93,17.35-3.41.83Zm-6.51-.18L206,70.79l-2.9-6.47Z"/><path class="cls-1" d="M215.91,56.29l3.36-.83-.07,17.23,9.14-2.25v2l-12.51,3.07Z"/><path class="cls-1" d="M242.16,63.68l-7.23,1.77-2.15,5.88-2.35.57,8-21.25,1.4-.34,7.93,17.34-3.41.84Zm-6.51-.19,5.79-1.42-2.9-6.46Z"/><path class="cls-1" d="M264.31,44.4l2.11-.52-.09,19.26-1.26.31L253.44,50.69l0,15.57-2.12.52.08-19.2,3.18-.78,9.7,10.82Z"/><path class="cls-1" d="M285.69,38.87c3.95-1,6.8.82,7.81,3.67l-1.76,1.12a4.16,4.16,0,0,0-5.17-3c-4,1-6,5.64-4.72,10.91C282.7,55,285,56.65,287.6,56s4-2.21,4.82-5l1.66.74a8.86,8.86,0,0,1-6.56,6.41,7.47,7.47,0,0,1-9.31-5.77C276.73,46.36,280.05,40.25,285.69,38.87Z"/><path class="cls-1" d="M297.69,36.19l3.36-.82,0,8.34,9.44-2.32,0-8.34,3.36-.82,0,19.19-3.36.83,0-8.94L301,45.62l0,9-3.36.83Z"/><path class="cls-1" d="M329,42.33l-7.24,1.78L319.65,50l-2.35.58,8-21.26,1.39-.34,7.94,17.34-3.42.84Zm-6.52-.18,5.79-1.42-2.9-6.47Z"/><path class="cls-1" d="M351.18,23.05l2.12-.52-.09,19.26-1.27.31L340.31,29.34l0,15.57-2.12.52.08-19.2,3.18-.78,9.7,10.83Z"/><path class="cls-1" d="M244.73,88.81a11.07,11.07,0,0,1,1,1.4,14.36,14.36,0,0,1,.76,1.52,10.25,10.25,0,0,1,.49,1.48,6.23,6.23,0,0,1,.17,1.35,5.61,5.61,0,0,1-.16,1.44,2.18,2.18,0,0,1-.57,1,3.08,3.08,0,0,1-1.12.71,8.67,8.67,0,0,1-1.82.44,4,4,0,0,0-.33-1.25,6.24,6.24,0,0,0-.89-1.33,10.71,10.71,0,0,0,1.46.09,2.33,2.33,0,0,0,.86-.15.66.66,0,0,0,.4-.38,1.74,1.74,0,0,0,.1-.65,5,5,0,0,0-.1-1,6.5,6.5,0,0,0-.32-1.17,13.61,13.61,0,0,0-.63-1.49c-.28-.56-.63-1.2-1-1.93l1.67-6.34h-2.79v20.31h-2.13c0-.59,0-1.14,0-1.65s0-1,0-1.51,0-1,0-1.46V83.49c0-.5,0-1,0-1.5s0-.89-.06-1.13l.74,0,.81,0h2.22l2.24,0,1.6-.08Zm8.89-4.9c-1.4,0-2.58,0-3.52.06s-1.84.09-2.65.16v-2c.81.07,1.7.12,2.65.16s2.12.05,3.52.05c0-.9,0-1.61-.06-2.11a6.82,6.82,0,0,0-.18-1.13,9.58,9.58,0,0,0,1.15.12,9.42,9.42,0,0,0,1.11-.07c.25,0,.39,0,.4.09s-.07.24-.26.41a1.15,1.15,0,0,0-.19.66c0,.36-.05,1-.05,2,1.42,0,2.62,0,3.62-.05s1.89-.09,2.71-.16v2c-.82-.07-1.72-.13-2.71-.16s-2.2-.06-3.62-.06v2c1.26,0,2.33,0,3.22,0s1.59,0,2.13-.09a6,6,0,0,0-.12,1c0,.38,0,.71,0,1v4.87c0,.29,0,.61,0,1a6.56,6.56,0,0,0,.12,1l-1.69-.06-2.44,0a8.57,8.57,0,0,0,2.49,3.19,17.17,17.17,0,0,0,4,2.29,3.87,3.87,0,0,0-1.08.88,3,3,0,0,0-.54,1.09c-.89-.59-1.66-1.13-2.32-1.62a14.32,14.32,0,0,1-1.7-1.51,8.19,8.19,0,0,1-1.22-1.62,10.64,10.64,0,0,1-.88-2v3.7c0,.26,0,.58,0,.94s0,.74,0,1.13.05.78.07,1.17,0,.75.08,1.07h-2.34c0-.32,0-.68.07-1.07s.05-.78.08-1.17,0-.77.05-1.13,0-.68,0-.94V94.37h-.21a24,24,0,0,1-1.12,2.13,15.64,15.64,0,0,1-1.42,2,17.78,17.78,0,0,1-1.88,1.92,21.15,21.15,0,0,1-2.45,1.85,3.22,3.22,0,0,0-1.94-1.58,10.49,10.49,0,0,0,2.09-1,15.9,15.9,0,0,0,2-1.47,14.48,14.48,0,0,0,1.7-1.8,14.91,14.91,0,0,0,1.33-2l-2.18,0a14.65,14.65,0,0,0-1.47.07c0-.29.07-.61.11-1a8.63,8.63,0,0,0,.05-1V87.69c0-.26,0-.59,0-1a6,6,0,0,0-.12-1c.55,0,1.29.09,2.21.11s2,0,3.38,0Zm0,3.57H250v1.78h3.59Zm0,3.33H250v2h3.59Zm1.92-1.55h3.19V87.48h-3.19Zm0,3.54h3.19v-2h-3.19Z"/><path class="cls-1" d="M271,90.92a12.26,12.26,0,0,0,1.56,1.38,7.27,7.27,0,0,0,1.76,1,11.28,11.28,0,0,0,2.24.56,21.26,21.26,0,0,0,3,.18c1.15,0,2.49,0,4-.15s3.28-.27,5.29-.48a12,12,0,0,0-.55,1.41,6.83,6.83,0,0,0-.23,1.27q-4.31.17-7.23.07a31.48,31.48,0,0,1-4.93-.48,12.16,12.16,0,0,1-3.33-1.09,10.8,10.8,0,0,1-2.49-1.8,14.53,14.53,0,0,1-2.8,3.46,3.07,3.07,0,0,0-.67-.82,5.18,5.18,0,0,0-1-.61,14.6,14.6,0,0,0,1.75-1.67,11.45,11.45,0,0,0,1.39-2L268,90c-.27-.41-.53-.82-.76-1.22s-.44-.77-.63-1.12a8.6,8.6,0,0,1-.46-.89l1.76-.85a11.54,11.54,0,0,0,.69,1.69,11,11,0,0,0,1.09,1.71,13.33,13.33,0,0,0,.69-2.34,22.54,22.54,0,0,0,.4-2.76l-1.22.09a8.64,8.64,0,0,0-.89.11l-.71.13a5.53,5.53,0,0,0-.64.17,4.52,4.52,0,0,0-.56-1.67A3.32,3.32,0,0,0,268,81.55l2.13-4.68h-1.76a9,9,0,0,0-.95,0c-.29,0-.58.08-.88.14v-2c.48,0,1,0,1.54,0h1.68c.53,0,1.06,0,1.58,0l1.5-.09c-.19.58-.42,1.2-.67,1.86s-.54,1.32-.83,2-.59,1.32-.89,2-.6,1.26-.9,1.82c.58,0,1.06,0,1.43-.06l.93-.08a5.38,5.38,0,0,0,.62-.1,3,3,0,0,0,.45-.13,42.54,42.54,0,0,1-.73,4.78A20.91,20.91,0,0,1,271,90.92Zm9.87-5.22h1.85l1.41,0,1.16-.07,1.14-.09v1.89l-1.1-.09q-.56,0-1.17-.06l-1.43,0-1.86,0v2.29H283l1.7,0,1.44-.07,1.27-.09v1.89q-1.17-.1-2.67-.15c-1,0-2.27,0-3.79,0,0,.36,0,.7,0,1s.05.74.09,1.2h-2.21c0-.46.06-.86.08-1.2s0-.68.05-1c-1.29,0-2.38,0-3.27,0s-1.67.08-2.34.15V89.27c.71.09,1.5.14,2.38.17s2,0,3.23,0V87.19l-1.61,0-1.25,0c-.38,0-.73,0-1.06.06l-1,.09V85.49l1,.09,1.05.07,1.23,0H279V83.44h-1.63l-1.19,0-.85,0-.61,0V81.84l.61.06.83,0,1.17,0L279,82v-2.1h-1.79l-1.45,0c-.45,0-.86,0-1.25,0l-1.2.09V78.17c.41,0,.81.06,1.2.08l1.24.06,1.45,0H279V76.5l-2.46,0c-.64,0-1.25.06-1.82.11V74.85l1.74.08L279,75c0-.57,0-1-.05-1.45a9.67,9.67,0,0,0-.08-1c.41,0,.76.09,1.05.1s.67,0,1.13,0,.55,0,.58.15-.11.22-.39.38a.75.75,0,0,0-.25.56,7.72,7.72,0,0,0-.07,1.2h2.05l1.49,0c.43,0,.8,0,1.12-.07s.63-.07.93-.12a7.13,7.13,0,0,0-.07.73c0,.22,0,.49,0,.79v2.07a15.48,15.48,0,0,0,2.63-.16V80c-.3,0-.67-.06-1.1-.08l-1.53-.05v1.49c0,.4,0,.78,0,1.11s0,.69.08,1l-.75,0-1,0h-3.85Zm3.65-7.37V76.5h-3.65v1.83Zm-3.65,1.55V82h3.65v-2.1Z"/><path class="cls-1" d="M292.28,73.61l1.06.59,1.17.65,1.12.64.93.54-1.35,2c-.82-.62-1.54-1.12-2.17-1.51a16,16,0,0,0-2-1Zm1.73,6a3,3,0,0,0,.85.76,4.22,4.22,0,0,0,1.12.43c-.16.48-.34,1.06-.55,1.73S295,84,294.73,85c-.22.75-.44,1.52-.68,2.33l-.6,2a12.58,12.58,0,0,0-1.25-.9,7.05,7.05,0,0,0-1.07-.49c.24-.37.44-.72.62-1s.33-.62.48-.91.27-.6.38-.91.23-.64.33-1c.22-.69.42-1.42.6-2.18S293.88,80.41,294,79.63Zm2.07-7.27a5.69,5.69,0,0,0-.78-.75c-.33-.28-.69-.55-1.08-.82s-.79-.52-1.2-.76-.78-.43-1.11-.59l1.27-1.89c.32.17.68.39,1.08.64l1.21.75c.41.26.8.51,1.16.76l.92.64Zm3.6,11.71a14,14,0,0,1-.34,1.69,9.19,9.19,0,0,1-1.26,2.85c-.3.45-.65.92-1,1.42a3.8,3.8,0,0,0-.84-.73,5.59,5.59,0,0,0-1.21-.55,10.14,10.14,0,0,0,1.19-1.1,6.32,6.32,0,0,0,.77-1.08,6.15,6.15,0,0,0,.5-1.25,12.22,12.22,0,0,0,.36-1.65A16.85,16.85,0,0,0,298,82c0-.62.05-1.22.05-1.8s0-1.13-.06-1.64a12.63,12.63,0,0,0-.18-1.26l4.22.12c1.38,0,2.72,0,4,0l2.57,0,2.05,0,1.78,0,1.74-.08v2c-.85-.09-1.75-.16-2.7-.22s-2-.1-3.12-.1h-8.49c0,1.42,0,2.65-.08,3.67h12.43l1.06,0,.69,0a4.79,4.79,0,0,0,.48-.08V84.2l-.51,0c-.17,0-.39,0-.66-.05s-.59,0-1,0h-1.45a5.24,5.24,0,0,0,.82.53,5,5,0,0,0,.91.38c.14,0,.21.08.2.14s-.11.14-.31.23a1.25,1.25,0,0,0-.33.16,2.78,2.78,0,0,0-.39.29c-.14.12-.3.28-.49.48s-.4.43-.65.72a8.07,8.07,0,0,0,2,.68,12.65,12.65,0,0,0,2.57.2A4.47,4.47,0,0,0,314.5,89a2.69,2.69,0,0,0-.24,1.09,16.52,16.52,0,0,1-2.88-.64,11.59,11.59,0,0,1-2.5-1.17,8.31,8.31,0,0,1-1.13-.89,11.34,11.34,0,0,1-1.83-2.24,4.62,4.62,0,0,1-.52-1.05h-1.81v3.19c.6-.24,1.15-.49,1.65-.74l1-.51a5.73,5.73,0,0,0,0,1.21,3,3,0,0,0,.27.89l-3.14,1.47c-.35.18-.65.34-.89.48a3.51,3.51,0,0,0-.65.5,4.17,4.17,0,0,0-1.22-2.2,4.07,4.07,0,0,0,.54-.17l.65-.23V84.07Zm2.82-15.43c0-.59,0-1,0-1.37a6.89,6.89,0,0,0-.08-.81l1.13.09c.36,0,.75,0,1.16,0a.39.39,0,0,1,.4.2c.05.13,0,.26-.22.38a.81.81,0,0,0-.45.72v.75h2.53c0-.61,0-1.07,0-1.39a5.23,5.23,0,0,0-.08-.79l1.13.09c.37,0,.75,0,1.16,0,.21,0,.34.06.39.17s0,.24-.23.36a.85.85,0,0,0-.4.77v.75c.91,0,1.76,0,2.56,0s1.5,0,2.13-.08a2,2,0,0,0-.19.79,9.69,9.69,0,0,0-.05,1.07v4.08a4.77,4.77,0,0,0,.24,1.86l-1.27-.06-1.53,0c-.58,0-1.28,0-2.09,0h-6q-1.21,0-2.1,0l-1.52,0-1.25.06a4.54,4.54,0,0,0,.18-.81,9.24,9.24,0,0,0,.06-1V70.39a6.51,6.51,0,0,0-.08-1.07,4.07,4.07,0,0,0-.16-.79c.62,0,1.33.06,2.13.08S301.59,68.64,302.5,68.64Zm0,1.46h-2.56v1.57h2.56Zm0,3h-2.56v1.63h2.56Zm4.47,8.2c-1.28,0-2.37,0-3.26.07s-1.69.11-2.38.2V79.71c.69.09,1.48.15,2.38.18s2,.06,3.26.06,2.39,0,3.28-.06,1.68-.09,2.36-.18V81.6c-.68-.09-1.46-.16-2.36-.2S308.26,81.33,307,81.33Zm-2.56-9.66h2.53V70.1h-2.53Zm0,3.09h2.53V73.13h-2.53Zm3.09,9.31c.25.36.5.7.77,1a8.39,8.39,0,0,0,.88.91,6.48,6.48,0,0,0,1.52-1.94Zm1.38-12.4h2.56V70.1h-2.56Zm0,3.09h2.56V73.13h-2.56Z"/><rect class="cls-2" width="553.48" height="137.11"/></g></g></svg>