<svg xmlns="http://www.w3.org/2000/svg" viewBox="0 0 553.48 137.11"><defs><style>.cls-1{fill:#fff;}.cls-2{fill:none;}</style></defs><title>arielle</title><g id="Layer_2" data-name="Layer 2"><g id="Layer_1-2" data-name="Layer 1"><path class="cls-1" d="M199.73,75.71l-7.23,1.77-2.15,5.87-2.35.58,8-21.25,1.4-.34,7.93,17.34-3.41.84Zm-6.51-.19L199,74.1l-2.9-6.46Z"/><path class="cls-1" d="M212.21,78l-3.36.83.08-19.2,7.47-1.84c3.28-.8,6-.08,6.67,2.61.92,3.77-2.46,6.28-5.23,7l0,.06c2.28-.31,3.45.41,4.12,2.38l.94,2.49A7.39,7.39,0,0,0,224.46,75l-3.57.88a10.23,10.23,0,0,1-1.19-2.39l-1-2.81c-.6-1.75-1.35-2.25-3.44-1.74l-3,.73Zm0-10.2,3.18-.78c3.08-.76,4.83-2.67,4.11-5.59-.41-1.65-1.81-2.1-4.08-1.54l-3.2.78Z"/><path class="cls-1" d="M231.51,73.24l-3.36.83.08-19.21,3.36-.82Z"/><path class="cls-1" d="M236.94,52.72l12.77-3.13,0,1.95-9.41,2.31,0,6.36,6.87-1.69v1.95l-6.88,1.69v7l9.82-2.42,0,2-13.21,3.25Z"/><path class="cls-1" d="M254.36,48.45l3.35-.83-.06,17.23,9.14-2.25v2l-12.51,3.08Z"/><path class="cls-1" d="M270.82,44.4l3.35-.82-.06,17.22,9.14-2.25v2L270.74,63.6Z"/><path class="cls-1" d="M287.25,40.36,300,37.23l0,2-9.41,2.31,0,6.36,6.87-1.69v2l-6.88,1.69v7l9.82-2.41,0,2-13.21,3.24Z"/><path class="cls-1" d="M317.57,34.83l-6.83,1.68V34.59l17-4.18v1.92L320.92,34l-.08,17.28-3.36.83Z"/><path class="cls-1" d="M341,41.28c-.32-1.32-1.32-1.81-3.1-2L335.3,39c-2.26-.27-4.17-1.11-4.73-3.39-.89-3.61,1.63-6.54,5.48-7.48,3.28-.81,6.17.37,7.47,2.52l-1.37,1.57a4.85,4.85,0,0,0-5.66-2.31c-2.12.52-3.49,2-3,3.79.34,1.42,1.4,1.79,3.26,2l2.51.29c2.37.29,4.15,1.17,4.7,3.42.93,3.77-1.93,7-6,8-3.31.81-6.75-.26-8.46-2.66l1.33-1.7a6.28,6.28,0,0,0,6.69,2.47C339.72,44.93,341.47,43.37,341,41.28Z"/><path class="cls-1" d="M348.21,25.39,361,22.25V24.2l-9.41,2.31,0,6.36,6.87-1.68,0,1.94-6.87,1.69v7l9.82-2.42v2l-13.2,3.25Z"/><path class="cls-1" d="M247.74,87.17q-.77-.08-1.74-.12c-.65,0-1.45,0-2.41,0s-1.76,0-2.41,0-1.23.07-1.74.12v-2q.76.09,1.74.12c.65,0,1.45,0,2.41,0s1.76,0,2.41,0,1.23-.06,1.74-.12Zm-.88,14.1c0,.2,0,.4,0,.63s0,.44,0,.66,0,.43,0,.61a4.12,4.12,0,0,0,.06.42h-2v-1.41H242v1.89H240c.07-.63.12-1.18.15-1.68s0-1,0-1.65V97c0-.46,0-.84,0-1.13s0-.58,0-.87l.51.06.65,0h4.58l.64,0,.46-.06c0,.24-.05.5-.06.79s0,.7,0,1.21V101a21.31,21.31,0,0,0,3.46-1.86,18.71,18.71,0,0,0,2.88-2.4V95.9l-2.84.69q-1.32.31-2.67.72l-.53-2,.66,0c.21,0,.44,0,.67,0V85.92c0-.52,0-.92,0-1.23s0-.59-.06-.87l.77.05c.33,0,.71,0,1.12,0a12.44,12.44,0,0,0,.42-3.28,12.32,12.32,0,0,0,2.42.62c.2,0,.3.11.31.22s-.09.25-.28.39a2.59,2.59,0,0,0-.44.58,14.17,14.17,0,0,0-.78,1.49l1.82,0c.59,0,1-.05,1.26-.08a7.2,7.2,0,0,0-.06.83c0,.3,0,.72,0,1.27v8.81l.33-.44.34-.44a5.27,5.27,0,0,0,1.12,1.38c-.06-.35-.12-.68-.18-1s-.13-.6-.21-.89-.18-.59-.29-.9-.25-.63-.39-1l1.81-.48c.11.41.21.78.31,1.12s.19.68.29,1,.19.69.29,1.05l.33,1.21-1.35.43c0,.18-.08.28-.4.32a2.66,2.66,0,0,0-.44.08,1.19,1.19,0,0,0-.41.2,3.17,3.17,0,0,0-.48.4l-.67.65v4.18a6.16,6.16,0,0,1-.09,1.15,1.45,1.45,0,0,1-.44.8,2.87,2.87,0,0,1-1,.58,17.6,17.6,0,0,1-1.86.47c0-.26,0-.5,0-.71a1.87,1.87,0,0,0-.14-.62,4.82,4.82,0,0,0-.31-.59,4.33,4.33,0,0,0-.5-.68q.84.08,1.38.09a2.55,2.55,0,0,0,.81-.08.57.57,0,0,0,.37-.29,1.3,1.3,0,0,0,.1-.52V99c-.36.3-.73.6-1.11.89s-.79.59-1.24.89-.93.62-1.46.95-1.13.68-1.78,1.07a6.52,6.52,0,0,0-.33-.83A5.55,5.55,0,0,0,246.86,101.27Zm.19-7.64-.64-.08-.7,0c-.26,0-.55,0-.88,0h-1.21c-.84,0-1.52,0-2,0s-1,.07-1.4.12v-2a13.33,13.33,0,0,0,1.4.12c.52,0,1.2,0,2,0h1.22l.88,0,.68-.06c.2,0,.42,0,.65-.08ZM247,90.36l-.61-.07-.71-.05-.89,0-1.17,0c-.8,0-1.46,0-2,0s-1,.07-1.4.12V88.42c.41,0,.86.09,1.34.12s1.17,0,2,0h1.32c.34,0,.64,0,.88,0l.62,0c.18,0,.36,0,.56-.08Zm-3.67-5.43a6.86,6.86,0,0,0-.59-1.58,10,10,0,0,0-1.17-1.82l2-.88c.41.62.78,1.23,1.12,1.82s.63,1.14.88,1.64ZM245,100.45V96.77H242v3.68Zm8.23-13v-2h-2.93v2ZM250.27,89v2h2.93V89Zm0,3.52V95c.5-.08,1-.18,1.49-.27s1-.22,1.44-.36V92.52Zm9-3.09h-2.6l-.67,0-.43.06V87.43l.43.06c.16,0,.37,0,.64,0h2.63V84.77c0-1,0-1.85,0-2.46a10.66,10.66,0,0,0-.14-1.5,12.41,12.41,0,0,0,1.26.15,10.32,10.32,0,0,0,1.1,0c.24,0,.36,0,.38.15s-.06.23-.22.35a.56.56,0,0,0-.26.35,2.92,2.92,0,0,0,0,.69v5q1,0,1.53,0a3.44,3.44,0,0,0,.73-.08v2.13a5.66,5.66,0,0,0-.73-.08l-1.53,0V102a4.1,4.1,0,0,1-.12,1.07,1.44,1.44,0,0,1-.51.76,3.3,3.3,0,0,1-1.13.56,17.53,17.53,0,0,1-2,.48,4.74,4.74,0,0,0-.17-1.38,3.69,3.69,0,0,0-.78-1.28c.56,0,1,.08,1.37.08a2.23,2.23,0,0,0,.81-.12.72.72,0,0,0,.4-.36,1.62,1.62,0,0,0,.1-.64Z"/><path class="cls-1" d="M269.42,91.64c-.25,1.07-.49,2-.73,2.9s-.51,1.73-.81,2.59l-2.66-.54a12.72,12.72,0,0,0,1.2-2.46,15.89,15.89,0,0,0,.69-3ZM286,89.2c-1,0-2.24-.07-3.86-.08s-3.36,0-5.24,0h-5.39l-1.91,0-1.53,0c0-.41.09-.85.11-1.33s0-1,0-1.54V78.53c0-.57,0-1.1,0-1.57s-.06-.93-.11-1.33c.41,0,.94.06,1.6.08l2.15,0,2.48,0,2.55,0,2.73,0,2.64,0,2.25,0,1.53-.05c0,.4-.06.86-.09,1.35s0,1,0,1.55v7.79c0,.62,0,1.16,0,1.6S285.94,88.79,286,89.2Zm-2.39-11.69H270.35v9.85h13.23Zm-7.93,4.26c-.8,0-1.48,0-2,.07s-1.08.07-1.58.12V80.18l1.68.09,2.18.07c.05-.41.09-.8.1-1.18a8.49,8.49,0,0,0,0-1,7.86,7.86,0,0,0,1.15.2,4.79,4.79,0,0,0,1.06,0c.27,0,.3.09.08.32a1.36,1.36,0,0,0-.2.54c-.06.29-.13.66-.22,1.11l2.33-.06c.62,0,1.22,0,1.79-.1V82c-.58-.07-1.22-.12-1.9-.15s-1.53,0-2.54,0a4.34,4.34,0,0,1-.14.48q-.07.24-.15.45c.92.36,1.78.7,2.58,1s1.65.76,2.55,1.25l-1.49,1.76a19.2,19.2,0,0,0-2.13-1.53A23.84,23.84,0,0,0,276.55,84,6.16,6.16,0,0,1,275,85.62a11.05,11.05,0,0,1-2.47,1.31,5.58,5.58,0,0,0-.6-.82,7,7,0,0,0-.87-.8A8.33,8.33,0,0,0,274.23,84,4,4,0,0,0,275.65,81.77ZM284.43,94a10.85,10.85,0,0,1-.72,2,3.8,3.8,0,0,1-.8,1.12,2.45,2.45,0,0,1-.94.53,8.47,8.47,0,0,1-1.19.22,14.77,14.77,0,0,1-1.67.12q-1.07,0-2.22,0c-.78,0-1.51,0-2.2-.08a9.67,9.67,0,0,1-1.6-.2,3.18,3.18,0,0,1-.74-.25,1,1,0,0,1-.45-.43,1.86,1.86,0,0,1-.23-.7,8,8,0,0,1-.07-1.09V92.6c0-.57,0-1,0-1.22a3.58,3.58,0,0,0-.14-.77c.47.1.89.19,1.28.25a4.73,4.73,0,0,0,1.12,0c.25,0,.39,0,.41,0s0,.17-.2.37a.91.91,0,0,0-.22.5,3.9,3.9,0,0,0,0,.59v2a2.74,2.74,0,0,0,.17,1.2,1,1,0,0,0,.78.42c.27,0,.63.08,1.08.11s.94,0,1.45,0,1,0,1.59-.06,1-.11,1.5-.2a2.34,2.34,0,0,0,.6-.22,1.06,1.06,0,0,0,.44-.47,3.67,3.67,0,0,0,.3-.95c.08-.4.16-.92.23-1.58a4.12,4.12,0,0,0,1.13.82A5.65,5.65,0,0,0,284.43,94Zm-6.2.1a12.37,12.37,0,0,0-.9-1.91A10.56,10.56,0,0,0,276,90.42l2.05-.85c.39.51.79,1.07,1.2,1.66s.79,1.19,1.14,1.8ZM287.36,96c-.29-.48-.56-.92-.83-1.31s-.54-.76-.82-1.11-.58-.7-.89-1l-1-1.07,1.68-1.27c.76.72,1.46,1.42,2.09,2.09s1.26,1.38,1.9,2.14Z"/><path class="cls-1" d="M296,77.88h2.81l.89,0,.82-.06-.45,9.4a12.19,12.19,0,0,1-.16,1.56,1.55,1.55,0,0,1-.46.92,2.61,2.61,0,0,1-1.07.53,14.31,14.31,0,0,1-1.93.39,7.42,7.42,0,0,0-.42-1.29,4.71,4.71,0,0,0-.77-1.21c.62.05,1.11.08,1.49.07a2.33,2.33,0,0,0,.86-.15.75.75,0,0,0,.41-.41,2.62,2.62,0,0,0,.14-.73l.37-7.24H296c-.06,1.43-.13,2.72-.23,3.84a25.89,25.89,0,0,1-.45,3.1,16.09,16.09,0,0,1-.8,2.62,15,15,0,0,1-1.26,2.41,3.53,3.53,0,0,0-.79-.69,6,6,0,0,0-1.08-.53,8.62,8.62,0,0,0,1.15-1.78,12.72,12.72,0,0,0,.82-2.27,20.4,20.4,0,0,0,.54-2.92c.12-1.1.21-2.36.26-3.78,0-.78.05-1.62.05-2.52s0-1.79,0-2.7l-1.24.07a7.81,7.81,0,0,0-1,.15V72.48a12.76,12.76,0,0,0,1.67.18c.62,0,1.39.06,2.29.06s1.68,0,2.33-.06a11.53,11.53,0,0,0,1.66-.18v2.13a13,13,0,0,0-1.61-.19c-.61,0-1.35,0-2.22,0Q296.09,76.07,296,77.88Zm-.32-5.8c-.07-.23-.16-.49-.28-.79s-.24-.58-.37-.87-.27-.57-.41-.83-.28-.47-.4-.65l2.34-.75a5.47,5.47,0,0,0,.28.65l.41.86q.21.43.45.87c.16.3.3.53.4.71Zm13.07-1.55a55.24,55.24,0,0,0,5.82-.24v2.08q-1.14-.11-2.55-.15c-.94,0-2,0-3.27,0h-5.3c-.23.47-.47.92-.73,1.36s-.54.92-.84,1.41c.48.07,1,.13,1.57.16,0-.37,0-.71-.08-1a8.31,8.31,0,0,0-.13-.84,8.92,8.92,0,0,0,1,.12,10.79,10.79,0,0,0,1.14,0c.25,0,.3.11.16.32a.75.75,0,0,0-.17.33,2,2,0,0,0,0,.47v.64h4.49a10.78,10.78,0,0,0-.09-1.16,5.42,5.42,0,0,0-.15-.78,11.73,11.73,0,0,0,2.29.08q.21,0,.24.09a.22.22,0,0,1-.1.22.57.57,0,0,0-.24.31,1.72,1.72,0,0,0-.06.52v.72l1.28-.07a9.25,9.25,0,0,0,1.22-.15v2a9.27,9.27,0,0,0-1.22-.14c-.43,0-.85,0-1.28,0v8.41l1.65-.08c.54,0,1.06-.08,1.57-.14v2l-.94-.1c-.33,0-.75,0-1.25-.06l-1.9,0-2.85,0-2.88,0-1.91,0c-.52,0-.94,0-1.28.06l-1,.1v-2c.43.06.85.1,1.27.12l1.29.07V76.73c-.62,0-1.18.09-1.68.16V75.08q-.27.4-.54.84c-.19.29-.4.59-.63.89a3.56,3.56,0,0,0-.73-.49A5.19,5.19,0,0,0,299,76a18.69,18.69,0,0,0,1.18-1.65c.4-.62.79-1.29,1.16-2a23.5,23.5,0,0,0,1-2.22,19.74,19.74,0,0,0,.75-2.29,6.9,6.9,0,0,0,1.19.58,11.23,11.23,0,0,0,1.17.35c.2,0,.3.1.31.18s-.1.16-.33.25-.67.57-1.15,1.38Zm-2.13,18q.25.17.24.3c0,.1-.13.18-.32.23a1.83,1.83,0,0,0-.53.21,7.25,7.25,0,0,0-.8.59c-.52.41-1.1.83-1.75,1.28s-1.26.82-1.84,1.14A5.76,5.76,0,0,0,300,90.73a12,12,0,0,0,2.74-1.34,11.59,11.59,0,0,0,2.29-2c.3.25.57.46.8.62S306.35,88.35,306.65,88.55Zm3.16-10.09V76.68h-4.49v1.78ZM305.32,80v1.73h4.49V80Zm0,5.17h4.49V83.2h-4.49ZM312.87,92a33.4,33.4,0,0,0-4.52-3.32l1.36-1.44c.88.52,1.69,1,2.42,1.53s1.49,1.08,2.29,1.72Z"/><rect class="cls-2" width="553.48" height="137.11"/></g></g></svg>