<svg xmlns="http://www.w3.org/2000/svg" viewBox="0 0 554.92 137.11"><defs><style>.cls-1{fill:#fff;}.cls-2{fill:none;}</style></defs><title>cyrus</title><g id="Layer_2" data-name="Layer 2"><g id="Layer_1-2" data-name="Layer 1"><path class="cls-1" d="M195.07,67.55c4-1,6.81.82,7.81,3.67l-1.75,1.12a4.16,4.16,0,0,0-5.17-3c-4,1-6,5.64-4.72,10.91.84,3.44,3.16,5.06,5.75,4.43s4-2.21,4.82-5l1.66.74a8.88,8.88,0,0,1-6.56,6.41,7.47,7.47,0,0,1-9.31-5.77C186.12,75,189.44,68.93,195.07,67.55Z"/><path class="cls-1" d="M218.63,62l2.5-.62L214.27,74.2v8.09l-3.36.83,0-8.1-6.76-9.44,3.46-.85,5.49,7.73Z"/><path class="cls-1" d="M228,78.91l-3.35.83.07-19.2,7.47-1.84c3.28-.8,6-.08,6.67,2.61.93,3.77-2.46,6.28-5.23,7v.06c2.28-.31,3.44.41,4.12,2.38l.94,2.49a7.36,7.36,0,0,0,1.57,2.62l-3.56.88a9.85,9.85,0,0,1-1.19-2.39l-1.05-2.81c-.59-1.75-1.35-2.25-3.44-1.74l-3,.74Zm.05-10.2,3.17-.78c3.08-.76,4.83-2.67,4.11-5.59-.4-1.65-1.8-2.1-4.08-1.54l-3.2.78Z"/><path class="cls-1" d="M258.5,52.24,258.44,64c0,5.1-2.41,8.35-6.81,9.43s-7.94-1-7.92-6l.06-11.49,3.36-.83-.07,11.45c0,3.59,1.79,5.37,4.68,4.66,3.13-.77,4.58-3,4.6-6.94l0-11.44Z"/><path class="cls-1" d="M273,62.8c-.33-1.32-1.33-1.81-3.11-2l-2.56-.28c-2.26-.27-4.16-1.11-4.72-3.39-.89-3.61,1.62-6.54,5.48-7.48,3.28-.81,6.17.37,7.47,2.52l-1.37,1.57a4.86,4.86,0,0,0-5.67-2.31c-2.12.52-3.48,2-3,3.79.35,1.42,1.4,1.8,3.27,2l2.5.29c2.38.29,4.16,1.17,4.71,3.42.93,3.77-1.93,7-6,8-3.31.81-6.75-.26-8.47-2.66l1.34-1.7A6.27,6.27,0,0,0,269.52,67C271.71,66.45,273.47,64.89,273,62.8Z"/><path class="cls-1" d="M287.82,45l3.36-.82,0,8.34,9.43-2.32,0-8.34,3.36-.83-.06,19.2-3.36.82,0-8.93-9.43,2.31-.05,8.95-3.36.82Z"/><path class="cls-1" d="M323.82,36.19l-.05,11.71c0,5.1-2.42,8.35-6.81,9.43s-7.95-1-7.92-6l0-11.49,3.36-.83-.07,11.45c0,3.59,1.79,5.37,4.68,4.65,3.13-.76,4.59-3,4.6-6.93l0-11.44Z"/><path class="cls-1" d="M341.88,31.75l2.12-.52-.09,19.26-1.27.31L331,38l0,15.57-2.12.52.08-19.2,3.17-.78L341.82,45Z"/><path class="cls-1" d="M355.75,28.07c4-1,6.91.8,7.91,3.65l-1.76,1.11a4.19,4.19,0,0,0-5.19-3c-4,1-6.2,5.69-4.9,11,.86,3.52,3.17,5.09,5.91,4.41a4.94,4.94,0,0,0,3.79-4.87V37l3.41-.84v9.08l-1.3.31-1.2-2.33a7.26,7.26,0,0,1-4.93,4.12,7.47,7.47,0,0,1-9.31-5.77C346.65,35.46,350.11,29.45,355.75,28.07Z"/><path class="cls-1" d="M245.38,96.68c-.25-.19-.56-.41-.92-.65s-.75-.48-1.15-.71-.79-.44-1.18-.65-.74-.38-1.06-.52l1.22-2c.73.34,1.49.73,2.29,1.19s1.51.88,2.13,1.29Zm1.25,3.57c-.15.47-.3,1-.48,1.58l-.64,2.06c-.11.39-.22.83-.35,1.31l-.38,1.47c-.14.51-.26,1-.39,1.49s-.23.93-.32,1.32c-.39-.34-.8-.66-1.22-1s-.84-.59-1.25-.84c.35-.6.68-1.22,1-1.86s.61-1.41.93-2.32c.25-.71.49-1.46.72-2.26a17.29,17.29,0,0,0,.51-2.39A3.82,3.82,0,0,0,246.63,100.25ZM246.17,91a9.41,9.41,0,0,0-.67-.9c-.28-.32-.58-.65-.91-1s-.67-.62-1-.91a9.08,9.08,0,0,0-1-.76l1.65-1.6c.62.5,1.24,1,1.87,1.62s1.21,1.16,1.72,1.71Zm8.57,12.21c.25.09.37.2.36.35s-.18.27-.52.39a1.1,1.1,0,0,0-.3.24q-.25.24-.87.87c-.41.42-.95,1-1.63,1.73s-1.55,1.67-2.6,2.81a5,5,0,0,0-1-.74,12.44,12.44,0,0,0-1.26-.65c.62-.42,1.22-.88,1.81-1.37a19.71,19.71,0,0,0,1.62-1.53,16.42,16.42,0,0,0,1.34-1.62,9.63,9.63,0,0,0,1-1.6,7.28,7.28,0,0,0,2.05,1.12ZM252,92.85l-1.86.06c-.59,0-1.17.08-1.76.15V90.77c.59.07,1.17.13,1.76.16s1.2.07,1.86.08V88.19q0-.9,0-1.77c0-.57,0-1-.08-1.31a10.26,10.26,0,0,0,1.15.14,12.67,12.67,0,0,0,1.27,0c.23,0,.36,0,.38.13s-.07.18-.27.29-.37.66-.37,1.54V91h4.07V88.14q0-.9,0-1.77c0-.58,0-1-.08-1.32a10.31,10.31,0,0,0,1.17.14l1.31,0c.23,0,.35.05.37.13s-.07.19-.27.3-.37.65-.37,1.54V91a33.68,33.68,0,0,0,3.65-.24v2.29c-1-.12-2.19-.2-3.65-.24V99l2.57-.08c.82,0,1.5-.08,2-.14v2.4c-1-.09-2.21-.16-3.71-.2s-3.15-.07-5-.07-3.46,0-4.94.07-2.71.11-3.71.2v-2.4c.62.07,1.3.13,2,.16S251,99,252,99ZM254,99h4.07v-6.2H254Zm8.17,10.11c-.31-.48-.63-1-1-1.49s-.73-1-1.12-1.51-.79-1-1.21-1.44-.82-.88-1.21-1.25l1.55-1.23c.88.86,1.73,1.7,2.52,2.55s1.64,1.77,2.53,2.78Z"/><path class="cls-1" d="M271.29,90.25V89.08c0-.32,0-.6,0-.83s0-.43-.05-.61,0-.35-.08-.53c.46.07.94.13,1.45.17s1,.07,1.4.07c.19,0,.29.07.29.21s-.11.28-.32.43a.68.68,0,0,0-.21.38,2.09,2.09,0,0,0-.08.63v9.87h4.44V83.12c-2,0-3.69,0-5.12.06s-2.7.12-3.82.23V80.75c1.17.09,2.54.15,4.1.2s3.43.06,5.61.06,4.06,0,5.63-.06,2.94-.11,4.11-.2v2.66c-1-.09-2.17-.16-3.47-.2s-2.84-.08-4.59-.09v5.93h3.11c.85,0,1.63,0,2.33-.07a15.78,15.78,0,0,0,1.82-.2v2.51c-.57-.06-1.19-.09-1.87-.11s-1.44,0-2.25,0h-3.14v7.72h3.95q1.61,0,2.7-.06c.73,0,1.33-.06,1.8-.1l1.23-.15v2.66c-.33,0-.75-.07-1.23-.11s-1.17-.06-2-.08l-3.31,0h-9.92l-3.13,0c-.83,0-1.48,0-2,.07s-.93.07-1.32.12V98.55c.54.09,1.11.15,1.72.2s1.36.07,2.25.09Z"/><path class="cls-1" d="M303.72,75.31q-.18-.53-.48-1.26a9.22,9.22,0,0,0-.55-1.19l2.84-.53.54,1.4c.21.57.39,1.1.55,1.58,2.06,0,3.85,0,5.38,0s2.88-.1,4.07-.19v2.26l-2.25-.09-2.57-.07-3,0H301l-3,0-2.57.07-2.25.09V75.07c1.28.09,2.77.15,4.47.19S301.35,75.31,303.72,75.31ZM299,95.93h-2.45c.06-.41.09-.78.11-1.13s0-.75,0-1.21V89.31c0-.48,0-.93,0-1.33a6.15,6.15,0,0,0-.1-.86,5.51,5.51,0,0,0,.79.07l1.33,0c.57,0,1.33,0,2.27,0h7.24c.94,0,1.7,0,2.29,0l1.36,0a5.25,5.25,0,0,0,.79-.07q0,.24-.09.87c0,.42,0,.86,0,1.32v4c0,.44,0,.84,0,1.2s.06.73.09,1.14h-2.44V94H299ZM312.4,85.18l-1.57-.06-1.78-.07L307,85H304.5c-1.8,0-3.31,0-4.55,0s-2.36.08-3.33.13V83l1.57.09c.55,0,1.14,0,1.78,0l2.08,0H307l2.08,0c.63,0,1.23,0,1.78,0L312.4,83Zm.05-3.91-1.57-.07-1.78-.06-2.08,0-2.47,0c-1.79,0-3.31,0-4.55.06s-2.35.08-3.33.13V79.12l1.57.09c.55,0,1.15,0,1.79.05l2.07,0H307l2.08,0c.64,0,1.23,0,1.78-.05l1.57-.09ZM310.14,89H299v3.25h11.18Z"/><rect class="cls-2" width="554.92" height="137.11"/></g></g></svg>