<svg xmlns="http://www.w3.org/2000/svg" viewBox="0 0 554.67 441.34"><defs><style>.cls-1{fill:#fff;}.cls-2{fill:none;}</style></defs><title>date</title><g id="Layer_2" data-name="Layer 2"><g id="Layer_1-2" data-name="Layer 1"><path class="cls-1" d="M56.59,296.24l3.16-.77,0,7.85,8.88-2.18,0-7.86,3.16-.78,0,18.09-3.16.78,0-8.43-8.89,2.19,0,8.43-3.17.77Z"/><path class="cls-1" d="M84.81,307.64a7.15,7.15,0,0,1-9.06-5.47,10.3,10.3,0,0,1,7.19-12.66A7.13,7.13,0,0,1,92,295,10.31,10.31,0,0,1,84.81,307.64Zm-.39-1.58c3.72-.92,5.28-6.36,4.15-11-.79-3.19-2.67-4.66-5.25-4-3.73.91-5.26,6.35-4.13,10.95C80,305.21,81.86,306.68,84.42,306.06Z"/><path class="cls-1" d="M108.21,283.56l2-.49-.09,18.14-1.19.29-11-12,0,14.67-2,.49L96,286.56l3-.74,9.14,10.2Z"/><path class="cls-1" d="M121.27,280.09c3.77-.93,6.51.75,7.45,3.44l-1.65,1.05a4,4,0,0,0-4.89-2.8c-3.8.93-5.84,5.36-4.62,10.32.81,3.31,3,4.8,5.57,4.16a4.66,4.66,0,0,0,3.57-4.59v-3.13l3.22-.79,0,8.55-1.22.3-1.13-2.2a6.81,6.81,0,0,1-4.65,3.88,7,7,0,0,1-8.77-5.44C112.71,287.05,116,281.4,121.27,280.09Z"/><path class="cls-1" d="M146.67,283.38l-2,2.61,0,6.7-3.17.78.08-18.09,3.16-.78,0,8.91,8.43-11,2.7-.67-7,8.94,7.77,8.95-3.55.88Z"/><path class="cls-1" d="M167,287.44A7.15,7.15,0,0,1,158,282a10.3,10.3,0,0,1,7.19-12.66,7.13,7.13,0,0,1,9.05,5.44A10.31,10.31,0,0,1,167,287.44Zm-.39-1.59c3.72-.91,5.28-6.35,4.15-11-.79-3.19-2.67-4.67-5.25-4-3.73.91-5.26,6.35-4.13,10.95C162.2,285,164.08,286.48,166.64,285.85Z"/><path class="cls-1" d="M190.43,263.36l2-.49L192.34,281l-1.19.29-11-12,0,14.67-2,.49.08-18.09,3-.73,9.14,10.2Z"/><path class="cls-1" d="M203.49,259.89c3.77-.93,6.51.75,7.45,3.44l-1.65,1.05a4,4,0,0,0-4.89-2.8c-3.8.93-5.84,5.36-4.62,10.32.81,3.31,3,4.79,5.57,4.16a4.67,4.67,0,0,0,3.57-4.6v-3.12l3.22-.79,0,8.55-1.22.3-1.13-2.2a6.81,6.81,0,0,1-4.65,3.88,7,7,0,0,1-8.77-5.44C194.93,266.85,198.18,261.19,203.49,259.89Z"/><path class="cls-1" d="M236.19,252.11l2.24-.55-7.5,20-1.31.32-7.52-16.32,3.26-.8L230.79,267Z"/><path class="cls-1" d="M245,268l-3.17.77.07-18.09,3.17-.77Z"/><path class="cls-1" d="M258.89,259.83c-.31-1.24-1.25-1.71-2.92-1.91l-2.42-.26c-2.13-.25-3.92-1.05-4.45-3.19-.84-3.41,1.54-6.16,5.16-7.05,3.09-.76,5.82.35,7,2.37L260,251.27a4.57,4.57,0,0,0-5.33-2.17c-2,.49-3.29,1.86-2.87,3.56.33,1.34,1.32,1.69,3.07,1.91l2.37.27c2.24.28,3.91,1.1,4.43,3.22.87,3.56-1.82,6.57-5.62,7.5a7.56,7.56,0,0,1-8-2.51l1.26-1.6a5.88,5.88,0,0,0,6.3,2.33C257.72,263.27,259.37,261.8,258.89,259.83Z"/><path class="cls-1" d="M279.15,241.56l0,11c0,4.81-2.27,7.87-6.41,8.89s-7.49-1-7.47-5.68l0-10.83,3.17-.78L268.38,255c0,3.39,1.68,5.06,4.41,4.39,2.94-.72,4.31-2.82,4.33-6.54l0-10.77Z"/><path class="cls-1" d="M292.73,251.26l-6.81,1.67-2,5.53-2.21.55,7.52-20,1.32-.33L298,255l-3.21.79Zm-6.13-.17,5.45-1.34-2.73-6.09Z"/><path class="cls-1" d="M301.42,236.09l3.16-.78-.06,16.23,8.62-2.12v1.86l-11.78,2.9Z"/><path class="cls-1" d="M333.33,241.28,326.52,243l-2,5.53-2.21.54,7.52-20,1.32-.32L338.59,245l-3.21.79Zm-6.13-.17,5.45-1.34-2.73-6.09Z"/><path class="cls-1" d="M345.09,243.43l-3.17.78.07-18.09,7-1.73c3.09-.76,5.66-.08,6.28,2.46.88,3.55-2.31,5.91-4.92,6.63l0,.05c2.15-.29,3.25.39,3.89,2.25l.88,2.34a6.93,6.93,0,0,0,1.49,2.47l-3.36.83a9.36,9.36,0,0,1-1.13-2.26l-1-2.64c-.56-1.65-1.27-2.12-3.24-1.63l-2.8.68Zm0-9.61,3-.74c2.9-.71,4.55-2.51,3.87-5.26-.38-1.56-1.7-2-3.84-1.46l-3,.74Z"/><path class="cls-1" d="M364.44,222.41,358,224v-1.81l16-3.93v1.8l-6.42,1.58-.08,16.28-3.17.78Z"/><path class="cls-1" d="M386.48,228.48c-.31-1.24-1.25-1.71-2.93-1.91l-2.41-.26c-2.13-.25-3.92-1.05-4.45-3.19-.84-3.41,1.53-6.16,5.16-7.05,3.09-.76,5.82.35,7,2.37l-1.29,1.48a4.57,4.57,0,0,0-5.34-2.17c-2,.49-3.28,1.86-2.86,3.57.33,1.34,1.32,1.68,3.07,1.9l2.37.27c2.23.28,3.91,1.1,4.43,3.22.87,3.56-1.82,6.57-5.62,7.5a7.56,7.56,0,0,1-8-2.51l1.26-1.6a5.88,5.88,0,0,0,6.3,2.33C385.31,231.92,387,230.45,386.48,228.48Z"/><path class="cls-1" d="M406.41,210c3.73-.91,6.41.77,7.36,3.46l-1.65,1a3.92,3.92,0,0,0-4.88-2.8c-3.77.92-5.66,5.31-4.44,10.28.8,3.24,3,4.77,5.41,4.17s3.75-2.08,4.55-4.73l1.56.7a8.38,8.38,0,0,1-6.18,6,7,7,0,0,1-8.77-5.44C398,217.09,401.1,211.34,406.41,210Z"/><path class="cls-1" d="M417.71,207.51l12-2.95v1.83l-8.86,2.18,0,6,6.48-1.6,0,1.84-6.47,1.59,0,6.56,9.26-2.27v1.85l-12.44,3.06Z"/><path class="cls-1" d="M446.29,200.49l2-.49-.09,18.14-1.19.3-11-12,0,14.68-2,.49.08-18.09,3-.74,9.14,10.2Z"/><path class="cls-1" d="M458.32,199.34l-6.43,1.58v-1.8l16-3.94V197l-6.43,1.58-.07,16.28-3.17.77Z"/><path class="cls-1" d="M474.65,211.59l-3.17.78.07-18.09,7-1.73c3.09-.76,5.66-.07,6.28,2.46.88,3.56-2.31,5.92-4.92,6.63l0,.06c2.15-.3,3.25.39,3.89,2.25l.88,2.33a7,7,0,0,0,1.49,2.48l-3.36.82a9.88,9.88,0,0,1-1.13-2.25l-1-2.65c-.56-1.64-1.27-2.11-3.24-1.63l-2.8.69Zm0-9.61,3-.73c2.9-.72,4.55-2.51,3.87-5.27-.38-1.55-1.7-2-3.84-1.45l-3,.74Z"/><path class="cls-1" d="M489.74,189.82l12-3v1.84l-8.86,2.17,0,6,6.48-1.59v1.84l-6.48,1.59v6.56l9.25-2.28v1.86l-12.44,3.06Z"/><path class="cls-1" d="M224.33,392.5c1.81,0,3.34-.05,4.61-.09s2.42-.11,3.46-.19v2.15c-.52-.05-1.06-.08-1.63-.11l-1.83-.07-2.12-.07-2.49,0v2.66l3.15,0c1,0,1.85,0,2.67-.05l2.29-.08,2-.1v2.25c-.69-.05-1.42-.09-2.18-.11l-2.52-.08-3-.05h-7.1l-3,.05-2.52.08c-.76,0-1.49.06-2.18.11v-2.25c.66.05,1.34.08,2.07.11l2.36.07c.84,0,1.75.05,2.73.05l3.25,0V394.1c-1.83,0-3.38,0-4.67.07s-2.44.12-3.48.2v-2.15c1,.08,2.2.15,3.48.19s2.84.07,4.67.09c0-.76,0-1.3,0-1.65a6.56,6.56,0,0,0-.06-.79c-.35,0-.82-.05-1.42-.06h-4.49l-1.45.05-1,.09-.64.1c0-.43.06-1,.07-1.57s0-1.22,0-1.84v-6.57c0-.33,0-.65,0-1s0-.6,0-.87,0-.5,0-.7l.58.1a6.64,6.64,0,0,0,.84.08l1.4,0h4.13l1.32,0a9,9,0,0,0,.92-.08c.24,0,.45-.06.64-.1v2a3.38,3.38,0,0,0-.48-.11,4.65,4.65,0,0,0-.61-.06l-.89,0h-1.31v1.9h2.26a4.8,4.8,0,0,0,.51,0l.42-.05c0,.2,0,.56,0,1.07s0,1,0,1.44,0,1,0,1.43,0,.83,0,1.1l-.39,0-.62,0-.91,0h-1.32v2.08c1,0,1.83,0,2.37-.07a6,6,0,0,0,1.29-.18V390h1c.18,0,.29,0,.33.11s0,.2-.23.32a1,1,0,0,0-.25.31.73.73,0,0,0-.1.36Zm-9.12-13v1.9h2.95v-1.9Zm0,5.36h6.16v-2h-6.16Zm0,3.48h2.9V386.3h-2.9Zm9.2-8.37-.37,0-.34,0v-1.85c.72,0,1.49.06,2.3.07s1.72,0,2.74,0h2.51l1,0,1.07-.05c-.25.94-.49,1.79-.72,2.56s-.48,1.47-.73,2.13a16.76,16.76,0,0,1-.81,1.8,16.39,16.39,0,0,1-1,1.6,12.44,12.44,0,0,0,2.31,1.66,5.12,5.12,0,0,0,2.2.65,6.62,6.62,0,0,0-.71,1,7.28,7.28,0,0,0-.5,1.23,20.12,20.12,0,0,1-4.51-3.11,16,16,0,0,1-1.5,1.42c-.57.48-1.21,1-1.93,1.52-.1-.17-.2-.32-.29-.46a2.3,2.3,0,0,0-.33-.38,3,3,0,0,0-.45-.38,5.63,5.63,0,0,0-.64-.39,14.79,14.79,0,0,0,4-2.58,9.89,9.89,0,0,1-1-1.29,18.19,18.19,0,0,1-.91-1.58,18.68,18.68,0,0,1-.81-1.75C224.8,381.25,224.59,380.63,224.41,380Zm1.78-.1a14.31,14.31,0,0,0,1.19,3,11.8,11.8,0,0,0,1.51,2.26,9.62,9.62,0,0,0,1.19-2.3,21.79,21.79,0,0,0,.82-2.92Z"/><path class="cls-1" d="M259.14,378.58l-.58-.06c-.23,0-.52,0-.87,0l-1.27,0-1.77,0H244.5c0,1.17,0,2.23,0,3.17s-.08,1.81-.14,2.59-.17,1.5-.29,2.18a17.71,17.71,0,0,1-.5,2,18,18,0,0,1-.78,2q-.47,1-1.11,2.19a4.25,4.25,0,0,0-1-.78,6.46,6.46,0,0,0-1.14-.5,14.45,14.45,0,0,0,2-3.62,14,14,0,0,0,.85-4.52c0-1.22.05-2.41.06-3.56s0-2.23,0-3.24,0-1.91-.08-2.74-.07-1.53-.12-2.12l.8.08,1.3.05,2.38,0h8l2.42,0c.59,0,1,0,1.3,0s.51-.05.69-.08a14.64,14.64,0,0,0-.12,1.71c0,.61,0,1.24,0,1.87Q259,377,259.14,378.58Zm-2.21-5H244.5v3.08h12.43ZM250,384.9a26.69,26.69,0,0,0,2.45-1.07c.79-.39,1.53-.79,2.21-1.19s1.29-.79,1.82-1.16a8.51,8.51,0,0,0,1.24-1c.15.18.32.38.52.6a6.64,6.64,0,0,0,.58.6l.58.5a1.67,1.67,0,0,0,.48.3c.16.09.22.2.17.34s-.22.22-.52.24a4.23,4.23,0,0,0-1,.2c-.45.13-1.06.35-1.83.64s-1.7.66-2.82,1.12L250,386.6V389a1.7,1.7,0,0,0,.09.59.73.73,0,0,0,.4.39,2.92,2.92,0,0,0,.94.21q.63.06,1.71.06c1.26,0,2.28,0,3-.11a4,4,0,0,0,1.75-.5,2.14,2.14,0,0,0,.9-1.12,10.7,10.7,0,0,0,.51-2,4.18,4.18,0,0,0,1.05.91,5.46,5.46,0,0,0,1.25.52,10.9,10.9,0,0,1-.81,2.25,2.8,2.8,0,0,1-1.32,1.22,6.66,6.66,0,0,1-2.38.53c-1,.08-2.34.11-4,.11a23.72,23.72,0,0,1-2.87-.13,4,4,0,0,1-1.55-.48,1.39,1.39,0,0,1-.64-.89,6.11,6.11,0,0,1-.13-1.4v-6.35c0-.61,0-1.14,0-1.57a6.6,6.6,0,0,0-.16-1.18,12.3,12.3,0,0,0,1.35.12c.46,0,.91,0,1.36,0,.17,0,.26.07.27.2s-.05.25-.22.35a.91.91,0,0,0-.37.43,1.62,1.62,0,0,0-.11.58Z"/><path class="cls-1" d="M271.07,380c.49-.18,1-.38,1.43-.59s1-.45,1.51-.74a3.89,3.89,0,0,0-.15,1.34,2.15,2.15,0,0,0,.35,1,11.1,11.1,0,0,0-1.52.46q-.88.31-1.83.75c-.63.28-1.24.59-1.84.91s-1.12.63-1.56.92c-.1-.44-.22-.91-.37-1.42a13.51,13.51,0,0,0-.48-1.37c.89-.18,1.74-.39,2.56-.62v-8.42c-.54,0-1,0-1.44,0s-.81.07-1.14.12v-2.2c.36.06.75.11,1.16.14l1.42.06c0-2,0-3.49-.06-4.51a14.72,14.72,0,0,0-.19-2.06,13.9,13.9,0,0,0,2.38.18c.2,0,.31,0,.34.12s-.06.18-.24.28a.53.53,0,0,0-.25.26.86.86,0,0,0-.08.36v5.37l1.34-.06a10.4,10.4,0,0,0,1.09-.14v2.2a10.83,10.83,0,0,0-1.09-.11c-.39,0-.84-.05-1.34-.06Zm11-10.35c.53-.18,1.06-.38,1.58-.58l1.47-.57,1.27-.54.94-.46-.33,8.69a5.47,5.47,0,0,1-.12,1.12,1.6,1.6,0,0,1-.43.77,2.74,2.74,0,0,1-.95.62,14.35,14.35,0,0,1-1.68.58,6.1,6.1,0,0,0-.34-1.27,4.21,4.21,0,0,0-.71-1.19,7.77,7.77,0,0,0,1.21.05,2,2,0,0,0,.72-.15.7.7,0,0,0,.34-.36,2,2,0,0,0,.08-.59l.15-5.29-3.2,1.1v5.87q0,.64,0,1.59t.12,1.89H280c.06-.62.11-1.25.15-1.88s.05-1.17.05-1.6v-5.22l-2.71.95v8.23a7.15,7.15,0,0,0,.05.91.9.9,0,0,0,.24.54,1.06,1.06,0,0,0,.51.29,4.57,4.57,0,0,0,.9.11c.24,0,.57,0,1,0l1.4,0,1.5-.05,1.31-.09a4,4,0,0,0,1-.19,1.23,1.23,0,0,0,.63-.5,3.09,3.09,0,0,0,.39-1q.15-.63.3-1.68a3,3,0,0,0,1,1,3.53,3.53,0,0,0,1.29.44c-.29.84-.52,1.49-.72,2a3.11,3.11,0,0,1-.65,1.06,1.9,1.9,0,0,1-.87.5,7.65,7.65,0,0,1-1.37.21c-.38,0-.88.07-1.48.11l-1.93.07q-1,0-2.07,0c-.69,0-1.33,0-1.91,0a5.63,5.63,0,0,1-1.26-.16,1.5,1.5,0,0,1-.74-.45,1.8,1.8,0,0,1-.35-.84,8.16,8.16,0,0,1-.09-1.33v-8.5c-.48.2-.88.38-1.2.53a6,6,0,0,0-.75.4l-.6-2.21c.25,0,.6-.13,1.05-.26s.95-.28,1.5-.46c0-.59,0-1.19,0-1.82s0-1.22-.05-1.77,0-1-.08-1.44-.05-.7-.07-.86a8.85,8.85,0,0,0,1.13.12,11.71,11.71,0,0,0,1.3,0c.27,0,.41,0,.44.17s-.08.27-.31.35a.78.78,0,0,0-.34.39,1.23,1.23,0,0,0-.14.52v3.73l2.71-.93v-4.13c0-.62,0-1.21-.08-1.77a5.19,5.19,0,0,0-.2-1.17c.49.07.91.12,1.28.14s.78,0,1.23,0,.51,0,.52.11-.1.17-.35.29a.79.79,0,0,0-.4.52,2.93,2.93,0,0,0-.12.88Z"/><path class="cls-1" d="M298.69,375a13.26,13.26,0,0,0,1.58,1,9.35,9.35,0,0,0,1.81.71,13,13,0,0,0,2.32.43c.87.09,1.89.14,3.05.15s2.5,0,4-.1,3.25-.2,5.22-.36a7,7,0,0,0-.52,1.23,5.08,5.08,0,0,0-.2,1.07q-3.13.11-5.49.12c-1.57,0-3,0-4.14-.08a28.74,28.74,0,0,1-3.07-.29,14.78,14.78,0,0,1-2.27-.51,8.18,8.18,0,0,1-1.74-.78,9.39,9.39,0,0,1-1.46-1.09c-.17.25-.34.48-.5.69s-.35.42-.54.63l-.64.67c-.24.25-.51.52-.83.82a4.19,4.19,0,0,0-.78-.85,3.92,3.92,0,0,0-1-.6c.76-.56,1.42-1.08,2-1.56a9.06,9.06,0,0,0,1.34-1.48,7.42,7.42,0,0,0,.87-1.58,11,11,0,0,0,.52-1.85h-.72a5.92,5.92,0,0,0-1,.09,3,3,0,0,0-1,.36,9.51,9.51,0,0,0-.25-1.27,5,5,0,0,0-.35-.89,2.32,2.32,0,0,0,.84-.38,2.81,2.81,0,0,0,.64-.79l1.15-2.61H296c-.25,0-.56,0-.93,0a7.64,7.64,0,0,0-.9.12v-2c.4,0,.89.06,1.46.08l1.55,0c.79,0,1.39,0,1.83,0a11.26,11.26,0,0,0,1.15-.11l-2.73,5.81h1.28c.23,0,.5,0,.8,0a8,8,0,0,0,.8-.08,27.14,27.14,0,0,1-.75,3A16.27,16.27,0,0,1,298.69,375Zm-1.18-12.43c-.2-.42-.39-.79-.56-1.13s-.35-.64-.52-.92-.33-.56-.49-.82a8.39,8.39,0,0,0-.53-.79l1.7-.83,1.05,1.58c.35.54.76,1.18,1.23,1.93Zm11.3,1.28c1.22,0,2.31,0,3.26-.06s1.67-.1,2.16-.17a22.44,22.44,0,0,0-.15,2.66v7.19c0,.32,0,.61,0,.87s0,.51,0,.75,0,.51.08.81h-2.08v-1H305v1.18h-2.13c.05-.31.09-.58.12-.82s0-.49.05-.75,0-.55,0-.87,0-.7,0-1.15v-6.24q0-.82,0-1.44c0-.41-.07-.82-.14-1.22a7.37,7.37,0,0,0,.81.08l1,.06c.36,0,.73,0,1.1,0h1.07c.08-.25.17-.54.25-.89s.16-.68.23-1l-1.58,0c-.55,0-1.1,0-1.65.05l-1.59.08-1.4.1v-2.08c.52.05,1.05.09,1.6.12l1.8.06,2.11,0h2.64l.42-1c.12-.28.22-.55.31-.81s.18-.52.26-.79l.26-.95a10.06,10.06,0,0,0,1.16.48,11.3,11.3,0,0,0,1.24.32c.19,0,.28.12.28.24s-.12.21-.35.26a2.07,2.07,0,0,0-.34.15,1.57,1.57,0,0,0-.36.34c-.14.16-.29.38-.48.64s-.41.62-.68,1.05c1,0,1.93,0,2.81-.05s1.7-.08,2.43-.15v2.08q-1.35-.12-3.09-.18c-1.16,0-2.4-.07-3.7-.07a8.18,8.18,0,0,0-.35,1C309,363.27,308.9,363.6,308.81,363.88Zm-3.08-3.66c-.23-.33-.5-.68-.8-1s-.62-.7-.95-1.05l1.73-1c.28.32.59.68.92,1.09a9,9,0,0,1,.78,1.07Zm6.42,5.14H305V367h7.2Zm-7.2,4.86h7.2v-1.75H305Zm7.2,1.48H305v1.78h7.2Z"/><path class="cls-1" d="M333.49,351.57l-9.83,18.87-1.78-.95,8.27-15.87h-8.52v-2.05Z"/><path class="cls-1" d="M354.52,365.33h-2.28l-2.83-6.14h-7.57L339,365.33h-2.38l8.67-19.07H346ZM348.43,357l-2.78-6.19L342.84,357Z"/><path class="cls-1" d="M190.25,294.63c-1.48.14-2.8.23-3.94.28s-2.2.08-3.15.1a3,3,0,0,0-.24-.9,6,6,0,0,0-.56-1c.47.05,1,.09,1.75.11s1.47,0,2.31,0,1.71,0,2.63-.1,1.83-.15,2.73-.26,1.62-.21,2.25-.31l1.65-.28c.48-.1.9-.2,1.28-.3s.74-.23,1.09-.37a14.26,14.26,0,0,0,.83,1.26,10,10,0,0,0,.72.92c.15.17.21.29.16.37s-.13.09-.28.06a8.7,8.7,0,0,0-1.31-.22,9.29,9.29,0,0,0-1.35,0l-2.39.24c-.75.08-1.47.14-2.17.19v2.3h3.41l2.64,0,2.06-.05,1.66-.09v2q-1.5-.12-3.39-.15t-4.23,0a9.61,9.61,0,0,0,3.39,2.82,14.38,14.38,0,0,0,5.06,1.34,7.62,7.62,0,0,0-.83,1.26,6.88,6.88,0,0,0-.5,1.2,21.21,21.21,0,0,1-3.28-1.35,3.8,3.8,0,0,0-.06.74c0,.29,0,.65,0,1.09v5.34q0,.84,0,1.59c0,.49.05,1,.1,1.54h-2.21v-1.48h-9.82v1.78h-2.11c0-.59.06-1.11.08-1.58s0-1,0-1.55v-5.64c0-.34,0-.62,0-.87s0-.47,0-.69a30.58,30.58,0,0,1-2.75,1.38,6.83,6.83,0,0,0-.77-1,6.09,6.09,0,0,0-1-.77,22,22,0,0,0,2.31-.81,16.33,16.33,0,0,0,2.06-1,20.6,20.6,0,0,0,2.09-1.4c.72-.55,1.55-1.2,2.48-2-1.63,0-3.1,0-4.41,0s-2.48.1-3.53.18v-2l1.63.09,2,.05,2.57,0h3.32Zm0,4a30.3,30.3,0,0,1-2.7,2.85,19.72,19.72,0,0,1-2.79,2.12h5.49Zm5.84,6.57h-9.82v2h9.82Zm0,3.64h-9.82v1.95h9.82Zm-3.83-10.46v5.22h5.81a12.77,12.77,0,0,1-5.41-5.22Z"/><path class="cls-1" d="M210.87,295.71c-.24-.19-.51-.4-.83-.63s-.65-.46-1-.69l-1-.63c-.36-.19-.67-.34-1-.46l1.26-1.73,2,1.13c.68.4,1.3.79,1.85,1.18Zm1.08,3c-.17.52-.35,1.11-.53,1.78s-.38,1.4-.58,2.2-.3,1.34-.46,2.06-.31,1.47-.44,2.26c-.47-.35-.91-.66-1.34-.92a8.59,8.59,0,0,0-1.29-.64,12.38,12.38,0,0,0,.93-1.71c.28-.65.54-1.3.77-2a24,24,0,0,0,.72-2.35,17.44,17.44,0,0,0,.39-1.94,2.7,2.7,0,0,0,.8.75A4.67,4.67,0,0,0,212,298.74Zm-.33-9a12,12,0,0,0-1.55-1.39,22,22,0,0,0-1.83-1.25l1.35-1.62c.62.38,1.2.78,1.75,1.19s1.08.82,1.58,1.24Zm12.86,4.51a6.1,6.1,0,0,0,.82,1.28,6.21,6.21,0,0,0,1,.9,6.75,6.75,0,0,0,.78.45,7.27,7.27,0,0,0,.95.39,8.81,8.81,0,0,0,1,.27,4.82,4.82,0,0,0,1,.12,4.62,4.62,0,0,0-.91,1.09,3.37,3.37,0,0,0-.42,1.19,13.15,13.15,0,0,1-1.8-.85,9.69,9.69,0,0,1-1.73-1.26c0,.34,0,.66,0,1s0,.66,0,1,0,.92,0,1.4.05.9.08,1.23l-1.37-.08-1.44,0h-4.76v1.58a1.39,1.39,0,0,0,.2.86,1.31,1.31,0,0,0,.93.27c.67,0,1.44,0,2.32,0s1.86,0,2.94-.11a3.45,3.45,0,0,0,.92-.16,1.57,1.57,0,0,0,.66-.44,1.92,1.92,0,0,0,.41-.82,6,6,0,0,0,.19-1.31,1.86,1.86,0,0,0,.82.62,7.44,7.44,0,0,0,1.31.48,11,11,0,0,1-.61,1.74,2.81,2.81,0,0,1-.77,1,2.58,2.58,0,0,1-1.11.5,9.17,9.17,0,0,1-1.67.16l-3.06.08c-.88,0-1.67,0-2.35,0a11.45,11.45,0,0,1-1.57-.13,2.41,2.41,0,0,1-.9-.31,1,1,0,0,1-.41-.54,2.77,2.77,0,0,1-.1-.83v-6.74c-.34.28-.71.59-1.12.91s-.83.64-1.27.94a4.84,4.84,0,0,0-1.42-1.43l.75-.38c.23-.13.47-.27.7-.43s.48-.33.73-.53.53-.42.85-.69a18.86,18.86,0,0,0,1.5-1.35,6.72,6.72,0,0,0,.93-1.1h-1.2l-1.29,0c-.43,0-.84,0-1.23.05s-.73.05-1,.08v-2.08c.27,0,.59.07,1,.09l1.18.08,1.24.05h1.15v-3l-.93,0-.94,0c-.31,0-.6,0-.88.05a6.61,6.61,0,0,0-.73.09v-2.11a14.54,14.54,0,0,0,1.62.15c.66,0,1.27.06,1.86.08q0-1.38-.06-2a7.66,7.66,0,0,0-.12-1l1.11.12c.36,0,.77,0,1.2,0,.2,0,.31.05.34.13s-.06.18-.24.28a.53.53,0,0,0-.25.26.86.86,0,0,0-.08.36v1.81h3.44c0-.5,0-.93,0-1.27s0-.63,0-.88,0-.43-.06-.58,0-.3-.07-.43c.37.05.74.09,1.11.11s.76,0,1.2,0c.23,0,.35.05.36.14s-.08.19-.26.29a.53.53,0,0,0-.25.26.86.86,0,0,0-.08.36v2l1,0,1.05-.05,1-.06c.32,0,.59-.05.83-.09v2.11a8.12,8.12,0,0,0-.83-.09c-.32,0-.65,0-1-.05l-1.05,0-1,0v3h1.21l1.3,0c.43,0,.85,0,1.24-.08s.73-.06,1-.1v2.08c-.31,0-.68-.06-1.09-.08s-.83-.05-1.26-.05l-1.29,0Zm.07,2.93a9.82,9.82,0,0,1-2-2.93h-3.08c-.34.47-.69.93-1.07,1.39s-.85,1-1.42,1.57q1.86.07,3.78.06C222.08,297.24,223.33,297.21,224.55,297.16Zm-6.84,3.61h5.71v-2.06h-5.71Zm4.94-8.22v-3h-3.44v3Z"/><path class="cls-1" d="M238.22,291.08c-.52.59-1,1.15-1.53,1.7s-1,1-1.4,1.46a7.27,7.27,0,0,0-.47-1.12,3.56,3.56,0,0,0-.66-.88,16.54,16.54,0,0,0,1.94-1.54,19,19,0,0,0,1.79-1.91,18.74,18.74,0,0,0,1.5-2.1,13.12,13.12,0,0,0,1.06-2.17h-2.68c-.54,0-1.08,0-1.62.05a9.59,9.59,0,0,0-1.39.17v-2.13a13.61,13.61,0,0,0,1.88.18c.77,0,1.53,0,2.28,0h1.54l1.17,0,.9-.06.78-.09c-.69,1.59-1.3,2.89-1.83,3.92a17.09,17.09,0,0,1-1.38,2.29v7.7c0,.75,0,1.44,0,2.08s0,1.34.1,2.11h-2.13c0-.77.09-1.48.1-2.11s0-1.33,0-2.08Zm1.05-8.77a11.35,11.35,0,0,0-.5-1.78,10,10,0,0,0-.88-1.8l2.13-.63a32,32,0,0,1,1.56,3.54ZM242,292.76a14.76,14.76,0,0,0-.81-1.64,13.63,13.63,0,0,0-1.07-1.54l1.51-1c.42.55.78,1,1.08,1.48s.63.93,1,1.5Zm9.93,4.62a1.21,1.21,0,0,0,.26.89,2.31,2.31,0,0,0,1.29.23,4.65,4.65,0,0,0,.82-.05.8.8,0,0,0,.51-.27,1.76,1.76,0,0,0,.33-.7c.08-.32.17-.76.27-1.31a2.92,2.92,0,0,0,1,.87,3.07,3.07,0,0,0,1.14.34c-.29.73-.52,1.3-.72,1.7a2.3,2.3,0,0,1-.68.89,2,2,0,0,1-1,.34c-.41,0-1,.05-1.69.05a13.72,13.72,0,0,1-1.78-.1,2.63,2.63,0,0,1-1-.35,1.22,1.22,0,0,1-.48-.63,3.59,3.59,0,0,1-.11-.95v-5.82h-1.6a12.64,12.64,0,0,1-.37,2.65,7.38,7.38,0,0,1-1,2.24,8.15,8.15,0,0,1-1.74,1.91,14.36,14.36,0,0,1-2.6,1.63,5.09,5.09,0,0,0-.68-1,9.05,9.05,0,0,0-1-.92,7.56,7.56,0,0,0,4.09-2.26,6.7,6.7,0,0,0,1.38-4.24l-1.27.07c-.38,0-.73.06-1.07.11,0-.33.07-.76.09-1.27s0-1,0-1.56v-7.47c0-.54,0-1,0-1.52s-.05-.91-.09-1.31c.46.06,1.15.12,2.1.16s2.09.06,3.44.06,2.5,0,3.43-.06,1.63-.1,2.11-.16c0,.35-.06.77-.07,1.27s0,1,0,1.56v7.47c0,.53,0,1.05,0,1.54s0,.92.07,1.29l-.51-.05-.79-.05-1,0c-.34,0-.69,0-1.06,0Zm1.35-15.92h-7.09v2.08h7.09Zm0,3.63h-7.09v2.14h7.09Zm0,3.69h-7.09v2.15h7.09Z"/><path class="cls-1" d="M271.46,289.7a3.78,3.78,0,0,1-1,1.68,7.27,7.27,0,0,1-1.88,1.38,11.81,11.81,0,0,1-2.64,1,16.63,16.63,0,0,1-3.22.47,3.47,3.47,0,0,0-.26-.9,5.13,5.13,0,0,0-.59-.9,13.56,13.56,0,0,0,5.24-.68,3.64,3.64,0,0,0,2.38-2l-2.15.06-1.71.09a2.64,2.64,0,0,0,.15-.75c0-.33.05-.66.05-1v-4.06a8.31,8.31,0,0,0-.06-1,4.84,4.84,0,0,0-.14-.75c.35,0,.73.06,1.14.08l1.46,0,2,0h5.29l1.94,0,1.45,0c.42,0,.81,0,1.16-.08a4.84,4.84,0,0,0-.14.75,8.31,8.31,0,0,0-.06,1v4.06a8.18,8.18,0,0,0,.06,1,4.61,4.61,0,0,0,.14.75l-1.78-.09-2.18-.06v1.43a1,1,0,0,0,.09.45.64.64,0,0,0,.37.29,3.35,3.35,0,0,0,.84.15c.37,0,.86,0,1.48,0a5.46,5.46,0,0,0,2.51-.45,2.23,2.23,0,0,0,1.05-1.66,3.06,3.06,0,0,0,.79.78,2.81,2.81,0,0,0,1,.4,6.68,6.68,0,0,1-.52,1.07,3.19,3.19,0,0,1-.63.72,2.54,2.54,0,0,1-.81.44,5.94,5.94,0,0,1-1.09.23c-.26,0-.61.05-1.08.07s-1,0-1.48,0l-1.47,0a8.8,8.8,0,0,1-1.06-.06,2.07,2.07,0,0,1-1.46-.65,2.78,2.78,0,0,1-.4-1.65V289.7Zm6.69-13.13a8.73,8.73,0,0,0-1,0l-.74.08v-1.43c.25,0,.5.06.75.08s.57,0,.95,0h1.78L280,274h-2.62c-.29,0-.6,0-.94.05v-1.4l1.29,0h2.94c.52,0,1,0,1.29-.05a11.25,11.25,0,0,0-.23,2l-.25,5.69q.53,0,1,0l.91-.05v3.49h-1.83v-2.16H264.24v2.16h-1.85V280.2l.85,0,.93,0-.08-4.41a14.37,14.37,0,0,0-.22-2.43c.31-.06.67-.13,1.06-.23s.8-.22,1.22-.36.82-.3,1.23-.47a8.06,8.06,0,0,0,1.1-.55,7.48,7.48,0,0,0,.47.9,4.45,4.45,0,0,0,.51.68c.21.25.18.38-.1.4s-.74.06-1.35.13a20.85,20.85,0,0,0-2.19.37l0,1.08h1.6l.95,0,.75-.08v1.4l-.73-.08a8.93,8.93,0,0,0-1,0h-1.6l0,1.25h1.63l.95,0,.76-.08v1.4l-.74-.08a8.93,8.93,0,0,0-1,0h-1.63l0,1.3h13.83l0-1.25H278.1a8.73,8.73,0,0,0-1,0l-.74.08v-1.45l.75.08,1,0h1.73l.05-1.25Zm0,7.09H267.6v.95h10.55Zm0,1.93H267.6v.93h10.55Zm0,1.93H267.6v1h10.55Zm-5.21-10.43a4.66,4.66,0,0,0,1.1-1.27,4.21,4.21,0,0,0,1.33.95c.18.07.27.14.25.21s-.14.15-.37.21l-.37.18a5.62,5.62,0,0,0-.69.43c.35.18.69.36,1,.55l.94.55-.83,1.23c-.32-.25-.67-.51-1.06-.77s-.81-.51-1.25-.76c-.5.33-.95.61-1.35.83a11.27,11.27,0,0,1-1.18.55,2.37,2.37,0,0,0-.31-.53,3.41,3.41,0,0,0-.54-.53,10.43,10.43,0,0,0,2.13-1,6.29,6.29,0,0,0-.68-.35,6.64,6.64,0,0,0-.62-.28l1-1.05.72.41C272.41,276.82,272.67,277,272.94,277.09Zm.12-3.81a7.39,7.39,0,0,0,.78-.81,6.21,6.21,0,0,0,.63-.89c.3.23.57.43.81.58s.46.26.64.35.32.21.29.27-.15.14-.39.2l-.47.32c-.25.17-.59.43-1,.76l.87.55.86.55-.92,1.18a13.07,13.07,0,0,0-1.91-1.48,11.22,11.22,0,0,1-2.68,1.48,4,4,0,0,0-.33-.55,3.29,3.29,0,0,0-.5-.5,13.61,13.61,0,0,0,2.28-1.18c-.33-.18-.66-.35-1-.5l-.9-.43,1-1,1,.55C272.4,272.92,272.73,273.1,273.06,273.28Z"/><path class="cls-1" d="M304.75,272c-.08.59-.17,1.13-.26,1.63a10.5,10.5,0,0,1-.31,1.28q.56.38,1.05.78l.93.75-1.36,1.18c-.21-.24-.42-.45-.61-.64a7.39,7.39,0,0,0-.59-.54,9.69,9.69,0,0,1-2,2.76,3.63,3.63,0,0,0-.83-.57,4.57,4.57,0,0,0-1-.31,6.93,6.93,0,0,0,2.51-3c-.25-.18-.52-.36-.79-.53l-.84-.47,1.1-1.05.54.32a4.22,4.22,0,0,1,.49.33,7.82,7.82,0,0,0,.2-.92c.05-.32.09-.67.13-1-.39,0-.78,0-1.18,0s-.78,0-1.13.09v-1.58c.38,0,.78.06,1.19.07l1.19,0c0-.32,0-.62,0-.92s0-.57-.06-.84h-.83v-1h-4.93v1h-1.26a1.34,1.34,0,0,0-.34.33,1.12,1.12,0,0,0-.08.48c.83,0,1.55,0,2.15-.07s1.15-.1,1.63-.18v1.6c-.48-.08-1-.14-1.63-.18s-1.32-.05-2.15-.05v1.08c.81,0,1.65,0,2.49-.06a19.12,19.12,0,0,0,2.09-.19v1.58a11.11,11.11,0,0,0-1.13-.11l-1.4-.09a1.25,1.25,0,0,0,.14.73.73.73,0,0,0,.54.15c.43,0,.82,0,1.16-.05l.79-.1a4.12,4.12,0,0,0-.17,1.27,5.67,5.67,0,0,1-.8.07h-1a3.28,3.28,0,0,1-1.64-.28,1,1,0,0,1-.49-.55.71.71,0,0,0-.42.58v.83c.68,0,1.27,0,1.76-.05s.93-.08,1.32-.13V277c-.39-.05-.82-.09-1.32-.12s-1.08-.05-1.76-.05v1.05l2-.11,1.7-.11a4.53,4.53,0,0,0-.12,1.28c-.41,0-1,0-1.77,0l-2.48.13-2.58.16c-.85.06-1.53.12-2.05.17a8.27,8.27,0,0,0-.26-.82,7.12,7.12,0,0,0-.34-.69c.57,0,1.22,0,2,0l2.28,0v-1.1c-.59,0-1.1,0-1.54,0a9.41,9.41,0,0,0-1.19.13v-1.5c.18,0,.39.06.63.08l.74.05.73,0,.63,0c0-.42,0-.76,0-1s-.06-.5-.11-.74c.4.05.76.09,1.07.11s.7,0,1.13.07V273H294a4.93,4.93,0,0,1-.5.73,3.78,3.78,0,0,1-.68.63,6.91,6.91,0,0,1-1,.61q-.58.31-1.41.72a2.44,2.44,0,0,0-.44-.84,2.65,2.65,0,0,0-.74-.69,9.35,9.35,0,0,0,1.78-.45,3.79,3.79,0,0,0,1.13-.66q-.63,0-1.32.06c-.46,0-.86.07-1.19.12v-1.58a18.61,18.61,0,0,0,2,.19c.79,0,1.6.06,2.42.06v-1.08c-.64,0-1.27,0-1.91.05a15,15,0,0,0-1.63.18v-1.6l.82.1.95.08c.33,0,.64.05.95.05l.82,0c0-.25,0-.46-.07-.62s0-.32-.08-.49a7,7,0,0,0,.79.07l.79,0v-.8h-1.58l-1.7,0-1.62.06-1.37.09v-1.8c.4,0,.87.06,1.4.07l1.66.07,1.69.05h1.52c0-.39,0-.7,0-.95s-.06-.5-.11-.73c.33,0,.71.06,1.14.07l1.11,0c.15,0,.25,0,.29.12s0,.17-.14.25a1.83,1.83,0,0,0-.24.19.36.36,0,0,0-.08.27v.75h4.93q0-.6,0-1c0-.26-.07-.51-.12-.74l1.37.1a7.37,7.37,0,0,0,.94,0q.22,0,.27.12c0,.1,0,.2-.15.28a1.64,1.64,0,0,0-.22.18.34.34,0,0,0-.08.25v.8c1.36,0,2.6,0,3.74-.05s2.12-.09,3-.15v1.8c-.84-.08-1.83-.14-3-.16s-2.38,0-3.74,0v.9l.42,0h.46c.23,0,.37.07.4.15s0,.2-.17.33a.89.89,0,0,0-.3.45,4.82,4.82,0,0,0-.23.9h1.43c.4,0,.75,0,1.05,0l.78,0a5.29,5.29,0,0,0,.6-.06c-.15.52-.27,1-.35,1.4a11.5,11.5,0,0,0-.18,1.19,10.31,10.31,0,0,0,0,1.1,9.86,9.86,0,0,0,.08,1.17c0,.24.09.48.15.74a4.54,4.54,0,0,0,.3.79.48.48,0,0,0,.18.21c.07,0,.15,0,.24-.11a2.36,2.36,0,0,0,.29-.63c.1-.3.21-.74.35-1.33a3,3,0,0,0,.84.78,3.37,3.37,0,0,0,.89.38,7.89,7.89,0,0,1-.93,1.89,3,3,0,0,1-.93.91,1.28,1.28,0,0,1-.9.17,2.05,2.05,0,0,1-.85-.39,2.37,2.37,0,0,1-.91-1.22,10,10,0,0,1-.42-1.84,9.76,9.76,0,0,1-.08-1.61c0-.63.08-1.35.18-2.15Zm5.74,11.68c-.8-.06-1.69-.11-2.68-.15s-2.05,0-3.21,0l1.92,1.32c.64.44,1.28.93,1.92,1.46L307,287.69a9.12,9.12,0,0,0-1-1.18l-11.46.33c-.63,0-1.12.05-1.48.1a7.53,7.53,0,0,0-1,.2,7.23,7.23,0,0,0-.29-.86,7.47,7.47,0,0,0-.44-.92l2,0c.33-.24.69-.52,1.07-.84s.73-.67,1.06-1c-1.2,0-2.31,0-3.33,0s-2,.08-2.79.16V281.9c.66.05,1.35.09,2.09.12l2.38.07c.85,0,1.78,0,2.79.05h6.64c1,0,2,0,2.81-.05l2.39-.07c.74,0,1.43-.07,2.08-.12Zm-2.93-2.48c-.93-.08-2-.14-3.19-.17s-2.66,0-4.38,0-3.17,0-4.36,0-2.25.09-3.18.17v-1.7q1.4.12,3.18.18c1.19.05,2.64.07,4.36.07s3.18,0,4.38-.07,2.26-.1,3.19-.18Zm-3.13,4c-.55-.39-1.08-.72-1.58-1l1.1-.7h-5.86a16.4,16.4,0,0,1-2.18,1.83Z"/><path class="cls-1" d="M321.11,280.64H319c.08-.71.13-1.37.16-2s0-1.3,0-2v-6c-.19.18-.4.41-.64.68s-.51.56-.79.84a3.46,3.46,0,0,0-1.61-1.37c.32-.22.61-.43.86-.64s.5-.45.75-.7.51-.56.79-.89.59-.76,1-1.26c.24-.31.44-.59.6-.82a7,7,0,0,0,.44-.68,6.53,6.53,0,0,0,.35-.7l.39-.91c.35.29.66.52.93.71a6.73,6.73,0,0,0,.88.5c.18.08.27.19.26.31s-.11.22-.31.29a1.05,1.05,0,0,0-.3.15,2.12,2.12,0,0,0-.37.34c-.14.16-.31.37-.51.65s-.44.63-.73,1.06Zm2.31-21.23c.43.16.39.37-.13.62a1.49,1.49,0,0,0-.24.14l-.28.26-.43.46c-.17.18-.37.41-.6.7s-.64.79-.92,1.11l-.77.93c-.25.29-.48.57-.72.83l-.72.81a3.33,3.33,0,0,0-.82-.62,9.07,9.07,0,0,0-1.29-.58,17.23,17.23,0,0,0,1.57-1.29,13.91,13.91,0,0,0,1.34-1.52c.48-.6.87-1.12,1.15-1.55a6.78,6.78,0,0,0,.7-1.43c.37.23.75.45,1.15.66A10,10,0,0,0,323.42,259.41Zm2.2,8.62c.2,0,.32,0,.34.06s0,.16-.11.29a1.28,1.28,0,0,0-.14.36,4.31,4.31,0,0,0-.09.72c0,.32,0,.73,0,1.24s0,1.14,0,1.89a13.74,13.74,0,0,1-.07,1.5,7.29,7.29,0,0,1-.27,1.33,9.45,9.45,0,0,1-.5,1.36c-.21.46-.46,1-.76,1.6a3.21,3.21,0,0,0-.68-.63,3.94,3.94,0,0,0-.88-.37,14.85,14.85,0,0,0,.78-1.31,6,6,0,0,0,.47-1.16,8,8,0,0,0,.22-1.24q.06-.66.06-1.53v-1.4c0-.41,0-.76,0-1.08s0-.61-.05-.88,0-.55-.06-.85a6.93,6.93,0,0,0,1,.12A4.8,4.8,0,0,0,325.62,268Zm2.79,7.42c0,.67,0,1.41,0,2.24s.09,1.65.17,2.47h-2.28c.08-.82.14-1.64.18-2.47s.05-1.57.05-2.24v-9q-.81,0-1.62.06c-.54,0-1,.07-1.42.12v-2a12.3,12.3,0,0,0,1.34.14c.5,0,1.06,0,1.7,0v-2.59c0-.45,0-.84,0-1.19s0-.66,0-1,0-.57-.05-.83-.06-.53-.09-.81a9.65,9.65,0,0,0,1.1.07,9.8,9.8,0,0,0,1-.05c.25,0,.4,0,.45.14s0,.27-.25.42a.58.58,0,0,0-.26.35,1.74,1.74,0,0,0-.06.45v5c.53,0,1,0,1.5,0s.92-.07,1.35-.14v1.13l1.34.09q.87,0,2.55,0h1.44c.39,0,.73,0,1,0l.79-.06.7-.09v2.08l-.63-.06-.73-.07-.72,0-.65,0v10.83a4.54,4.54,0,0,1-.1,1,1.21,1.21,0,0,1-.47.67,3.52,3.52,0,0,1-1,.46,15.33,15.33,0,0,1-1.83.38,4.12,4.12,0,0,0-.32-1.22,4.92,4.92,0,0,0-.81-1.16c.57.06,1,.1,1.37.12a1.78,1.78,0,0,0,.79-.09.56.56,0,0,0,.35-.37,2.75,2.75,0,0,0,.08-.72v-9.9c-.74,0-1.36,0-1.87.05s-.95.08-1.32.13v-1.16l-.67,0-.81,0-.75,0-.57,0Zm1.9-11.58c-.15-.3-.29-.57-.41-.79s-.25-.44-.38-.63-.26-.38-.4-.56-.31-.39-.49-.6l1.38-1,.54.67q.24.28.45.57l.43.61.46.71Zm.55,11.28a2,2,0,0,0,.11.87.57.57,0,0,0,.47.15q.6,0,1.05,0l1-.12a3.43,3.43,0,0,0-.28.79,4,4,0,0,0-.07.79,5.05,5.05,0,0,1-.75,0h-.61a12.1,12.1,0,0,1-1.37-.06,1.39,1.39,0,0,1-.74-.26.91.91,0,0,1-.3-.57,5,5,0,0,1-.07-1v-5.24c0-1.17,0-2-.07-2.41.31,0,.62.06.91.07a6.33,6.33,0,0,0,.87,0,.23.23,0,0,1,.27.12c.05.11,0,.2-.12.28a.68.68,0,0,0-.27.26.83.83,0,0,0-.06.32Zm7.52-12.56a10.47,10.47,0,0,0-1.27-.14c-.47,0-1.07,0-1.79,0s-1.31,0-1.79,0a10.07,10.07,0,0,0-1.26.14v-2.16a6.14,6.14,0,0,0,1.27.15c.47,0,1.06,0,1.78,0h1.22c.31,0,.57,0,.79,0a3.85,3.85,0,0,0,.55-.06l.5-.09Z"/><path class="cls-1" d="M355.83,265.74v3.66c0,.29,0,.62,0,1s0,.77.05,1.18.05.82.09,1.22.06.78.1,1.13H353.4c0-.3.06-.66.08-1.06s0-.81.08-1.23.05-.82.06-1.21,0-.73,0-1v-3.66h-5.82v1.78h-2.3q.08-.79.12-1.86c0-.71.05-1.34.05-1.87v-5.41c0-.44,0-.9-.05-1.38s-.07-.89-.12-1.21a28.84,28.84,0,0,0,2.94.19c1.35,0,3.07.07,5.18.09v-1.18c0-.58,0-1.08,0-1.49a10.26,10.26,0,0,0-.05-1.05c0-.29-.05-.53-.07-.72a2.51,2.51,0,0,0-.11-.47c.46.05.91.09,1.34.11s.86,0,1.31,0c.2,0,.32,0,.34.09s-.06.18-.26.36-.3.64-.3,1.38v2.93c2.2,0,4-.05,5.37-.09a29.68,29.68,0,0,0,3-.19c0,.17,0,.38-.05.64s0,.53,0,.82,0,.57,0,.86,0,.55,0,.77v4.81c0,.5,0,1.09,0,1.77s.06,1.28.09,1.81h-2.38v-1.53Zm-2.18-1.87V258h-5.82v5.92Zm8.17,0V258h-6v5.92Z"/><path class="cls-1" d="M375.38,253.71a1.88,1.88,0,0,0-.26.65,12.78,12.78,0,0,0-.32,1.41l-.27,1.31c-.1.5-.21,1-.33,1.56l-.36,1.64c-.13.55-.25,1.07-.37,1.55a4.11,4.11,0,0,0-1.15-.36,13.9,13.9,0,0,0-1.53-.19,15.58,15.58,0,0,0,1.63-4.17,18.43,18.43,0,0,0,.48-4.23,6.67,6.67,0,0,0,1.11.28,5.43,5.43,0,0,0,1.09.05c.32,0,.5,0,.53.1S375.58,253.53,375.38,253.71Zm14.38,8.47c-.28.89-.53,1.58-.73,2.07a3.43,3.43,0,0,1-.71,1.12,2,2,0,0,1-.92.5,12.45,12.45,0,0,1-1.44.22,13.69,13.69,0,0,1-1.51.1c-.62,0-1.25,0-1.89,0s-1.25,0-1.81-.07a9.42,9.42,0,0,1-1.21-.12,1.89,1.89,0,0,1-.67-.27,1.34,1.34,0,0,1-.46-.53,3.14,3.14,0,0,1-.26-.89,8.38,8.38,0,0,1-.09-1.34v-7.47c0-.27,0-.57,0-.89s0-.65,0-1,0-.59-.08-.86a5.34,5.34,0,0,0-.1-.65c.44.07.85.11,1.23.14a9.76,9.76,0,0,0,1.31,0c.55,0,.62.12.22.45a1.07,1.07,0,0,0-.25.36,1.5,1.5,0,0,0,0,.42v9.12a2.18,2.18,0,0,0,.16.91.85.85,0,0,0,.72.42,7.42,7.42,0,0,0,.94.07h1.19l1.24,0c.41,0,.76,0,1.06-.08a1.76,1.76,0,0,0,.67-.2,1.26,1.26,0,0,0,.46-.52,3.75,3.75,0,0,0,.34-1c.09-.44.19-1,.29-1.76a3.55,3.55,0,0,0,1,1.16A4.32,4.32,0,0,0,389.76,262.18Zm-6.19-10.55c-.25-.38-.56-.81-.92-1.29s-.76-1-1.17-1.42-.82-.91-1.23-1.34a13.05,13.05,0,0,0-1.14-1.06l2-1.56c.25.32.58.7,1,1.15l1.28,1.36q.66.71,1.32,1.35c.43.44.8.8,1.1,1.08Zm7.25,8.2a14.94,14.94,0,0,0-.7-1.57c-.29-.54-.61-1.09-1-1.64s-.72-1.08-1.1-1.59-.76-1-1.13-1.39l1.93-1.31c.32.45.68.95,1.08,1.49l1.2,1.66c.4.56.8,1.1,1.19,1.63l1.09,1.44Z"/><path class="cls-1" d="M142.45,133.73l-10.23,2.51-3,8.29-3.32.81,11.3-30,2-.48,11.2,24.51-4.82,1.18Zm-9.2-.26,8.18-2-4.1-9.14Z"/><path class="cls-1" d="M174.62,106.29l-.08,16.55c0,7.21-3.42,11.8-9.63,13.32s-11.23-1.43-11.19-8.53l.09-16.24,4.74-1.16-.1,16.17c0,5.08,2.52,7.59,6.61,6.58,4.42-1.08,6.48-4.21,6.5-9.8l.07-16.15Z"/><path class="cls-1" d="M190.89,101.92c5.66-1.39,9.76,1.13,11.17,5.15l-2.47,1.58a5.93,5.93,0,0,0-7.34-4.2c-5.7,1.39-8.76,8-6.93,15.48,1.22,5,4.47,7.19,8.34,6.24a7,7,0,0,0,5.36-6.89v-4.69l4.82-1.18,0,12.82-1.83.45-1.7-3.3a10.17,10.17,0,0,1-7,5.81c-6,1.47-11.58-1.76-13.15-8.16C178,112.34,182.93,103.87,190.89,101.92Z"/><path class="cls-1" d="M230.56,92.58l-.08,16.55c0,7.2-3.42,11.79-9.63,13.31s-11.23-1.43-11.19-8.52l.09-16.24,4.74-1.16-.1,16.16c0,5.08,2.52,7.59,6.61,6.59,4.42-1.08,6.48-4.22,6.5-9.8l.07-16.16Z"/><path class="cls-1" d="M251,107.51c-.45-1.86-1.86-2.56-4.38-2.88l-3.62-.39c-3.19-.38-5.88-1.57-6.67-4.79-1.25-5.11,2.3-9.23,7.74-10.57,4.64-1.13,8.73.53,10.56,3.57l-1.94,2.22a6.86,6.86,0,0,0-8-3.27c-3,.74-4.93,2.8-4.3,5.35.49,2,2,2.54,4.61,2.86l3.55.41c3.35.42,5.86,1.66,6.64,4.84,1.31,5.33-2.73,9.84-8.43,11.24-4.68,1.14-9.54-.38-12-3.77l1.89-2.4a8.82,8.82,0,0,0,9.45,3.49C249.23,112.66,251.71,110.47,251,107.51Z"/><path class="cls-1" d="M267,86.36l-9.64,2.36V86l24-5.89v2.7l-9.64,2.37-.13,24.42-4.75,1.16Z"/><path class="cls-1" d="M301.09,102.38l.09-21.11c-.63,1.54-3.62,4.83-5.64,6.22l-1-2a39.65,39.65,0,0,0,8.5-11l2.74-.67-.13,27.44Z"/><path class="cls-1" d="M316.37,85.75A8.58,8.58,0,0,1,322.43,80c3.94-1,7.61.89,8.66,5.16C332.37,90.38,329,95.94,323,97.4c-5.37,1.31-9.44-1.87-10.76-7.24-2.15-8.8,2.19-18.54,10.92-20.67,4.35-1.07,6.95.88,7.55,3.33a5.06,5.06,0,0,1-2.14,5.33L326.77,77a3.48,3.48,0,0,0,1.05-3.28c-.34-1.39-1.75-2.4-4.23-1.79C318.73,73.13,316,78.75,316.37,85.75Zm9.83,0c-.53-2.31-2.18-3.69-4.63-3.08-3.58.87-4.79,5.74-3.91,9.31.57,2.34,2.43,3.9,4.73,3.34C326.15,94.38,327.14,89.57,326.2,85.74Z"/><path class="cls-1" d="M340.81,77.63l14.57-3.58,0,3.07-14.57,3.57Z"/><path class="cls-1" d="M355.05,73.94l8.65-2.12v3.45L355,77.39Z"/><path class="cls-1" d="M361.92,72.45l14.57-3.57,0,3.07L361.9,75.52Z"/><path class="cls-1" d="M404.45,72.71l-.39,4.43-18.48,4.53,0-1.51,6.84-8.72c4.19-5.33,7.47-9.66,6.38-14.11-.5-2-2.22-3.06-4.74-2.44-3,.74-5.06,3.68-4.41,6.35a3.55,3.55,0,0,0,1.81,2.34l-1.54,2.08a4.07,4.07,0,0,1-3.16-3.25c-1-4.24,2.16-9,7.82-10.43,4.53-1.11,8.19.23,9.09,3.92,1.35,5.48-3.08,10.78-12.94,20.17Z"/><path class="cls-1" d="M409,66.34c-2.07-8.43,1.41-18.23,9.3-20.16,5.11-1.26,9.25,1.87,10.59,7.35,2.07,8.43-1.4,18.27-9.29,20.2C414.45,75,410.3,71.82,409,66.34Zm14.38-14c-.8-3.25-2.29-4.58-4.62-4-5.08,1.24-5.9,12.59-4.2,19.18.79,3.22,2.28,4.59,4.58,4C424.18,70.31,425,59,423.34,52.36Z"/><path class="cls-1" d="M133.06,169.69a.48.48,0,0,0-.15.25c0,.13-.14.52-.27,1.14s-.29,1.59-.5,2.88-.51,3.1-.89,5.43a37.32,37.32,0,0,1-2.79,9.51,23,23,0,0,1-5,7.14,5.06,5.06,0,0,0-1.49-1.16,10,10,0,0,0-1.86-.72,36.29,36.29,0,0,0,3.22-3.47,22.25,22.25,0,0,0,2.2-3.33,21,21,0,0,0,1.49-3.55c.38-1.24.74-2.61,1.07-4.12.25-1.18.46-2.35.64-3.53s.31-2.28.4-3.29.13-1.91.15-2.69a9.2,9.2,0,0,0-.1-1.77,13,13,0,0,0,1.79.32c.59.07,1.21.11,1.86.14.35,0,.55.08.58.26S133.36,169.49,133.06,169.69Zm21.64,21.85a12.79,12.79,0,0,0-1.71,1.68,10,10,0,0,0-1.37,2.08,32.57,32.57,0,0,1-5.34-5.39A23.63,23.63,0,0,1,143,184a29.36,29.36,0,0,1-1.61-6.92,75.87,75.87,0,0,1-.43-8.59h-3.57c-.33,0-.65,0-1,0l-1,.07-1.2.11v-3.38l1.21.13,1,.1c.33,0,.65,0,1,0h1.09c1.2,0,2.24,0,3.12,0s1.67-.11,2.37-.21c0,2.36,0,4.5.11,6.43a42.87,42.87,0,0,0,.5,5.3,25.24,25.24,0,0,0,1.11,4.4,16.59,16.59,0,0,0,1.9,3.73,18.37,18.37,0,0,0,2.91,3.27A30.11,30.11,0,0,0,154.7,191.54Z"/><path class="cls-1" d="M173.84,174a21.34,21.34,0,0,1-1.68,7.07,19.13,19.13,0,0,1-4,5.75,6.52,6.52,0,0,0-1.64-1.32,9.15,9.15,0,0,0-2-.79,16.08,16.08,0,0,0,2.88-2.74,13.08,13.08,0,0,0,1.94-3.37,19,19,0,0,0,1.09-4.34,42.64,42.64,0,0,0,.34-5.67v-9c0-1.2,0-2.18,0-2.93s-.07-1.4-.12-2l1.49.07c.54,0,1.21,0,2,.06l3,0h8.7c1.18,0,2.17,0,3,0l2-.05,1.45-.07c-.05.55-.09,1.2-.11,1.95s0,1.73,0,2.93v22.07a13.77,13.77,0,0,1-.15,2.28,2.1,2.1,0,0,1-.79,1.33,4.68,4.68,0,0,1-1.92.75,34.76,34.76,0,0,1-3.57.49,5.85,5.85,0,0,0-.39-2.11,8.33,8.33,0,0,0-1.26-2.07c1.12.21,2,.33,2.61.38a2.26,2.26,0,0,0,1.35-.2,1.31,1.31,0,0,0,.53-1,17.36,17.36,0,0,0,.09-2V174Zm.11-8.27v5.53h14.59v-5.52Zm14.59-2.63v-5.45H174v5.45Z"/><path class="cls-1" d="M221.38,155.81q4.85,0,8.42-.13t6.28-.27v3.91q-2.72-.19-6.28-.29c-2.38-.06-5.19-.1-8.42-.1V169.5c0,.42,0,.86,0,1.29s0,.93.06,1.45.05,1.12.09,1.77.08,1.4.13,2.25h-4.1c.08-.85.14-1.6.17-2.25s.07-1.24.1-1.77,0-1,.06-1.45,0-.87,0-1.29V158.93c-3.11,0-5.8.06-8.07.11s-4.28.14-6,.26v-3.91c1.78.13,3.81.22,6.07.29s5,.1,8,.13v-7.48a28.56,28.56,0,0,0-.15-3,22.72,22.72,0,0,0-.45-2.76c.73.12,1.47.22,2.22.28a13.61,13.61,0,0,0,2.11,0c.47,0,.75,0,.82.15s-.1.35-.52.6a1.15,1.15,0,0,0-.43.81,10.12,10.12,0,0,0-.14,2Z"/><path class="cls-1" d="M260.85,144.35q-5.42,0-9.3.09t-6.79.28V141q2.94.19,6.81.29c2.58.06,5.68.1,9.29.1s6.71,0,9.3-.09,4.86-.16,6.79-.28v3.68c-1.93-.12-4.19-.22-6.78-.28S264.46,144.35,260.85,144.35Zm-2.37,4.89c.33.07.46.2.4.37a.86.86,0,0,1-.51.45,3.59,3.59,0,0,0-1.17,1.26,28.67,28.67,0,0,0-1.8,3.48c-.43.93-.91,1.88-1.45,2.86s-1.12,1.92-1.73,2.85-1.24,1.81-1.86,2.63a27.92,27.92,0,0,1-1.81,2.18,9.31,9.31,0,0,0-1.69-1.13,10,10,0,0,0-2-.82,19.93,19.93,0,0,0,3.85-3.88,31.76,31.76,0,0,0,3.11-5.11c.47-.92.86-1.71,1.16-2.36s.54-1.23.72-1.72a9.09,9.09,0,0,0,.37-1.29c.08-.38.14-.75.19-1.13A23.17,23.17,0,0,0,258.48,149.24Zm2.64-17c.13.43.28.92.47,1.47l.6,1.73c.21.6.43,1.19.66,1.76s.42,1.09.6,1.55l-4,.78a15.43,15.43,0,0,0-.28-1.56c-.14-.58-.3-1.17-.49-1.76s-.39-1.16-.6-1.7a11.8,11.8,0,0,0-.66-1.37Zm5.75,14.93c.7,1,1.49,2.31,2.38,3.76s1.78,2.94,2.65,4.46,1.71,3,2.48,4.38,1.39,2.59,1.84,3.57l-3.57,1.84c-.28-.65-.63-1.44-1.07-2.35s-.91-1.89-1.43-2.93-1.06-2.11-1.63-3.2l-1.69-3.16q-.82-1.52-1.62-2.82c-.52-.86-1-1.58-1.39-2.16Z"/><path class="cls-1" d="M309.27,136c-.58-.58-1.16-1.13-1.75-1.66s-1.21-1-1.86-1.54l2.79-1.66c1,.83,1.84,1.58,2.59,2.26s1.43,1.3,2,1.86,1.14,1.1,1.63,1.6,1,1,1.45,1.51l-2.71,2.51q-.53-.71-1.05-1.35l-1.05-1.28c-1.36.1-2.62.18-3.8.25s-2.29.13-3.35.2v5c2.21,0,4.1-.06,5.68-.11s3-.13,4.28-.23v3.35c-1.27-.1-2.7-.18-4.28-.23s-3.47-.09-5.68-.11v4.66q4.85,0,8.31-.11c2.3-.05,4.36-.14,6.16-.26v3.65c-1-.08-2-.14-3.16-.19s-2.35-.1-3.66-.14-2.75-.06-4.31-.07-3.26,0-5.11,0c-3.66,0-6.79,0-9.38.1s-4.86.18-6.79.3v-3.64c1.82.12,3.91.22,6.26.28s5.14.1,8.4.1v-4.66c-4.51,0-8.1.11-10.75.33v-3.35q2.07.2,4.62.27t6.13.08v-4.85c-2.08.12-3.8.23-5.17.33s-2.47.19-3.31.27-1.46.14-1.88.2a5.57,5.57,0,0,0-.84.17,10.17,10.17,0,0,0-.3-1.64,9.36,9.36,0,0,0-.6-1.63h1.58c.52,0,1.05,0,1.58,0a40.24,40.24,0,0,0,4.34-4.32,21.66,21.66,0,0,0,2.73-4A15.39,15.39,0,0,0,301,129a13,13,0,0,0,1.51.38c.5.07.76.19.77.36s-.27.37-.85.62a5.14,5.14,0,0,0-.94.65,16.18,16.18,0,0,0-1.31,1.19c-.56.57-1.21,1.22-2,1.93s-1.65,1.51-2.71,2.39q2.71-.07,6-.19T309.27,136Zm-7-7.94q-4.85,0-8.27.09c-2.28.06-4.28.16-6,.28V125q2.63.19,6.05.28c2.28.07,5,.1,8.23.1,1.63,0,3.14,0,4.52,0s2.65,0,3.81-.07l3.24-.11c1,0,1.92-.1,2.8-.17v3.42c-.87-.07-1.79-.13-2.76-.17l-3.19-.11c-1.17,0-2.44-.07-3.82-.08Z"/><path class="cls-1" d="M358.43,142.07c-1-.07-2-.13-3.1-.16l-3.55-.12c-1.28,0-2.67-.06-4.18-.08l-5,0-5,0c-1.5,0-2.9,0-4.17.07l-3.56.11c-1.09,0-2.12.1-3.1.17v-3.83c1,.07,2,.13,3.1.17l3.56.11c1.28,0,2.67.07,4.17.08l5,0c1.81,0,3.46,0,5,0s2.89,0,4.17-.07l3.55-.11c1.09,0,2.13-.09,3.1-.17Zm-3.64-21.35c-1.5-.1-3.22-.17-5.15-.21s-4.28-.06-7.06-.06-5.14,0-7.07,0-3.65.11-5.15.21v-3.57c1.5.1,3.22.17,5.15.21s4.28.06,7.07.06,5.13,0,7.06-.06,3.65-.1,5.16-.2Z"/><path class="cls-1" d="M385,115.68c3.24,0,6-.06,8.43-.13s4.47-.15,6.27-.28v3.91c-1.8-.12-3.9-.22-6.28-.28s-5.18-.1-8.42-.1v10.57c0,.42,0,.86,0,1.29s0,.92.05,1.45.06,1.12.1,1.77.08,1.4.13,2.25h-4.1c.07-.85.13-1.6.17-2.25s.07-1.24.09-1.77.05-1,.06-1.45,0-.87,0-1.29V118.8q-4.65,0-8.06.11t-6,.26v-3.91c1.78.13,3.8.22,6.07.29s4.94.1,8,.13V108.2a28.56,28.56,0,0,0-.15-3,23.22,23.22,0,0,0-.45-2.77c.73.13,1.46.22,2.22.29a13.49,13.49,0,0,0,2.1,0c.48-.05.75,0,.83.15s-.1.35-.53.6a1.19,1.19,0,0,0-.43.81,10.31,10.31,0,0,0-.13,2Z"/><path class="cls-1" d="M415.8,125.23H412c.13-1.28.21-2.45.25-3.52s.06-2.2.06-3.4V100.68c0-1.06,0-2.05-.1-3a22.33,22.33,0,0,0-.24-2.28l1.71.14c.59,0,1.31.06,2.16.07l3.14,0,4.68,0c1.88,0,3.45,0,4.72,0l3.2,0c.86,0,1.57,0,2.14-.08s1.09-.08,1.6-.13a17.39,17.39,0,0,0-.23,2.18c-.05.93-.08,2-.08,3.09v18.16c0,1.05,0,2.06.07,3s.12,2,.22,3.1h-3.79v-2.48H415.81Zm0-5.68h15.75v-9.29H415.81Zm15.76-20.93H415.81v8.72h15.75Z"/><rect class="cls-2" width="554.67" height="441.34"/><path class="cls-1" d="M169.2,360.11l0,1.35-1.88,3.61a32.26,32.26,0,0,0-3.93,15l-3.09.76a38.31,38.31,0,0,1,5.17-15.27l.86-1.58-9.35,2.3,0-3.13Z"/><path class="cls-1" d="M182,370.32,175,372l-2.07,5.66-2.27.56,7.7-20.49,1.35-.33,7.64,16.72L184,375Zm-6.27-.18,5.58-1.37-2.8-6.23Z"/><path class="cls-1" d="M203.46,361.18l-2.09,2.68,0,6.84-3.23.8.07-18.51,3.24-.79,0,9.12L210,350.09l2.77-.68-7.21,9.14,8,9.16-3.64.9Z"/><path class="cls-1" d="M217,348.37l12.31-3,0,1.88-9.06,2.22,0,6.14,6.63-1.63,0,1.88-6.62,1.63,0,6.71,9.47-2.32v1.89l-12.72,3.13Z"/><path class="cls-1" d="M246.23,341.19l2-.51-.09,18.57-1.22.3-11.21-12.3,0,15-2,.5.08-18.51,3.06-.75,9.35,10.43Z"/><path class="cls-1" d="M265.91,336.35l2-.5-.09,18.56-1.22.3-11.21-12.3,0,15-2.05.5.08-18.5,3.06-.76,9.35,10.44Z"/><path class="cls-1" d="M273.11,334.58l12.31-3,0,1.88-9.07,2.22,0,6.14,6.63-1.63,0,1.88-6.62,1.63,0,6.71,9.47-2.33V350L273,353.09Z"/><path class="cls-1" d="M289.8,349l.08-18.51,5.43-1.33c5.13-1.26,8.73.81,9.72,4.85,1.6,6.5-2.57,11.88-9,13.46Zm11.84-14.16c-.81-3.29-2.83-4.77-6.3-3.92l-2.26.55-.08,15,2.69-.66C300.4,344.59,303,340.36,301.64,334.81Z"/><path class="cls-1" d="M320.24,323l2.42-.59-6.61,12.32,0,7.79-3.23.8,0-7.8-6.51-9.1,3.34-.82L315,333Z"/><path class="cls-1" d="M336.64,337.46l-3.24.8.07-18.51,7.2-1.77c3.17-.78,5.8-.08,6.43,2.51.9,3.64-2.37,6.05-5,6.79v.06c2.2-.31,3.32.4,4,2.29l.91,2.4a7.08,7.08,0,0,0,1.51,2.53l-3.43.84a9.69,9.69,0,0,1-1.15-2.3l-1-2.71c-.57-1.68-1.3-2.17-3.31-1.67l-2.87.7Zm0-9.84,3.06-.75c3-.73,4.65-2.57,4-5.38-.39-1.59-1.74-2-3.93-1.49l-3.09.76Z"/><path class="cls-1" d="M360.22,331.93a7.32,7.32,0,0,1-9.28-5.59,10.56,10.56,0,0,1,7.36-13,7.31,7.31,0,0,1,9.27,5.57A10.54,10.54,0,0,1,360.22,331.93Zm-.4-1.62c3.81-.93,5.4-6.5,4.24-11.21-.8-3.26-2.73-4.77-5.37-4.12-3.81.93-5.37,6.5-4.22,11.21C355.27,329.45,357.2,331,359.82,330.31Z"/><path class="cls-1" d="M381.16,321.37l-7,1.71-2.07,5.66-2.26.56,7.7-20.49,1.34-.33,7.65,16.72-3.29.81Zm-6.28-.17,5.58-1.38-2.8-6.23Z"/><path class="cls-1" d="M390,324.36l.08-18.51,5.43-1.33c5.13-1.26,8.73.81,9.72,4.85,1.6,6.5-2.57,11.88-9,13.47Zm11.84-14.16c-.81-3.29-2.83-4.77-6.3-3.92l-2.26.56-.08,15,2.69-.66C400.55,320,403.16,315.75,401.79,310.2Z"/></g></g></svg>