<svg xmlns="http://www.w3.org/2000/svg" viewBox="0 0 555 87.8"><defs><style>.cls-1{fill:#fff;}.cls-2{fill:none;}</style></defs><title>email_1</title><g id="Layer_2" data-name="Layer 2"><g id="Layer_1-2" data-name="Layer 1"><path class="cls-1" d="M235.68,45.24l12.9-3.16,0,2-9.5,2.34,0,6.43L246,51.1l0,2L239,54.78l0,7,9.92-2.44,0,2L235.6,64.64Z"/><path class="cls-1" d="M267.87,37.33l4.23-1-.05,19.4-3.34.82.06-16.21-6.18,17.8-1.2.29-6-14.8-.06,16.21-2.14.53.05-19.4,4.18-1,5.28,12.79Z"/><path class="cls-1" d="M287.48,46.5l-7.31,1.79L278,54.22l-2.38.59,8.07-21.47,1.41-.35,8,17.52-3.44.85Zm-6.57-.19,5.84-1.43-2.93-6.53Z"/><path class="cls-1" d="M300.1,48.8l-3.4.83.08-19.4,3.39-.83Z"/><path class="cls-1" d="M305.6,28.06l3.4-.83-.07,17.4,9.24-2.27v2l-12.63,3.1Z"/><rect class="cls-2" width="555" height="87.8"/></g></g></svg>