<svg xmlns="http://www.w3.org/2000/svg" viewBox="0 0 554.27 137.11"><defs><style>.cls-1{fill:#fff;}.cls-2{fill:none;}</style></defs><title>eunice</title><g id="Layer_2" data-name="Layer 2"><g id="Layer_1-2" data-name="Layer 1"><path class="cls-1" d="M176,66.05l12.77-3.14,0,2-9.4,2.32,0,6.36,6.88-1.69,0,2-6.87,1.69,0,7L189.14,80l0,2L176,85.25Z"/><path class="cls-1" d="M207.89,58.22l0,11.72c0,5.1-2.42,8.34-6.81,9.42s-7.95-1-7.92-6l0-11.5,3.36-.82-.06,11.44c0,3.59,1.78,5.37,4.68,4.66,3.12-.77,4.58-3,4.59-6.94l0-11.44Z"/><path class="cls-1" d="M226,53.78l2.11-.52L228,72.52l-1.26.31L215.09,60.07l0,15.58-2.12.52L213,57l3.18-.79L225.89,67Z"/><path class="cls-1" d="M236.7,70.32l-3.36.83.08-19.2,3.36-.83Z"/><path class="cls-1" d="M248.42,48c4-1,6.81.82,7.81,3.67l-1.75,1.12a4.16,4.16,0,0,0-5.17-3c-4,1-6,5.64-4.72,10.92.84,3.43,3.16,5,5.75,4.42s4-2.21,4.82-5l1.66.74a8.86,8.86,0,0,1-6.56,6.41A7.47,7.47,0,0,1,241,61.5C239.47,55.48,242.79,49.37,248.42,48Z"/><path class="cls-1" d="M260.42,45.31l12.77-3.13v2l-9.41,2.31,0,6.36,6.88-1.69,0,2-6.87,1.69,0,7,9.82-2.42,0,2-13.2,3.25Z"/><path class="cls-1" d="M290.74,39.78l-6.82,1.68V39.54l17-4.17v1.91L294.1,39,294,56.24l-3.36.83Z"/><path class="cls-1" d="M314.13,46.23c-.32-1.32-1.32-1.81-3.1-2l-2.56-.28c-2.26-.26-4.16-1.11-4.72-3.39-.89-3.61,1.62-6.53,5.47-7.48,3.29-.81,6.18.37,7.47,2.52l-1.36,1.57a4.86,4.86,0,0,0-5.67-2.31c-2.12.52-3.48,2-3,3.79.35,1.42,1.4,1.8,3.26,2l2.51.29c2.38.29,4.16,1.17,4.71,3.42.93,3.77-1.93,7-6,8-3.3.81-6.75-.26-8.46-2.66L304,48a6.24,6.24,0,0,0,6.69,2.47C312.89,49.88,314.65,48.32,314.13,46.23Z"/><path class="cls-1" d="M331.2,41.76,324,43.54l-2.15,5.87-2.35.58,8-21.25,1.4-.35,7.93,17.34-3.41.84Zm-6.51-.18,5.79-1.42-2.9-6.47Z"/><path class="cls-1" d="M353.35,22.48l2.12-.52-.1,19.26-1.26.31L342.48,28.77l0,15.58-2.12.52.08-19.21,3.18-.78,9.7,10.83Z"/><path class="cls-1" d="M367.21,18.8c4-1,6.91.8,7.91,3.65l-1.75,1.12a4.19,4.19,0,0,0-5.2-3c-4,1-6.19,5.68-4.9,11,.87,3.52,3.17,5.09,5.91,4.42A5,5,0,0,0,373,31.09V27.77l3.41-.84,0,9.08-1.29.32L373.87,34a7.21,7.21,0,0,1-4.93,4.12,7.47,7.47,0,0,1-9.31-5.77C358.12,26.19,361.58,20.19,367.21,18.8Z"/><path class="cls-1" d="M240.82,85.44a12.49,12.49,0,0,0,.91-1.74,20.51,20.51,0,0,0,.82-2.14c.49.2,1,.37,1.55.53a8,8,0,0,0,1.37.3c.14,0,.22.07.23.17s-.09.19-.28.28a5.07,5.07,0,0,0-1.1.85,14.77,14.77,0,0,0-1.61,1.75c1.5,0,2.81,0,3.91-.07s2.12-.09,3.06-.16c-.07.56-.13,1.26-.16,2.08s-.06,1.63-.06,2.41,0,1.69,0,2.45.09,1.49.18,2.18q-1-.08-2-.12c-.7,0-1.46,0-2.29-.06l-2.7,0-3.27,0q-3.6,0-6,.06c-1.63,0-3.05.08-4.26.16.07-.66.13-1.36.16-2.11s.06-1.57.06-2.47c0-.37,0-.77,0-1.2s0-.84-.05-1.25,0-.79-.08-1.14-.05-.67-.07-.93Q233.21,85.5,240.82,85.44ZM231.18,87v5.5h7V87Zm2.32,19.23h-2.26a9.47,9.47,0,0,0,.17-1.54c0-.62,0-1.36,0-2.21V99c0-.51,0-1.07,0-1.67s-.09-1.17-.16-1.68c.37,0,.75.07,1.14.09s.88,0,1.47.07l2.15,0h6.41l2.16,0c.58,0,1.07,0,1.45-.07s.75-.06,1.1-.09c0,.18-.06.39-.09.65s0,.54-.05.84,0,.62,0,.94,0,.64,0,.92v3.78c0,.41,0,.92,0,1.53s.07,1.19.14,1.74h-2.23V104.9H233.5Zm.4-14.92c-.09-.59-.17-1.07-.25-1.45a9.51,9.51,0,0,0-.31-1.11l2.21-.42c.14.46.26.88.37,1.27s.21.84.32,1.33Zm1.09-6.1a13.14,13.14,0,0,0-.77-1.37,12.15,12.15,0,0,0-.83-1.1l2.21-1.12c.34.46.65.9.93,1.3s.61.86,1,1.33Zm9.9,12.27H233.5v2h11.39Zm0,3.54H233.5v2.21h11.39Zm2.69-8.52V87h-7.35v5.5ZM245.53,89c.17,0,.26.11.26.2s-.12.19-.37.28a1.32,1.32,0,0,0-.29.15,1.59,1.59,0,0,0-.31.32,6.87,6.87,0,0,0-.42.65c-.17.28-.38.67-.63,1.14a4.85,4.85,0,0,0-.93-.35,5.17,5.17,0,0,0-1-.2c.16-.22.3-.42.43-.62a4.38,4.38,0,0,0,.33-.65,8.41,8.41,0,0,0,.28-.81c.09-.3.19-.66.29-1.06.46.24.88.44,1.25.59A5.9,5.9,0,0,0,245.53,89Z"/><path class="cls-1" d="M262.43,82.29l2.65-.07c.75,0,1.44-.07,2.06-.12v2.13l-2.2-.15L262.11,84c0,.11-.07.22-.09.32a2.11,2.11,0,0,1-.1.3c.39.17.81.38,1.26.61l1.33.7c.44.24.86.48,1.25.72s.71.45,1,.63l-1.33,1.57a21.38,21.38,0,0,0-1.94-1.49A25.9,25.9,0,0,0,261.21,86a9.52,9.52,0,0,1-2.09,2.25,23.54,23.54,0,0,1-3.21,2.09,6.57,6.57,0,0,0-.74-.87,9.56,9.56,0,0,0-1-.78,14.87,14.87,0,0,0,4-2.21A5.87,5.87,0,0,0,260,84c-1.32,0-2.43.06-3.36.11l-2.5.16v-2.1q1.2.08,2.64.12c.95,0,2.12,0,3.51,0,0-.36.06-.73.09-1.13s.05-.87.07-1.4h-2.66q-.4.61-.75,1l-.66.84a3.13,3.13,0,0,0-.79-.63,4.15,4.15,0,0,0-1-.46A12,12,0,0,0,256.78,78,12.4,12.4,0,0,0,258,75.1a6.74,6.74,0,0,0,1.14.55,8,8,0,0,0,1.25.38c.2,0,.29.1.29.18s-.12.14-.37.2a1.41,1.41,0,0,0-.52.38,6.47,6.47,0,0,0-.86,1.29h3.62c.8,0,1.54,0,2.23,0s1.24-.08,1.65-.13v1.94q-.63-.06-1.65-.09c-.67,0-1.39,0-2.15,0,0,.57-.07,1-.1,1.45S262.47,82,262.43,82.29ZM260.54,98.2v1.62h-2.37c.09-.58.15-1.1.19-1.55s.05-1,.05-1.59v-5.5c0-.47,0-.87,0-1.2a9.41,9.41,0,0,0-.07-1c.22,0,.59,0,1.12,0l1.85,0,2.25,0h4.65l2.24,0,1.8,0c.5,0,.85,0,1.05,0a6.81,6.81,0,0,0-.08.88c0,.33,0,.76,0,1.28v5.5c0,.61,0,1.15.05,1.64s.1,1,.19,1.5H271V98.2ZM271,92.77V90.88H260.54v1.89Zm0,3.73V94.42H260.54V96.5Zm5.32-8.92-.75,0-.78,0h-5.26l-.78,0c-.24,0-.51,0-.81.08.05-.51.09-1.21.11-2.09s0-1.8,0-2.78,0-1.87,0-2.73-.06-1.54-.11-2.06c.21,0,.43.06.65.08l.8,0q.46,0,1.11,0h3.26l1.13,0,.79,0c.21,0,.42,0,.64-.08,0,.53-.07,1.22-.08,2.08s0,1.75,0,2.71,0,1.9,0,2.78S276.23,87.09,276.27,87.58ZM274,80.05H270.2v5.54H274Z"/><path class="cls-1" d="M287.24,83.05a1.8,1.8,0,0,1-1.09-1.73V79.83A5.94,5.94,0,0,0,286,78.5c.41,0,.82.09,1.23.1a6.39,6.39,0,0,0,1,0,.32.32,0,0,1,.31.09q.09.12-.12.33a1.69,1.69,0,0,0-.2.23.43.43,0,0,0-.07.28V81.1a.54.54,0,0,0,.32.51,2.78,2.78,0,0,0,1,.21l.81.06.78,0H292l1,0c.26,0,.48,0,.65-.08a.73.73,0,0,0,.41-.23,1.28,1.28,0,0,0,.27-.55c.07-.24.15-.59.24-1a6.36,6.36,0,0,0,1,.65,8.72,8.72,0,0,0,1.14.46c-.26.54-.49,1-.67,1.28a2.49,2.49,0,0,1-.6.72,1.79,1.79,0,0,1-.76.32,6.84,6.84,0,0,1-1.13.08c-.8,0-1.51,0-2.14,0s-1.29,0-2-.08c-.2.2-.39.4-.57.61s-.38.42-.57.61h4.81c1.19,0,2.29,0,3.31-.06s1.83-.11,2.41-.2a17.43,17.43,0,0,1-2.45,2.91,14.29,14.29,0,0,1-2.84,2.12c.58.16,1.18.3,1.79.42s1.27.23,2,.32,1.46.16,2.28.21,1.72.08,2.71.08c-.14.16-.26.31-.36.44a2.61,2.61,0,0,0-.26.47,5.31,5.31,0,0,0-.22.61c-.06.23-.13.52-.2.85q-1.49-.15-2.76-.36c-.85-.13-1.67-.29-2.45-.48s-1.55-.4-2.3-.65-1.53-.54-2.33-.88c-.8.36-1.58.67-2.36.94s-1.57.49-2.4.69-1.73.37-2.68.52-2,.28-3.12.41q-.09-.31-.18-.57a2.9,2.9,0,0,0-.21-.47,4.73,4.73,0,0,0-.29-.44l-.42-.52a36.61,36.61,0,0,0,5.3-.44,22.07,22.07,0,0,0,4.26-1.07,10.82,10.82,0,0,1-1.87-1.2A8.94,8.94,0,0,1,286,86.75c-.66.55-1.33,1.08-2,1.61s-1.42,1-2.16,1.47a4.55,4.55,0,0,0-.75-.94,5.42,5.42,0,0,0-1-.76,19.17,19.17,0,0,0,1.88-.88,17.82,17.82,0,0,0,1.74-1.08,18.39,18.39,0,0,0,1.72-1.37C286,84.29,286.6,83.7,287.24,83.05Zm2.95-4.93a15.22,15.22,0,0,1,1.87.9,8.57,8.57,0,0,1,1.51,1l-1.43,1.36a8.9,8.9,0,0,0-3.2-2.1l.24-.59a.6.6,0,0,0,.08-.21.84.84,0,0,1,.08-.19.6.6,0,0,0,.08-.19h-7.5v2.27h-2.05v-4c.62,0,1.35.07,2.18.09s1.74,0,2.72,0a7.51,7.51,0,0,0-.79-1.11,10.47,10.47,0,0,0-1-1l2-1.17c.36.33.68.67,1,1a11.76,11.76,0,0,1,1,1.32l-1.78,1h5.11a9.22,9.22,0,0,0-.61-1.37,14.41,14.41,0,0,0-.94-1.47l2.29-.69c.3.4.6.85.89,1.33a10.67,10.67,0,0,1,.74,1.41l-1.81.79h3.24a11.44,11.44,0,0,0,1.24-1.88,13.63,13.63,0,0,0,.84-2.11,9.86,9.86,0,0,0,1.4.58,8.63,8.63,0,0,0,1.15.3c.14,0,.22.1.23.2s-.05.19-.17.28a6.82,6.82,0,0,0-1.09,1c-.48.49-1,1-1.49,1.66,1.29,0,2.35,0,3.16,0s1.57-.06,2.26-.11v3.73h-2.05V78.12Zm10-6.65c.17.16.25.3.22.43s-.16.17-.41.13-.65,0-1,0a9.25,9.25,0,0,0-1.2.08c-.46,0-1.08.11-1.86.17l-2.61.2-3.05.23-3.2.22C286,73,285,73,284,73.07l-2.66.13a6.45,6.45,0,0,0-.19-1,3.87,3.87,0,0,0-.34-.85c.92,0,1.89,0,2.92,0s2.05-.07,3.05-.12l2.9-.17c.93-.07,1.77-.13,2.51-.2.55-.06,1.12-.13,1.71-.22s1.15-.18,1.71-.29,1.08-.22,1.56-.33.89-.23,1.22-.33a10.27,10.27,0,0,0,.87,1A11.68,11.68,0,0,0,300.15,71.47ZM285.51,79.8c-.21.36-.44.72-.68,1.09s-.48.74-.73,1.09-.49.7-.73,1-.46.6-.65.83l-1.57-1c.23-.26.47-.57.73-.92s.5-.69.72-1,.42-.69.61-1,.33-.63.44-.88Zm5.78,8.84a14,14,0,0,0,1.82-1.06,20.76,20.76,0,0,0,1.66-1.26h-7a11.79,11.79,0,0,0,1.68,1.33A12.89,12.89,0,0,0,291.29,88.64Zm8.14-5.43c-.21-.32-.43-.62-.65-.91a8.3,8.3,0,0,0-.76-.82c-.29-.27-.62-.54-1-.83l-1.34-1,1.38-1.3c.75.53,1.45,1.08,2.13,1.64s1.31,1.12,1.91,1.69Z"/><path class="cls-1" d="M307.34,68.45c-.09,1.12-.18,2.29-.28,3.51s-.2,2.37-.31,3.43l-2.23,0a19.53,19.53,0,0,0,.61-3.36,25.21,25.21,0,0,0,.08-3.48Zm3.75-4.55a.91.91,0,0,0-.34.52,2.27,2.27,0,0,0-.14.76V82.6c0,.32,0,.68,0,1.07s0,.8,0,1.22,0,.85.06,1.28.06.83.1,1.22H308.3q0-.58.09-1.23c0-.44.05-.87.08-1.29s0-.84.07-1.23,0-.74,0-1.06V66.48c0-.73,0-1.35-.05-1.88s-.09-1.1-.16-1.74a10.07,10.07,0,0,0,1.28.2,8.05,8.05,0,0,0,1.17,0c.42,0,.68,0,.77.2S311.5,63.65,311.09,63.9ZM312.42,72c-.12-.34-.24-.65-.36-.95s-.23-.58-.34-.86-.24-.58-.38-.88-.28-.65-.46-1l1.67-.85c.39.71.73,1.33,1,1.86s.57,1.15.89,1.84Zm13.25-1.17q-.62-.88-1.29-1.77c-.45-.6-.85-1.11-1.21-1.53l1.6-1c.39.43.79.9,1.21,1.41s.82,1,1.22,1.57.78,1.06,1.13,1.57.66,1,.91,1.41l-1.84,1.09a2,2,0,0,0-.24-.54,8.13,8.13,0,0,0-.45-.73q-3.09.18-5.13.33c-1.37.1-2.51.19-3.41.29s-1.63.2-2.18.31a11.23,11.23,0,0,0-1.47.37,8.07,8.07,0,0,0-.22-1.13,6.81,6.81,0,0,0-.41-1.08,5.4,5.4,0,0,0,.61,0h.72a27.87,27.87,0,0,0,2.34-3.79,51.57,51.57,0,0,0,2.18-5,6.32,6.32,0,0,0,1.12.88,7.06,7.06,0,0,0,1.3.63c.34.13.49.27.47.42s-.24.24-.63.28a1.55,1.55,0,0,0-.64.44,4.82,4.82,0,0,0-.9,1.18c-.22.35-.45.74-.72,1.16l-.84,1.27c-.29.44-.59.86-.89,1.28s-.59.8-.85,1.16ZM317.5,87.23h-2.36c.08-.67.16-1.35.21-2s.08-1.38.08-2.07v-4.9c0-.51,0-.94,0-1.27a8.48,8.48,0,0,0-.15-1c.29,0,.58,0,.88.06l1.1,0c.44,0,1,0,1.64,0h5c.65,0,1.21,0,1.66,0l1.1,0c.29,0,.56,0,.83-.06a5.27,5.27,0,0,0-.15.9c0,.34,0,.8,0,1.38v4.15c0,.71,0,1.45.1,2.21s.13,1.48.22,2.13h-2.42V84.47H317.5Zm7.64-9.34H317.5v4.69h7.64Z"/><rect class="cls-2" width="554.27" height="137.11"/></g></g></svg>