<svg xmlns="http://www.w3.org/2000/svg" viewBox="0 0 553.48 137.11"><defs><style>.cls-1{fill:none;}.cls-2{fill:#fff;}</style></defs><title>exhibition_by</title><g id="Layer_2" data-name="Layer 2"><g id="Layer_1-2" data-name="Layer 1"><rect class="cls-1" width="553.48" height="137.11"/><path class="cls-2" d="M176.19,89.13l-6.82,1.67-2,5.53-2.22.55,7.52-20,1.32-.32,7.47,16.34-3.21.79ZM170.05,89l5.45-1.34-2.73-6.09Z"/><path class="cls-2" d="M197,71l2-.49L199,88.62l-1.19.29-11-12,0,14.67-2,.49L184.85,74l3-.73L197,83.42Z"/><path class="cls-2" d="M211.25,67.47l12-3v1.83l-8.86,2.18,0,6,6.48-1.59,0,1.83-6.47,1.59,0,6.56,9.26-2.27V82.5l-12.44,3.06Z"/><path class="cls-2" d="M225.64,82l6.79-11.14-6.06-7.11,3.43-.85,4.57,5.36,4.54-7.59,2.51-.62-5.89,9.58,7,8.22-3.43.84-5.48-6.45-5.47,9.14Z"/><path class="cls-2" d="M245.74,59l3.17-.78,0,7.86,8.88-2.19,0-7.85,3.16-.78,0,18.08-3.16.78,0-8.42-8.89,2.18,0,8.43-3.17.78Z"/><path class="cls-2" d="M269.11,71.33l-3.16.78L266,54l3.16-.78Z"/><path class="cls-2" d="M274.15,70.09,274.22,52l6.43-1.58c3.11-.76,5.5-.09,6.08,2.25.73,3-1.64,5.21-4.28,6v0c2.22-.41,4.45.33,5,2.4.9,3.68-2.36,6.26-6.26,7.22Zm3.19-9.17,0,6.61,3.1-.76c2.7-.66,4.45-2.26,3.78-5-.41-1.66-1.71-2.14-4.05-1.56Zm0-1.79,2.61-.64c2.46-.6,4.21-2.19,3.56-4.82-.36-1.46-1.53-1.82-3.5-1.34l-2.63.65Z"/><path class="cls-2" d="M294.47,65.1l-3.16.77.07-18.09,3.17-.77Z"/><path class="cls-2" d="M304.58,46.35l-6.43,1.58V46.12l16-3.93V44l-6.43,1.58-.07,16.28-3.17.78Z"/><path class="cls-2" d="M320.91,58.6l-3.17.78.07-18.09,3.17-.78Z"/><path class="cls-2" d="M334,55.65a7.15,7.15,0,0,1-9.06-5.46,10.32,10.32,0,0,1,7.19-12.67A7.14,7.14,0,0,1,341.15,43,10.3,10.3,0,0,1,334,55.65Zm-.39-1.58c3.73-.92,5.28-6.36,4.15-11-.78-3.19-2.67-4.66-5.25-4-3.72.92-5.25,6.35-4.12,11C329.13,53.22,331,54.7,333.57,54.07Z"/><path class="cls-2" d="M357.37,31.57l2-.49-.08,18.14-1.19.3-11-12,0,14.68-2,.49.07-18.09,3-.74L357.31,44Z"/><path class="cls-2" d="M371.51,46.17l.07-18.09L378,26.5c3.11-.77,5.5-.09,6.07,2.25.73,3-1.63,5.2-4.27,6v0c2.22-.42,4.45.33,4.95,2.4.91,3.68-2.36,6.26-6.25,7.22ZM374.7,37l0,6.62,3.09-.76c2.71-.66,4.46-2.26,3.79-5-.41-1.66-1.71-2.14-4.05-1.56Zm0-1.78,2.61-.64c2.45-.6,4.21-2.19,3.56-4.82-.36-1.46-1.53-1.82-3.5-1.34l-2.63.65Z"/><path class="cls-2" d="M400.18,21.05l2.36-.58-6.46,12.05v7.61l-3.17.78,0-7.62-6.37-8.89,3.27-.81L395,30.87Z"/><path class="cls-2" d="M223.13,97.67c-.35-.27-.74-.54-1.17-.83s-.9-.58-1.44-.9l1.15-1.3q1.56.94,2.79,1.8c.81.57,1.63,1.17,2.45,1.81l-1.5,1.6a4.32,4.32,0,0,0-.7-.8l-8.85.33a14,14,0,0,0-1.48.13,4.55,4.55,0,0,0-.9.22l.15.06a.47.47,0,0,1,.15.06c.25.1.37.2.36.29s-.11.18-.31.26a2.52,2.52,0,0,0-.6.34,1.91,1.91,0,0,0-.43.42c-.22.26-.47.55-.75.86s-.58.61-.88.89l4-.13a8.19,8.19,0,0,0-1-1.32l1.48-1c.27.37.53.75.8,1.16s.53.84.78,1.27a7.84,7.84,0,0,0,.76-1.42,8.19,8.19,0,0,0,.44-1.46,5,5,0,0,0,.48.26l.55.28.54.25.46.18c.22.09.32.18.31.27s-.1.18-.28.26a1.62,1.62,0,0,0-.46.33c.19.26.37.52.56.77a6,6,0,0,0,.62.73l.33,0a14.9,14.9,0,0,0,1.06-2.17,18.86,18.86,0,0,0,.62-1.82,5.68,5.68,0,0,0,.84.51,6.66,6.66,0,0,0,1,.42c.27.08.4.18.4.29s-.11.19-.32.26a1.73,1.73,0,0,0-.58.34,1.8,1.8,0,0,0-.4.46,9.15,9.15,0,0,1-1.08,1.58l3.79-.35a10.1,10.1,0,0,0-1.33-1.25l1.38-1.11c.58.59,1.13,1.18,1.64,1.77s1,1.18,1.46,1.77l-1.7,1.33a8.74,8.74,0,0,0-.53-1.16l-3.88.33-1.18.15a13.06,13.06,0,0,0,3.76,1.9,22.39,22.39,0,0,0,4.31.93,6.06,6.06,0,0,0-.68,1,7.28,7.28,0,0,0-.45,1.29c-.87-.27-1.62-.52-2.26-.76s-1.23-.48-1.76-.72a15.5,15.5,0,0,1-1.47-.74c-.45-.26-.91-.54-1.4-.86a14.35,14.35,0,0,1-2-1.57,13.52,13.52,0,0,1-1.69-1.94,9.36,9.36,0,0,1-1.49,1.8,13.53,13.53,0,0,1-2.24,1.71,26.88,26.88,0,0,1-3.07,1.63c-1.17.53-2.49,1.06-4,1.58a5.75,5.75,0,0,0-.31-1.07,3.5,3.5,0,0,0-.62-.91,14.51,14.51,0,0,0,2.43-.53,23.45,23.45,0,0,0,2.36-.86,19.41,19.41,0,0,0,2.09-1.06,10.17,10.17,0,0,0,1.64-1.14.7.7,0,0,1-.06-.17.47.47,0,0,0-.06-.15l-4.41.55a8.26,8.26,0,0,0-1.14.2,3.59,3.59,0,0,0-.82.32,11.51,11.51,0,0,0-.34-1.29,2.83,2.83,0,0,0-.43-.83l1,0a14.57,14.57,0,0,0,1.4-2,9,9,0,0,0,.95-2.13l.35.25c.12.09.25.17.38.25-.1-.31-.2-.6-.31-.87s-.24-.54-.39-.83h2.15a19.93,19.93,0,0,0,3.16-4.26,3.85,3.85,0,0,0,1.76.93c.35.1.53.24.54.41s-.13.28-.39.31a1.78,1.78,0,0,0-.58.22,3.44,3.44,0,0,0-.68.59,12.39,12.39,0,0,1-.89.9l-1,.93Zm3.93,13.39c.24.2.33.35.28.45s-.19.13-.43.1a1.94,1.94,0,0,0-1.28.47,29.6,29.6,0,0,1-2.85,1.78,28.63,28.63,0,0,1-3,1.41,22.08,22.08,0,0,1-3.79,1.11q-2,.42-4.53.69a11,11,0,0,0-.58-1,5.1,5.1,0,0,0-.68-.84,16.9,16.9,0,0,0,2,0c.72,0,1.48-.15,2.28-.28a24.27,24.27,0,0,0,2.45-.55,24.52,24.52,0,0,0,2.5-.85,17.38,17.38,0,0,0,1.86-.87,16,16,0,0,0,1.72-1,15,15,0,0,0,1.44-1.11,9.84,9.84,0,0,0,1.07-1.09,10.92,10.92,0,0,0,.71.85C226.53,110.56,226.81,110.84,227.06,111.06Zm-6.14-4.67c.3.12.44.24.42.37s-.18.22-.47.28l-.17.07a1.17,1.17,0,0,0-.27.14c-.11.06-.24.16-.4.27l-.61.43a21,21,0,0,1-2.76,1.6q-1.71.86-4.26,1.86a4.52,4.52,0,0,0-1.43-1.48c1.22-.39,2.28-.76,3.17-1.12a21.08,21.08,0,0,0,2.35-1.09,11.53,11.53,0,0,0,1.71-1.14,11.27,11.27,0,0,0,1.32-1.26,5.8,5.8,0,0,0,.74.71A2.37,2.37,0,0,0,220.92,106.39Zm2.93,2.36c.24.18.33.32.28.43s-.17.15-.35.15a1.25,1.25,0,0,0-.53.1,4.88,4.88,0,0,0-.77.47c-.74.47-1.43.89-2.08,1.27s-1.35.73-2.07,1-1.52.65-2.37,1-1.84.67-3,1a3.65,3.65,0,0,0-1.45-1.53q7.55-1.65,10.9-5.34a7.21,7.21,0,0,0,.69.75A6.3,6.3,0,0,0,223.85,108.75Z"/><path class="cls-2" d="M251.79,105.49a13.82,13.82,0,0,0,2.88,1.06,15.79,15.79,0,0,0,2.93.41,3.67,3.67,0,0,0-.77,1.18,4.86,4.86,0,0,0-.28,1.28,22.9,22.9,0,0,1-3.81-1.14,11.38,11.38,0,0,1-2.77-1.6,9.13,9.13,0,0,1-2-2.2,14.53,14.53,0,0,1-1.43-2.93h-2.51v5.51c.43-.23.91-.5,1.42-.81s1.09-.68,1.74-1.12a5.09,5.09,0,0,0,.09,1,5.55,5.55,0,0,0,.28,1l-1.83,1c-.51.29-1,.55-1.4.8s-.8.5-1.14.74-.7.52-1.06.82a9.6,9.6,0,0,0-.68-1.09,4.48,4.48,0,0,0-.8-.89l.77-.25.73-.25v-6.42h-2.93q-.07,1.15-.24,2.16c-.11.66-.25,1.31-.41,1.94a19.48,19.48,0,0,1-.62,1.87c-.24.61-.53,1.27-.86,2a4.94,4.94,0,0,0-.94-.81,4.51,4.51,0,0,0-1.17-.56c.45-.71.82-1.33,1.11-1.88a9,9,0,0,0,.66-1.72,12,12,0,0,0,.35-2c.08-.72.14-1.58.19-2.6,0-.47,0-1.12,0-1.93s0-1.76,0-2.81,0-2.19-.08-3.41-.07-2.46-.12-3.71c.48,0,1,.09,1.49.11l1.78.08,2.4,0h6.83l2.52,0L254,88.2c.5,0,1-.06,1.38-.11a12.61,12.61,0,0,0-.18,2.71c0,.5,0,1,0,1.54s.07,1,.14,1.54l-.48,0-.74,0h-2.94v2.13l2.27-.08c.72,0,1.31-.08,1.76-.12v2c-.48-.07-1.07-.12-1.75-.15s-1.45-.06-2.28-.06V100a51.91,51.91,0,0,0,5.89-.26v2.09c-.24,0-.57-.07-1-.1s-1-.07-1.73-.09-1.55,0-2.54-.07l-3.46,0a13.19,13.19,0,0,0,.89,1.69,6.44,6.44,0,0,0,1.19,1.44,21.91,21.91,0,0,0,1.67-1.68,6.05,6.05,0,0,0,.91-1.22l.42.3.55.35.56.31a3.87,3.87,0,0,0,.43.19c.2.06.29.16.29.27s-.13.18-.37.18a2.94,2.94,0,0,0-1,.46A15.52,15.52,0,0,0,251.79,105.49Zm-8.07-7.95-1.52.07-1.34.11v-2l1.33.11,1.53.06v-2.1h-4.34c0,.7,0,1.34,0,1.91v1.61c0,.49,0,1,0,1.39s0,.86,0,1.28h4.39Zm9.4-7.54H239.38v2.2h13.74Zm-3.84,5.94V93.81h-3.66v2.13Zm-3.66,1.57V100h3.66V97.51Z"/><path class="cls-2" d="M278,87.81c-.09.58-.17,1.13-.26,1.63a10.82,10.82,0,0,1-.32,1.28c.37.25.72.51,1.05.77l.93.75-1.35,1.18-.62-.64c-.19-.19-.38-.37-.58-.54a10.09,10.09,0,0,1-2,2.76,3.46,3.46,0,0,0-.83-.56,4.71,4.71,0,0,0-1-.32,6.89,6.89,0,0,0,2.5-3,9.06,9.06,0,0,0-.79-.53c-.27-.17-.55-.32-.84-.48l1.11-1,.53.33a4.47,4.47,0,0,1,.49.32,6.08,6.08,0,0,0,.2-.91c.05-.33.1-.67.13-1-.39,0-.78,0-1.18,0l-1.13.08V86.36l1.19.07c.41,0,.81,0,1.19,0,0-.31,0-.62,0-.91a7.51,7.51,0,0,0-.07-.84h-.82v-1h-4.94v1h-1.25A1.19,1.19,0,0,0,269,85a1,1,0,0,0-.09.47c.84,0,1.55,0,2.16-.06a13.91,13.91,0,0,0,1.62-.19v1.61a12.13,12.13,0,0,0-1.62-.18c-.61,0-1.32-.05-2.16-.05v1.08q1.23,0,2.49-.06c.85-.05,1.55-.11,2.1-.19V89c-.34-.05-.71-.09-1.13-.12l-1.4-.08a1.23,1.23,0,0,0,.13.72.74.74,0,0,0,.54.15,10.3,10.3,0,0,0,1.17,0,7.21,7.21,0,0,0,.79-.1,3.93,3.93,0,0,0-.18,1.28,5.7,5.7,0,0,1-.8.06l-1,0a3.4,3.4,0,0,1-1.64-.28.91.91,0,0,1-.49-.55c-.29.17-.43.36-.43.58v.82c.69,0,1.27,0,1.77,0s.93-.07,1.31-.12v1.5c-.38,0-.82-.09-1.31-.12s-1.08,0-1.77,0v1l2-.11,1.71-.12a4.26,4.26,0,0,0-.13,1.28c-.4,0-1,0-1.77,0s-1.6.08-2.48.13l-2.58.16-2,.16a7.54,7.54,0,0,0-.27-.81,5.13,5.13,0,0,0-.33-.69c.56,0,1.22,0,1.95,0s1.5,0,2.28,0v-1.1c-.58,0-1.1,0-1.54,0a9.51,9.51,0,0,0-1.19.14v-1.5a5.21,5.21,0,0,0,.64.07l.74,0,.72,0h.63a9.37,9.37,0,0,0,0-1,5.48,5.48,0,0,0-.11-.74c.4.05.76.09,1.08.11s.69.05,1.13.06v-1.1H267.2a4.31,4.31,0,0,1-.51.73,4,4,0,0,1-.67.62,8.21,8.21,0,0,1-1,.62c-.39.21-.87.45-1.42.71a2.44,2.44,0,0,0-.44-.84,2.82,2.82,0,0,0-.74-.69,7.91,7.91,0,0,0,1.78-.45,3.65,3.65,0,0,0,1.13-.65c-.42,0-.86,0-1.31,0s-.86.08-1.2.13V87.46c.56.08,1.23.14,2,.19s1.6.06,2.42.06V86.63c-.63,0-1.27,0-1.9.05a11.07,11.07,0,0,0-1.63.18V85.25c.23,0,.5.07.81.1s.63.06.95.09.65,0,1,0h.81c0-.25,0-.45-.06-.61l-.09-.49.79.06.79,0v-.8h-1.58l-1.69,0-1.63.06c-.53,0-1,0-1.37.09V82.09c.4,0,.87.06,1.41.08l1.65.06c.57,0,1.13,0,1.69,0h1.52a8.42,8.42,0,0,0,0-1,5.84,5.84,0,0,0-.11-.73c.33,0,.71.06,1.14.08l1.12,0c.15,0,.24,0,.28.12s0,.17-.13.25a1.83,1.83,0,0,0-.24.19.36.36,0,0,0-.09.26v.75h4.94c0-.4,0-.73,0-1s-.06-.5-.11-.73l1.36.1c.31,0,.63,0,.94,0,.15,0,.24,0,.28.12s0,.19-.15.28a1.24,1.24,0,0,0-.23.17.36.36,0,0,0-.07.25v.8c1.35,0,2.6,0,3.73-.05s2.12-.08,3-.15V83.9c-.84-.08-1.82-.14-3-.16s-2.38,0-3.73,0v.9l.41,0h.46c.24,0,.37.07.41.15s0,.19-.18.33a.89.89,0,0,0-.3.45,5.75,5.75,0,0,0-.23.9h1.43c.4,0,.75,0,1.06,0l.77,0a5.07,5.07,0,0,0,.6-.06c-.15.51-.26,1-.35,1.4a11,11,0,0,0-.17,1.19,8.15,8.15,0,0,0,0,1.1q0,.54.09,1.17a5.71,5.71,0,0,0,.15.74,3.35,3.35,0,0,0,.3.79.54.54,0,0,0,.17.21c.07,0,.15,0,.24-.11a2.36,2.36,0,0,0,.29-.63,13.74,13.74,0,0,0,.35-1.33,3.32,3.32,0,0,0,.84.78,3.16,3.16,0,0,0,.89.37,8.18,8.18,0,0,1-.93,1.9,3,3,0,0,1-.92.91A1.31,1.31,0,0,1,282,95a2,2,0,0,1-.85-.38,2.34,2.34,0,0,1-.9-1.22,9.41,9.41,0,0,1-.43-1.84,9.94,9.94,0,0,1-.07-1.62,20.08,20.08,0,0,1,.17-2.14Zm5.74,11.68c-.8-.07-1.7-.12-2.68-.15s-2.06,0-3.21,0l1.92,1.31c.64.45,1.28.93,1.91,1.47l-1.48,1.43a7,7,0,0,0-1.05-1.18l-11.45.33a12.09,12.09,0,0,0-1.48.1,5.86,5.86,0,0,0-1,.2c-.09-.3-.18-.59-.29-.87a9.2,9.2,0,0,0-.44-.91l2,0a11.41,11.41,0,0,0,1.07-.84,12.72,12.72,0,0,0,1.06-1c-1.2,0-2.31,0-3.33,0s-1.95.08-2.78.16V97.71c.65.05,1.34.09,2.08.11l2.38.08,2.8,0h6.64l2.8,0,2.4-.08c.73,0,1.43-.06,2.08-.11ZM280.81,97c-.94-.09-2-.15-3.2-.18s-2.65,0-4.37,0-3.18,0-4.36,0-2.25.09-3.19.18V95.3c.94.09,2,.15,3.19.19s2.64.06,4.36.06,3.18,0,4.37-.06,2.26-.1,3.2-.19Zm-3.14,4c-.55-.38-1.08-.72-1.58-1l1.11-.7h-5.87a16.4,16.4,0,0,1-2.18,1.83Z"/><path class="cls-2" d="M294.33,96.45h-2.16c.09-.7.14-1.37.17-2s0-1.31,0-2v-6c-.18.18-.39.41-.64.69s-.5.55-.78.84a3.47,3.47,0,0,0-1.61-1.38c.32-.22.6-.43.85-.64s.5-.44.76-.7.51-.56.78-.89.6-.75,1-1.25l.6-.83c.17-.24.31-.46.44-.68a5.71,5.71,0,0,0,.35-.7l.39-.9c.35.28.66.52.93.7a6.6,6.6,0,0,0,.87.5c.19.08.28.19.27.31s-.12.23-.32.29a1.42,1.42,0,0,0-.66.49c-.14.16-.31.38-.51.65s-.45.63-.73,1.07Zm2.3-21.23q.66.25-.12.63a1,1,0,0,0-.24.14,2.63,2.63,0,0,0-.29.26l-.42.45c-.17.18-.37.42-.6.7s-.64.79-.92,1.12l-.78.92c-.24.3-.48.57-.71.83l-.73.82a3.07,3.07,0,0,0-.81-.63,10.36,10.36,0,0,0-1.29-.58,13.39,13.39,0,0,0,1.56-1.29,12.17,12.17,0,0,0,1.34-1.52,19.28,19.28,0,0,0,1.16-1.55,6.55,6.55,0,0,0,.7-1.43c.37.24.75.46,1.15.67A9.62,9.62,0,0,0,296.63,75.22Zm2.21,8.62c.2,0,.31,0,.34.07s0,.15-.11.28a1.51,1.51,0,0,0-.14.37,4.17,4.17,0,0,0-.09.71c0,.32,0,.73,0,1.24s0,1.14,0,1.89a13.81,13.81,0,0,1-.07,1.51,8.71,8.71,0,0,1-.27,1.33,9.8,9.8,0,0,1-.5,1.35c-.21.47-.46,1-.76,1.6a2.89,2.89,0,0,0-.68-.62,3.91,3.91,0,0,0-.88-.38,14.82,14.82,0,0,0,.78-1.3,6.3,6.3,0,0,0,.46-1.17,6.81,6.81,0,0,0,.23-1.24q.06-.65.06-1.53v-1.4c0-.4,0-.76,0-1.08s0-.61,0-.88-.05-.55-.06-.85a9.27,9.27,0,0,0,1,.13A4.85,4.85,0,0,0,298.84,83.84Zm2.78,7.42c0,.67,0,1.42.05,2.24s.09,1.65.18,2.47h-2.28c.08-.82.14-1.64.17-2.47s.05-1.57.05-2.24v-9c-.53,0-1.07,0-1.61.05s-1,.07-1.42.12v-2a10.23,10.23,0,0,0,1.34.14c.49,0,1.06,0,1.69,0V78c0-.45,0-.85,0-1.19s0-.66,0-1,0-.56-.05-.82-.06-.53-.09-.82a10,10,0,0,0,1.1.08c.3,0,.64,0,1,0s.4,0,.45.14,0,.26-.25.41a.54.54,0,0,0-.26.35,1.41,1.41,0,0,0-.07.45v5c.54,0,1,0,1.51,0a11.63,11.63,0,0,0,1.35-.14v1.13c.32,0,.76.06,1.34.09s1.43,0,2.54,0h1.45q.58,0,1,0c.3,0,.56,0,.79-.06l.7-.09v2.08l-.62-.06c-.24,0-.48,0-.73-.06l-.73,0h-.65V94.19a4.15,4.15,0,0,1-.1,1,1.12,1.12,0,0,1-.46.66,3.28,3.28,0,0,1-1,.46,13.56,13.56,0,0,1-1.83.38,3.84,3.84,0,0,0-.33-1.22,4.76,4.76,0,0,0-.8-1.16c.57.07,1,.11,1.37.12a2,2,0,0,0,.79-.08.57.57,0,0,0,.35-.38,2.68,2.68,0,0,0,.07-.71v-9.9c-.73,0-1.35,0-1.86,0s-.95.07-1.32.12V82.39l-.68,0-.8,0-.75,0h-.58Zm1.91-11.58c-.15-.3-.29-.56-.42-.79s-.25-.43-.37-.62-.26-.38-.4-.57l-.49-.6,1.38-.95.54.66.45.58q.21.28.42.6l.47.71ZM304.08,91a2,2,0,0,0,.11.88.57.57,0,0,0,.47.15c.4,0,.75,0,1,0s.64-.06,1-.11a3.28,3.28,0,0,0-.28.79,3.84,3.84,0,0,0-.08.79,6.59,6.59,0,0,1-.75,0H305a10.09,10.09,0,0,1-1.38-.07,1.37,1.37,0,0,1-.74-.26.88.88,0,0,1-.3-.56,6.33,6.33,0,0,1-.06-1V86.37c0-1.17,0-2-.08-2.4l.92.06a4.91,4.91,0,0,0,.86,0,.26.26,0,0,1,.28.13c.05.1,0,.19-.13.27a.72.72,0,0,0-.26.27.75.75,0,0,0-.06.31ZM311.6,78.4a10.62,10.62,0,0,0-1.27-.13c-.47,0-1.07,0-1.79,0s-1.32,0-1.79,0a10.62,10.62,0,0,0-1.27.13V76.25a8,8,0,0,0,1.28.15c.47,0,1.06,0,1.78,0h1.22c.3,0,.57,0,.79,0l.55-.06.5-.09Z"/><path class="cls-2" d="M333.31,79.7a11.27,11.27,0,0,0,.67,2.08,6.8,6.8,0,0,0,1.1,1.77,8.79,8.79,0,0,0,1.68,1.5,13,13,0,0,0,2.39,1.27,5.14,5.14,0,0,0-.86,1.05,8.86,8.86,0,0,0-.72,1.35,9.09,9.09,0,0,1-2.06-1.49,11.55,11.55,0,0,1-1.67-2A14.23,14.23,0,0,1,332.61,83a12,12,0,0,1-.72-2.4l-.83.56-.88.57a12.5,12.5,0,0,1,.49,2.57,9.78,9.78,0,0,1-.09,2,4.44,4.44,0,0,1-.39,1.34,2.56,2.56,0,0,1-.77.94,4.9,4.9,0,0,1-1.29.69,19.5,19.5,0,0,1-1.91.59,4.51,4.51,0,0,0-.31-1.33,4.17,4.17,0,0,0-.79-1.22,4.82,4.82,0,0,0,2.45-.25,2.06,2.06,0,0,0,1.08-1.36,5.44,5.44,0,0,0,.2-1.53,7.22,7.22,0,0,0-.17-1.55,24.2,24.2,0,0,1-2.31,2c-.83.64-1.7,1.23-2.58,1.78s-1.78,1-2.69,1.48-1.79.81-2.62,1.11c-.24-.38-.47-.74-.71-1.08a5.34,5.34,0,0,0-.75-.87,10.28,10.28,0,0,0,2.83-.71,23.18,23.18,0,0,0,3.07-1.46,25,25,0,0,0,2.87-1.9A14.67,14.67,0,0,0,328,81a8.85,8.85,0,0,0-.71-1,22.08,22.08,0,0,1-3.83,2.8,26.73,26.73,0,0,1-4.79,2.14,5.65,5.65,0,0,0-.6-.86,6.81,6.81,0,0,0-.78-.82,22.34,22.34,0,0,0,5-1.73,15.37,15.37,0,0,0,4-2.73c-.32-.3-.66-.62-1-1a30.66,30.66,0,0,1-3.19,1.61,36.27,36.27,0,0,1-3.55,1.34,6,6,0,0,0-.56-.89,5.82,5.82,0,0,0-.79-.76,21.06,21.06,0,0,0,2.64-.63,18.46,18.46,0,0,0,2.52-1,21.16,21.16,0,0,0,2.23-1.18A12.58,12.58,0,0,0,326.4,75l-2.65,0c-.76,0-1.44,0-2,.1v-2c.78.07,1.67.11,2.66.14s2.18,0,3.58,0,2.61,0,3.61,0,1.88-.07,2.63-.14v2q-1-.07-2.25-.09c-.86,0-1.84,0-3,0a19.47,19.47,0,0,1-2.18,1.78,8.74,8.74,0,0,1,1.55,1.39,7.87,7.87,0,0,1,1.23,1.87,21,21,0,0,0,5.06-3.89,6.15,6.15,0,0,0,.89.87,8.21,8.21,0,0,0,1,.69c.13.08.18.16.13.22s-.18.11-.41.13a5,5,0,0,0-.9.42C334.82,78.79,334.15,79.18,333.31,79.7Zm-6.26-10c-.14-.4-.27-.81-.42-1.23s-.28-.78-.41-1.1l2.51-.38c.1.49.21.94.34,1.36s.28.87.46,1.35h3.07l2.24,0c.64,0,1.19,0,1.67,0l1.32-.08v5.14h-2V71.41H319.85v3.53h-2V69.55l1.41.08c.5,0,1.1,0,1.82,0l2.51,0Z"/></g></g></svg>