<svg xmlns="http://www.w3.org/2000/svg" viewBox="0 0 555 87.8"><defs><style>.cls-1{fill:#fff;}.cls-2{fill:none;}</style></defs><title>facebook_1</title><g id="Layer_2" data-name="Layer 2"><g id="Layer_1-2" data-name="Layer 1"><path class="cls-1" d="M203.67,51.09,216.17,48v2L207,52.23l0,6.68,6.94-1.7v2L207,60.91v8.75l-3.39.83Z"/><path class="cls-1" d="M229.2,58.8l-7.31,1.79-2.17,5.94-2.37.58,8.07-21.47,1.41-.35,8,17.52-3.45.85Zm-6.57-.18,5.84-1.44-2.93-6.53Z"/><path class="cls-1" d="M243.73,41c4-1,6.88.83,7.89,3.71l-1.77,1.13a4.19,4.19,0,0,0-5.22-3c-4,1-6.08,5.7-4.77,11,.85,3.47,3.2,5.11,5.81,4.47s4-2.24,4.87-5.08l1.68.75a9,9,0,0,1-6.63,6.48,7.54,7.54,0,0,1-9.41-5.83C234.69,48.54,238,42.37,243.73,41Z"/><path class="cls-1" d="M255.86,38.27l12.9-3.17v2l-9.51,2.33,0,6.43,6.94-1.71v2L259.2,47.8v7l9.92-2.44,0,2-13.35,3.28Z"/><path class="cls-1" d="M273.36,53.35l.08-19.4,6.89-1.7c3.34-.82,5.9-.09,6.52,2.42.78,3.18-1.76,5.58-4.59,6.47l0,0c2.38-.45,4.76.35,5.31,2.57,1,3.94-2.54,6.71-6.71,7.74Zm3.42-9.84,0,7.09,3.32-.81c2.9-.71,4.78-2.42,4.06-5.34-.44-1.78-1.84-2.3-4.35-1.68Zm0-1.91,2.8-.69c2.63-.65,4.51-2.35,3.82-5.17-.39-1.57-1.64-2-3.76-1.43l-2.82.69Z"/><path class="cls-1" d="M300.58,46.94a7.67,7.67,0,0,1-9.72-5.87,11,11,0,0,1,7.71-13.57,7.65,7.65,0,0,1,9.71,5.83A11.06,11.06,0,0,1,300.58,46.94Zm-.42-1.7c4-1,5.66-6.82,4.45-11.75-.84-3.42-2.86-5-5.63-4.32-4,1-5.64,6.81-4.42,11.74C295.4,44.33,297.42,45.91,300.16,45.24Z"/><path class="cls-1" d="M321.26,41.86A7.67,7.67,0,0,1,311.54,36a11,11,0,0,1,7.71-13.57A7.64,7.64,0,0,1,329,28.25,11.06,11.06,0,0,1,321.26,41.86Zm-.42-1.7c4-1,5.66-6.82,4.45-11.75-.84-3.42-2.86-5-5.63-4.32-4,1-5.64,6.81-4.42,11.74C316.08,39.25,318.1,40.83,320.84,40.16Z"/><path class="cls-1" d="M338.82,27.82l-2.19,2.81,0,7.18-3.4.83.08-19.4,3.4-.83,0,9.56,9-11.77,2.9-.72L341,25.06l8.34,9.61-3.82.94Z"/><rect class="cls-2" width="555" height="87.8"/></g></g></svg>