<svg xmlns="http://www.w3.org/2000/svg" viewBox="0 0 554.67 413.32"><defs><style>.cls-1{fill:#fff;}.cls-2{fill:none;}</style></defs><title>hours_2</title><g id="Layer_2" data-name="Layer 2"><g id="Layer_1-2" data-name="Layer 1"><path class="cls-1" d="M179.89,145.73A10.32,10.32,0,0,0,187.08,133,7.13,7.13,0,0,0,178,127.6a10.31,10.31,0,0,0-7.19,12.66A7.16,7.16,0,0,0,179.89,145.73Zm-1.49-16.57c2.58-.64,4.47.83,5.25,4,1.13,4.61-.42,10-4.15,11-2.55.63-4.44-.84-5.22-4C173.15,135.51,174.68,130.07,178.4,129.16Z"/><path class="cls-1" d="M194.2,135l3.48-.86c4.24-1,7.52-4.09,6.52-8.16-.65-2.65-3.07-3.76-6.48-2.92l-6.62,1.62L191,142.73l3.16-.78Zm0-9.33,2.56-.63c2.38-.59,3.71,0,4.14,1.74.76,3.1-.86,5-4.15,5.8l-2.58.63Z"/><polygon class="cls-1" points="220.1 133.73 210.85 136 210.86 129.44 217.34 127.85 217.35 126.01 210.88 127.61 210.9 121.61 219.76 119.43 219.78 117.6 207.75 120.55 207.68 138.64 220.12 135.58 220.1 133.73"/><polygon class="cls-1" points="226.09 119.45 237.04 131.48 238.24 131.18 238.32 113.04 236.32 113.53 236.26 125.99 227.12 115.79 224.13 116.53 224.06 134.62 226.05 134.13 226.09 119.45"/><polygon class="cls-1" points="246.52 111.03 243.36 111.8 243.28 129.89 246.45 129.11 246.52 111.03"/><polygon class="cls-1" points="253.52 112.71 264.47 124.73 265.67 124.44 265.75 106.3 263.76 106.79 263.69 119.25 254.55 109.05 251.56 109.79 251.49 127.88 253.48 127.39 253.52 112.71"/><path class="cls-1" d="M269.67,116.08a7,7,0,0,0,8.77,5.43,6.79,6.79,0,0,0,4.65-3.88l1.14,2.2,1.21-.3,0-8.55-3.21.79v3.13a4.66,4.66,0,0,1-3.57,4.59c-2.58.64-4.75-.84-5.57-4.16-1.22-5,.82-9.39,4.62-10.32a3.94,3.94,0,0,1,4.89,2.8l1.66-1c-.95-2.69-3.68-4.36-7.46-3.44C271.51,104.63,268.25,110.28,269.67,116.08Z"/><polygon class="cls-1" points="297.05 98.61 296.98 116.7 300.14 115.92 300.19 107.49 309.07 105.31 309.05 113.73 312.22 112.95 312.27 94.87 309.1 95.65 309.07 103.5 300.18 105.69 300.21 97.83 297.05 98.61"/><path class="cls-1" d="M325.27,110a10.3,10.3,0,0,0,7.19-12.68,7.13,7.13,0,0,0-9.06-5.44,10.31,10.31,0,0,0-7.19,12.66A7.15,7.15,0,0,0,325.27,110Zm-1.49-16.56c2.58-.64,4.47.83,5.25,4,1.13,4.6-.42,10.05-4.15,11-2.55.63-4.44-.84-5.22-4C318.53,99.79,320.06,94.35,323.78,93.44Z"/><path class="cls-1" d="M343.65,105.49c4.14-1,6.41-4.08,6.41-8.88l.05-11-2,.49,0,10.78c0,3.72-1.38,5.81-4.33,6.53-2.73.67-4.43-1-4.41-4.39l.06-10.78-3.16.78-.05,10.83C336.16,104.54,339.51,106.51,343.65,105.49Z"/><path class="cls-1" d="M358.05,93.84l2.8-.68c2-.49,2.69,0,3.24,1.63l1,2.64a9.3,9.3,0,0,0,1.12,2.26l3.36-.83a6.76,6.76,0,0,1-1.48-2.47l-.89-2.34c-.64-1.86-1.73-2.54-3.88-2.25v0c2.61-.72,5.8-3.08,4.93-6.63-.62-2.54-3.19-3.22-6.28-2.46l-7,1.73-.07,18.09,3.16-.78Zm0-8.47,3-.74c2.14-.53,3.46-.1,3.85,1.46.67,2.75-1,4.55-3.87,5.26l-3,.74Z"/><path class="cls-1" d="M378.68,95a5.89,5.89,0,0,1-6.31-2.33l-1.26,1.6a7.58,7.58,0,0,0,8,2.51c3.8-.93,6.49-3.94,5.62-7.5-.52-2.12-2.2-2.94-4.44-3.22l-2.36-.27c-1.76-.21-2.75-.56-3.07-1.9-.42-1.71.86-3.08,2.86-3.57A4.58,4.58,0,0,1,383,82.49L384.33,81c-1.22-2-3.95-3.13-7-2.37-3.63.89-6,3.64-5.16,7,.52,2.14,2.32,2.94,4.45,3.19l2.41.26c1.68.21,2.62.67,2.92,1.91C382.4,93,380.74,94.49,378.68,95Z"/><path class="cls-1" d="M64.83,292.69a10.34,10.34,0,0,1-1.26-2.48,15.87,15.87,0,0,1-.74-2.93,28,28,0,0,1-.34-3.53c-.05-1.29-.07-2.72-.07-4.29-.47.07-1,.11-1.58.14s-1.28,0-2.08,0H58l-.65,0-.68-.07-.8-.08v2.25c.3,0,.57-.06.8-.07l.67-.05c.2,0,.42,0,.64,0h2.38a51.55,51.55,0,0,0,.28,5.73,18.87,18.87,0,0,0,1.08,4.61,15.43,15.43,0,0,0,2.16,3.91,21.49,21.49,0,0,0,3.56,3.6,6.7,6.7,0,0,1,.92-1.39,7.4,7.4,0,0,1,1.14-1.11,21,21,0,0,1-2.76-2A12.3,12.3,0,0,1,64.83,292.69Z"/><path class="cls-1" d="M55,281.79c-.43,0-.85-.05-1.24-.09a8.5,8.5,0,0,1-1.19-.21,6.15,6.15,0,0,1,.06,1.17c0,.52,0,1.12-.1,1.8s-.14,1.4-.26,2.19-.26,1.57-.43,2.35c-.22,1-.45,1.92-.71,2.75a13.77,13.77,0,0,1-1,2.37,14.87,14.87,0,0,1-1.47,2.21,23.07,23.07,0,0,1-2.15,2.32,6.55,6.55,0,0,1,1.24.48,3.28,3.28,0,0,1,1,.78A15.24,15.24,0,0,0,52,295.14a24.39,24.39,0,0,0,1.86-6.34c.25-1.55.45-2.76.59-3.62s.26-1.5.34-1.91a5.21,5.21,0,0,1,.18-.77c0-.09.06-.14.1-.16.2-.13.29-.26.26-.38S55.21,281.79,55,281.79Z"/><path class="cls-1" d="M92.58,288.74a11.35,11.35,0,0,1-.06,1.35.9.9,0,0,1-.36.67,1.52,1.52,0,0,1-.9.14c-.41,0-1-.12-1.74-.25a5.23,5.23,0,0,1,.84,1.37,4,4,0,0,1,.26,1.41A22.74,22.74,0,0,0,93,293.1a3,3,0,0,0,1.28-.5,1.37,1.37,0,0,0,.53-.89,8.65,8.65,0,0,0,.1-1.51V275.48c0-.8,0-1.45,0-2s0-.94.08-1.3l-1,0-1.34,0H83l-1.35,0-1,0c0,.37,0,.8.07,1.3s0,1.16,0,2v6a26.48,26.48,0,0,1-.23,3.79,12.72,12.72,0,0,1-.72,2.89,8.75,8.75,0,0,1-1.29,2.24,10.5,10.5,0,0,1-1.92,1.83,6,6,0,0,1,1.34.53,4.44,4.44,0,0,1,1.09.88,12.91,12.91,0,0,0,2.69-3.83,14.1,14.1,0,0,0,1.12-4.72h9.8ZM82.86,274.2h9.73v3.64H82.86Zm0,9.07v-3.68h9.72v3.69Z"/><path class="cls-1" d="M114.54,283.91c0-.35,0-.67,0-1s0-.58,0-.87v-7c2.15,0,4,0,5.61.07s3,.1,4.19.19v-2.61c-1.2.08-2.6.14-4.19.18s-3.45.07-5.61.09v-6.24a6.94,6.94,0,0,1,.09-1.32.81.81,0,0,1,.29-.53c.28-.17.4-.31.35-.41s-.23-.13-.55-.1a8.22,8.22,0,0,1-1.4,0,13.9,13.9,0,0,1-1.48-.19,17.23,17.23,0,0,1,.3,1.84c.06.65.1,1.3.1,2v5c-2.05,0-3.84,0-5.35-.09s-2.86-.11-4-.19v2.61c1.17-.09,2.51-.14,4-.18s3.3-.05,5.37-.07v7c0,.29,0,.58,0,.87s0,.61,0,1,0,.75-.06,1.18-.07.94-.12,1.5h2.73c0-.57-.06-1.07-.08-1.51S114.55,284.26,114.54,283.91Z"/><path class="cls-1" d="M130.68,270.11q1.32-.41,3.24-.9c1.28-.33,2.68-.68,4.2-1v7.07a12.77,12.77,0,0,0,.11,2,1.6,1.6,0,0,0,.56,1.07,2.79,2.79,0,0,0,1.38.45c.62.06,1.47.1,2.56.1.48,0,1,0,1.65,0l1.86-.09,1.9-.15a8.31,8.31,0,0,0,1.34-.22,2.51,2.51,0,0,0,.93-.43,2.64,2.64,0,0,0,.65-.74,6.08,6.08,0,0,0,.55-1.14c.18-.45.38-1,.59-1.65a7.08,7.08,0,0,1-1.29-.54,4.3,4.3,0,0,1-1.09-.81c-.21.81-.4,1.45-.56,1.91a2.74,2.74,0,0,1-.59,1,1.76,1.76,0,0,1-.92.47,15,15,0,0,1-1.54.18l-1.83.13c-.62,0-1.16.05-1.63.05a10.54,10.54,0,0,1-1.27-.06,1.51,1.51,0,0,1-.72-.26.76.76,0,0,1-.3-.49,4.2,4.2,0,0,1-.06-.8v-7.57l5.62-1.32,1.53-.37,1.42-.31,1.55-.3c.54-.1,1.16-.21,1.86-.32l-.57-2.34c-.65.22-1.25.41-1.78.57l-1.52.44-1.42.38c-.46.13-1,.25-1.52.37l-5.17,1.2v-4.91a6.45,6.45,0,0,1,.13-1.31,2.22,2.22,0,0,1,.35-.87c.17-.24.23-.39.19-.47s-.14-.1-.29-.09a4.2,4.2,0,0,1-.55,0l-.74,0c-.26,0-.52,0-.78-.08l-.69-.1c0,.47.06,1,.08,1.67s0,1.5,0,2.57v4.13c-1.55.37-3,.7-4.4,1s-2.57.5-3.57.65Z"/><path class="cls-1" d="M175.27,271.67l2.44.09c.76,0,1.46.08,2.11.13v-2.43c-1.2.08-2.57.14-4.11.17s-3.38.06-5.54.07v-3.11c1.47,0,2.73.05,3.79.08s2,.08,2.85.15v-2.23q-1.27.11-2.85.15c-1.06,0-2.32.06-3.79.07v-3.35l2.23-.14,2.54-.16c.23.28.46.57.7.85s.47.58.7.9l1.8-1.68-1-1c-.33-.33-.69-.69-1.09-1.07l-1.35-1.24c-.5-.45-1.08-.95-1.73-1.5l-1.86,1.1c.44.34.85.68,1.24,1s.78.72,1.17,1.1c-2,.09-3.74.15-5.2.2l-4,.12c.7-.58,1.3-1.11,1.81-1.59s.93-.9,1.3-1.29.58-.54.88-.79a3.7,3.7,0,0,1,.62-.43q.59-.26.57-.42c0-.11-.18-.18-.52-.24a7.05,7.05,0,0,1-1-.25,9.67,9.67,0,0,1-1.28-.47,13.84,13.84,0,0,1-1.82,2.65A26.17,26.17,0,0,1,162,260q-.53,0-1.05,0h-1.06a5.92,5.92,0,0,1,.4,1.09,6.28,6.28,0,0,1,.2,1.09,4.38,4.38,0,0,1,.57-.11c.27-.05.69-.09,1.25-.14l2.21-.18,3.44-.22v3.23c-1.59,0-3,0-4.08-.05s-2.17-.09-3.09-.18v2.24q2.66-.22,7.17-.23v3.11c-2.17,0-4,0-5.6-.06s-2.95-.11-4.17-.19v2.43c1.29-.09,2.8-.15,4.53-.2s3.81-.08,6.25-.07h3.41Z"/><path class="cls-1" d="M171.88,252.57h-3c-2.13,0-4,0-5.48-.06s-2.87-.11-4-.19v2.28c1.15-.08,2.49-.15,4-.19s3.36-.06,5.51-.06l3.06,0c.92,0,1.77,0,2.55.05l2.13.07c.64,0,1.25.07,1.84.12v-2.28c-.59,0-1.21.08-1.87.11l-2.15.07C173.65,252.55,172.8,252.56,171.88,252.57Z"/><path class="cls-1" d="M203.34,254.69c1.59,0,3,.1,4.19.19v-2.61c-1.2.08-2.6.15-4.19.19s-3.46.07-5.61.08V246.3a6.74,6.74,0,0,1,.09-1.31.77.77,0,0,1,.29-.54c.28-.17.4-.3.35-.4s-.23-.14-.55-.1a8.39,8.39,0,0,1-1.41,0,14.05,14.05,0,0,1-1.47-.19,17,17,0,0,1,.3,1.85c.06.64.1,1.3.1,2v5c-2,0-3.84,0-5.35-.09s-2.86-.1-4-.19v2.61c1.17-.08,2.51-.14,4-.17s3.3-.06,5.37-.08v7.05c0,.28,0,.57,0,.86s0,.61,0,1,0,.74-.06,1.17-.07.94-.12,1.51h2.73c0-.57-.06-1.07-.08-1.51s-.05-.82-.06-1.17,0-.68,0-1,0-.58,0-.86v-7.05C199.88,254.62,201.76,254.65,203.34,254.69Z"/><path class="cls-1" d="M231.29,259a14,14,0,0,0,2-.24,2.5,2.5,0,0,0,1.25-.65,3.79,3.79,0,0,0,.8-1.4c.21-.62.44-1.44.69-2.47a4.71,4.71,0,0,1-1.18-.41,7.63,7.63,0,0,1-1.35-1c-.08.75-.17,1.37-.26,1.84a4.85,4.85,0,0,1-.35,1.14,1.41,1.41,0,0,1-.53.61,2.17,2.17,0,0,1-.82.22,7.81,7.81,0,0,1-1.1.06,1.53,1.53,0,0,1-.69-.16.77.77,0,0,1-.35-.48,3.36,3.36,0,0,1-.09-.87q.06-3.62.28-7c.15-2.29.36-4.44.61-6.46q-.53.08-1.32.15l-1.73.15-2,.15-2.09.15c0-.33,0-.67,0-1l0-1c.06-1.69.21-2.64.48-2.84s.29-.26.27-.37-.16-.18-.39-.18c-.54,0-1.06,0-1.58,0s-1-.06-1.33-.11c0,.2.06.43.09.7s0,.61,0,1,0,.94,0,1.57,0,1.42,0,2.36l-2,.1-1.83.06-1.53,0c-.45,0-.8,0-1.05,0v2.46l1.1-.14c.45-.06,1-.12,1.52-.17l1.8-.18,2-.16a27.57,27.57,0,0,1-.35,3.9,14,14,0,0,1-.8,3,13.46,13.46,0,0,1-1.11,2.08,9.13,9.13,0,0,1-1.4,1.64,13.66,13.66,0,0,1-1.81,1.38q-1,.63-2.28,1.29a4.81,4.81,0,0,1,1.25.76,5.48,5.48,0,0,1,1,1,30.42,30.42,0,0,0,2.55-2.09,16.25,16.25,0,0,0,2-2.13,12.15,12.15,0,0,0,1.42-2.26,11.66,11.66,0,0,0,.89-2.49,20.8,20.8,0,0,0,.49-2.66c.14-1.06.28-2.27.39-3.6l4.77-.25c-.09,1.37-.16,2.6-.22,3.71s-.11,2.11-.16,3-.1,1.75-.14,2.51-.07,1.46-.09,2.13a10.27,10.27,0,0,0,.06,1.93,1.78,1.78,0,0,0,.55,1.1A2.31,2.31,0,0,0,229,259,14.92,14.92,0,0,0,231.29,259Z"/><path class="cls-1" d="M259.89,233.44c0-.61.09-1.1.15-1.45l-1.06.09c-.38,0-.85,0-1.43,0l-2.13,0h-6.27l-2.09,0c-.57,0-1.05,0-1.44-.05s-.77,0-1.14-.09a14,14,0,0,1,.16,1.52c0,.63.06,1.29.06,2v11.76c0,.8,0,1.55,0,2.27s-.08,1.49-.16,2.34H247V250h10.51v1.65H260c-.07-.74-.12-1.42-.15-2.07s-.05-1.31-.05-2V235.5C259.84,234.75,259.86,234.06,259.89,233.44Zm-2.38,14.64H247v-6.2h10.5Zm0-8.15H247v-5.82h10.5Z"/><path class="cls-1" d="M289.53,241.83H293l2.88,0,2.45.08c.76,0,1.47.06,2.16.11v-2.51c-.67.05-1.37.09-2.12.12l-2.43.07c-.88,0-1.83,0-2.86.05h-3.37v-10H293q1.69,0,3,0c.87,0,1.64.08,2.31.17v-2.48c-.69.06-1.46.11-2.32.15s-1.86.05-3,.05h-3.31v-3.3a7.36,7.36,0,0,1,.14-1.5,1.42,1.42,0,0,1,.34-.79c.21-.15.31-.27.28-.37s-.15-.15-.38-.15c-.49,0-1,0-1.51,0a10.64,10.64,0,0,1-1.4-.18c0,.19.06.43.09.73s0,.7.06,1.19,0,1.1,0,1.82,0,1.58,0,2.58v12.13c-1.9,0-3.56,0-5-.08s-2.7-.09-3.85-.18v2.51c1.34-.08,2.88-.14,4.64-.19S287,241.82,289.53,241.83Z"/><path class="cls-1" d="M316.63,235c0,.76-.09,1.43-.16,2h2.68c-.08-.71-.15-1.41-.19-2.11s-.06-1.34-.06-1.9v-4.44c2,0,3.66,0,5.1.08s2.75.08,3.9.15V226.2c-1.15.06-2.45.12-3.9.16s-3.14.07-5.1.08V220.1h2.94l2,0,1.33,0,1,.05V218l-1,.05-1.45,0H313.49c.44-.81.76-1.37,1-1.71a3,3,0,0,1,.44-.6c.3-.23.45-.39.46-.46s-.1-.13-.34-.17c-.41-.08-.9-.2-1.46-.36a12.42,12.42,0,0,1-1.47-.51,17.49,17.49,0,0,1-.55,2.09c-.24.71-.5,1.41-.8,2.12a20.48,20.48,0,0,1-1.66,3,10.06,10.06,0,0,1-1.93,2.22,4.53,4.53,0,0,1,1.34.4,2.08,2.08,0,0,1,.89.73l.83-1.08c.25-.33.49-.68.71-1s.46-.75.7-1.17.51-.9.8-1.45h4.28v6.34c-2.24,0-4.17,0-5.78-.06s-3-.11-4.3-.19v2.58c1.25-.08,2.69-.14,4.3-.17s3.54,0,5.78,0V233C316.7,233.55,316.67,234.21,316.63,235Z"/><path class="cls-1" d="M351.59,218.32c1.59.05,3,.11,4.19.19v-2.6c-1.2.08-2.6.14-4.19.18s-3.46.07-5.61.09v-6.24a6.94,6.94,0,0,1,.09-1.32.82.82,0,0,1,.29-.54c.28-.16.4-.3.35-.4s-.24-.13-.55-.1a8.34,8.34,0,0,1-1.41,0c-.5,0-1-.11-1.47-.19a15,15,0,0,1,.29,1.84,18.3,18.3,0,0,1,.1,2v5c-2.05,0-3.84-.05-5.35-.09s-2.86-.11-4.05-.19v2.6c1.17-.08,2.51-.14,4-.17s3.3-.06,5.37-.07v7c0,.28,0,.57,0,.87s0,.61,0,1,0,.74-.07,1.18-.06.93-.11,1.5h2.73c0-.56-.06-1.07-.08-1.5s0-.83-.07-1.18,0-.67,0-1,0-.58,0-.87v-7Q349.21,218.26,351.59,218.32Z"/><path class="cls-1" d="M373.53,214.43l1.48,0h4v5.77a1.6,1.6,0,0,1-.11.62.6.6,0,0,1-.41.36,2.75,2.75,0,0,1-.93.12c-.41,0-.94,0-1.61-.1a4.57,4.57,0,0,1,.7,1.09,5.75,5.75,0,0,1,.32,1.29c.89-.15,1.59-.3,2.11-.44a3.78,3.78,0,0,0,1.18-.5,1.27,1.27,0,0,0,.51-.66,3.29,3.29,0,0,0,.11-1v-6.56h1l1,0,.8,0a5.5,5.5,0,0,1,.56.05v-2.08a4.35,4.35,0,0,1-.55.1l-.86.09-1,.06-1,0v-.9A1.59,1.59,0,0,1,381,211c.34-.31.26-.45-.25-.4a8.34,8.34,0,0,1-1,0,10,10,0,0,1-1-.13c0,.17.06.32.09.46s0,.3.06.48,0,.38,0,.6,0,.5,0,.82h-4c-.5,0-1,0-1.48,0l-1.34-.06-1.1-.09a6,6,0,0,1-.77-.13v2.13l.77-.07c.32,0,.69-.06,1.1-.08Z"/><path class="cls-1" d="M369.79,221.22c-.1-1.11-.15-2.24-.15-3.38V205c0-.43,0-.87,0-1.3s0-.82.06-1.15l-.51.07-.65.05c-.26,0-.59,0-1,0h-3c-.39,0-.72,0-1,0l-.67-.05a4.5,4.5,0,0,1-.51-.08c0,.34.05.72.06,1.16s0,.87,0,1.3v13.41c0,.6,0,1.17,0,1.72s-.07,1.09-.14,1.66h2.08v-2.63h3.41v2.08Zm-5.43-16.89h3.41v5.79h-3.41Zm0,13.11v-5.62h3.41v5.62Z"/><path class="cls-1" d="M372.92,208.28c-.83,0-1.61-.1-2.35-.16v2.1l1.28-.1c.45,0,.94-.06,1.47-.07l1.74,0h4.2l1.73,0c.52,0,1,0,1.45.08l1.27.1v-2.11l-1.17.1-1.29.08-1.53,0h-1.85v-3.13c1.13,0,2.13,0,3,.07s1.61.09,2.25.16v-2.11c-.64.07-1.39.13-2.26.17s-1.86.06-3,.06v-1.81a1.25,1.25,0,0,1,.1-.51,1.17,1.17,0,0,1,.23-.37c.18-.16.26-.27.23-.32s-.13-.08-.33-.08c-.44,0-.83,0-1.18,0l-1.08-.12c0,.24.06.58.08,1s0,1.19,0,2.21c-1.1,0-2.07,0-2.9-.07s-1.55-.09-2.19-.16v2.1c.62-.06,1.38-.12,2.29-.16s1.85-.06,2.8-.06v3.13C374.75,208.34,373.74,208.32,372.92,208.28Z"/><path class="cls-1" d="M376.28,219.65l1.33-1.73-2.4-1.41c-.85-.48-1.64-.9-2.36-1.25l-1.28,1.48c.25.1.59.26,1,.47s.87.47,1.33.76.9.57,1.32.86A7.87,7.87,0,0,1,376.28,219.65Z"/><path class="cls-1" d="M390.84,195.55v2.28c1.16-.09,2.49-.15,4-.19s3.36-.06,5.52-.06h3.06l2.54,0,2.13.08c.64,0,1.26.06,1.84.11v-2.28c-.58,0-1.2.09-1.86.11l-2.16.08-2.54,0h-3c-2.14,0-4,0-5.49-.07S392,195.63,390.84,195.55Z"/><path class="cls-1" d="M406.76,214.89c.88,0,1.7.05,2.45.09s1.45.07,2.1.12v-2.43c-1.2.09-2.57.14-4.11.18s-3.38.05-5.54.07v-3.11c1.47,0,2.73,0,3.78.08s2,.08,2.86.15v-2.23c-.85.07-1.81.11-2.86.15s-2.31.06-3.78.07v-3.36l2.23-.13,2.53-.17.7.86c.24.28.47.58.7.9l1.81-1.68c-.32-.33-.64-.67-1-1s-.69-.69-1.09-1.07-.85-.79-1.35-1.24-1.08-.95-1.73-1.5l-1.85,1.1c.43.33.84.67,1.24,1s.78.72,1.16,1.1l-5.2.2-4,.12c.71-.58,1.31-1.11,1.81-1.59s.93-.9,1.3-1.29.58-.55.88-.79a3.51,3.51,0,0,1,.63-.44c.38-.16.57-.3.56-.41s-.18-.19-.51-.24a8.85,8.85,0,0,1-1-.25,8.34,8.34,0,0,1-1.27-.48,14,14,0,0,1-1.82,2.66,26.33,26.33,0,0,1-2.9,2.88l-1,0h-1.05a6.75,6.75,0,0,1,.4,1.09,7.16,7.16,0,0,1,.2,1.09,2.93,2.93,0,0,1,.56-.12c.28,0,.7-.08,1.26-.13L396,205l3.45-.22V208c-1.59,0-2.95,0-4.09-.05s-2.16-.09-3.08-.18V210q2.65-.22,7.17-.22v3.11c-2.17,0-4,0-5.6-.07s-2.95-.1-4.17-.19v2.43c1.28-.08,2.79-.14,4.52-.19s3.82-.08,6.26-.08l3.4,0C404.93,214.85,405.89,214.86,406.76,214.89Z"/><path class="cls-1" d="M417.47,206.29a18.24,18.24,0,0,1-.19,1.89h2.23V204.6h2.86v1.55h2.13q-.11-.79-.15-1.89c0-.73-.05-1.45-.05-2.17V192c0-.22,0-.47,0-.75s0-.58,0-.87,0-.57.06-.83.05-.46.06-.61l-.57.09-.65.06-.91,0h-2.68l-1,0L418,189l-.61-.08c0,.15,0,.35.06.61s0,.54.06.83,0,.58,0,.86,0,.54,0,.75v12.11Q417.53,205.23,417.47,206.29Zm2-15.38h2.86v4.92h-2.86Zm0,6.69h2.85v5.21h-2.86Z"/><path class="cls-1" d="M430,189.39a10.56,10.56,0,0,1,.71-.9,3.24,3.24,0,0,1,.62-.56c.4-.28.4-.45,0-.52a6.18,6.18,0,0,1-.86-.28c-.38-.15-.75-.32-1.1-.5a20.13,20.13,0,0,1-1.88,3.21,9,9,0,0,1-2.56,2.35,4.32,4.32,0,0,1,1.86,1.08c.38-.42.75-.82,1.09-1.21s.65-.76.91-1.09h4.41l-1.75,2.95-2.24,0q-.95,0-1.62,0c-.45,0-.84,0-1.15-.07s-.61-.08-.86-.13c0,.37.07.72.1,1.05a9.32,9.32,0,0,1,.05,1.08v2.48c0,.42,0,.84,0,1.27a7.25,7.25,0,0,1-.13,1.09l.64-.06c.24,0,.53,0,.87,0l1.21,0c.46,0,1,0,1.61,0a10,10,0,0,1-.94,2.31,7.27,7.27,0,0,1-1.5,1.87,10.2,10.2,0,0,1-2.2,1.49,17.57,17.57,0,0,1-3,1.19,6.67,6.67,0,0,1,1.15.93,4.4,4.4,0,0,1,.78,1,16.36,16.36,0,0,0,4.89-3.41,11.11,11.11,0,0,0,2.43-4.09,6.22,6.22,0,0,1,.18,1c0,.36,0,.7,0,1v2.73a8.14,8.14,0,0,0,.08,1.23,1.22,1.22,0,0,0,.41.75,2.1,2.1,0,0,0,1,.37,16.56,16.56,0,0,0,1.94.13,9.35,9.35,0,0,0,1.91-.11,2.25,2.25,0,0,0,1.11-.52,2.39,2.39,0,0,0,.65-1.05,15.67,15.67,0,0,0,.49-1.73,2.38,2.38,0,0,1-1-.31,4.16,4.16,0,0,1-1-.84,15.11,15.11,0,0,1-.21,1.64,2,2,0,0,1-.34.88.84.84,0,0,1-.62.32,8.56,8.56,0,0,1-1.06,0c-.35,0-.63,0-.84-.07a1.87,1.87,0,0,1-.5-.11.44.44,0,0,1-.25-.23,1.09,1.09,0,0,1-.06-.4v-3.06a1.73,1.73,0,0,1,.15-.6,1.07,1.07,0,0,1,.35-.5c.17-.08.23-.16.19-.25s-.21-.11-.49-.1h-.44l-.56-.05-.6-.09-.55-.1a3.6,3.6,0,0,0,.2-.58l.15-.62,3.91,0c1,0,1.75.05,2.15.1-.05-.33-.08-.69-.11-1.07s0-.76,0-1.13v-2.58c0-.45,0-.85,0-1.18s.06-.66.09-1c-.33,0-.87.07-1.6.11s-1.7.07-2.89.09l2.86-4.71a12.71,12.71,0,0,1-1.54.15c-.62,0-1.28,0-2,0Zm.46,6.89c0,.28,0,.59-.05.9s-.06.63-.09.93-.06.58-.08.83h-2.65V195.5h2.88C430.42,195.74,430.42,196,430.41,196.28Zm5.35-.78v3.44h-3.71c.07-.49.12-1.05.16-1.68s.08-1.22.12-1.76Z"/><path class="cls-1" d="M462.42,198.92c-.87,0-1.83,0-2.85,0l-3.37,0V189h3.31c1.13,0,2.14,0,3,0s1.63.08,2.3.17v-2.49c-.68.07-1.46.12-2.32.15s-1.85.05-3,.05H456.2v-3.31a7.26,7.26,0,0,1,.14-1.49,1.46,1.46,0,0,1,.34-.79c.22-.15.31-.27.29-.37s-.16-.16-.39-.16c-.49,0-1,0-1.51,0a13,13,0,0,1-1.4-.18c0,.18.06.43.09.73s0,.69.06,1.19,0,1.09,0,1.81,0,1.58,0,2.58V199c-1.9,0-3.56,0-5-.08s-2.69-.09-3.85-.18v2.51c1.34-.09,2.88-.15,4.64-.19s3.87-.06,6.36-.06l3.44,0c1,0,2,0,2.88.05l2.46.07c.75,0,1.47.07,2.15.12v-2.51c-.67.05-1.37.09-2.11.11Z"/><path class="cls-1" d="M492.76,189.29c-.08.75-.17,1.37-.26,1.84a4.42,4.42,0,0,1-.35,1.14,1.35,1.35,0,0,1-.53.61,2.17,2.17,0,0,1-.81.22,8,8,0,0,1-1.11.06A1.53,1.53,0,0,1,489,193a.77.77,0,0,1-.35-.48,4,4,0,0,1-.08-.87q0-3.61.28-7t.6-6.46q-.52.08-1.32.15l-1.73.15-2,.15-2.09.15c0-.33,0-.67,0-1s0-.67,0-1c.05-1.69.21-2.64.47-2.84s.29-.26.27-.37-.16-.18-.39-.18c-.54,0-1.06,0-1.58,0s-1-.06-1.33-.11c0,.2.06.43.09.7s0,.61.05,1,0,.94,0,1.57,0,1.42,0,2.36l-2,.1-1.83.06-1.53,0c-.45,0-.81,0-1.06,0v2.46l1.11-.14,1.51-.17,1.81-.18,2-.16a27.57,27.57,0,0,1-.35,3.9,14,14,0,0,1-.8,3,12.65,12.65,0,0,1-1.11,2.08,8.75,8.75,0,0,1-1.4,1.64,13.55,13.55,0,0,1-1.8,1.38c-.67.42-1.43.85-2.29,1.29a4.87,4.87,0,0,1,1.26.76,5.73,5.73,0,0,1,1,1,32.37,32.37,0,0,0,2.56-2.09,17.74,17.74,0,0,0,2-2.13,12.09,12.09,0,0,0,1.41-2.26,12.25,12.25,0,0,0,.9-2.49,23,23,0,0,0,.48-2.66c.15-1.06.28-2.27.4-3.6l4.76-.25c-.09,1.37-.16,2.6-.22,3.71s-.11,2.11-.16,3-.1,1.75-.14,2.51-.07,1.46-.09,2.13a11.2,11.2,0,0,0,.06,1.93,1.78,1.78,0,0,0,.55,1.1,2.34,2.34,0,0,0,1.28.46,14.92,14.92,0,0,0,2.27,0,13.82,13.82,0,0,0,2-.24,2.46,2.46,0,0,0,1.25-.65,3.66,3.66,0,0,0,.8-1.4c.21-.62.44-1.44.69-2.47a5,5,0,0,1-1.17-.4A8,8,0,0,1,492.76,189.29Z"/><path class="cls-1" d="M508.41,171c0-.44,0-.87,0-1.31s0-.82.06-1.15a4.18,4.18,0,0,1-.51.07l-.65.05c-.26,0-.59,0-1,0h-3q-.6,0-1,0c-.27,0-.49,0-.67-.05l-.51-.07c0,.33.05.72.06,1.15s0,.87,0,1.3v13.41c0,.6,0,1.18,0,1.72s-.07,1.1-.14,1.67h2.08V185.1h3.41v2.08h2q-.15-1.68-.15-3.39Zm-1.89,12.45h-3.41v-5.61h3.4Zm0-7.32h-3.4v-5.79h3.41Z"/><path class="cls-1" d="M516.37,183.88c-.75-.45-1.55-.92-2.4-1.4s-1.64-.9-2.36-1.26l-1.28,1.48q.38.15,1,.48c.42.22.87.47,1.32.75s.91.57,1.33.87a7.89,7.89,0,0,1,1,.81Z"/><path class="cls-1" d="M522.41,178.57l-.85.09-1,.06-1,0v-.91a1.53,1.53,0,0,1,.17-.92c.34-.32.25-.46-.25-.41a5.56,5.56,0,0,1-1,0,10.16,10.16,0,0,1-1-.13c0,.17.06.33.08.47s0,.3.07.47,0,.38,0,.61,0,.49,0,.81h-4c-.5,0-1,0-1.48,0s-.93,0-1.34-.06l-1.11-.09a4.5,4.5,0,0,1-.76-.13v2.14l.76-.08c.33,0,.7-.06,1.11-.07l1.34,0c.48,0,1,0,1.48,0h4v5.77a1.58,1.58,0,0,1-.1.62.64.64,0,0,1-.41.37,3.09,3.09,0,0,1-.93.11,15.74,15.74,0,0,1-1.61-.1,4.57,4.57,0,0,1,.7,1.09,6,6,0,0,1,.32,1.29,20.19,20.19,0,0,0,2.11-.44,3.78,3.78,0,0,0,1.18-.5,1.27,1.27,0,0,0,.51-.66,3.22,3.22,0,0,0,.11-.95V180.4h1l1,0,.8.05.55.05v-2.08A4.59,4.59,0,0,1,522.41,178.57Z"/><path class="cls-1" d="M512.08,176l1.74,0H518l1.73,0,1.45.08,1.27.1v-2.11l-1.17.1c-.39,0-.82.06-1.29.08l-1.53,0h-1.85v-3.14c1.13,0,2.13,0,3,.07s1.61.09,2.25.16v-2.1c-.64.06-1.39.12-2.26.16s-1.86.06-3,.06v-1.8a1.27,1.27,0,0,1,.1-.52,1,1,0,0,1,.23-.36c.18-.17.26-.28.23-.33s-.13-.07-.33-.07c-.44,0-.83,0-1.18,0s-.71-.06-1.08-.11a9.7,9.7,0,0,1,.07,1c0,.46,0,1.19,0,2.21-1.1,0-2.07,0-2.9-.06s-1.55-.1-2.19-.17v2.11c.62-.07,1.38-.12,2.29-.16s1.85-.07,2.8-.07v3.14c-1.19,0-2.2,0-3-.07s-1.61-.09-2.35-.16v2.1l1.28-.1Z"/><path class="cls-1" d="M105,251.46l6.82-1.67,2,4.53,3.21-.79-7.47-16.34-1.31.32-7.53,20L103,257Zm3.4-9.28,2.74,6.1-5.46,1.34Z"/><path class="cls-1" d="M126.81,251.4c4.13-1,6.4-4.08,6.41-8.88l.05-11-2,.49,0,10.78c0,3.72-1.39,5.81-4.33,6.53-2.73.67-4.43-1-4.41-4.39l.06-10.78-3.17.78,0,10.83C119.32,250.45,122.67,252.42,126.81,251.4Z"/><path class="cls-1" d="M145.74,246.75a6.81,6.81,0,0,0,4.65-3.88l1.14,2.2,1.21-.3,0-8.55-3.21.79v3.12a4.67,4.67,0,0,1-3.57,4.6c-2.58.63-4.75-.85-5.57-4.16-1.22-5,.82-9.39,4.62-10.32a4,4,0,0,1,4.89,2.8l1.66-1.05c-.95-2.69-3.68-4.37-7.46-3.44-5.3,1.3-8.56,7-7.14,12.75A7,7,0,0,0,145.74,246.75Z"/><path class="cls-1" d="M164.09,242.24c4.14-1,6.41-4.08,6.42-8.88l.05-11-2,.49,0,10.77c0,3.73-1.39,5.82-4.34,6.54-2.72.67-4.42-1-4.4-4.39l.06-10.78-3.17.78-.05,10.83C156.61,241.29,160,243.25,164.09,242.24Z"/><path class="cls-1" d="M181.35,238c3.8-.94,6.49-3.95,5.62-7.5-.52-2.12-2.2-2.95-4.43-3.22l-2.37-.28c-1.75-.21-2.74-.56-3.07-1.9-.42-1.7.87-3.08,2.86-3.57a4.58,4.58,0,0,1,5.34,2.18l1.29-1.48c-1.22-2-4-3.14-7-2.38-3.63.89-6,3.64-5.16,7.05.53,2.14,2.32,2.94,4.45,3.2l2.41.25c1.68.21,2.62.68,2.93,1.92.48,2-1.17,3.44-3.24,3.94a5.88,5.88,0,0,1-6.3-2.32l-1.26,1.6C175,237.75,178.24,238.76,181.35,238Z"/><polygon class="cls-1" points="194.83 218.16 194.75 234.45 197.92 233.67 198 217.39 204.42 215.81 204.42 214 188.4 217.94 188.4 219.74 194.83 218.16"/><path class="cls-1" d="M220.65,228.08l.07-18.29-1.82.45a26.67,26.67,0,0,1-5.67,7.3l.65,1.37a13.89,13.89,0,0,0,3.75-4.16l0,14.09Z"/><path class="cls-1" d="M227.39,226.43l3-.74a31.58,31.58,0,0,1,3.84-14.63l1.85-3.53v-1.32l-11.93,2.94,0,3,9.13-2.24-.83,1.54A37.46,37.46,0,0,0,227.39,226.43Z"/><polygon class="cls-1" points="236.87 217.54 246.59 215.15 246.6 213.11 236.89 215.5 236.87 217.54"/><path class="cls-1" d="M249.63,210.12a13.89,13.89,0,0,0,3.76-4.15l0,14.08,3.06-.75.08-18.3-1.83.45a26.54,26.54,0,0,1-5.66,7.31Z"/><path class="cls-1" d="M266.33,210.2a5.7,5.7,0,0,0,4-3.83c.2,4.6-1.38,8.37-4.62,9.16-1.61.4-2.62-.26-2.85-1.18a2.29,2.29,0,0,1,.71-2.19l-1.22-.76A3.38,3.38,0,0,0,261,215c.4,1.63,2.22,2.94,5.07,2.24,5.87-1.44,8.47-8,7.05-13.76-.89-3.6-3.57-5.68-7.15-4.8a6.88,6.88,0,0,0-5.38,8.14A4.51,4.51,0,0,0,266.33,210.2Zm0-10.2a2.64,2.64,0,0,1,3.16,2.22c.58,2.39-.2,5.63-2.61,6.22a2.41,2.41,0,0,1-3.08-2.06C263.16,203.83,263.84,200.61,266.32,200Z"/><polygon class="cls-1" points="282.26 196.68 282.18 212.97 285.35 212.19 285.42 195.9 291.85 194.32 291.85 192.52 275.83 196.46 275.83 198.26 282.26 196.68"/><polygon class="cls-1" points="310.66 205.97 310.71 187.88 307.54 188.66 307.51 196.52 298.63 198.7 298.66 190.85 295.49 191.62 295.42 209.71 298.58 208.94 298.63 200.51 307.52 198.32 307.5 206.75 310.66 205.97"/><path class="cls-1" d="M328.35,201.62l.08-18.3-1.83.45a26.38,26.38,0,0,1-5.67,7.31l.65,1.36a13.77,13.77,0,0,0,3.76-4.15l0,14.08Z"/><path class="cls-1" d="M332.76,194.13c.9,3.66,3.66,5.77,7.07,4.93,5.26-1.29,7.57-7.85,6.19-13.48-.9-3.65-3.66-5.73-7.07-4.89C333.7,182,331.38,188.51,332.76,194.13Zm6.5-12c1.56-.38,2.55.51,3.08,2.68,1.08,4.41.57,12-2.82,12.8-1.53.38-2.53-.54-3.06-2.68C335.33,190.53,335.87,183,339.26,182.13Z"/><path class="cls-1" d="M361.48,193.48l3.21-.79-7.47-16.34-1.31.33-7.53,20,2.22-.55,2-5.53,6.82-1.67Zm-8.18-4.7,2.72-7.43,2.74,6.09Z"/><polygon class="cls-1" points="385.68 169.46 381.73 170.43 376.89 184.76 371.97 172.83 368.07 173.79 368.02 191.87 370.02 191.38 370.08 176.27 375.69 190.07 376.81 189.79 382.57 173.2 382.51 188.31 385.63 187.55 385.68 169.46"/><polygon class="cls-1" points="399.75 175.48 390.03 177.87 390.02 179.91 399.73 177.52 399.75 175.48"/><path class="cls-1" d="M408.69,175.22a5.7,5.7,0,0,0,4-3.83c.2,4.6-1.38,8.37-4.62,9.16-1.6.4-2.62-.26-2.84-1.18a2.31,2.31,0,0,1,.7-2.19l-1.22-.76a3.38,3.38,0,0,0-1.43,3.55c.41,1.63,2.22,2.94,5.07,2.24,5.87-1.44,8.47-8,7.05-13.76-.88-3.6-3.56-5.68-7.14-4.8a6.88,6.88,0,0,0-5.39,8.14A4.52,4.52,0,0,0,408.69,175.22Zm0-10.2a2.63,2.63,0,0,1,3.15,2.22c.59,2.39-.19,5.63-2.6,6.22a2.42,2.42,0,0,1-3.09-2.06C405.52,168.85,406.2,165.63,408.69,165Z"/><path class="cls-1" d="M422.73,171.44l3.48-.86c4.24-1,7.51-4.09,6.51-8.16-.65-2.65-3.06-3.76-6.47-2.92l-6.62,1.62-.08,18.09,3.17-.78Zm0-9.33,2.56-.63c2.38-.59,3.71,0,4.14,1.74.76,3.1-.86,5-4.15,5.8l-2.58.63Z"/><polygon class="cls-1" points="438.25 159.51 443.86 173.31 444.98 173.04 450.74 156.45 450.69 171.56 453.8 170.8 453.85 152.71 449.91 153.68 445.06 168.01 440.14 156.08 436.25 157.04 436.2 175.12 438.2 174.63 438.25 159.51"/><path class="cls-1" d="M106.45,366.84a11.35,11.35,0,0,1-1.26-2.48,17.18,17.18,0,0,1-.74-2.93,30,30,0,0,1-.34-3.54c0-1.29-.07-2.71-.07-4.28-.47.06-1,.11-1.58.13s-1.28,0-2.08,0h-.73l-.65,0-.67-.06-.81-.09v2.26l.8-.08.67,0,.64,0H102a49.08,49.08,0,0,0,.29,5.73,19.46,19.46,0,0,0,1.07,4.61,15.47,15.47,0,0,0,2.17,3.91,21.48,21.48,0,0,0,3.56,3.6,6,6,0,0,1,.91-1.39,8,8,0,0,1,1.14-1.12,19.44,19.44,0,0,1-2.75-2A12,12,0,0,1,106.45,366.84Z"/><path class="cls-1" d="M96.6,355.93c-.44,0-.85,0-1.24-.08a10.48,10.48,0,0,1-1.2-.22,6.1,6.1,0,0,1,.07,1.18c0,.52,0,1.11-.1,1.79s-.15,1.41-.27,2.19-.26,1.58-.43,2.36c-.21,1-.45,1.92-.71,2.74a13.77,13.77,0,0,1-1,2.37,14.69,14.69,0,0,1-1.47,2.22,24.1,24.1,0,0,1-2.14,2.32,7.13,7.13,0,0,1,1.24.47,3.63,3.63,0,0,1,1,.78,15.52,15.52,0,0,0,3.31-4.76A24.78,24.78,0,0,0,95.51,363c.26-1.55.45-2.76.6-3.62s.25-1.5.33-1.92.15-.67.18-.76a.35.35,0,0,1,.1-.17c.2-.13.29-.26.26-.37S96.83,355.93,96.6,355.93Z"/><path class="cls-1" d="M134.32,346.46h-9.76l-1.36,0-1-.05c0,.37.06.8.08,1.3s0,1.16,0,2v6a26.48,26.48,0,0,1-.23,3.79,12.72,12.72,0,0,1-.72,2.89,8.49,8.49,0,0,1-1.3,2.24,10.44,10.44,0,0,1-1.91,1.83,6.24,6.24,0,0,1,1.34.53,4.44,4.44,0,0,1,1.09.88,13,13,0,0,0,2.69-3.84,14,14,0,0,0,1.12-4.71h9.8v3.63a11.35,11.35,0,0,1-.06,1.35.9.9,0,0,1-.36.67,1.38,1.38,0,0,1-.9.13,16.65,16.65,0,0,1-1.74-.25,5.44,5.44,0,0,1,.84,1.38,4,4,0,0,1,.26,1.41,23.14,23.14,0,0,0,2.38-.33,3.16,3.16,0,0,0,1.28-.5,1.35,1.35,0,0,0,.53-.89,9.76,9.76,0,0,0,.1-1.51V349.63c0-.8,0-1.45,0-1.95s0-.94.08-1.31l-1,.05Zm-.13,11h-9.72v-3.68h9.72Zm0-5.44h-9.72v-3.63h9.72Z"/><path class="cls-1" d="M147,341.39v2.38c1-.06,2.14-.11,3.43-.14s2.86,0,4.71,0,3.43,0,4.71,0,2.44.07,3.44.14V341.4c-1,.06-2.15.11-3.44.13s-2.85,0-4.71,0-3.42,0-4.71,0S148,341.46,147,341.39Z"/><path class="cls-1" d="M161.24,355.64c-.85,0-1.78.05-2.78.05l-3.31,0-3.31,0-2.78-.05-2.37-.08c-.73,0-1.42-.06-2.07-.11V358q1-.08,2.07-.12l2.37-.07c.85,0,1.78,0,2.78-.05h6.61l2.79.05,2.37.08c.72,0,1.41.06,2.06.11v-2.55c-.65.05-1.34.08-2.06.11Z"/><path class="cls-1" d="M183.86,340.3v-6.24a6.94,6.94,0,0,1,.09-1.32.86.86,0,0,1,.29-.54c.29-.16.4-.3.35-.4s-.23-.13-.55-.1a8.22,8.22,0,0,1-1.4,0c-.5,0-1-.11-1.48-.19a17.23,17.23,0,0,1,.3,1.84c.06.65.1,1.3.1,2v5c-2.06,0-3.84-.05-5.36-.09s-2.86-.11-4-.19v2.6c1.17-.08,2.51-.14,4-.17s3.3-.06,5.37-.07v7c0,.29,0,.57,0,.87s0,.61,0,1,0,.74-.06,1.18-.06.94-.12,1.5h2.74q-.06-.84-.09-1.5c0-.43-.05-.83-.06-1.18s0-.67,0-1,0-.58,0-.87v-7c2.16,0,4,0,5.62.06s3,.11,4.18.19V340c-1.2.08-2.6.14-4.18.18S186,340.28,183.86,340.3Z"/><path class="cls-1" d="M218.27,328a10.65,10.65,0,0,1,.15-1.46c-.33,0-.69.07-1.06.09s-.86,0-1.43.05l-2.13,0-3.15,0-3.12,0-2.09,0-1.44-.05-1.14-.09c.06.38.12.89.16,1.51s.06,1.3.06,2v11.75c0,.81,0,1.56,0,2.27s-.08,1.49-.17,2.34h2.51V344.6h10.5v1.65h2.53q-.09-1.11-.15-2.07c0-.65,0-1.32,0-2V330.06C218.22,329.31,218.24,328.63,218.27,328Zm-2.39,14.63h-10.5v-6.19h10.51Zm0-8.14h-10.5v-5.82h10.5Z"/><path class="cls-1" d="M254.29,334.33c-.88,0-1.83,0-2.86,0l-3.37,0v-10h3.31c1.14,0,2.14,0,3,0s1.64.08,2.3.16v-2.48c-.69.07-1.46.12-2.32.15s-1.86,0-3,0h-3.31V319a7.26,7.26,0,0,1,.14-1.49,1.42,1.42,0,0,1,.34-.79c.22-.15.32-.27.29-.38s-.15-.15-.39-.15c-.48,0-1,0-1.5-.05a10.9,10.9,0,0,1-1.41-.17,5.15,5.15,0,0,1,.09.73c0,.3,0,.69.06,1.19s0,1.1,0,1.81,0,1.58,0,2.58v12.13c-1.91,0-3.57,0-5-.07s-2.69-.1-3.85-.18v2.51c1.34-.09,2.89-.15,4.64-.19s3.88-.06,6.37-.06h3.43q1.56,0,2.88.06l2.46.07c.75,0,1.47.07,2.15.12v-2.51c-.67.05-1.38.09-2.12.11Z"/><path class="cls-1" d="M277.27,321v-6.34h4.93l1.33,0,1,0v-2.25l-1,.05c-.38,0-.86,0-1.45,0l-2.22,0h-8c.44-.8.76-1.37,1-1.7a2.46,2.46,0,0,1,.44-.6c.3-.24.45-.39.46-.47s-.1-.13-.34-.16c-.42-.08-.9-.2-1.46-.36a10.79,10.79,0,0,1-1.47-.52,16.55,16.55,0,0,1-.55,2.09c-.24.72-.5,1.42-.8,2.12a20.1,20.1,0,0,1-1.66,3.05,10.22,10.22,0,0,1-1.93,2.21,4.27,4.27,0,0,1,1.34.41,2.14,2.14,0,0,1,.89.72l.83-1.07c.25-.34.49-.69.71-1s.46-.75.7-1.17.51-.9.79-1.45h4.29V321c-2.24,0-4.17,0-5.78-.06s-3.05-.11-4.3-.19v2.58c1.25-.09,2.69-.14,4.3-.18s3.54,0,5.78,0v4.43q0,.85-.06,2c0,.75-.1,1.43-.16,2h2.68c-.08-.7-.15-1.4-.19-2.1s-.06-1.34-.06-1.91v-4.43c2,0,3.66,0,5.1.07s2.75.09,3.9.16v-2.59c-1.15.07-2.45.12-3.9.17S279.23,321,277.27,321Z"/><path class="cls-1" d="M304.34,310.75v-6.24a6.79,6.79,0,0,1,.09-1.32.77.77,0,0,1,.29-.54c.28-.17.4-.3.35-.4s-.23-.13-.55-.1a9.54,9.54,0,0,1-1.41,0c-.5,0-1-.11-1.47-.19a16.83,16.83,0,0,1,.3,1.84c.06.64.1,1.3.1,2v5c-2,0-3.84-.05-5.35-.09s-2.86-.11-4.05-.19v2.6c1.17-.08,2.51-.14,4-.17s3.3-.06,5.37-.07v7c0,.28,0,.57,0,.86s0,.62,0,1,0,.74-.06,1.18-.07.93-.12,1.5h2.73c0-.57-.06-1.07-.08-1.5s-.05-.83-.07-1.18,0-.67,0-1,0-.58,0-.86v-7c2.15,0,4,0,5.61.06s3,.11,4.19.19v-2.61c-1.2.09-2.6.15-4.19.19S306.49,310.73,304.34,310.75Z"/><path class="cls-1" d="M329.23,297.89V300c.61-.07,1.38-.12,2.29-.16s1.84-.06,2.79-.06v3.13c-1.18,0-2.19,0-3-.06s-1.61-.1-2.34-.17v2.11l1.28-.1c.45,0,.94-.06,1.46-.08l1.75,0h2.1l2.09,0c.63,0,1.21,0,1.73,0s1,0,1.46.07l1.26.1v-2.1l-1.16.1-1.29.07-1.53,0h-1.86v-3.13q1.71,0,3,.06c.86,0,1.61.1,2.24.16v-2.1c-.63.06-1.38.12-2.25.16s-1.87.06-3,.06v-1.8a1.27,1.27,0,0,1,.1-.52,1,1,0,0,1,.22-.36c.19-.17.27-.28.24-.32s-.14-.08-.34-.08c-.43,0-.83,0-1.18,0s-.71-.06-1.07-.11c0,.23,0,.57.07,1s0,1.18,0,2.2c-1.11,0-2.07,0-2.9-.06S329.86,298,329.23,297.89Z"/><path class="cls-1" d="M336,312.48c-.75-.45-1.56-.92-2.41-1.4s-1.63-.9-2.35-1.26L330,311.3c.25.1.59.26,1,.48s.87.47,1.33.75.9.57,1.33.87a8.63,8.63,0,0,1,1,.81Z"/><path class="cls-1" d="M328,299.55c0-.44,0-.87,0-1.31s0-.81.06-1.15l-.51.08-.66.05-1,0h-3q-.59,0-1,0l-.66,0a3.92,3.92,0,0,1-.51-.07c0,.33.05.72.06,1.15s0,.87,0,1.3V313c0,.6,0,1.18,0,1.72s-.08,1.1-.14,1.67h2.08v-2.63h3.41v2.08h2q-.15-1.68-.15-3.39ZM326.14,312h-3.41v-5.61h3.41Zm0-7.32h-3.41v-5.79h3.4Z"/><path class="cls-1" d="M341.18,307.26c-.32,0-.65,0-1,.06l-1,0v-.91c0-.5.06-.81.18-.92.33-.32.25-.45-.25-.4a6.61,6.61,0,0,1-1,0c-.28,0-.62-.06-1-.12a4.64,4.64,0,0,1,.09.46,3.14,3.14,0,0,1,.06.48c0,.17,0,.37,0,.6s0,.49,0,.81h-4c-.5,0-1,0-1.48,0s-.93,0-1.34-.06-.77,0-1.1-.09a4.67,4.67,0,0,1-.76-.12v2.13l.76-.08c.33,0,.69-.06,1.1-.07l1.34-.05c.49,0,1,0,1.48,0h4v5.77a1.67,1.67,0,0,1-.1.63.68.68,0,0,1-.41.36,3.09,3.09,0,0,1-.93.11,16.08,16.08,0,0,1-1.62-.1,4.17,4.17,0,0,1,.7,1.09,5.45,5.45,0,0,1,.33,1.29,19.37,19.37,0,0,0,2.1-.44,3.47,3.47,0,0,0,1.18-.5,1.29,1.29,0,0,0,.52-.66,3.59,3.59,0,0,0,.11-.95V309h1l1,0,.8.05.55,0v-2.08a2.89,2.89,0,0,1-.55.1C341.78,307.21,341.5,307.23,341.18,307.26Z"/><path class="cls-1" d="M349.22,292.39c1.15-.08,2.49-.14,4-.18s3.36-.07,5.51-.07l3.06,0c.92,0,1.77,0,2.54,0l2.14.08c.64,0,1.25.06,1.84.11v-2.28c-.59.05-1.21.09-1.87.11l-2.15.07c-.78,0-1.63.05-2.55.05s-1.92,0-3,0c-2.14,0-4,0-5.48-.06s-2.87-.11-4-.19Z"/><path class="cls-1" d="M360,307.48v-3.11c1.47,0,2.73.05,3.79.08s2,.09,2.85.15v-2.23q-1.28.11-2.85.15c-1.06,0-2.32.06-3.79.08v-3.36l2.23-.14,2.54-.16c.23.28.46.57.7.85l.7.9L368,299c-.31-.34-.63-.67-1-1s-.69-.69-1.09-1.06-.85-.79-1.35-1.24-1.08-1-1.73-1.51L361,295.3c.44.34.85.68,1.24,1s.78.72,1.17,1.1c-2,.09-3.74.15-5.2.2l-4,.13q1-.88,1.8-1.59c.51-.48.94-.91,1.31-1.3a10.68,10.68,0,0,1,.88-.78,3.38,3.38,0,0,1,.62-.44q.59-.25.57-.42c0-.11-.18-.18-.52-.23s-.55-.12-1-.25a11.33,11.33,0,0,1-1.28-.48,13.54,13.54,0,0,1-1.82,2.65,26.17,26.17,0,0,1-2.89,2.88l-1,0h-1.06a5.92,5.92,0,0,1,.4,1.09,6.46,6.46,0,0,1,.2,1.09,4.38,4.38,0,0,1,.57-.11c.27,0,.69-.09,1.25-.14l2.21-.17,3.44-.23v3.24c-1.59,0-2.95,0-4.08-.06s-2.17-.09-3.09-.17v2.23q2.65-.23,7.17-.23v3.11c-2.17,0-4,0-5.6-.06s-3-.11-4.18-.19v2.43c1.29-.08,2.8-.15,4.53-.2s3.81-.07,6.25-.07h3.41l2.87.05,2.44.09c.76,0,1.46.08,2.11.13v-2.43c-1.2.08-2.57.14-4.11.17S362.2,307.47,360,307.48Z"/><path class="cls-1" d="M393.6,292.57c-.5-.45-1.06-.92-1.67-1.43s-1.33-1.09-2.17-1.75L388.11,291c.63.45,1.22.91,1.77,1.36s1.05.94,1.54,1.42.95,1,1.41,1.53.93,1.11,1.42,1.73l2.05-1.75c-.45-.49-.89-.94-1.31-1.37S394.1,293,393.6,292.57Z"/><path class="cls-1" d="M392.87,283.62l-2.84.05h-3.37l-3.38,0c-1,0-2,0-2.84-.05l-2.4-.07c-.74,0-1.44-.07-2.11-.12v2.46l1.78-.1c.62,0,1.29-.06,2-.07l2.31,0c.83,0,1.74,0,2.72,0v15.48c0,.31,0,.61,0,.92s0,.61-.05.93,0,.69-.07,1.09h2.63c-.05-.42-.09-.79-.12-1.12s0-.64,0-.94l0-.9c0-.3,0-.64,0-1V285.63l3.24,0c1,0,1.9,0,2.74.05l2.35.08c.71,0,1.39.06,2,.11v-2.46c-.66.05-1.35.09-2.1.11Z"/><path class="cls-1" d="M416,287v-6.34h3l2,0,1.33,0,1,.05v-2.26l-1,0-1.45,0H410.62q.64-1.2,1-1.71a3.47,3.47,0,0,1,.44-.6c.3-.23.46-.39.47-.46s-.11-.13-.34-.17q-.63-.12-1.47-.36a11.63,11.63,0,0,1-1.46-.51,17.58,17.58,0,0,1-.56,2.09c-.23.71-.5,1.42-.8,2.12a20.44,20.44,0,0,1-1.65,3,10.08,10.08,0,0,1-1.94,2.22,4.1,4.1,0,0,1,1.34.4,2.08,2.08,0,0,1,.89.73c.31-.39.58-.75.83-1.08s.49-.68.72-1,.46-.75.7-1.17.5-.9.79-1.45h4.29V287c-2.24,0-4.16,0-5.77-.06s-3.05-.11-4.3-.19v2.58c1.25-.08,2.68-.14,4.29-.17s3.54-.05,5.78-.05v4.44q0,.84-.06,2c-.05.75-.1,1.42-.17,2h2.68c-.08-.71-.14-1.41-.18-2.11s-.06-1.34-.06-1.9v-4.44c2,0,3.65,0,5.1.08s2.74.08,3.9.15v-2.58c-1.16.06-2.46.12-3.9.16S418,287,416,287Z"/><path class="cls-1" d="M451.25,286.73l-1.27,0H448.6l.5-10c-.42,0-.84.07-1.28.09s-.93,0-1.49.05l-1.93,0-2.59,0,.78-4.74c2,0,3.78,0,5.27.06s2.81.11,3.93.19v-2.5c-1.16.1-2.5.16-4,.2s-3.35,0-5.44,0-3.89,0-5.42-.06-2.87-.11-4-.19v2.51c1-.09,2-.14,3.22-.18l4.13-.07-.76,4.73c-.68,0-1.29,0-1.81,0l-1.43,0-1.18,0c-.36,0-.72,0-1.07-.07v2.33l2.53-.14c.84,0,1.72-.07,2.64-.08l-1.29,8q-4.71,0-6.66-.22V289c.73-.08,2-.14,3.73-.17s4.1-.05,7-.05l5.08,0,3.17,0c.8,0,1.41,0,1.83.07l1.08.1v-2.45c-.2,0-.46.06-.78.08S451.65,286.72,451.25,286.73Zm-4.91.08H440.2l1.31-8h5.26Z"/><path class="cls-1" d="M470.42,270.58l1.74,0c.64,0,1.34,0,2.11,0h2.09l1.73,0c.53,0,1,0,1.46.07l1.26.1v-2.1l-1.16.1-1.29.07-1.53,0H475v-3.13q1.71,0,3,.06c.86,0,1.61.1,2.24.16v-2.1c-.63.07-1.38.12-2.25.16s-1.87.06-3,.06v-1.8a1.22,1.22,0,0,1,.1-.51,1.06,1.06,0,0,1,.22-.37c.19-.17.27-.28.24-.32s-.14-.08-.34-.08c-.43,0-.83,0-1.18,0s-.71-.06-1.07-.11c0,.23.05.58.07,1s0,1.18,0,2.2c-1.11,0-2.07,0-2.9-.06s-1.56-.1-2.19-.16V266c.61-.07,1.38-.12,2.29-.16s1.84-.06,2.79-.06v3.13c-1.18,0-2.19,0-3-.06s-1.61-.1-2.34-.17v2.11l1.28-.1C469.41,270.62,469.9,270.6,470.42,270.58Z"/><path class="cls-1" d="M479.91,273.23q-.48,0-1,.06l-1,0v-.91a1.46,1.46,0,0,1,.18-.92c.33-.32.25-.45-.25-.4a6.61,6.61,0,0,1-1,0,10.26,10.26,0,0,1-1-.12,4.64,4.64,0,0,1,.09.46,3.14,3.14,0,0,1,.06.48c0,.17,0,.37,0,.6s0,.49,0,.81h-4c-.5,0-1,0-1.48,0s-.93,0-1.34-.06-.77-.05-1.1-.09a4.67,4.67,0,0,1-.76-.12v2.13l.76-.08,1.1-.07,1.34,0c.49,0,1,0,1.48,0h4v5.76a1.67,1.67,0,0,1-.1.63.68.68,0,0,1-.41.36,2.79,2.79,0,0,1-.93.11,16.08,16.08,0,0,1-1.62-.1,4.17,4.17,0,0,1,.7,1.09,5.45,5.45,0,0,1,.33,1.29,19.91,19.91,0,0,0,2.1-.44,3.47,3.47,0,0,0,1.18-.5,1.29,1.29,0,0,0,.52-.66,3.59,3.59,0,0,0,.11-.95V275h1l1,0,.8.05.55.05V273a2.89,2.89,0,0,1-.55.1C480.51,273.18,480.23,273.21,479.91,273.23Z"/><path class="cls-1" d="M474.72,278.46c-.75-.46-1.56-.92-2.41-1.41s-1.63-.9-2.35-1.26l-1.28,1.48c.25.1.59.26,1,.48s.87.47,1.33.75.9.58,1.33.87a8.63,8.63,0,0,1,1,.81Z"/><path class="cls-1" d="M466.75,265.52c0-.44,0-.87,0-1.31s0-.81.06-1.15a4.5,4.5,0,0,1-.51.08l-.66.05-1,0h-3l-1,0-.66-.06a3.92,3.92,0,0,1-.51-.07c0,.33.05.72.06,1.15s0,.87,0,1.31v13.4c0,.61,0,1.18,0,1.72s-.08,1.1-.14,1.67h2.08v-2.63h3.41v2.08h2q-.15-1.68-.15-3.39ZM464.87,278h-3.41v-5.61h3.41Zm0-7.31h-3.41v-5.79h3.4Z"/><path class="cls-1" d="M121,331.88l6.82-1.67,2,4.53,3.22-.79-7.48-16.33-1.31.32-7.52,20,2.21-.54Zm3.4-9.27,2.74,6.09L121.7,330Z"/><path class="cls-1" d="M149.22,322.94l.05-11-2,.49,0,10.78c0,3.72-1.39,5.81-4.33,6.54-2.73.67-4.43-1-4.41-4.39l.06-10.78-3.16.77-.05,10.83c0,4.73,3.32,6.7,7.46,5.68S149.22,327.74,149.22,322.94Z"/><path class="cls-1" d="M165.54,320.56a4.66,4.66,0,0,1-3.57,4.59c-2.58.64-4.75-.85-5.56-4.16-1.22-5,.81-9.39,4.61-10.32a4,4,0,0,1,4.9,2.8l1.65-1.05c-.94-2.69-3.68-4.37-7.45-3.44-5.31,1.31-8.57,7-7.14,12.75a7,7,0,0,0,8.77,5.44,6.79,6.79,0,0,0,4.64-3.88l1.14,2.2,1.22-.3v-8.55l-3.21.79Z"/><path class="cls-1" d="M172.69,306.15,172.64,317c0,4.73,3.32,6.7,7.46,5.68s6.41-4.08,6.41-8.88l.05-11-2,.49,0,10.78c0,3.72-1.39,5.81-4.33,6.53-2.73.67-4.43-1-4.41-4.39l.06-10.78Z"/><path class="cls-1" d="M203,310.92c-.52-2.12-2.19-2.94-4.43-3.22l-2.36-.27c-1.76-.22-2.75-.56-3.08-1.9-.42-1.71.87-3.08,2.87-3.57a4.55,4.55,0,0,1,5.33,2.17l1.29-1.48c-1.22-2-3.94-3.13-7-2.37-3.62.89-6,3.64-5.16,7.05.53,2.14,2.33,2.94,4.45,3.19l2.42.26c1.68.2,2.62.67,2.92,1.91.49,2-1.17,3.44-3.24,3.95a5.88,5.88,0,0,1-6.3-2.33l-1.26,1.6a7.57,7.57,0,0,0,8,2.51C201.15,317.49,203.85,314.48,203,310.92Z"/><polygon class="cls-1" points="204.4 298.36 204.41 300.17 210.83 298.59 210.75 314.87 213.92 314.09 214 297.81 220.43 296.23 220.42 294.42 204.4 298.36"/><path class="cls-1" d="M241.73,304.37l-9.13,2.24c6.57-6.26,9.52-9.8,8.62-13.45-.6-2.46-3.05-3.36-6.06-2.62-3.78.93-5.91,4.14-5.21,7a2.69,2.69,0,0,0,2.1,2.17l1-1.39a2.36,2.36,0,0,1-1.21-1.56,3.73,3.73,0,0,1,2.94-4.23c1.68-.41,2.82.26,3.16,1.62.73,3-1.45,5.86-4.25,9.41l-4.56,5.82v1l12.32-3Z"/><path class="cls-1" d="M251.8,305c5.26-1.29,7.57-7.85,6.19-13.47-.89-3.65-3.65-5.74-7.06-4.9-5.26,1.29-7.58,7.82-6.2,13.45C245.63,303.77,248.39,305.88,251.8,305Zm-.57-16.92c1.56-.39,2.55.51,3.09,2.67,1.08,4.41.56,12-2.82,12.8-1.53.38-2.53-.54-3.06-2.68C247.31,296.52,247.85,289,251.23,288.12Z"/><polygon class="cls-1" points="267.08 301.03 270.24 300.25 270.32 283.97 276.75 282.39 276.74 280.58 260.72 284.52 260.73 286.33 267.15 284.75 267.08 301.03"/><polygon class="cls-1" points="295.56 294.03 295.61 275.95 292.44 276.73 292.41 284.58 283.52 286.77 283.56 278.91 280.39 279.69 280.32 297.78 283.48 297 283.53 288.57 292.41 286.39 292.39 294.81 295.56 294.03"/><path class="cls-1" d="M313.25,289.69l.07-18.3-1.82.45a26.67,26.67,0,0,1-5.67,7.3l.65,1.37a13.84,13.84,0,0,0,3.75-4.15l-.05,14.08Z"/><path class="cls-1" d="M324.73,287.12c5.25-1.29,7.57-7.84,6.19-13.47-.9-3.65-3.66-5.74-7.07-4.9-5.26,1.29-7.58,7.83-6.19,13.45C318.55,285.85,321.32,288,324.73,287.12ZM321.36,283c-1.13-4.39-.59-12,2.8-12.79,1.55-.38,2.55.51,3.08,2.67,1.08,4.41.56,12-2.82,12.81C322.89,286.05,321.89,285.14,321.36,283Z"/><path class="cls-1" d="M342.12,264.42l-1.32.32-7.52,20,2.22-.54,2-5.53,6.81-1.68,2.05,4.54,3.21-.79Zm-3.92,12.42,2.72-7.43,2.73,6.09Z"/><polygon class="cls-1" points="361.79 272.83 356.87 260.9 352.97 261.86 352.92 279.94 354.92 279.45 354.97 264.33 360.58 278.13 361.7 277.86 367.46 261.26 367.41 276.38 370.52 275.61 370.57 257.53 366.63 258.5 361.79 272.83"/><polygon class="cls-1" points="384.64 263.55 374.93 265.93 374.92 267.98 384.63 265.59 384.64 263.55"/><path class="cls-1" d="M393.78,258.18a6.32,6.32,0,0,0-3.1,1.79l.43-4.44,7.45-1.83.34-3.13-9,2.2-1,9.7,1.07-.26a4.69,4.69,0,0,1,2.85-2.07,2.66,2.66,0,0,1,3.5,2.06c.77,3.14-.62,5.78-3.35,6.45-1.73.42-3.2-.22-3.51-1.49a2.49,2.49,0,0,1,.67-2.2L389,264a3.77,3.77,0,0,0-1.36,3.79c.51,2.09,3,3.18,6,2.44,4.41-1.08,7.08-4.92,6.12-8.86C399.1,258.63,396.58,257.49,393.78,258.18Z"/><path class="cls-1" d="M406.72,259.72l3.49-.85c4.23-1,7.51-4.09,6.51-8.16-.65-2.66-3.07-3.76-6.48-2.93l-6.62,1.63-.07,18.09,3.16-.78Zm0-9.33,2.55-.62c2.39-.59,3.72,0,4.15,1.74.76,3.09-.87,5-4.15,5.8l-2.58.63Z"/><polygon class="cls-1" points="434.68 259.85 437.8 259.08 437.85 241 433.9 241.97 429.06 256.3 424.14 244.37 420.25 245.33 420.2 263.41 422.19 262.92 422.25 247.8 427.86 261.6 428.98 261.33 434.74 244.73 434.68 259.85"/><path class="cls-1" d="M236,152.56c-.44,0-.8-.05-1.08-.08l-.8-.1v1.93c.85-.12,1.73-.19,2.63-.23v2.81c-.62,0-1.24,0-1.85,0s-1.2-.08-1.73-.15v1.93a16.73,16.73,0,0,1,1.69-.14l1.79-.06a6.18,6.18,0,0,1-1,2.49,4.94,4.94,0,0,1-2.06,1.69,4.87,4.87,0,0,1,1.06.63,3.49,3.49,0,0,1,.69.7,8.36,8.36,0,0,0,2.08-2.52,9.78,9.78,0,0,0,1-3h2.9v2.26a26.37,26.37,0,0,1-.15,3.25h2.08c0-.38-.1-.85-.13-1.4s0-1.17,0-1.85v-2.26c.62,0,1.24,0,1.88.05s1.22.08,1.75.15v-1.93c-.54.07-1.12.12-1.75.15s-1.27,0-1.88,0v-2.8a26,26,0,0,1,2.65.22v-1.93q-.4.07-.84.12l-1.09.06-1.58,0h-4.64Zm5.33,1.52v2.81h-2.8v-2.81Z"/><path class="cls-1" d="M238.67,143.31l-1.17.08-1.16,0h-3.76c-.39,0-.78,0-1.18,0s-.79,0-1.18-.08c0,.39,0,.82,0,1.31s0,1,0,1.53V160c0,.45,0,.87,0,1.25s0,.76,0,1.13,0,.74-.06,1.11,0,.78-.09,1.22h2.26c-.08-.84-.14-1.61-.17-2.32s0-1.51,0-2.39v-8.85h4.21l1.17,0c.39,0,.78,0,1.16.07,0-.37-.06-.74-.08-1.13s0-.85,0-1.4v-2.58c0-.55,0-1.06,0-1.54S238.63,143.69,238.67,143.31ZM232.13,145h4.76v1.61h-4.76Zm0,4.71v-1.56h4.76v1.55Z"/><path class="cls-1" d="M241,146.24v2.55c0,.56,0,1,0,1.33s0,.7-.07,1.08l1.16-.08,1.17,0h4.48v10.52a4.25,4.25,0,0,1,0,.69.62.62,0,0,1-.26.4,1.4,1.4,0,0,1-.63.17,9.8,9.8,0,0,1-1.14,0,2.49,2.49,0,0,1,.54,1,3.78,3.78,0,0,1,.11,1.15,15.06,15.06,0,0,0,1.67-.28,2.58,2.58,0,0,0,1-.46,1.45,1.45,0,0,0,.5-.78,5.18,5.18,0,0,0,.14-1.31V146.24c0-.54,0-1.05,0-1.53s0-.92,0-1.3l-1.17.07-1.16,0h-4.09l-1.16,0c-.39,0-.78,0-1.16-.07,0,.38.05.81.07,1.29S241,145.69,241,146.24Zm6.71,3.33h-5V148h5Zm0-4.56v1.58h-5V145Z"/><path class="cls-1" d="M264.08,138.39c-.23-.54-.45-1.08-.66-1.63s-.38-1-.52-1.45l-2.25.93a11.15,11.15,0,0,1,.61,1.57,15.43,15.43,0,0,1,.42,1.61Z"/><path class="cls-1" d="M268,158.05a17.48,17.48,0,0,0,2.4-1.5,10.93,10.93,0,0,0,1.91-1.88,11.31,11.31,0,0,0,2.41,1.71q1.27.66,2.85,1.32a6,6,0,0,1,.57-1.34,5.2,5.2,0,0,1,1-1.24,11.09,11.09,0,0,1-2.88-.59,9.91,9.91,0,0,1-2.73-1.54,15.66,15.66,0,0,0,1.06-2,13.77,13.77,0,0,0,.74-2.32,27.05,27.05,0,0,0,.49-3q.18-1.69.33-4h1.41c.35,0,.68,0,1,.06v-2.1a9,9,0,0,1-1.13.11c-.47,0-1.2,0-2.21,0H271c.46-1.17.81-2,1.05-2.48a2.84,2.84,0,0,1,.47-.8c.19-.08.28-.18.28-.29s-.06-.17-.18-.19a3.06,3.06,0,0,1-.59-.12l-.76-.21-.78-.25a4.21,4.21,0,0,1-.62-.27c-.1.87-.24,1.71-.4,2.51a16.83,16.83,0,0,1-.69,2.37,16.53,16.53,0,0,1-1.09,2.3,15.21,15.21,0,0,1-1.6,2.27c.32.15.64.33,1,.53l.9.57a15.22,15.22,0,0,0,1.22-1.85,16,16,0,0,0,1.08-2.21H274a37.54,37.54,0,0,1-.57,6.12,10.71,10.71,0,0,1-1.38,3.83,10,10,0,0,1-.94-2.38,40.84,40.84,0,0,1-.86-4.16l-1.83.45a20.75,20.75,0,0,0,1,4.56,13.3,13.3,0,0,0,1.44,3.06,10.55,10.55,0,0,1-2.12,1.84,12.55,12.55,0,0,1-2.72,1.26,4.58,4.58,0,0,1,2,1.83Z"/><path class="cls-1" d="M263.15,154.92a4.11,4.11,0,0,1-2.34.08,5.07,5.07,0,0,1,.66,1.34,3.87,3.87,0,0,1,.22,1.29,17.78,17.78,0,0,0,2.09-.45,4.08,4.08,0,0,0,1.29-.63,2.07,2.07,0,0,0,.67-.93,4.58,4.58,0,0,0,.25-1.35l.5-9.17c-.2,0-.45.06-.75.08l-.95,0h-3.13c0-.55.06-1.11.1-1.69s.06-1.18.09-1.81h1.88l1.51,0,1.21.05,1,.09v-2.18c-.65.07-1.41.11-2.29.14s-1.94,0-3.19,0-2.31,0-3.18,0-1.66-.07-2.36-.13v2.17a32.75,32.75,0,0,1,3.36-.15c-.08,2-.19,3.74-.31,5.19a25.87,25.87,0,0,1-.6,3.87,14.39,14.39,0,0,1-1.09,3.05,14.61,14.61,0,0,1-1.73,2.7,3.57,3.57,0,0,1,1.15.36,4.48,4.48,0,0,1,1,.71,19.19,19.19,0,0,0,1.26-2.16,16.64,16.64,0,0,0,.93-2.33,23.13,23.13,0,0,0,.65-2.72c.17-1,.32-2.09.44-3.31h2.8l-.37,6.61A1.33,1.33,0,0,1,263.15,154.92Z"/><path class="cls-1" d="M305.37,142.37l.8,0,.55.05V140.4l-.55.1-.85.08-1,.07-1,0v-.9a1.49,1.49,0,0,1,.18-.93c.33-.31.25-.45-.25-.4a5.58,5.58,0,0,1-1,0,10.31,10.31,0,0,1-1-.13c0,.17.07.33.09.47a3.16,3.16,0,0,1,.06.47c0,.18,0,.38,0,.6s0,.5,0,.82h-4l-1.48,0-1.34-.06-1.1-.09a6,6,0,0,1-.77-.13v2.13l.77-.07c.32,0,.69-.06,1.1-.08l1.34,0c.48,0,1,0,1.48,0h4v5.76a1.67,1.67,0,0,1-.1.63.65.65,0,0,1-.41.36,2.75,2.75,0,0,1-.93.12c-.41,0-.95,0-1.62-.1a4.34,4.34,0,0,1,.71,1.09,5.75,5.75,0,0,1,.32,1.29c.89-.15,1.59-.3,2.11-.44a3.48,3.48,0,0,0,1.17-.51,1.29,1.29,0,0,0,.52-.66,3.59,3.59,0,0,0,.11-1v-6.56h1Z"/><path class="cls-1" d="M290.29,149.12h2c-.1-1.12-.15-2.25-.15-3.38V132.89c0-.44,0-.87,0-1.31s0-.81.07-1.15a4.34,4.34,0,0,1-.52.08l-.65.05c-.26,0-.58,0-1,0h-3c-.39,0-.72,0-1,0l-.66-.05a4.18,4.18,0,0,1-.51-.07c0,.33.05.72.06,1.15s0,.87,0,1.3v13.4c0,.6,0,1.18,0,1.72s-.07,1.1-.13,1.67h2.08V147h3.41Zm-3.41-16.88h3.4V138h-3.41Zm0,13.1v-5.61h3.41v5.61Z"/><path class="cls-1" d="M293.36,131.23v2.11c.61-.07,1.38-.12,2.29-.17s1.84-.06,2.79-.06v3.13c-1.18,0-2.19,0-3-.06s-1.6-.1-2.34-.16v2.1l1.28-.1c.45,0,.94-.06,1.47-.07l1.74,0,2.1,0,2.09,0c.63,0,1.2,0,1.73,0s1,0,1.45.08l1.27.1V136l-1.17.1c-.39,0-.82.06-1.29.08l-1.53,0h-1.85v-3.13c1.13,0,2.13,0,3,.06s1.61.1,2.24.16v-2.1c-.63.06-1.38.12-2.25.16s-1.86.07-3,.07v-1.81a1.25,1.25,0,0,1,.1-.51,1,1,0,0,1,.22-.36q.29-.25.24-.33s-.14-.08-.34-.08c-.43,0-.82,0-1.18,0s-.7-.06-1.07-.11a9.7,9.7,0,0,1,.07,1c0,.45,0,1.19,0,2.21-1.1,0-2.07,0-2.89-.06S294,131.3,293.36,131.23Z"/><path class="cls-1" d="M297.73,144.41c-.85-.49-1.64-.9-2.36-1.25l-1.27,1.48a11,11,0,0,1,1,.47c.43.22.87.47,1.33.75s.9.57,1.33.87a9.5,9.5,0,0,1,1,.81l1.32-1.73C299.38,145.36,298.58,144.89,297.73,144.41Z"/><path class="cls-1" d="M318.26,141.22l.75-.05.9,0h6.14c.35,0,.66,0,.92,0l.76.05a2.31,2.31,0,0,1-.11-.62,7.94,7.94,0,0,1,0-.83v-5.23a6.2,6.2,0,0,1,.05-.86,3.29,3.29,0,0,1,.1-.6l-.77.05-.91,0h-4.87l-1.27,0c-.35,0-.65,0-.9,0l-.75,0a3.46,3.46,0,0,1,.08.6,8.06,8.06,0,0,1,0,.85v5.24c0,.26,0,.54,0,.82A6.17,6.17,0,0,1,318.26,141.22Zm7.52-1.66h-5.72v-1.72h5.71Zm0-4.76v1.58h-5.71v-1.57Z"/><path class="cls-1" d="M330.94,144.12a3,3,0,0,0,1-.54,1.54,1.54,0,0,0,.46-.79,5.57,5.57,0,0,0,.11-1.18V125.33c0-.42,0-.81,0-1.18s0-.7,0-1c-.73,0-1.48.08-2.23.08h-4.13c-.77,0-1.51,0-2.23-.07,0,.3.06.63.07,1s0,.76,0,1.19v4c0,.44,0,.84,0,1.2s0,.71-.08,1c.72-.05,1.46-.08,2.23-.08h4.39v9.79a2.44,2.44,0,0,1-.05.53.48.48,0,0,1-.25.31,1.61,1.61,0,0,1-.58.17,9.15,9.15,0,0,1-1.05,0,6,6,0,0,1,.39,1.12,3.26,3.26,0,0,1,.06,1.1A12.68,12.68,0,0,0,330.94,144.12Zm-5.1-19.31h4.76v1.78h-4.76Zm0,5V128h4.76v1.77Z"/><path class="cls-1" d="M315.59,143.1l-.06-1.17c0-.39,0-.79,0-1.19s0-.83,0-1.3v-8.09h4.3c.77,0,1.55,0,2.33.07-.05-.28-.08-.62-.11-1s0-.81,0-1.24v-3.86a13.63,13.63,0,0,1,.15-2.2c-.79,0-1.56.07-2.33.07h-3.86c-.78,0-1.56,0-2.33-.07,0,.3,0,.64,0,1s0,.77,0,1.2v14.13c0,.47,0,.9,0,1.31s0,.79,0,1.17,0,.77-.06,1.16-.05.8-.09,1.25h2.23Q315.64,143.67,315.59,143.1Zm-.12-18.34h4.74v1.7h-4.74Zm0,3.21h4.74v1.7h-4.74Z"/><polygon class="cls-1" points="266.43 45.32 256.35 45.36 256.35 47.98 266.39 48.02 266.43 45.32"/><polygon class="cls-1" points="261.41 60.95 263.12 62.7 270.27 55.63 268.52 53.84 261.41 60.95"/><polygon class="cls-1" points="270.99 37.28 263.84 30.13 261.87 31.96 269.17 39.18 270.99 37.28"/><path class="cls-1" d="M270.65,39.67a9.59,9.59,0,0,0-2.9,7.06,9.86,9.86,0,0,0,2.87,7.11,9.42,9.42,0,0,0,6.95,2.94,10,10,0,0,0,7.11-2.86,9,9,0,0,0,3.06-6.77,10.34,10.34,0,0,0-2.83-7.39,9.49,9.49,0,0,0-7.11-3A9.79,9.79,0,0,0,270.65,39.67Zm15.09,7.48a7.06,7.06,0,0,1-2.43,5.32,8,8,0,0,1-5.74,2.31,7.4,7.4,0,0,1-5.52-2.34,7.78,7.78,0,0,1-2.3-5.71,7.55,7.55,0,0,1,2.31-5.64,7.76,7.76,0,0,1,5.74-2.3,7.44,7.44,0,0,1,5.67,2.36A8.28,8.28,0,0,1,285.74,47.15Z"/><polygon class="cls-1" points="279.05 58.33 276.51 58.33 276.47 68.4 279.05 68.48 279.05 58.33"/><polygon class="cls-1" points="279.02 25.82 276.47 25.85 276.43 36.01 279.05 35.97 279.02 25.82"/><polygon class="cls-1" points="284.95 55.17 292.1 62.36 293.96 60.46 286.81 53.27 284.95 55.17"/><polygon class="cls-1" points="293.92 31.98 292.17 30.23 285.1 37.34 286.81 39.09 293.92 31.98"/><polygon class="cls-1" points="288.71 48.06 298.9 48.02 298.94 45.44 288.75 45.4 288.71 48.06"/><rect class="cls-2" width="554.67" height="413.32"/></g></g></svg>