<svg xmlns="http://www.w3.org/2000/svg" viewBox="0 0 555 87.8"><defs><style>.cls-1{fill:#fff;}.cls-2{fill:none;}</style></defs><title>instagram_1</title><g id="Layer_2" data-name="Layer 2"><g id="Layer_1-2" data-name="Layer 1"><path class="cls-1" d="M199.76,74.06l-3.39.83.07-19.4,3.4-.83Z"/><path class="cls-1" d="M218.33,50.11l2.14-.52-.1,19.46-1.28.31L207.34,56.47l0,15.73-2.14.53.07-19.4,3.22-.79,9.8,10.94Z"/><path class="cls-1" d="M235.31,60.2c-.33-1.33-1.33-1.83-3.13-2.05l-2.59-.28c-2.28-.27-4.21-1.13-4.77-3.43-.9-3.65,1.64-6.6,5.53-7.56,3.32-.81,6.24.38,7.55,2.55L236.52,51a4.92,4.92,0,0,0-5.73-2.34c-2.14.53-3.52,2-3.07,3.83.35,1.44,1.41,1.82,3.3,2l2.53.29c2.4.3,4.2,1.19,4.76,3.46.93,3.81-2,7-6,8-3.34.82-6.82-.26-8.55-2.69l1.35-1.71a6.34,6.34,0,0,0,6.76,2.49C234.06,63.89,235.83,62.31,235.31,60.2Z"/><path class="cls-1" d="M246.74,45.07l-6.89,1.69V44.83L257,40.61v1.93l-6.9,1.7-.08,17.46-3.39.83Z"/><path class="cls-1" d="M269.56,51.51l-7.31,1.79-2.17,5.94-2.38.58,8.07-21.47,1.41-.35,8,17.52-3.45.85ZM263,51.32l5.85-1.43-2.94-6.53Z"/><path class="cls-1" d="M284.19,33.65c4.05-1,7,.81,8,3.69l-1.78,1.12a4.24,4.24,0,0,0-5.25-3c-4.07,1-6.25,5.75-4.94,11.08.87,3.55,3.2,5.13,6,4.45A5,5,0,0,0,290,46.07V42.71l3.45-.84,0,9.17-1.31.32L290.93,49a7.32,7.32,0,0,1-5,4.16,7.54,7.54,0,0,1-9.4-5.83C275,41.12,278.5,35.05,284.19,33.65Z"/><path class="cls-1" d="M301.52,49.05l-3.4.84.08-19.4,7.55-1.86c3.31-.81,6.07-.08,6.74,2.64.93,3.81-2.49,6.34-5.29,7.11v.06c2.3-.32,3.48.42,4.16,2.41l.95,2.51A7.3,7.3,0,0,0,313.89,46l-3.6.89a10.46,10.46,0,0,1-1.2-2.42L308,41.64c-.6-1.76-1.36-2.27-3.48-1.75l-3,.74Zm0-10.31,3.21-.79c3.11-.76,4.88-2.69,4.15-5.64-.41-1.67-1.82-2.13-4.12-1.56l-3.24.79Z"/><path class="cls-1" d="M327.63,37.24,320.32,39,318.15,45l-2.37.58,8.06-21.47,1.41-.35,8,17.52-3.45.85Zm-6.58-.18,5.85-1.44L324,29.09Z"/><path class="cls-1" d="M351.55,17.38l4.23-1,0,19.39-3.35.83.06-16.22-6.17,17.8-1.2.3-6-14.8L339,39.85l-2.14.52,0-19.39,4.18-1,5.27,12.8Z"/><rect class="cls-2" width="555" height="87.8"/></g></g></svg>