<svg xmlns="http://www.w3.org/2000/svg" viewBox="0 0 554.92 137.11"><defs><style>.cls-1{fill:#fff;}.cls-2{fill:none;}</style></defs><title>james</title><g id="Layer_2" data-name="Layer 2"><g id="Layer_1-2" data-name="Layer 1"><path class="cls-1" d="M216,60.34l3.36-.82-.06,12.7c0,4.41-2,7.26-5.95,8.23-3,.74-5.55-.61-6.17-3.14a5,5,0,0,1,1.76-5l1.37,1a3.69,3.69,0,0,0-1,3.41,2.6,2.6,0,0,0,3.42,1.87c2.3-.56,3.26-2.36,3.26-5.35Z"/><path class="cls-1" d="M233.91,69.77l-7.23,1.78-2.15,5.87-2.35.57,8-21.25,1.4-.34,7.93,17.34-3.41.84Zm-6.51-.18,5.79-1.43-2.9-6.46Z"/><path class="cls-1" d="M257.58,50.12l4.19-1-.06,19.19-3.3.81.06-16-6.12,17.61-1.19.29-5.95-14.64-.06,16-2.12.52.05-19.19,4.14-1,5.22,12.67Z"/><path class="cls-1" d="M267.17,47.76l12.76-3.14v2l-9.41,2.31,0,6.37,6.87-1.69,0,1.95-6.87,1.69v7l9.82-2.41v2L267.09,67Z"/><path class="cls-1" d="M293.9,55.3c-.33-1.31-1.32-1.81-3.1-2L288.23,53c-2.25-.27-4.16-1.12-4.72-3.39-.89-3.62,1.63-6.54,5.48-7.49,3.28-.8,6.17.38,7.47,2.52l-1.37,1.57a4.86,4.86,0,0,0-5.66-2.3c-2.12.52-3.49,2-3.05,3.79.35,1.42,1.4,1.79,3.27,2l2.51.28c2.37.3,4.15,1.18,4.7,3.42.93,3.78-1.93,7-6,8-3.31.82-6.75-.26-8.47-2.66l1.34-1.7a6.24,6.24,0,0,0,6.69,2.47C292.66,59,294.41,57.4,293.9,55.3Z"/><path class="cls-1" d="M321.71,34.36l2.12-.52-.09,19.25-1.26.32L310.85,40.64l0,15.58-2.12.52.08-19.2,3.18-.78,9.7,10.82Z"/><path class="cls-1" d="M335.58,30.68c4-1,6.91.79,7.91,3.64l-1.75,1.12a4.19,4.19,0,0,0-5.2-3c-4,1-6.19,5.69-4.9,11,.86,3.51,3.17,5.08,5.91,4.41A5,5,0,0,0,341.34,43V39.64l3.42-.83,0,9.07-1.29.32-1.21-2.34A7.21,7.21,0,0,1,337.31,50,7.46,7.46,0,0,1,328,44.21C326.49,38.06,329.94,32.06,335.58,30.68Z"/><path class="cls-1" d="M251.49,99.33h-2.82l-2.62,0-2.29.07-1.85.07V97.36q.83.06,2,.09t2.43.06l2.79,0,3,0a17.09,17.09,0,0,0,.34-3.38c-1.7,0-3.2,0-4.51.06s-2.47.13-3.5.26a17.24,17.24,0,0,0,.22-1.72c.05-.68.08-1.42.08-2.22V89.22c0-.66,0-1.31-.07-2a12,12,0,0,0-.2-1.65,8.1,8.1,0,0,0,1.3.16,7.66,7.66,0,0,0,1.28-.05c.25,0,.38,0,.39.13a.39.39,0,0,1-.2.34,1.11,1.11,0,0,0-.44.51,2,2,0,0,0-.12.75v5h10c1.06,0,2,0,2.7,0s1.35,0,1.82-.07l1.23-.09v5.19l2.37-.08v2.13L263,99.45c-.67,0-1.41,0-2.21,0l-2.55,0c-.9,0-1.81,0-2.71,0a18,18,0,0,0,2,2.11,10,10,0,0,0,2.13,1.42,10.52,10.52,0,0,0,2.45.81,19.44,19.44,0,0,0,3,.32,5.07,5.07,0,0,0-.83,1.27,6.29,6.29,0,0,0-.48,1.49,17.58,17.58,0,0,1-3.23-.86,11.69,11.69,0,0,1-2.61-1.41,12.8,12.8,0,0,1-2.21-2.1,26.16,26.16,0,0,1-2.06-2.94,9.78,9.78,0,0,1-1.4,2.54,8.75,8.75,0,0,1-2.23,2,17,17,0,0,1-3.33,1.6,30.81,30.81,0,0,1-4.61,1.21,4.14,4.14,0,0,0-.48-1.17,4,4,0,0,0-.88-1,19.36,19.36,0,0,0,7.25-1.85A7.5,7.5,0,0,0,251.49,99.33Zm8.76-8.6-.94,0-1.13,0-1.55,0-2.24,0h-1.83c-.55,0-1.06,0-1.51,0l-1.27.05-1.19,0q.06-.69.09-1.62c0-.62,0-1.27,0-1.94s0-1.33,0-2-.05-1.15-.09-1.58c.37,0,.75.06,1.13.08l1.25.05c.46,0,1,0,1.51,0h4c.56,0,1.06,0,1.48,0l1.17-.05c.36,0,.74,0,1.15-.08,0,.43-.08,1-.11,1.58s-.05,1.28-.05,1.93,0,1.36,0,2A10.65,10.65,0,0,0,260.25,90.73Zm-2.19-5.32h-7.42V89h7.42Zm-3.8,12.14h3.09c1,0,2,0,3,0V94.17h-5.8c0,.67-.05,1.29-.1,1.86S254.33,97.1,254.26,97.55Z"/><path class="cls-1" d="M270.22,100.43H268c.07-.74.12-1.46.14-2.16s0-1.43,0-2.23V79.94c0-.53,0-1,0-1.32a9.86,9.86,0,0,0-.11-1.05,8.8,8.8,0,0,0,1,.07l1.82,0c.79,0,1.82,0,3.08,0h9.61q1.91,0,3.09,0l1.82,0a8.64,8.64,0,0,0,1-.07,10.58,10.58,0,0,0-.1,1.08q0,.52,0,1.29V95.85c0,.78,0,1.52,0,2.23s.06,1.42.12,2.16h-2.18V99.18H270.22Zm17.17-21H270.22V97.53h17.17Zm-8,12.67a4.5,4.5,0,0,0-.13.81,7.71,7.71,0,0,0,0,1c-.39.07-.92.18-1.57.33s-1.36.32-2.09.51l-2.2.55c-.72.19-1.35.36-1.89.52-.12-.39-.24-.74-.35-1s-.28-.69-.47-1.15c.74,0,1.53-.11,2.37-.2s1.64-.22,2.43-.35,1.53-.28,2.21-.45S278.91,92.23,279.35,92.08Zm2.85-2.32a15.49,15.49,0,0,0,.85-2.2c.21-.71.42-1.5.61-2.35l.45.28.56.29.56.28a4.42,4.42,0,0,0,.48.21c.21.09.32.18.33.26s-.11.16-.36.25a1.1,1.1,0,0,0-.3.39,6.74,6.74,0,0,0-.49,1c-.11.25-.23.5-.35.76l-.41.81c-.15.28-.33.59-.52.93l-.67,1.12A22.41,22.41,0,0,0,284,94c.29.49.53.76.72.83s.33-.09.44-.44a10.07,10.07,0,0,0,.26-1.63A4.67,4.67,0,0,0,287.15,94a9.44,9.44,0,0,1-.7,2,2.69,2.69,0,0,1-.78,1,1.07,1.07,0,0,1-.85.18,2,2,0,0,1-.87-.44c-.19-.16-.38-.32-.56-.5a4.81,4.81,0,0,1-.51-.63,8.4,8.4,0,0,1-.51-.82q-.25-.47-.57-1.11a22,22,0,0,1-1.56,2,13.5,13.5,0,0,1-1.63,1.59,6.43,6.43,0,0,0-.91-.6c-.28-.15-.63-.32-1-.49a13.22,13.22,0,0,0,2.56-1.91,12.25,12.25,0,0,0,1.83-2.35,12.29,12.29,0,0,1-.41-1.21c-.11-.42-.23-.91-.33-1.47s-.22-1.22-.33-2-.24-1.74-.36-2.88h-2.93c-1.35,0-2.49,0-3.42,0s-1.71.08-2.33.14v-2c.62.07,1.4.12,2.33.14s2.07,0,3.42,0h2.74c-.05-.57-.09-1.07-.12-1.52l-.09-1.3c.32,0,.7.1,1.15.13a7.36,7.36,0,0,0,1.11,0c.25,0,.39,0,.44.11s0,.22-.25.4-.32.51-.32,1.06v1.09c1.17,0,2.17,0,3,0s1.54-.07,2.11-.14v2q-.83-.09-2.07-.12c-.84,0-1.84-.05-3-.07a28.09,28.09,0,0,0,.29,2.91A24.31,24.31,0,0,0,282.2,89.76Zm-3.59,1.92-1.32-.06-1.88,0h-1.9c-.49,0-.94,0-1.34.07,0-.15,0-.34,0-.58s0-.49,0-.77,0-.55,0-.84,0-.54,0-.77,0-.49,0-.77,0-.56,0-.82,0-.52,0-.76,0-.44,0-.6c.4,0,.85.06,1.34.06l1.9,0,1.88,0c.47,0,.91,0,1.32-.06,0,.39-.07.84-.08,1.36s0,1,0,1.59,0,1.1,0,1.65A12.85,12.85,0,0,0,278.61,91.68Zm-1.76-4.37H274v2.74h2.87Zm6.92-5a9.16,9.16,0,0,0-.57-.86c-.19-.23-.43-.52-.74-.87l1.87-.86.65.82c.18.24.38.53.6.89Z"/><path class="cls-1" d="M296.81,85.15c-.08.25-.14.47-.19.68s-.12.44-.19.73-.15.63-.24,1-.19.94-.32,1.58-.29,1.49-.45,2.22-.31,1.51-.45,2.31c-.41-.25-.8-.47-1.18-.66s-.8-.36-1.24-.52q.21-.45.36-.81c.09-.24.19-.5.29-.79s.21-.65.33-1.07.28-1,.46-1.64.34-1.29.49-1.91.29-1.31.44-2a3,3,0,0,0,.83.53A7.74,7.74,0,0,0,296.81,85.15Zm-1-3.41a14.55,14.55,0,0,0-1.39-1.17c-.49-.37-1.08-.77-1.75-1.2l1.06-1.65,1,.63.77.48.68.44.73.48Zm0-6.12a10.33,10.33,0,0,0-1.33-1.3,14.42,14.42,0,0,0-1.65-1.2l1.44-1.46c.58.39,1.11.76,1.58,1.1a16.09,16.09,0,0,1,1.37,1.13Zm4.23-.56c-.51,0-1,0-1.34.07l-1,.09V73.49l1,.1c.38,0,.83,0,1.34.06,0-.87,0-1.54,0-2s0-.83-.08-1.1l1.11.15q.65.06.93.06c.23,0,.36,0,.39.14s0,.18-.2.29a.76.76,0,0,0-.32.37,1.93,1.93,0,0,0-.05.45v1.65c.6,0,1.12,0,1.54-.06s.82-.06,1.17-.1v1.73l-1.17-.09c-.42,0-.94,0-1.54-.07v2.27l1.3-.06a8,8,0,0,0,.8-.08,8.15,8.15,0,0,0-.07.84c0,.28,0,.57,0,.89V83.6c0,.64,0,1.21.08,1.71l-.49-.06-.48,0a5.15,5.15,0,0,0-.59,0h-.83V87.6c.49,0,.92,0,1.27-.07l1-.09v1.75l-1-.09c-.35,0-.78,0-1.27,0,0,.58,0,1.09,0,1.52s0,.8,0,1.14,0,.65,0,.93,0,.59,0,.91h-2c0-.64.06-1.32.08-2s0-1.54,0-2.5c-.52,0-1,0-1.34.07l-1,.09V87.46a9.61,9.61,0,0,0,1,.08l1.34.06V85.17q-.88,0-1.29,0a7.7,7.7,0,0,0-.89.11,6.73,6.73,0,0,0,.05-.8V78a8,8,0,0,0-.05-.84q.45.06,1,.09c.37,0,.86,0,1.48,0Zm2.21,3.68h-3v1.8h3Zm-3,5h3V82h-3Zm10.61-10.51c-.3.52-.58,1-.85,1.41a10.72,10.72,0,0,1-.85,1.2c-.3.37-.62.75-1,1.12s-.74.76-1.18,1.17c.69,0,1.29.08,1.79.08a11.25,11.25,0,0,0,1.53-.11V92a3.73,3.73,0,0,1-.06.74.81.81,0,0,1-.35.49,3,3,0,0,1-.85.38c-.38.11-.91.24-1.59.38a8.47,8.47,0,0,0-.34-1.09,5.83,5.83,0,0,0-.53-1.06c.44,0,.79,0,1.06,0a2.59,2.59,0,0,0,.6-.12.52.52,0,0,0,.27-.23,1.07,1.07,0,0,0,.06-.39V87.86c-.6.55-1.12,1-1.54,1.48a16.68,16.68,0,0,0-1.2,1.34,8.92,8.92,0,0,0-.34-.93A4.68,4.68,0,0,0,304,89a20,20,0,0,0,1.82-1.32q.95-.75,1.74-1.5V79.61q-.76,0-1.14,0a5.29,5.29,0,0,0-.77.11V78.47l-.22.19a4.15,4.15,0,0,0-.72-.76,7.19,7.19,0,0,0-.74-.5,11.82,11.82,0,0,0,3.14-3.08,11.67,11.67,0,0,0,1.68-4.15l1.31.33c.51.12.9.19,1.19.23a.27.27,0,0,1,.25.26.38.38,0,0,1-.25.35,2.32,2.32,0,0,0-.64.5,10.4,10.4,0,0,0,1,1.59A7.21,7.21,0,0,0,313,74.69a9,9,0,0,0,1.63,1,14.2,14.2,0,0,0,2,.78,3.79,3.79,0,0,0-.85.91,5.11,5.11,0,0,0-.45,1,9.25,9.25,0,0,1-3-1.84A11.72,11.72,0,0,1,309.84,73.25Zm-4.6,12.22a17.84,17.84,0,0,0-.24-2.12,10.74,10.74,0,0,0-.53-1.93l1.46-.32c.2.69.37,1.35.51,2a19.92,19.92,0,0,1,.34,2Zm7.45-5.83h-.78a4.44,4.44,0,0,0-.55,0l-.43,0-.39,0V78.15l1.23.08,1,0c.28,0,.56,0,.82,0s.56,0,.88-.08V91.91a2.75,2.75,0,0,1-.07.7.85.85,0,0,1-.34.49,3.14,3.14,0,0,1-.88.42c-.4.13-.95.29-1.66.49a4.25,4.25,0,0,0-.31-1.09,4.65,4.65,0,0,0-.68-1.15,9,9,0,0,0,1.19,0,1.86,1.86,0,0,0,.66-.16.58.58,0,0,0,.29-.29,1.13,1.13,0,0,0,.07-.44V87.14c-.42.47-.85.94-1.26,1.41A17.37,17.37,0,0,0,310.27,90a9.13,9.13,0,0,0-.43-.83c-.14-.25-.31-.51-.5-.8A19.79,19.79,0,0,0,311.07,87c.51-.47,1.05-1,1.62-1.64Zm-2.18,5.61a21.16,21.16,0,0,0-.61-4.17l1.46-.22c.18.73.32,1.41.43,2s.18,1.3.24,2Z"/><rect class="cls-2" width="554.92" height="137.11"/></g></g></svg>