<svg xmlns="http://www.w3.org/2000/svg" viewBox="0 0 554.92 137.11"><defs><style>.cls-1{fill:#fff;}.cls-2{fill:none;}</style></defs><title>katharine</title><g id="Layer_2" data-name="Layer 2"><g id="Layer_1-2" data-name="Layer 1"><path class="cls-1" d="M152,92.51l-2.17,2.78,0,7.11-3.36.82.07-19.2,3.36-.82,0,9.46L158.82,81l2.87-.71-7.48,9.48,8.25,9.51-3.77.93Z"/><path class="cls-1" d="M175.88,90.65l-7.24,1.78-2.15,5.87-2.35.58,8-21.25,1.39-.35,7.94,17.35-3.42.84Zm-6.52-.18,5.79-1.42-2.9-6.47Z"/><path class="cls-1" d="M188.18,75.71l-6.82,1.68V75.47l17-4.18v1.92l-6.82,1.68-.08,17.28L188.1,93Z"/><path class="cls-1" d="M202.23,70.34l3.36-.83,0,8.34L215,75.54l0-8.34,3.36-.83,0,19.2-3.36.82,0-8.94-9.43,2.32-.05,9-3.36.82Z"/><path class="cls-1" d="M233.58,76.48l-7.24,1.77-2.15,5.88-2.35.57,8-21.25,1.39-.34,7.94,17.34-3.41.84Zm-6.52-.19,5.79-1.42L230,68.41Z"/><path class="cls-1" d="M246.05,78.75l-3.36.83.08-19.2,7.47-1.84c3.28-.8,6-.07,6.67,2.61.93,3.78-2.46,6.28-5.23,7v.06c2.28-.31,3.44.41,4.12,2.39l.94,2.48a7.28,7.28,0,0,0,1.57,2.62l-3.56.88a9.85,9.85,0,0,1-1.19-2.39l-1.05-2.81c-.59-1.75-1.35-2.25-3.44-1.74l-3,.74Zm0-10.2,3.17-.78c3.08-.76,4.83-2.67,4.11-5.59-.4-1.65-1.8-2.1-4.08-1.54l-3.2.78Z"/><path class="cls-1" d="M265.36,74l-3.36.83.07-19.2,3.36-.83Z"/><path class="cls-1" d="M283.73,50.31l2.12-.52-.09,19.26-1.27.31L272.86,56.6l0,15.58-2.11.52.07-19.2,3.18-.78,9.7,10.82Z"/><path class="cls-1" d="M291.2,48.48,304,45.34v1.95l-9.41,2.31,0,6.37,6.87-1.69v1.95l-6.88,1.69v7l9.82-2.41v2l-13.2,3.24Z"/><path class="cls-1" d="M321.51,43l-6.82,1.68V42.71l17-4.18v1.92l-6.82,1.68-.08,17.28-3.36.82Z"/><path class="cls-1" d="M344.91,49.4c-.33-1.32-1.33-1.82-3.11-2l-2.56-.27c-2.26-.27-4.16-1.12-4.72-3.39-.89-3.62,1.63-6.54,5.48-7.48,3.28-.81,6.17.37,7.47,2.52l-1.37,1.57A4.86,4.86,0,0,0,340.43,38c-2.11.52-3.48,2-3,3.79.35,1.42,1.4,1.79,3.27,2l2.51.29c2.37.29,4.15,1.17,4.7,3.42.93,3.77-1.93,7-6,8-3.31.81-6.75-.26-8.47-2.67l1.34-1.69a6.25,6.25,0,0,0,6.69,2.46C343.67,53,345.42,51.49,344.91,49.4Z"/><path class="cls-1" d="M362,44.93l-7.23,1.78-2.15,5.87-2.35.57,8-21.25,1.39-.34,7.93,17.34-3.41.84Zm-6.51-.18,5.79-1.43-2.9-6.46Z"/><path class="cls-1" d="M384.12,25.65l2.12-.52-.09,19.26-1.27.31L373.25,31.94l0,15.57-2.12.52.08-19.2,3.18-.78,9.7,10.82Z"/><path class="cls-1" d="M398,22c4-1,6.91.79,7.91,3.64l-1.75,1.12a4.2,4.2,0,0,0-5.2-3c-4,1-6.19,5.69-4.9,11,.87,3.51,3.17,5.08,5.91,4.41a5,5,0,0,0,3.79-4.88V30.94l3.41-.84,0,9.07-1.29.32-1.2-2.33a7.21,7.21,0,0,1-4.94,4.11,7.45,7.45,0,0,1-9.31-5.77C388.89,29.35,392.35,23.35,398,22Z"/><path class="cls-1" d="M254.39,92.84a12.6,12.6,0,0,0,.92-1.75,20.44,20.44,0,0,0,.81-2.14,15,15,0,0,0,1.56.53,8,8,0,0,0,1.37.3c.14,0,.22.07.22.17s-.08.19-.27.28a4.81,4.81,0,0,0-1.11.85,15.83,15.83,0,0,0-1.61,1.76c1.51,0,2.81,0,3.91-.08s2.12-.09,3.06-.16c-.07.57-.12,1.26-.16,2.09s0,1.62,0,2.4,0,1.69,0,2.45.08,1.49.17,2.18c-.65,0-1.33-.09-2-.12l-2.29-.06-2.7,0H253c-2.4,0-4.41,0-6,.05s-3.06.09-4.26.16c.07-.66.12-1.36.16-2.11s.05-1.56.05-2.47c0-.37,0-.77,0-1.2s0-.84-.06-1.25-.05-.79-.08-1.14,0-.67-.06-.93Q246.79,92.89,254.39,92.84Zm-9.63,1.57v5.51h7V94.41Zm2.31,19.24h-2.26a9.61,9.61,0,0,0,.18-1.55c0-.62,0-1.35,0-2.21v-3.46c0-.51,0-1.07-.06-1.67s-.09-1.16-.16-1.68l1.15.1,1.46.06,2.16,0H256l2.15,0,1.45-.06,1.11-.1a4.86,4.86,0,0,0-.09.65q0,.39-.06.84c0,.3,0,.62,0,1s0,.63,0,.91v3.78c0,.41,0,.92,0,1.53s.08,1.19.15,1.75h-2.24v-1.2H247.07Zm.4-14.93c-.09-.59-.17-1.07-.25-1.45a10.06,10.06,0,0,0-.3-1.11l2.2-.42c.15.46.27.88.38,1.27s.21.84.32,1.33Zm1.09-6.1a10.28,10.28,0,0,0-.77-1.37,12.1,12.1,0,0,0-.82-1.1L249.18,89l.93,1.31c.28.4.6.85,1,1.33Zm9.9,12.27H247.07v2h11.39Zm0,3.54H247.07v2.21h11.39Zm2.69-8.51V94.41h-7.34v5.51Zm-2-3.54c.18,0,.27.1.27.2s-.13.19-.37.27a1.4,1.4,0,0,0-.3.15,1.35,1.35,0,0,0-.3.32A6.63,6.63,0,0,0,258,98c-.17.29-.38.67-.62,1.15a5.24,5.24,0,0,0-.94-.36,5.07,5.07,0,0,0-1-.2c.16-.22.3-.42.42-.61a3.39,3.39,0,0,0,.33-.66,6.35,6.35,0,0,0,.28-.81c.09-.3.19-.65.3-1.06A12.47,12.47,0,0,0,258,96,7.55,7.55,0,0,0,259.1,96.38Z"/><path class="cls-1" d="M273.68,85.16l2,1.37c.64.45,1.28.92,1.9,1.42l-1.33,1.7c-.55-.6-1.1-1.16-1.64-1.67s-1.14-1-1.8-1.55c-.51.86-1,1.58-1.37,2.17s-.83,1.2-1.31,1.8a19.31,19.31,0,0,0,2.82.16c.78,0,1.43,0,2-.07a10.17,10.17,0,0,0,1.41-.2v2.16a7.89,7.89,0,0,0-1.2-.2c-.44,0-1-.08-1.57-.09v2.55c.67,0,1.29,0,1.85-.09s1-.11,1.45-.18v2.19c-.41-.08-.89-.13-1.45-.18s-1.18-.07-1.85-.09v6.49l2-.38c.64-.14,1.24-.27,1.81-.42a5.06,5.06,0,0,0-.21,1.07,3.53,3.53,0,0,0,0,1l-3.35.58-2.32.39-1.47.27-.89.16a4.32,4.32,0,0,0-.54.13,2.09,2.09,0,0,1-.4.12,9.86,9.86,0,0,0-.46-1.12,7.8,7.8,0,0,0-.63-1.06c.73,0,1.48-.09,2.24-.17s1.54-.18,2.34-.28V96.33a27.19,27.19,0,0,0-3.78.3V94.44a13.06,13.06,0,0,0,1.64.19c.63,0,1.34.06,2.14.08V92.18a13.87,13.87,0,0,0-2.13.27V91.12a6.1,6.1,0,0,0-.41.46,6.75,6.75,0,0,1-.44.52c-.16-.16-.3-.29-.43-.4l-.38-.29a3.79,3.79,0,0,0-.45-.25c-.17-.08-.38-.17-.63-.26a15.66,15.66,0,0,0,3-3.18,21,21,0,0,0,2.28-4.24,14.17,14.17,0,0,0,2.1.8c.46.11.46.28,0,.53A2.07,2.07,0,0,0,273.68,85.16Zm-4.33,16.57c-.18-.67-.37-1.27-.56-1.8a15,15,0,0,0-.75-1.68l1.84-.67a14.81,14.81,0,0,1,1.43,3.57ZM277.2,98a23.68,23.68,0,0,1-1.31,3.46l-1.78-.51c.26-.62.49-1.24.68-1.86s.33-1.22.44-1.81Zm9.18,6.46c.35,0,.73,0,1.13,0l1.19-.07,1.15-.06c.36,0,.68,0,.94-.08v2.12c-.62,0-1.47-.09-2.55-.13s-2.51,0-4.29,0-3.1,0-4.19,0-2,.08-2.67.13v-2l1.24,0,1.29,0h4.81c.23-.63.44-1.29.61-2a13.55,13.55,0,0,0,.38-1.85c.41.16.78.3,1.13.41a10.56,10.56,0,0,0,1.08.31c.24.07.37.14.38.21s-.07.18-.25.32a2,2,0,0,0-.51.68C287.06,103,286.77,103.59,286.38,104.47Zm4.15-11.25c-.73,0-1.68-.07-2.85-.11s-2.43,0-3.78,0-2.59,0-3.76,0-2.15.07-2.89.11v-2c.76,0,1.73.09,2.9.12s2.42,0,3.75,0,2.61,0,3.78-.06,2.12-.07,2.85-.1Zm-2.64-5V86.63c0-.39,0-.72,0-1s0-.45,0-.6,0-.3,0-.46l.87.08a6,6,0,0,0,.85,0c.32,0,.51,0,.56.09s0,.24-.16.47a.57.57,0,0,0-.06.28c0,.15,0,.4,0,.74s0,.82,0,1.42,0,1.37.07,2.29q-.83-.07-2.34-.12c-1,0-2.34,0-4,0l-2.11,0-1.56,0c-.44,0-.83,0-1.16.06l-.89.06c.05-.56.09-1.12.12-1.65s0-1,0-1.47,0-.85-.08-1.2a5,5,0,0,0-.18-.84l.66.08.46,0h.41l.47,0c.3,0,.47,0,.52.07s0,.25-.2.52a.38.38,0,0,0-.05.14,1.37,1.37,0,0,0,0,.38c0,.18,0,.45,0,.79v1.43h3V86.09c0-.53,0-1,0-1.27s0-.55,0-.71,0-.35-.05-.52l.65.09a4.35,4.35,0,0,0,.48,0l.42,0h.47c.25,0,.38,0,.41.08s-.06.21-.25.42a.37.37,0,0,0-.08.19,3.75,3.75,0,0,0,0,.53c0,.27,0,.66,0,1.17v2.08Zm1.55,12.4-1.14,0-1.14,0h-6.83l-1.13,0-1.15,0c0-.38.06-.83.08-1.37s0-1.11,0-1.69,0-1.15,0-1.68-.05-1-.08-1.36l1.15.06,1.13,0h6.83l1.14,0,1.14-.06c0,.36,0,.81,0,1.35s0,1.1,0,1.69,0,1.15,0,1.69S289.42,100.24,289.44,100.62Zm-8.92,3.8c-.12-.51-.26-1-.4-1.45a12.14,12.14,0,0,0-.58-1.45l2.13-.56a11.92,11.92,0,0,1,.54,1.36c.13.41.28.94.44,1.6Zm6.89-8.19H280v2.63h7.39Z"/><path class="cls-1" d="M295.42,82.78c.21-1.44.37-2.62.45-3.55s.14-1.78.14-2.54a10.71,10.71,0,0,0,1.45.48,11.17,11.17,0,0,0,1.26.24c.52,0,.55.26.11.63a1.1,1.1,0,0,0-.22.27,3.78,3.78,0,0,0-.25.68c-.1.33-.22.79-.37,1.4s-.33,1.41-.55,2.42q1.79,0,2.76-.06a12.65,12.65,0,0,0,1.42-.13c-.14,1.4-.3,2.64-.46,3.72s-.36,2.06-.56,2.93-.44,1.66-.69,2.38-.55,1.43-.87,2.12c.59.53,1.15,1.06,1.69,1.58l1.48,1.45a4.69,4.69,0,0,0-1,.64,5.29,5.29,0,0,0-.86.9,21.26,21.26,0,0,0-2.23-2.82,19,19,0,0,1-1.81,2.65,13.3,13.3,0,0,1-1.92,2,3.57,3.57,0,0,0-1.81-1.57,13.52,13.52,0,0,0,2.31-1.93,13.07,13.07,0,0,0,1.82-2.46,36.76,36.76,0,0,0-3.38-2.66c.21-.59.41-1.14.59-1.67s.33-1,.47-1.58.27-1.09.39-1.67.23-1.25.36-2c-.41,0-.78,0-1.12.06a8.18,8.18,0,0,0-.88.12V82.62a9,9,0,0,0,.91.09C294.39,82.74,294.85,82.76,295.42,82.78ZM297,84.59c-.08.41-.17.82-.25,1.24s-.17.87-.28,1.37-.22,1-.34,1.66-.28,1.32-.46,2.12l.92.7c.31.24.63.5.95.79a28,28,0,0,0,1.86-7.88Zm17.7,7V90.18H303.35v1.46h-1.89V88.39c.45,0,.87.07,1.27.08l1.42.06c.55,0,1.21,0,2,0H312l2,0c.56,0,1,0,1.44,0s.78,0,1.13-.08v3.17ZM308.09,79a7.76,7.76,0,0,0-.35-1.25,8.53,8.53,0,0,0-.48-1.06l2.72-.38c.17.75.34,1.64.5,2.69.82,0,1.52,0,2.12,0l1.59,0c.47,0,.9,0,1.27-.08l1.14-.1v2.18c-.9-.09-2-.16-3.16-.2s-2.63-.07-4.26-.07-3.06,0-4.27.07-2.28.11-3.18.2V78.74c.8.08,1.71.15,2.75.18S306.72,79,308.09,79Zm.13,14.85q-1,0-1.77,0l-1.42.05c-.43,0-.82,0-1.17.08l-1,.1V91.93c.7.09,1.55.16,2.54.2s2.14.07,3.47.07h2c.59,0,1.12,0,1.6-.06l1.3-.08a9.85,9.85,0,0,0,1.12-.12v2.18a19.86,19.86,0,0,0-2-.18c-.76,0-1.61-.06-2.57-.08v4.68a4.42,4.42,0,0,1-.11,1.08,1,1,0,0,1-.54.65,4,4,0,0,1-1.29.37q-.86.14-2.37.27a6.88,6.88,0,0,0-.21-1.33,5.06,5.06,0,0,0-.56-1.33,6.56,6.56,0,0,0,2.33.24c.41-.09.62-.31.62-.67Zm6-6.68-.94,0-1-.06-1.38,0H307l-1.39,0-1.12.06-1,0c0-.34.07-.74.08-1.22s0-1,0-1.41,0-.93,0-1.4a11.76,11.76,0,0,0-.08-1.19c.66.06,1.4.1,2.21.13s1.87,0,3.14,0h1.76l1.41,0,1.17,0c.35,0,.69,0,1-.08,0,.32-.06.72-.08,1.19s0,.94,0,1.4,0,1,0,1.43S314.15,86.83,314.18,87.17Zm-1.86-3.54h-7v1.89h7Z"/><rect class="cls-2" width="554.92" height="137.11"/></g></g></svg>