<svg xmlns="http://www.w3.org/2000/svg" viewBox="0 0 554.92 137.11"><defs><style>.cls-1{fill:#fff;}.cls-2{fill:none;}</style></defs><title>kinting</title><g id="Layer_2" data-name="Layer 2"><g id="Layer_1-2" data-name="Layer 1"><path class="cls-1" d="M205.56,72.74l-2.17,2.77,0,7.11-3.36.83.08-19.21,3.36-.82,0,9.46,8.95-11.65,2.87-.71L207.74,70,216,79.52l-3.77.92Z"/><path class="cls-1" d="M222.86,77.83l-3.36.82.08-19.2,3.36-.82Z"/><path class="cls-1" d="M241.24,54.13l2.12-.52-.1,19.26-1.26.31L230.37,60.42l0,15.57-2.12.52.08-19.2,3.18-.78,9.7,10.83Z"/><path class="cls-1" d="M247.94,60.9l6.12-1.51v2.44l-6.12,1.51Z"/><path class="cls-1" d="M262.09,50.92l-6.82,1.68V50.68l17-4.17v1.91l-6.83,1.68-.08,17.28-3.36.83Z"/><path class="cls-1" d="M279.43,63.93l-3.36.82.07-19.2,3.36-.82Z"/><path class="cls-1" d="M297.8,40.23l2.12-.52L299.83,59l-1.27.31L286.93,46.52l0,15.57-2.12.52.08-19.2,3.18-.78,9.7,10.83Z"/><path class="cls-1" d="M311.66,36.55c4-1,6.91.8,7.91,3.65l-1.75,1.12a4.2,4.2,0,0,0-5.2-3c-4,1-6.19,5.69-4.89,11,.86,3.52,3.16,5.09,5.9,4.41a4.93,4.93,0,0,0,3.79-4.87V45.52l3.41-.84,0,9.08-1.29.31-1.2-2.33a7.25,7.25,0,0,1-4.94,4.12,7.47,7.47,0,0,1-9.31-5.77C302.57,43.94,306,37.94,311.66,36.55Z"/><path class="cls-1" d="M333.17,31.54l3.36-.82-.07,17.22,9.15-2.25v2l-12.5,3.07Z"/><path class="cls-1" d="M352.89,45.88l-3.36.82.08-19.2,3.36-.82Z"/><path class="cls-1" d="M250,87.91l-2.27,0-2.38,0-2,0-1.25.06V85.89c1.18.09,2.59.15,4.21.19s3.53,0,5.71,0V84.77c0-.32,0-.7-.05-1.15a6.81,6.81,0,0,0-.16-1.08,12.85,12.85,0,0,0,2.77.16c.23,0,.36,0,.39.07s0,.17-.24.33a1.68,1.68,0,0,0-.34.77,4.7,4.7,0,0,0-.16,1.22v1c2.11,0,3.94,0,5.49-.08s2.92-.09,4.09-.16v2.16L262.64,88l-1.76,0-2.2,0-2.48,0a12.91,12.91,0,0,0,1.65,1.59,9.92,9.92,0,0,0,1.88,1.17,13.14,13.14,0,0,0,2.3.84,28.67,28.67,0,0,0,3,.61,5.72,5.72,0,0,0-.52,1.26,5,5,0,0,0-.17,1.13,22.7,22.7,0,0,1-6.42-2.67,9.23,9.23,0,0,1-3.43-3.93h-.29V90c0,.57,0,1.14,0,1.73s.06,1.09.09,1.52h-2.53c.06-.47.1-1,.14-1.53S252,90.57,252,90V88.1a11.67,11.67,0,0,1-1.32,2,10.6,10.6,0,0,1-1.81,1.69,18.11,18.11,0,0,1-2.6,1.61c-1,.53-2.27,1.12-3.74,1.75a3.15,3.15,0,0,0-.59-1,3.05,3.05,0,0,0-1-.8,22.52,22.52,0,0,0,3.1-1A21.48,21.48,0,0,0,246.6,91a12.21,12.21,0,0,0,2-1.49A7,7,0,0,0,250,87.91Zm2.21,13.73c-2.38,0-4.43,0-6.17,0s-3.27.1-4.58.2V99.57c1.31.09,2.84.15,4.58.2s3.79.06,6.17.06v-1.7q1.2-.55,2-1a14.58,14.58,0,0,0,1.45-1h-8.91q-.67,0-1.47.06v-2l1.57.08,1.58,0q.84,0,1.89,0h2.52l3,0,2.12,0,1.42,0c.37,0,.69,0,1-.08v1.91a3.77,3.77,0,0,0-.75,0,3.83,3.83,0,0,0-1,.35,15.47,15.47,0,0,0-1.59.87c-.64.39-1.47.93-2.5,1.6v.9c2.15,0,4,0,5.63-.08s3-.09,4.24-.18v2.31c-1.22-.09-2.64-.15-4.24-.18s-3.48-.06-5.63-.06v2.93a3,3,0,0,1-.12.91,1.3,1.3,0,0,1-.57.66,4.76,4.76,0,0,1-1.37.53c-.61.16-1.45.33-2.51.51a4.59,4.59,0,0,0-.19-1.21,4.67,4.67,0,0,0-.69-1.35c.69,0,1.24,0,1.65,0a3.59,3.59,0,0,0,.94-.12.67.67,0,0,0,.43-.31,1.49,1.49,0,0,0,.09-.56Z"/><path class="cls-1" d="M272.46,94.63A12.26,12.26,0,0,0,274,96a7.27,7.27,0,0,0,1.76,1,10.63,10.63,0,0,0,2.24.56,21.11,21.11,0,0,0,3,.19c1.15,0,2.49-.06,4-.16s3.28-.27,5.29-.48a12,12,0,0,0-.55,1.41,6.79,6.79,0,0,0-.23,1.28q-4.31.15-7.23.06a31.48,31.48,0,0,1-4.93-.48A11.83,11.83,0,0,1,274,98.26a11.06,11.06,0,0,1-2.49-1.79,14.73,14.73,0,0,1-2.8,3.46,3,3,0,0,0-.67-.83,5.18,5.18,0,0,0-1-.61,14.6,14.6,0,0,0,1.75-1.67,11.45,11.45,0,0,0,1.39-1.95l-.81-1.18c-.27-.42-.53-.83-.76-1.23s-.44-.77-.63-1.12a8.6,8.6,0,0,1-.46-.89l1.76-.85A10.91,10.91,0,0,0,271.1,93a13.86,13.86,0,0,0,.69-2.34,23,23,0,0,0,.4-2.77L271,88a8.64,8.64,0,0,0-.89.11l-.71.13c-.21,0-.42.1-.64.17a4.52,4.52,0,0,0-.56-1.67,3.27,3.27,0,0,0,1.28-1.47l2.13-4.68h-1.76a9,9,0,0,0-.95,0c-.29,0-.58.08-.88.14v-2c.48,0,1,0,1.54,0h1.68c.53,0,1.06,0,1.58,0l1.5-.09c-.19.58-.42,1.2-.67,1.86s-.54,1.32-.83,2-.59,1.32-.89,2-.6,1.26-.9,1.83c.58,0,1.06,0,1.43-.07l.93-.08a5.38,5.38,0,0,0,.62-.1,2.13,2.13,0,0,0,.45-.13,42.19,42.19,0,0,1-.73,4.78A20.91,20.91,0,0,1,272.46,94.63Zm9.87-5.22h1.85l1.41,0,1.16-.06,1.14-.1v1.89l-1.1-.09c-.37,0-.76,0-1.17,0l-1.43,0-1.86,0v2.29h2.08l1.7,0,1.44-.07c.44,0,.86,0,1.27-.09v1.89q-1.17-.11-2.67-.15c-1,0-2.27,0-3.79,0,0,.36,0,.7,0,1s.05.74.09,1.2h-2.21c0-.46.06-.86.08-1.2s0-.68.05-1c-1.29,0-2.38,0-3.27,0s-1.67.08-2.34.15V93a23.12,23.12,0,0,0,2.38.17c.88,0,2,0,3.23,0V90.9l-1.6,0-1.26,0c-.38,0-.73,0-1.06,0l-1,.09V89.2l1,.1,1.05.06,1.24,0h1.6V87.15l-1.63,0-1.19,0-.85,0-.61.06V85.56l.61,0,.83,0,1.17,0h1.67v-2.1h-1.79l-1.45,0c-.45,0-.86,0-1.25.05l-1.2.09V81.88c.41,0,.81.07,1.2.08l1.24.06c.43,0,.91,0,1.45,0h1.8V80.21q-1.49,0-2.46,0c-.64,0-1.25.05-1.82.1V78.56l1.74.08,2.54,0c0-.57,0-1-.05-1.45a9.67,9.67,0,0,0-.08-1c.41,0,.76.09,1.05.11l1.13,0c.36,0,.55,0,.58.15s-.11.23-.39.39a.72.72,0,0,0-.25.55,7.89,7.89,0,0,0-.07,1.2h2.05l1.49,0c.43,0,.8,0,1.12-.07a7,7,0,0,0,.93-.12,7.13,7.13,0,0,0-.07.73c0,.23,0,.49,0,.79V82a15.48,15.48,0,0,0,2.63-.16v1.84c-.3,0-.67-.06-1.1-.08l-1.53,0v1.49c0,.41,0,.78,0,1.12s0,.68.08,1l-.75,0-1,0-1.56,0h-2.29ZM286,82V80.21h-3.65V82Zm-3.65,1.55v2.1H286v-2.1Z"/><path class="cls-1" d="M297.58,89.91a11.25,11.25,0,0,0,2.05-3.19h-3a5,5,0,0,0-.88.09,5.31,5.31,0,0,0-.88.23,3.29,3.29,0,0,0,0-.79,2.32,2.32,0,0,0-.28-.7,2.9,2.9,0,0,0,1.22-.26,2.09,2.09,0,0,0,.83-.57l1.49-1.86H296c-.3,0-.63,0-1,0s-.79.08-1.25.15V81.29l.77,0,.87,0,1.05,0h1.36q.9,0,1.71,0c.54,0,1.1,0,1.67-.08l-3,4h2.29a5.25,5.25,0,0,0,.73,0,2.68,2.68,0,0,0,.71-.16,18.21,18.21,0,0,1-1.07,3.09,11.37,11.37,0,0,1-1.51,2.45,27,27,0,0,0,6.29.87A74.76,74.76,0,0,0,316,91.16a3.9,3.9,0,0,0-.66,1.17,4.59,4.59,0,0,0-.24,1.12c-2.43,0-4.56,0-6.37,0s-3.41-.15-4.77-.28a29.48,29.48,0,0,1-3.46-.51,15.71,15.71,0,0,1-2.43-.7,16.91,16.91,0,0,1-3.38,2.42,4.08,4.08,0,0,0-.73-.76,5.23,5.23,0,0,0-.84-.54,15.91,15.91,0,0,0,3.27-2A10.46,10.46,0,0,1,295,89.88,9.59,9.59,0,0,1,294,88.71l1.36-1a5.28,5.28,0,0,0,.9,1.09A10.45,10.45,0,0,0,297.58,89.91Zm6.09-17.4c-1.74,0-3.22,0-4.46.09s-2.35.1-3.36.18v-2c.57,0,1.16.09,1.78.12l2,.08c.73,0,1.52,0,2.38,0l2.86,0,2.86,0c.87,0,1.66,0,2.39,0l2-.08c.61,0,1.2-.07,1.76-.12v2q-.8-.09-1.68-.12l-1.92-.08c-.68,0-1.43,0-2.24-.06H305.4v1.36l4,0,2.78,0,2,0,1.57-.08v3.91h-1.92V75.28H305.4c0,.81,0,1.68.07,2.59s.11,1.74.2,2.49H303.4c.09-.75.16-1.58.2-2.49s.07-1.78.07-2.59h-7.8v2.63H294v-4.2l1.5.08,1.87,0,2.61,0,3.7,0Zm-1.28,7.64c-.23,0-.42,0-.57,0l-.52,0h-3.54c-.42,0-.85,0-1.27.07V78.66l.62.06.6,0c.21,0,.46,0,.73,0h1c.51,0,1,0,1.53,0l1.42-.09Zm0-2.43-.59,0-.57,0h-1.5c-1,0-1.92,0-2.66.07V76.31a11.83,11.83,0,0,0,1.26.11c.45,0,.92,0,1.4,0s.92,0,1.37,0l1.29-.1Zm6.52,10.52,2,0,1.48,0c.42,0,.81,0,1.14-.06l1-.09v1.89l-1-.09c-.34,0-.74,0-1.19-.06l-1.61,0-2.29,0-2.35,0-1.82,0q-.81,0-1.41.06c-.41,0-.79.05-1.12.09V88.05c.58.07,1.3.12,2.14.15s1.92,0,3.23,0V86.08c-1,0-1.91,0-2.59,0s-1.27.07-1.77.12V84.59c.28,0,.57.06.86.08l1,0,1.15,0c.41,0,.88,0,1.39,0V83.1c-.74,0-1.49.06-2.23.07l-2.13,0a2.32,2.32,0,0,0-.25-.82,8.1,8.1,0,0,0-.52-.78c.8,0,1.7.08,2.72.09s2.3,0,3.82-.09a19.31,19.31,0,0,0,2.54-.25,21.24,21.24,0,0,0,2.12-.5,4.09,4.09,0,0,0,.39.86,3.14,3.14,0,0,0,.49.66.46.46,0,0,1,.18.37c0,.11-.12.15-.32.11a7.34,7.34,0,0,0-1,0,10.52,10.52,0,0,0-1.17,0c-.41,0-.85.06-1.31.08l-1.46,0v1.79l1.72,0,1.13,0,.89,0,1-.08v1.65l-1-.09c-.28,0-.57-.05-.89-.06h-2.85ZM312,77.65q-.62-.06-1.29-.06h-1.4l-1.37,0c-.45,0-.87,0-1.26,0V76.21l1.27.09c.45,0,.9,0,1.36,0s.95,0,1.4,0l1.29-.09Zm.82,2.34c-.44,0-.91-.06-1.42-.07h-1.53c-1.1,0-2.08,0-2.95.08V78.5l1.42.09c.49,0,1,0,1.53,0s1,0,1.53,0l1.42-.09Z"/><rect class="cls-2" width="554.92" height="137.11"/></g></g></svg>