<svg xmlns="http://www.w3.org/2000/svg" viewBox="0 0 553.48 137.11"><defs><style>.cls-1{fill:#fff;}.cls-2{fill:none;}</style></defs><title>limbob</title><g id="Layer_2" data-name="Layer 2"><g id="Layer_1-2" data-name="Layer 1"><path class="cls-1" d="M177.43,66.7l3.36-.82-.07,17.22,9.15-2.24v2l-12.51,3.08Z"/><path class="cls-1" d="M197.15,81l-3.36.83.07-19.2,3.36-.83Z"/><path class="cls-1" d="M217,57l4.19-1,0,19.2-3.31.81.06-16-6.11,17.61-1.19.29-6-14.65-.06,16-2.12.52.06-19.2,4.13-1,5.22,12.66Z"/><path class="cls-1" d="M234.17,71.94l.08-19.2,6.82-1.67c3.31-.82,5.85-.1,6.46,2.38.77,3.16-1.74,5.53-4.54,6.41v0c2.36-.44,4.72.35,5.26,2.54,1,3.91-2.51,6.65-6.64,7.66Zm3.39-9.73,0,7,3.28-.81c2.87-.7,4.73-2.39,4-5.29-.43-1.76-1.81-2.26-4.29-1.65Zm0-1.9,2.76-.67c2.61-.65,4.47-2.34,3.78-5.13-.38-1.55-1.62-1.93-3.71-1.41l-2.8.68Z"/><path class="cls-1" d="M261.11,65.6a7.59,7.59,0,0,1-9.62-5.8,11,11,0,0,1,7.63-13.44,7.58,7.58,0,0,1,9.62,5.77A10.94,10.94,0,0,1,261.11,65.6Zm-.41-1.68c3.95-1,5.6-6.75,4.4-11.63-.83-3.39-2.83-4.95-5.57-4.28-3.95,1-5.58,6.74-4.38,11.63C256,63,258,64.59,260.7,63.92Z"/><path class="cls-1" d="M272.93,62.42l.08-19.2,6.82-1.68c3.31-.81,5.85-.09,6.46,2.39.77,3.15-1.74,5.53-4.54,6.41v0c2.36-.45,4.72.34,5.26,2.54,1,3.9-2.51,6.65-6.64,7.66Zm3.39-9.74,0,7,3.29-.8c2.87-.71,4.72-2.4,4-5.29-.43-1.76-1.81-2.27-4.29-1.66Zm0-1.89,2.77-.68c2.61-.64,4.47-2.33,3.78-5.12-.38-1.55-1.62-1.93-3.72-1.42l-2.79.69Z"/><path class="cls-1" d="M305.15,35.05c4-1,6.8.82,7.8,3.67l-1.75,1.12a4.16,4.16,0,0,0-5.17-3c-4,1-6,5.64-4.72,10.92.85,3.43,3.16,5.06,5.75,4.42s4-2.21,4.82-5l1.66.74A8.86,8.86,0,0,1,307,54.33a7.47,7.47,0,0,1-9.31-5.77C296.19,42.54,299.51,36.43,305.15,35.05Z"/><path class="cls-1" d="M317.15,32.38l3.36-.83,0,8.34,9.43-2.32,0-8.34,3.36-.82-.05,19.19-3.36.83,0-8.94-9.43,2.32-.05,8.94-3.36.83Z"/><path class="cls-1" d="M348.49,38.51l-7.23,1.78-2.15,5.87-2.35.58,8-21.26,1.4-.34,7.93,17.34-3.41.84ZM342,38.33l5.79-1.42-2.9-6.47Z"/><path class="cls-1" d="M370.64,19.23l2.12-.52L372.66,38l-1.26.31L359.77,25.52l0,15.57-2.12.52.08-19.2,3.18-.78,9.7,10.83Z"/><path class="cls-1" d="M244.73,89.77a11.07,11.07,0,0,1,1,1.4,15.38,15.38,0,0,1,.76,1.52,10,10,0,0,1,.49,1.49,6.07,6.07,0,0,1,.17,1.34,5.61,5.61,0,0,1-.16,1.44,2.14,2.14,0,0,1-.57,1,3.08,3.08,0,0,1-1.12.71,8.08,8.08,0,0,1-1.82.44,4,4,0,0,0-.33-1.25,6.5,6.5,0,0,0-.89-1.33,10.71,10.71,0,0,0,1.46.09,2.6,2.6,0,0,0,.86-.14.67.67,0,0,0,.4-.39,1.74,1.74,0,0,0,.1-.65,5,5,0,0,0-.1-1,6.5,6.5,0,0,0-.32-1.17,13.61,13.61,0,0,0-.63-1.49c-.28-.56-.63-1.2-1-1.93l1.67-6.33h-2.79v20.3h-2.13c0-.59,0-1.14,0-1.65s0-1,0-1.5,0-1,0-1.47V84.45c0-.5,0-1,0-1.5s0-.88-.06-1.13l.74.05.81,0h2.22l2.24,0,1.6-.08Zm8.89-4.89c-1.4,0-2.57,0-3.52.05s-1.84.09-2.65.16V83c.81.07,1.7.13,2.65.16s2.12,0,3.52,0c0-.9,0-1.61-.06-2.11a7,7,0,0,0-.18-1.13,9.58,9.58,0,0,0,1.15.12,7.67,7.67,0,0,0,1.11-.07c.25,0,.39,0,.4.09s-.07.24-.26.42-.15.28-.19.65-.05,1-.05,2c1.42,0,2.62,0,3.62,0s1.89-.09,2.71-.16v2c-.82-.07-1.72-.12-2.71-.16s-2.2-.05-3.62-.05v2c1.26,0,2.33,0,3.22,0s1.59-.06,2.13-.1a6,6,0,0,0-.12,1c0,.39,0,.71,0,1v4.86c0,.29,0,.61,0,1a6.59,6.59,0,0,0,.12,1l-1.69-.06-2.44,0a8.49,8.49,0,0,0,2.49,3.19,17.17,17.17,0,0,0,4,2.29,4.05,4.05,0,0,0-1.08.88,3.09,3.09,0,0,0-.54,1.09c-.89-.58-1.66-1.13-2.32-1.62a15.23,15.23,0,0,1-1.7-1.5,8.56,8.56,0,0,1-1.22-1.63,10.64,10.64,0,0,1-.88-2v3.7c0,.26,0,.58,0,.94s0,.74,0,1.13.05.78.07,1.17,0,.75.08,1.07h-2.34c0-.32,0-.68.07-1.07s.05-.78.08-1.17,0-.76.05-1.13,0-.68,0-.94V95.33h-.21a24,24,0,0,1-1.12,2.13,15.64,15.64,0,0,1-1.42,2,17.78,17.78,0,0,1-1.88,1.92,21.15,21.15,0,0,1-2.45,1.85,3.17,3.17,0,0,0-1.94-1.57,11.68,11.68,0,0,0,2.09-1,17.07,17.07,0,0,0,2-1.48,14.48,14.48,0,0,0,1.7-1.8,14.29,14.29,0,0,0,1.33-2l-2.18,0a14.65,14.65,0,0,0-1.47.07c0-.29.07-.61.11-1a8.92,8.92,0,0,0,.05-1V88.66c0-.27,0-.59,0-1a6,6,0,0,0-.12-1c.55.06,1.29.09,2.21.11s2,0,3.38,0Zm0,3.56H250v1.79h3.59Zm0,3.33H250v2h3.59Zm1.92-1.54h3.19V88.44h-3.19Zm0,3.53h3.19v-2h-3.19Z"/><path class="cls-1" d="M270.09,94.65a14.2,14.2,0,0,1-1.49,1.65,23,23,0,0,1-1.84,1.51A4.85,4.85,0,0,0,265,96.3a10,10,0,0,0,3.67-2.53c-.49-.35-1-.73-1.42-1.12s-.9-.8-1.34-1.22l1.41-.77c.33.32.69.64,1.06,1s.77.63,1.2.94a11.69,11.69,0,0,0,1.22-3c-.44,0-.83,0-1.15,0l-.9.07a5,5,0,0,0-.73.13l-.65.2c-.09-.49-.17-.88-.24-1.14a3.93,3.93,0,0,0-.24-.69,3.91,3.91,0,0,0,.91-.26,1.25,1.25,0,0,0,.53-.44l1.73-2.28c-.85,0-1.62,0-2.29,0s-1.24,0-1.7.09V83.45a15.73,15.73,0,0,0,1.74.14c.66,0,1.34,0,2,0l2,0c.63,0,1.15-.06,1.56-.11l-3.57,4.63,2.1,0c.48,0,.88,0,1.2-.08a15.54,15.54,0,0,1-.9,2.92A19.09,19.09,0,0,1,271,93.4a14.37,14.37,0,0,0,1.81.86,16.42,16.42,0,0,0,2.05.68,17.37,17.37,0,0,0,2.44.47c.91.11,2,.19,3.15.22s2.54,0,4.06,0,3.23-.2,5.14-.4a4.1,4.1,0,0,0-.46.91,5.49,5.49,0,0,0-.23,1.06,67.63,67.63,0,0,1-9.11.11,29,29,0,0,1-5.76-.88A17.65,17.65,0,0,1,270.09,94.65Zm3-16.18.89.56.73.44.71.42.81.5-1.06,1.49a11.64,11.64,0,0,0-1.4-1.12,14.43,14.43,0,0,0-1.48-.88v.64c0,.37,0,.77,0,1.18s.06.83.1,1.24H270.3a18.89,18.89,0,0,0,.16-2.42v-.67a13.41,13.41,0,0,1-1.5,1.68,21.15,21.15,0,0,1-1.83,1.54,4.6,4.6,0,0,0-1.46-1.41,12.5,12.5,0,0,0,2.58-1.51,9.1,9.1,0,0,0,1.94-2c-.88,0-1.62,0-2.22.08s-1.16.08-1.69.14V76.45q.89.08,1.83.12c.62,0,1.41.05,2.35.06,0-.67,0-1.23,0-1.67s-.06-.8-.09-1.07a11.55,11.55,0,0,0,2.13.08c.28,0,.45,0,.5.15s0,.21-.32.33a.63.63,0,0,0-.32.27.92.92,0,0,0-.08.4v1.51c.94,0,1.71,0,2.32-.06s1.19-.07,1.75-.12v2c-.55-.09-1.13-.15-1.74-.19l-2.33-.11v1.52Zm11.2-.35a11.21,11.21,0,0,0,2.19,1.8A9.76,9.76,0,0,0,288.71,81a3.23,3.23,0,0,0-.73.7,5.56,5.56,0,0,0-.52.87l-1.13-.77c-.34-.25-.68-.52-1-.8a11,11,0,0,1-1-1c-.33-.35-.68-.77-1-1.25v1.46c0,.36,0,.74,0,1.16s.05.83.09,1.24h-1.86a.88.88,0,0,1-.38.26c-.16.07-.25.28-.26.62h2.23l1.51,0,1,0,.66,0a2.56,2.56,0,0,0-.05.64v1.54l1.36-.05c.4,0,.81,0,1.22-.08v1.41l-1.22-.05-1.36,0c0,.74,0,1.26,0,1.57a4.28,4.28,0,0,0,0,.58h-.66l-1,0h-3.75V90h2.05c.57,0,1.08,0,1.54,0l1.28,0,1.28-.08V91.3l-1.28-.1-1.28,0-1.54,0h-2.05v1.06c1.58,0,2.9,0,4-.06s2-.07,2.92-.12v1.49c-.88-.07-1.86-.12-2.92-.15s-2.39,0-4,0c0,.3,0,.61.07.93s.05.61.09.88h-2.21c0-.25.06-.54.08-.86s0-.65.05-.95c-1.38,0-2.56,0-3.53.07s-1.88.06-2.69.12V92q1.25.08,2.7.12c1,0,2.14,0,3.52.06V91.11c-.58,0-1.1,0-1.57,0l-1.26,0c-.38,0-.75,0-1.1,0l-1.12.07V89.86l1.13.08,1.12,0,1.25,0H279V88.93h-3.19l-.88,0h-.58V87.76l.58,0H279v-1c-1.33,0-2.43,0-3.32.07s-1.73.06-2.53.09V85.52l2.53.11c.89,0,2,.06,3.32.08v-1h-1.9l-1.31,0-.88,0h-.59V83.47l.59,0,.89,0H279c0-.34,0-.62,0-.83a2.48,2.48,0,0,0-.08-.5c.37,0,.75.08,1.12.1l1.06,0a1.4,1.4,0,0,1,.38,0c0-.37.06-.74.08-1.1s0-.71,0-1V78.79A13.06,13.06,0,0,1,279.72,81a17.08,17.08,0,0,1-2.34,1.86,3,3,0,0,0-.52-.74,3.77,3.77,0,0,0-.76-.61A12.55,12.55,0,0,0,278.6,80a9.72,9.72,0,0,0,1.79-1.84c-1.3,0-2.37.08-3.22.16V76.45c.55,0,1.17.09,1.88.12s1.53.05,2.45.06c0-.69,0-1.27,0-1.75s-.05-.87-.08-1.17a9.32,9.32,0,0,0,1.05.1,9.19,9.19,0,0,0,1.05,0c.28,0,.45,0,.49.12s-.06.21-.31.34a.63.63,0,0,0-.31.29,1,1,0,0,0-.08.45v1.62c1.08,0,2,0,2.84,0s1.53-.07,2.13-.14v1.83C287.25,78.18,285.91,78.12,284.24,78.12Zm.4,6.55h-3.75v1H283c.61,0,1.18,0,1.69,0Zm0,3.14v-1c-.51,0-1.08,0-1.69,0h-2.06v1Z"/><path class="cls-1" d="M296.22,86.28c0,.71,0,1.5,0,2.37s.07,1.79.14,2.77H294c.09-1,.16-1.94.2-2.79s.07-1.64.07-2.35V76.76c-.59,0-1.15,0-1.68.08a11.84,11.84,0,0,0-1.25.13v-2.1a8.37,8.37,0,0,0,1.26.15l1.67.06V73.43c0-.83,0-1.53,0-2.1s0-1.06,0-1.48a10.65,10.65,0,0,0-.08-1.09c0-.31-.07-.61-.13-.92a19.34,19.34,0,0,0,2.37.08c.25,0,.39,0,.43.14s-.06.28-.27.53a1.11,1.11,0,0,0-.23.41,1.84,1.84,0,0,0-.06.47v5.61c.51,0,1,0,1.42-.08a9,9,0,0,0,1.05-.13V77a9.38,9.38,0,0,0-1.05-.12l-1.42-.07ZM311.46,89a4.93,4.93,0,0,1-.1,1.12,1.2,1.2,0,0,1-.51.7,3.1,3.1,0,0,1-1.17.45c-.51.12-1.21.24-2.07.36a4.87,4.87,0,0,0-.24-.9c-.13-.34-.32-.82-.59-1.44.64,0,1.14,0,1.5,0a2.12,2.12,0,0,0,.83-.15.61.61,0,0,0,.36-.41,3,3,0,0,0,.08-.76V85.94h-7.16c-1.12,0-2,0-2.71,0s-1.3.06-1.81.12v-2c.51.07,1.11.12,1.79.16s1.59,0,2.7,0h7.16c0-.28,0-.56-.07-.82a6.41,6.41,0,0,0-.09-.72,8,8,0,0,0,1.05.14c.35,0,.66,0,.95,0a.83.83,0,0,1,.46.08c.06.06,0,.18-.12.38a1.55,1.55,0,0,0-.13.37,4,4,0,0,0-.08.53l1.66-.07c.56,0,1.17-.07,1.83-.14v2c-.5,0-1.05-.07-1.67-.1l-1.85-.06Zm-6.68-17c-1.5,0-2.75,0-3.73.08s-1.82.08-2.49.13v-2c.62.07,1.43.12,2.42.15s2.26,0,3.8.06c0-.74,0-1.34-.07-1.79a7.89,7.89,0,0,0-.14-1.06c.36.06.74.1,1.16.13l1.13,0c.3,0,.46,0,.48.1s-.08.14-.29.22a.69.69,0,0,0-.27.43,2.06,2.06,0,0,0-.11.53v1.41c1.8,0,3.29,0,4.5,0s2.27-.09,3.19-.16v2c-.85-.07-1.89-.12-3.12-.16s-2.76,0-4.57,0V73.7c1.65,0,3,0,3.93,0s1.72-.09,2.25-.16c-.06.35-.1.77-.14,1.26s0,1,0,1.42v3c0,.55,0,1.14,0,1.79s.07,1.23.11,1.75h-2.15V81.2h-4c0,.37,0,.72.06,1a9.22,9.22,0,0,0,.1,1H304.6a6.28,6.28,0,0,0,.13-1c0-.32,0-.68,0-1h-3.51v2.08h-2c.05-.53.09-1.12.11-1.77s0-1.26,0-1.82V76.17c0-.46,0-.93-.05-1.42s-.08-.91-.13-1.26c.46.05,1.14.09,2.05.13s2.08.06,3.53.08ZM302.31,90a11.15,11.15,0,0,0-1.52-2.92l2-.78a17.47,17.47,0,0,1,.94,1.51,15.16,15.16,0,0,1,.73,1.45Zm2.47-14.84h-3.51v1.72h3.51Zm0,3h-3.51V80h3.51Zm1.89-1.31h4V75.14h-4Zm0,3.12h4V78.17h-4ZM310,70.29a4.31,4.31,0,0,0-.5-1,9.11,9.11,0,0,0-.75-1l2.23-.83c.16.31.34.6.53.9s.45.62.75,1Z"/><rect class="cls-2" width="553.48" height="137.11"/></g></g></svg>