<svg xmlns="http://www.w3.org/2000/svg" viewBox="0 0 156.35 153.3"><defs><style>.cls-1{isolation:isolate;}.cls-2{mix-blend-mode:hard-light;}.cls-3{fill:#fff;}</style></defs><title>logo</title><g class="cls-1"><g id="Layer_2" data-name="Layer 2"><g id="Layer_1-2" data-name="Layer 1"><g class="cls-2"><path class="cls-3" d="M16.6,80.34c-.47-1.91-1.92-2.63-4.5-2.94L8.39,77c-3.27-.39-6-1.61-6.84-4.9C.26,66.86,3.9,62.63,9.48,61.25c4.75-1.17,8.94.54,10.82,3.65l-2,2.27a7,7,0,0,0-8.21-3.34c-3.06.76-5,2.88-4.4,5.49.51,2.06,2,2.6,4.73,2.93l3.63.41c3.44.43,6,1.7,6.82,5,1.35,5.47-2.79,10.1-8.63,11.54C7.47,90.33,2.48,88.77,0,85.3l1.93-2.46a9.07,9.07,0,0,0,9.69,3.56C14.81,85.62,17.35,83.37,16.6,80.34Z"/><path class="cls-3" d="M47.74,52.23l-.07,17c0,7.39-3.49,12.09-9.85,13.66S26.31,81.4,26.34,74.13l.07-16.65,4.87-1.2-.09,16.57c0,5.21,2.59,7.78,6.78,6.75,4.53-1.12,6.63-4.34,6.65-10.06L44.67,53Z"/><path class="cls-3" d="M73.9,45.78,77,45l-.12,27.89L75,73.37,58.16,54.9l0,22.55-3.07.76.1-27.81,4.6-1.13L73.81,64.94Z"/><path class="cls-3" d="M98.25,60.23c-.47-1.91-1.91-2.63-4.49-2.95l-3.71-.39c-3.27-.39-6-1.61-6.84-4.91-1.29-5.23,2.35-9.47,7.92-10.84,4.76-1.17,9,.54,10.82,3.65l-2,2.27a7,7,0,0,0-8.2-3.34c-3.07.76-5,2.87-4.4,5.49.5,2.06,2,2.6,4.72,2.93l3.64.41c3.44.42,6,1.7,6.82,5C103.89,63,99.75,67.6,93.91,69c-4.79,1.18-9.77-.37-12.26-3.84l1.94-2.46a9.06,9.06,0,0,0,9.69,3.56C96.46,65.51,99,63.26,98.25,60.23Z"/><path class="cls-3" d="M108.74,37.2l18.49-4.55,0,2.82-13.63,3.36,0,9.21,10-2.45,0,2.82-10,2.46V61l14.22-3.5,0,2.85L108.64,65Z"/><path class="cls-3" d="M141.6,31.89l-9.88,2.43V31.54l24.62-6.06v2.77l-9.88,2.44-.11,25-4.86,1.2Z"/><path class="cls-3" d="M43.07,20l-9.88,2.43V19.68L57.8,13.61v2.78l-9.88,2.43-.11,25L43,45.05Z"/><path class="cls-3" d="M63.41,12.23,68.28,11l0,12.08L81.9,19.75l0-12.08,4.86-1.2-.06,27.8-4.86,1.2,0-12.95L68.25,25.89l-.07,13L63.32,40Z"/><path class="cls-3" d="M94.59,4.55,113.07,0l0,2.82L99.43,6.18l0,9.21,9.95-2.45v2.83l-10,2.45,0,10.08,14.23-3.5,0,2.85L94.49,32.36Z"/><path class="cls-3" d="M37.27,91.5c5.73-1.41,9.86,1.18,11.31,5.31l-2.53,1.62a6,6,0,0,0-7.5-4.31c-5.8,1.43-8.7,8.18-6.82,15.81,1.23,5,4.58,7.33,8.33,6.4s5.76-3.2,7-7.27l2.4,1.07a12.84,12.84,0,0,1-9.5,9.29c-6.13,1.51-11.87-1.8-13.48-8.35C24.31,102.35,29.12,93.51,37.27,91.5Z"/><path class="cls-3" d="M54.69,87.6l4.87-1.19-.09,24.94,13.25-3.26V111L54.6,115.41Z"/><path class="cls-3" d="M97.65,77l-.07,17c0,7.38-3.49,12.09-9.85,13.66s-11.51-1.45-11.47-8.73l.06-16.64,4.87-1.2L81.1,97.65c0,5.21,2.59,7.78,6.78,6.75,4.53-1.12,6.64-4.34,6.66-10.06l0-16.56Z"/><path class="cls-3" d="M105,103l.09-27.81,9.88-2.44c4.79-1.17,8.46-.13,9.35,3.46,1.12,4.56-2.52,8-6.57,9.28l0,.07c3.41-.64,6.83.5,7.61,3.68,1.4,5.65-3.62,9.63-9.61,11.1Zm4.9-14.11,0,10.17,4.75-1.17c4.16-1,6.85-3.47,5.82-7.66-.63-2.55-2.64-3.29-6.23-2.4Zm0-2.74,4-1c3.78-.93,6.47-3.38,5.48-7.42-.56-2.24-2.36-2.79-5.39-2l-4,1Z"/><path class="cls-3" d="M40.47,141.85c-.24-.2-.51-.41-.83-.63l-1-.67c-.34-.22-.68-.42-1-.62s-.65-.35-.95-.49l1.39-1.85c.58.39,1.23.78,1.93,1.18s1.35.75,1.93,1Zm2.36,3.05c-.14.23-.27.45-.39.67s-.24.46-.35.72l-.36.88c-.13.32-.28.7-.44,1.15-.38,1-.69,1.85-.92,2.53s-.45,1.39-.65,2.12c-.42-.34-.9-.7-1.42-1.07s-1-.7-1.48-1c.4-.51.77-1,1.12-1.56s.71-1.17,1.11-1.92a19.41,19.41,0,0,0,.9-1.84c.25-.61.48-1.29.71-2.06a6.24,6.24,0,0,0,1,.77A5.91,5.91,0,0,0,42.83,144.9Zm9.82-16.28q0-.78-.09-1.47a7.57,7.57,0,0,0-.21-1.25c.46.06.93.11,1.42.14s.93,0,1.36,0c.2,0,.31,0,.33.14s-.05.18-.21.29a.65.65,0,0,0-.27.24.77.77,0,0,0-.07.39v1.48c1.6,0,3.05,0,4.37-.05s2.45-.09,3.4-.19v2.45c-1-.11-2.08-.17-3.4-.2l-4.37-.08v2H52.65v-2H47V133H44.76v-2.42q-2.35,0-4.35.09c-1.33,0-2.45.11-3.38.19v-2.45c1,.1,2.1.16,3.41.19s2.75.05,4.32.05a13.83,13.83,0,0,0-.3-2.54c.47.06.94.11,1.42.14s.94,0,1.36,0c.2,0,.31,0,.33.14s0,.19-.21.29a.65.65,0,0,0-.27.24.93.93,0,0,0-.06.39v1.3Zm-10.3,8.61a9.41,9.41,0,0,0-.77-.74c-.32-.27-.65-.55-1-.83s-.73-.55-1.11-.82-.75-.49-1.09-.69l1.57-1.75c.3.24.64.49,1,.75l1.12.79,1.07.74.88.59ZM53,141.46a26.9,26.9,0,0,1-3,1.56c-1,.45-2.09.85-3.14,1.19.6.08,1.39.14,2.35.18s2.19.06,3.66.06c1,0,1.88,0,2.57,0s1.26,0,1.74,0,.86,0,1.17-.09l.86-.12a9.38,9.38,0,0,0-.21,2.32v3.81q0,.81.06,1.53c0,.47.1,1,.18,1.46H56.61v-1.93H48.93v1.81H46.46c.08-.48.13-.94.16-1.36s.05-.91.05-1.48V146.5c0-.4,0-.8-.05-1.19s-.06-.73-.1-1l-1.2.33c-.39.1-.78.18-1.16.24-.16-.28-.36-.61-.59-1a6.55,6.55,0,0,0-.77-1,29.24,29.24,0,0,0,3.93-.89A27.23,27.23,0,0,0,51,140.25a10.19,10.19,0,0,1-1.53-1.46,11.65,11.65,0,0,1-1.16-1.68c-.4.52-.82,1-1.25,1.57s-.88,1-1.32,1.48a4.66,4.66,0,0,0-.94-.54c-.32-.14-.68-.29-1.08-.43a7.73,7.73,0,0,0,1.31-1.13,16.1,16.1,0,0,0,1.42-1.71q.7-1,1.41-2.1a23.83,23.83,0,0,0,1.26-2.34,9.93,9.93,0,0,0,1.2.53,6.39,6.39,0,0,0,.8.26c.28,0,.43.11.44.22s-.12.22-.38.32a1.09,1.09,0,0,0-.32.21,3.45,3.45,0,0,0-.41.49h9.91A23.14,23.14,0,0,1,58,137.31a18.74,18.74,0,0,1-3,2.82,29,29,0,0,0,7.82,1.3,6.72,6.72,0,0,0-.76,1.34,11,11,0,0,0-.45,1.44c-1.91-.4-3.57-.83-5-1.27A23.2,23.2,0,0,1,53,141.46Zm3.66,4.89H48.93v3.15h7.68ZM53,139.16a8.56,8.56,0,0,0,.89-.71c.33-.29.67-.6,1-.93s.65-.68.95-1,.55-.68.76-1H49.42l-.09.15a15,15,0,0,0,1.61,2A9.39,9.39,0,0,0,53,139.16Z"/><path class="cls-3" d="M72.78,144.88h-3c.1-1,.16-2,.19-2.82s0-1.77,0-2.74V125.15c0-.84,0-1.64-.08-2.4s-.11-1.36-.19-1.83c.44,0,.9.08,1.37.11s1.05,0,1.74.06l2.52,0,3.76,0,3.8,0,2.56,0c.7,0,1.27,0,1.73-.06s.88-.06,1.28-.11a14.18,14.18,0,0,0-.18,1.76c0,.74-.06,1.57-.06,2.47v14.6q0,1.26.06,2.43t.18,2.49h-3v-2H72.78Zm12.66-21.39H72.78v7H85.44ZM72.78,140.32H85.44v-7.46H72.78Z"/><path class="cls-3" d="M98,120.94c-.32.16-.65.31-1,.45l-1,.46a6.27,6.27,0,0,0-.6-1.17,7.72,7.72,0,0,0-.82-1c.77-.24,1.55-.52,2.36-.85s1.58-.67,2.33-1,1.45-.78,2.11-1.18a15.9,15.9,0,0,0,1.72-1.18c.63-.48,1.17-.93,1.63-1.34s.87-.8,1.21-1.17a9.56,9.56,0,0,0,.88-1,8.41,8.41,0,0,0,.63-1l.64.27.75.3.79.27a5.27,5.27,0,0,0,.69.19c.29.06.44.18.47.36s-.11.31-.44.39l-.3.09a10.14,10.14,0,0,0,1.86,1.6,22.11,22.11,0,0,0,2.79,1.66,23.14,23.14,0,0,0,3.71,1.53,19.74,19.74,0,0,0,3.85.77,5.58,5.58,0,0,0-1,1.21,7.93,7.93,0,0,0-.68,1.69l-.8-.3-.71-.3c-.05.52-.08,1.11-.1,1.76s0,1.27,0,1.83,0,1.32,0,1.9,0,1.2.1,1.85l-2.26-.06-2.4,0h-5.92c-2.23,0-4.2,0-5.9,0l-4.79.11c0-.55.07-1.15.09-1.83s0-1.3,0-1.89Zm4.41-2.42c-.55.34-1.11.68-1.71,1l-1.86,1c1.39,0,2.9.07,4.52.09s3.36,0,5.21,0,3.83,0,5.56,0,3.32,0,4.77-.09c-.8-.37-1.53-.7-2.17-1s-1.31-.65-2-1v.91l-1.25-.09-1.36-.06q-.74,0-1.62,0h-4c-.57,0-1.1,0-1.58,0l-1.33.06c-.41,0-.81,0-1.21.09Zm-.73,20.33H99.27a12,12,0,0,0,.21-2.38v-4.9a8,8,0,0,0-.18-2.26c.2,0,.62,0,1.25,0l2.27,0,2.82,0,2.93,0,3,0,2.82,0,2.24,0c.62,0,1,0,1.24,0a6.87,6.87,0,0,0-.22,2.26v4.84c0,.34,0,.74.05,1.19a8.16,8.16,0,0,0,.17,1.22h-2.54v-1.48H101.68Zm5.56-16.46h-7.07v3.78h7.07Zm8.07,10.18v-1.45H101.68v1.45Zm-13.63,1.57v1.48h13.63v-1.48Zm1.85-8.13a11.17,11.17,0,0,0-1.21-2.5l2.11-.94c.28.42.55.85.79,1.27a10.42,10.42,0,0,1,.6,1.21Zm4.92-12.32a22.4,22.4,0,0,1-4.44,3.77h8.88a17.39,17.39,0,0,1-2.28-1.61A24.36,24.36,0,0,1,108.45,113.69Zm8.37,12.48v-3.78h-7.43v3.78h1.45c.28-.51.56-1.08.83-1.71a19,19,0,0,0,.68-1.83,10.8,10.8,0,0,0,1.18.54,10.2,10.2,0,0,0,1,.37q.61.21,0,.48a3,3,0,0,0-.66.57,13.82,13.82,0,0,0-1.15,1.58Z"/></g></g></g></g></svg>