<svg xmlns="http://www.w3.org/2000/svg" viewBox="0 0 555 87.8"><defs><style>.cls-1{fill:#fff;}.cls-2{fill:none;}</style></defs><title>press_1</title><g id="Layer_2" data-name="Layer 2"><g id="Layer_1-2" data-name="Layer 1"><path class="cls-1" d="M168.08,72.23v7.51l-3.39.83.08-19.4,7.1-1.74c3.66-.9,6.25.29,6.95,3.14,1.07,4.36-2.45,7.63-7,8.75Zm2.77-2.59c3.53-.86,5.27-2.9,4.46-6.21-.47-1.88-1.89-2.5-4.45-1.87l-2.74.67,0,8.09Z"/><path class="cls-1" d="M185.93,75.35l-3.39.83.08-19.39,7.54-1.86c3.32-.81,6.08-.08,6.74,2.64.94,3.81-2.48,6.34-5.28,7.11l0,.06c2.31-.32,3.49.42,4.17,2.41l.95,2.51a7.47,7.47,0,0,0,1.59,2.65l-3.6.89a10.32,10.32,0,0,1-1.21-2.42l-1.05-2.84c-.6-1.77-1.36-2.27-3.48-1.75l-3,.74ZM186,65l3.21-.79c3.1-.76,4.87-2.69,4.15-5.64-.41-1.67-1.83-2.13-4.12-1.56l-3.24.79Z"/><path class="cls-1" d="M202.12,52,215,48.82v2l-9.51,2.34,0,6.43,6.94-1.71v2l-6.95,1.71v7l9.92-2.43,0,2-13.34,3.28Z"/><path class="cls-1" d="M229.14,59.61c-.33-1.33-1.34-1.83-3.14-2l-2.59-.28c-2.28-.27-4.2-1.12-4.77-3.42-.9-3.66,1.65-6.61,5.54-7.56,3.31-.82,6.23.37,7.54,2.55l-1.38,1.58a4.89,4.89,0,0,0-5.72-2.33c-2.14.52-3.52,2-3.08,3.83.36,1.43,1.42,1.81,3.3,2l2.54.29c2.4.3,4.19,1.18,4.75,3.45.94,3.82-1.95,7.05-6,8.05-3.35.82-6.82-.26-8.56-2.69l1.36-1.72a6.3,6.3,0,0,0,6.75,2.5C227.88,63.3,229.66,61.73,229.14,59.61Z"/><path class="cls-1" d="M245.9,55.5c-.33-1.34-1.34-1.84-3.13-2.06l-2.59-.28c-2.28-.27-4.21-1.12-4.77-3.42-.9-3.66,1.64-6.61,5.53-7.56,3.32-.82,6.24.38,7.55,2.55l-1.39,1.58A4.89,4.89,0,0,0,241.38,44c-2.14.53-3.52,2-3.07,3.83.35,1.44,1.41,1.81,3.3,2l2.53.29c2.4.3,4.2,1.18,4.75,3.46.94,3.81-1.95,7-6,8-3.34.82-6.82-.26-8.55-2.69l1.35-1.72a6.32,6.32,0,0,0,6.76,2.5C244.65,59.18,246.42,57.61,245.9,55.5Z"/><path class="cls-1" d="M264.24,56.11l-3.39.83.08-19.4,7.54-1.85c3.32-.81,6.07-.08,6.74,2.64.94,3.81-2.48,6.34-5.28,7.11l0,.06c2.31-.32,3.48.42,4.17,2.41l.95,2.51a7.47,7.47,0,0,0,1.59,2.65L273,54a10.07,10.07,0,0,1-1.21-2.41l-1.05-2.84c-.6-1.77-1.37-2.27-3.48-1.75l-3,.73Zm.05-10.31L267.5,45c3.1-.76,4.87-2.69,4.15-5.64-.41-1.67-1.83-2.13-4.12-1.56l-3.24.79Z"/><path class="cls-1" d="M280.43,32.75l12.9-3.17v2l-9.51,2.34,0,6.43,6.94-1.71v2l-7,1.71v7l9.92-2.44,0,2-13.35,3.28Z"/><path class="cls-1" d="M298,28.43l3.4-.84L301.36,45l9.24-2.27v2L298,47.83Z"/><path class="cls-1" d="M314.64,24.35l12.9-3.17,0,2L318,25.48l0,6.43,6.95-1.7,0,2L318,33.88l0,7,9.92-2.44,0,2-13.34,3.28Z"/><path class="cls-1" d="M342.14,31.57l-7.31,1.8-2.17,5.93-2.38.58,8.07-21.47,1.41-.35,8,17.53-3.44.84Zm-6.58-.18L341.41,30l-2.94-6.53Z"/><path class="cls-1" d="M360.53,27.33c-.33-1.33-1.33-1.83-3.13-2L354.81,25c-2.28-.27-4.21-1.13-4.77-3.42-.9-3.66,1.64-6.61,5.53-7.57,3.32-.81,6.24.38,7.55,2.55l-1.38,1.59A4.92,4.92,0,0,0,356,15.81c-2.14.53-3.52,2-3.07,3.83.35,1.44,1.41,1.82,3.3,2l2.53.3c2.4.29,4.2,1.18,4.76,3.45.93,3.81-2,7-6,8-3.34.82-6.82-.26-8.55-2.69l1.35-1.71a6.32,6.32,0,0,0,6.76,2.49C359.28,31,361.05,29.44,360.53,27.33Z"/><path class="cls-1" d="M367.86,11.27,380.75,8.1v2l-9.5,2.34,0,6.43,6.94-1.71v2l-6.95,1.71v7l9.92-2.44,0,2-13.34,3.28Z"/><rect class="cls-2" width="555" height="87.8"/></g></g></svg>