<svg xmlns="http://www.w3.org/2000/svg" viewBox="0 0 554.67 349.31"><defs><style>.cls-1{fill:#fff;}.cls-2{fill:none;}</style></defs><title>reception_1</title><g id="Layer_2" data-name="Layer 2"><g id="Layer_1-2" data-name="Layer 1"><path class="cls-1" d="M137.29,291.38A10.16,10.16,0,0,1,136,288.9a15.87,15.87,0,0,1-.74-2.93,28,28,0,0,1-.34-3.53c0-1.29-.07-2.72-.07-4.29-.47.07-1,.11-1.58.14s-1.28,0-2.08,0h-.73l-.65,0-.68-.07-.8-.08v2.25c.3,0,.57-.06.8-.07l.67-.05c.2,0,.42,0,.63,0h2.39a49.24,49.24,0,0,0,.28,5.73,18.87,18.87,0,0,0,1.08,4.61,15.43,15.43,0,0,0,2.16,3.91,21.49,21.49,0,0,0,3.56,3.6,6.7,6.7,0,0,1,.92-1.39A7.4,7.4,0,0,1,142,295.6a21,21,0,0,1-2.76-2A12.3,12.3,0,0,1,137.29,291.38Z"/><path class="cls-1" d="M127.43,280.48c-.43,0-.85-.05-1.24-.09a8.5,8.5,0,0,1-1.19-.21,6.15,6.15,0,0,1,.06,1.17c0,.52,0,1.12-.1,1.8s-.15,1.4-.26,2.19-.26,1.57-.43,2.35c-.22,1-.46,1.92-.71,2.75a13.06,13.06,0,0,1-1,2.37A14.79,14.79,0,0,1,121.1,295a23.07,23.07,0,0,1-2.15,2.32,6.17,6.17,0,0,1,1.24.48,3.28,3.28,0,0,1,1,.78,15.24,15.24,0,0,0,3.31-4.77,24.39,24.39,0,0,0,1.86-6.34c.25-1.55.45-2.76.59-3.62s.26-1.5.34-1.91a5.21,5.21,0,0,1,.18-.77c0-.09.06-.14.1-.16.2-.13.29-.26.26-.38S127.67,280.48,127.43,280.48Z"/><path class="cls-1" d="M165.16,271H155.4l-1.35,0-1,0c0,.37.06.8.07,1.3s0,1.16,0,2v6a28.16,28.16,0,0,1-.22,3.79,12.58,12.58,0,0,1-.73,2.89,8.81,8.81,0,0,1-1.29,2.25,11.21,11.21,0,0,1-1.92,1.83,6,6,0,0,1,1.34.52,4.26,4.26,0,0,1,1.09.88,12.73,12.73,0,0,0,2.69-3.83,13.81,13.81,0,0,0,1.12-4.71H165v3.63a11.66,11.66,0,0,1-.06,1.36.87.87,0,0,1-.35.66,1.49,1.49,0,0,1-.91.14c-.41,0-1-.12-1.74-.25a4.78,4.78,0,0,1,.84,1.38,3.74,3.74,0,0,1,.26,1.4c1-.1,1.82-.21,2.39-.32a3.16,3.16,0,0,0,1.27-.51,1.35,1.35,0,0,0,.53-.89,8.65,8.65,0,0,0,.1-1.51V274.18c0-.81,0-1.46,0-2s0-.94.08-1.3l-1,.05ZM165,282h-9.72v-3.69H165Zm0-5.44h-9.73v-3.64H165Z"/><path class="cls-1" d="M186.93,271.66v-6.24a6.86,6.86,0,0,1,.09-1.32.77.77,0,0,1,.29-.54c.28-.17.4-.3.35-.4s-.24-.13-.55-.1a9.53,9.53,0,0,1-1.41,0c-.5-.05-1-.11-1.48-.19a13.09,13.09,0,0,1,.3,1.84,18.17,18.17,0,0,1,.1,2v5c-2.05,0-3.84-.05-5.35-.1s-2.86-.1-4.05-.18V274c1.17-.08,2.51-.14,4-.17s3.31-.06,5.38-.07v7c0,.28,0,.57,0,.86s0,.62,0,1,0,.74-.07,1.18-.06.93-.11,1.5h2.73q0-.85-.09-1.5c0-.44,0-.83-.06-1.18s0-.67,0-1,0-.58,0-.86v-7q3.23,0,5.61.06c1.59,0,3,.11,4.19.19v-2.6c-1.21.08-2.6.14-4.19.18S189.08,271.64,186.93,271.66Z"/><path class="cls-1" d="M214.22,256.83c-.13-.37-.23-.7-.32-1l-2.48.6a6.12,6.12,0,0,1,.44.92c.14.35.28.73.4,1.12s.24.79.33,1.18.15.74.19,1l2.68-.52-.4-1c-.15-.39-.3-.78-.44-1.18S214.34,257.2,214.22,256.83Z"/><path class="cls-1" d="M212.15,267.15a15.26,15.26,0,0,1-2.81-.9c0,.25-.08.5-.13.75a6,6,0,0,1-.25.87c-.11.32-.27.7-.47,1.14s-.46,1-.78,1.57a21.54,21.54,0,0,1-2.07,3.41,12.82,12.82,0,0,1-2.57,2.58,6.34,6.34,0,0,1,1.33.56,6,6,0,0,1,1.12.75,18.06,18.06,0,0,0,1.21-1.46c.42-.55.83-1.13,1.24-1.75s.79-1.25,1.15-1.9.68-1.29,1-1.91a18.4,18.4,0,0,1,1.2-2.32,2.46,2.46,0,0,1,.78-.84.57.57,0,0,0,.34-.3C212.45,267.29,212.36,267.2,212.15,267.15Z"/><path class="cls-1" d="M213.73,261.94q-3.61,0-6.19-.06c-1.72-.05-3.24-.11-4.54-.2v2.46c1.29-.08,2.79-.14,4.52-.18s3.8-.07,6.21-.06,4.47,0,6.2.06,3.24.11,4.52.19v-2.46c-1.28.09-2.79.15-4.52.19S216.13,261.94,213.73,261.94Z"/><path class="cls-1" d="M221.09,271.28c-.58-1-1.17-2-1.76-3s-1.13-1.81-1.59-2.51l-2,.93c.26.38.57.86.92,1.44s.71,1.2,1.08,1.88.74,1.38,1.13,2.11.74,1.43,1.09,2.13l.95,1.95c.29.61.53,1.13.71,1.57l2.38-1.23c-.3-.65-.71-1.44-1.22-2.38S221.68,272.29,221.09,271.28Z"/><path class="cls-1" d="M249.11,252.55a10.3,10.3,0,0,1,.15-1.45l-1.06.08c-.38,0-.86,0-1.43.06l-2.13,0h-6.27l-2.09,0c-.57,0-1.05,0-1.44,0s-.78-.05-1.14-.09c.06.39.12.89.16,1.52s.06,1.29.06,2v11.76c0,.8,0,1.55,0,2.26s-.08,1.5-.17,2.35h2.51v-1.83h10.5v1.66h2.53q-.09-1.11-.15-2.07c0-.64,0-1.31,0-2v-12.1C249.06,253.86,249.08,253.17,249.11,252.55Zm-2.39,14.64h-10.5V261h10.51Zm0-8.15H236.22v-5.82h10.5Z"/><path class="cls-1" d="M263.31,261.63h2.13c-.07-.54-.12-1.17-.15-1.9s-.05-1.45-.05-2.17V247.45c0-.22,0-.47,0-.75s0-.57,0-.87,0-.56.07-.82,0-.47.06-.62l-.58.09-.65.06-.9,0h-2.68l-1,0-.73-.06-.61-.09c0,.15,0,.35.06.61s.05.54.06.83,0,.58,0,.86,0,.54,0,.76v12.1q0,1.15-.06,2.22c-.05.71-.11,1.34-.19,1.89h2.23v-3.58h2.86Zm-2.85-15.24h2.85v4.91h-2.86Zm0,11.91v-5.21h2.86v5.21Z"/><path class="cls-1" d="M278.22,259.91c-.07.7-.14,1.25-.21,1.64a2.15,2.15,0,0,1-.34.88.85.85,0,0,1-.63.32,8.44,8.44,0,0,1-1.05,0c-.35,0-.63,0-.84-.07a1.78,1.78,0,0,1-.5-.11.38.38,0,0,1-.25-.23.87.87,0,0,1-.07-.4v-3a1.73,1.73,0,0,1,.15-.6,1,1,0,0,1,.35-.51c.16-.08.23-.16.19-.25s-.21-.11-.49-.1h-.44l-.57-.05-.6-.09-.55-.1a3.49,3.49,0,0,0,.2-.57q.07-.3.15-.63l3.91,0c1,0,1.76.06,2.16.11-.05-.34-.09-.7-.11-1.08s0-.76,0-1.13v-2.58c0-.45,0-.84,0-1.18s.05-.66.09-1c-.34,0-.87.07-1.61.12s-1.69.07-2.88.08l2.86-4.71a12.92,12.92,0,0,1-1.54.15c-.63,0-1.29.05-2,.05h-2.76c.29-.38.52-.69.72-.9a3.13,3.13,0,0,1,.61-.55c.4-.29.4-.46,0-.53a5,5,0,0,1-.85-.28,9.2,9.2,0,0,1-1.1-.5,21.75,21.75,0,0,1-1.88,3.21,9.18,9.18,0,0,1-2.56,2.35,4.34,4.34,0,0,1,1.85,1.08c.39-.41.75-.82,1.09-1.21s.65-.76.92-1.09h4.41l-1.76,3-2.24,0c-.63,0-1.16,0-1.62,0s-.83,0-1.15-.07a8.1,8.1,0,0,1-.85-.13c0,.37.07.72.1,1.06s.05.69.05,1.07v2.48c0,.42,0,.84,0,1.27a7.12,7.12,0,0,1-.14,1.09l.64-.06c.24,0,.53,0,.88-.05l1.2,0,1.62,0a10.44,10.44,0,0,1-.94,2.31,7.52,7.52,0,0,1-1.51,1.87,10.38,10.38,0,0,1-2.19,1.49,17.1,17.1,0,0,1-3,1.19,8.33,8.33,0,0,1,1.15.93,4.64,4.64,0,0,1,.77,1,16.11,16.11,0,0,0,4.89-3.41,11.1,11.1,0,0,0,2.44-4.08,5,5,0,0,1,.17,1c0,.36.05.7.05,1V262a8.33,8.33,0,0,0,.07,1.23,1.18,1.18,0,0,0,.42.75,2.16,2.16,0,0,0,1,.38q.69.09,2,.12a9.24,9.24,0,0,0,1.9-.11,2.28,2.28,0,0,0,1.12-.51,2.56,2.56,0,0,0,.65-1.06,17.42,17.42,0,0,0,.49-1.73,2.38,2.38,0,0,1-1-.31A3.91,3.91,0,0,1,278.22,259.91Zm-5.07-7.17c0-.63.08-1.22.11-1.75h3.43v3.43H273C273.05,253.93,273.11,253.38,273.15,252.74Zm-1.81-1c0,.29,0,.59,0,.9s-.05.63-.09.93-.05.58-.07.83h-2.66V251h2.89C271.36,251.22,271.35,251.48,271.34,251.76Z"/><path class="cls-1" d="M303.38,254.39c-.88,0-1.83,0-2.86.05h-3.37v-10h3.31c1.14,0,2.14,0,3,0s1.64.08,2.31.16v-2.48c-.69.07-1.46.12-2.32.15s-1.86,0-3,0h-3.31V239a7.24,7.24,0,0,1,.13-1.49,1.49,1.49,0,0,1,.34-.79c.22-.15.32-.28.29-.38s-.15-.15-.39-.15c-.48,0-1,0-1.5,0a9,9,0,0,1-1.4-.18c0,.19.06.43.08.73s.05.7.07,1.19,0,1.1,0,1.82,0,1.58,0,2.58v12.13c-1.91,0-3.56,0-5-.08s-2.69-.09-3.84-.17v2.5c1.33-.08,2.88-.14,4.63-.18s3.88-.06,6.37-.06h3.43l2.88,0,2.46.08c.75,0,1.47.06,2.16.11v-2.5c-.67,0-1.38.08-2.12.11Z"/><path class="cls-1" d="M332.1,244.05q-.89-1.52-1.77-3c-.59-1-1.12-1.81-1.59-2.51l-2,.93q.41.57.93,1.44c.35.58.71,1.2,1.08,1.88s.74,1.38,1.12,2.11.75,1.43,1.09,2.13.66,1.34.95,1.95.53,1.14.72,1.57l2.38-1.23c-.3-.65-.71-1.44-1.23-2.38S332.68,245.06,332.1,244.05Z"/><path class="cls-1" d="M323.15,239.92a15.39,15.39,0,0,1-2.8-.9c0,.25-.08.5-.13.75a6,6,0,0,1-.25.87q-.18.48-.48,1.14c-.2.43-.46,1-.78,1.58a21.13,21.13,0,0,1-2.06,3.4,13.37,13.37,0,0,1-2.57,2.58,6.27,6.27,0,0,1,1.32.56,5.81,5.81,0,0,1,1.13.75,17.48,17.48,0,0,0,1.2-1.45c.42-.56.84-1.14,1.25-1.76s.79-1.25,1.15-1.9.68-1.29,1-1.91a17.14,17.14,0,0,1,1.2-2.32,2.3,2.3,0,0,1,.78-.83.68.68,0,0,0,.34-.3C323.46,240.06,323.37,240,323.15,239.92Z"/><path class="cls-1" d="M324.73,234.71c-2.4,0-4.47,0-6.19-.06s-3.23-.11-4.53-.19v2.45c1.28-.08,2.79-.14,4.52-.18s3.8-.06,6.2-.06,4.48,0,6.21.06,3.23.11,4.52.19v-2.45c-1.29.08-2.79.14-4.52.18S327.14,234.71,324.73,234.71Z"/><path class="cls-1" d="M323.27,231.27c.12.39.23.78.32,1.17a7.29,7.29,0,0,1,.19,1l2.68-.52c-.11-.3-.25-.65-.4-1s-.29-.78-.44-1.18l-.4-1.15c-.12-.37-.23-.69-.31-1l-2.48.6a6.12,6.12,0,0,1,.44.92C323,230.5,323.14,230.87,323.27,231.27Z"/><path class="cls-1" d="M357.68,222.68a1.17,1.17,0,0,1,.23-.37c.18-.16.26-.27.24-.32s-.14-.08-.34-.08c-.44,0-.83,0-1.18,0l-1.08-.12a9.61,9.61,0,0,1,.08,1c0,.45,0,1.19,0,2.21-1.1,0-2.07,0-2.89-.07s-1.56-.09-2.2-.16v2.1c.62-.06,1.39-.12,2.3-.16s1.84-.06,2.79-.06v3.13c-1.19,0-2.19,0-3-.06s-1.61-.1-2.34-.16v2.1l1.28-.1c.45,0,.94-.06,1.47-.07l1.74,0H359l1.73,0c.53,0,1,0,1.45.08l1.27.1v-2.11l-1.17.1-1.29.08-1.53,0c-.55,0-1.17,0-1.85,0v-3.13c1.14,0,2.14,0,3,.07s1.6.09,2.24.16v-2.11c-.64.07-1.39.12-2.26.17s-1.86.06-3,.06v-1.81A1.45,1.45,0,0,1,357.68,222.68Z"/><path class="cls-1" d="M362.51,234.14l-1,.06-1,0v-.9a1.49,1.49,0,0,1,.18-.93c.33-.31.25-.45-.25-.4a8.57,8.57,0,0,1-1,0,10,10,0,0,1-1-.13c0,.17.06.32.09.46s0,.3.06.48,0,.38,0,.6,0,.5,0,.82h-4c-.5,0-1,0-1.48,0l-1.34-.06-1.1-.09a6,6,0,0,1-.77-.13v2.13l.77-.07,1.1-.08,1.34,0,1.48,0h4v5.77a1.83,1.83,0,0,1-.1.62.64.64,0,0,1-.42.36,2.72,2.72,0,0,1-.92.12c-.41,0-.95,0-1.62-.1a4.27,4.27,0,0,1,.7,1.09,6.27,6.27,0,0,1,.33,1.29c.88-.15,1.58-.3,2.1-.44a3.78,3.78,0,0,0,1.18-.5,1.21,1.21,0,0,0,.51-.67,3.14,3.14,0,0,0,.12-.95v-6.56h1l1,0,.81,0c.23,0,.41,0,.55.05V234a4.35,4.35,0,0,1-.55.1Z"/><path class="cls-1" d="M357.32,239.36l-2.4-1.41c-.85-.48-1.64-.9-2.36-1.25l-1.28,1.48c.26.1.59.26,1,.47s.87.47,1.33.76.9.57,1.33.86a9.46,9.46,0,0,1,1,.82Z"/><path class="cls-1" d="M349.36,226.42c0-.43,0-.87,0-1.3s0-.82.07-1.15l-.52.07-.65.05c-.26,0-.58,0-1,0h-3c-.39,0-.72,0-1,0l-.66-.05a4.34,4.34,0,0,1-.52-.08,9.94,9.94,0,0,1,.06,1.16c0,.43,0,.87,0,1.3v13.41c0,.6,0,1.17,0,1.72s-.07,1.09-.14,1.66h2.08v-2.63h3.4v2.08h2c-.1-1.11-.15-2.24-.15-3.38Zm-1.89,12.46h-3.4v-5.62h3.41Zm0-7.32h-3.41v-5.79h3.41Z"/><path class="cls-1" d="M381.38,234.36v-3.11c1.47,0,2.74,0,3.79.08s2,.08,2.86.15v-2.23c-.86.06-1.81.11-2.86.15s-2.32,0-3.79.07v-3.36l2.23-.14c.78,0,1.63-.09,2.53-.16l.7.85c.23.29.47.59.7.91l1.81-1.68c-.32-.33-.64-.67-1-1s-.69-.69-1.09-1.07-.85-.79-1.35-1.24-1.08-1-1.73-1.51l-1.86,1.11c.44.33.85.67,1.25,1s.78.72,1.16,1.11l-5.2.2-4,.12c.7-.58,1.31-1.12,1.81-1.59s.93-.91,1.3-1.29a9.23,9.23,0,0,1,.88-.79,4,4,0,0,1,.62-.44c.39-.17.58-.3.57-.41s-.18-.19-.51-.24a8.37,8.37,0,0,1-1-.25,10.25,10.25,0,0,1-1.28-.48,14.27,14.27,0,0,1-1.81,2.66,27.25,27.25,0,0,1-2.9,2.88c-.35,0-.7,0-1.05,0h-1.06a6.24,6.24,0,0,1,.41,1.09,7.64,7.64,0,0,1,.2,1.09,4.13,4.13,0,0,1,.56-.11c.28,0,.69-.09,1.25-.14l2.21-.17,3.45-.23v3.24c-1.58,0-2.95,0-4.08-.05s-2.17-.1-3.08-.18v2.23q2.67-.22,7.17-.22v3.11c-2.17,0-4,0-5.6-.07s-3-.1-4.17-.19v2.43c1.28-.08,2.79-.15,4.52-.2s3.81-.07,6.25-.07h3.41c1,0,2,0,2.87.06l2.45.08,2.1.13v-2.43c-1.2.08-2.57.14-4.11.17S383.54,234.34,381.38,234.36Z"/><path class="cls-1" d="M385.64,217.18l-2.55,0h-3c-2.14,0-4,0-5.49-.07s-2.87-.1-4-.19v2.28c1.15-.08,2.49-.14,4-.18s3.36-.06,5.52-.06h3.05l2.55.05,2.13.08c.64,0,1.25.06,1.84.11V217c-.58,0-1.21.09-1.87.11Z"/><path class="cls-1" d="M417,224.35c-.08.75-.17,1.36-.26,1.84a4.68,4.68,0,0,1-.35,1.14,1.37,1.37,0,0,1-.53.6,2,2,0,0,1-.81.22,8.15,8.15,0,0,1-1.1.07,1.46,1.46,0,0,1-.69-.17.68.68,0,0,1-.35-.47,3.44,3.44,0,0,1-.09-.88c0-2.41.13-4.75.28-7s.35-4.43.6-6.45q-.53.08-1.32.15l-1.72.15-2,.15-2.1.14c0-.33,0-.66,0-1s0-.67,0-1c.05-1.69.21-2.63.48-2.83s.28-.26.26-.38-.16-.17-.39-.17c-.53,0-1.06,0-1.58,0s-1-.06-1.33-.11a5.75,5.75,0,0,1,.09.7c0,.27,0,.61,0,1s0,.94,0,1.58,0,1.42,0,2.35l-2,.1c-.66,0-1.27.06-1.83.07l-1.53,0c-.45,0-.8,0-1.06,0v2.45l1.11-.13,1.51-.18,1.81-.17,2-.17a29.08,29.08,0,0,1-.36,3.9,14,14,0,0,1-.8,3,13,13,0,0,1-1.1,2.08,9.19,9.19,0,0,1-1.41,1.64,13.55,13.55,0,0,1-1.8,1.38,25.77,25.77,0,0,1-2.28,1.29,5,5,0,0,1,1.25.77,5.43,5.43,0,0,1,1,1,30.66,30.66,0,0,0,2.56-2.1,17.74,17.74,0,0,0,2-2.13,12.28,12.28,0,0,0,1.42-2.25,13.36,13.36,0,0,0,.89-2.49,25.52,25.52,0,0,0,.49-2.66c.14-1.07.27-2.27.39-3.61l4.76-.25c-.09,1.37-.16,2.61-.22,3.71s-.11,2.11-.16,3-.1,1.76-.14,2.51-.07,1.46-.09,2.13a11.16,11.16,0,0,0,.06,1.93,1.74,1.74,0,0,0,.56,1.1,2.28,2.28,0,0,0,1.27.47,15.14,15.14,0,0,0,2.27,0,13.82,13.82,0,0,0,2-.24,2.39,2.39,0,0,0,1.25-.65,3.52,3.52,0,0,0,.81-1.4c.2-.61.43-1.43.69-2.47a4.56,4.56,0,0,1-1.18-.4A7.29,7.29,0,0,1,417,224.35Z"/><path class="cls-1" d="M440.56,218.94c-.75-.45-1.55-.92-2.41-1.4s-1.63-.91-2.35-1.26l-1.28,1.48q.38.15,1,.48t1.32.75c.46.28.91.57,1.33.87a8.63,8.63,0,0,1,1,.81Z"/><path class="cls-1" d="M436.27,211.07l1.74,0h4.2l1.72,0,1.46.08,1.26.1v-2.11l-1.16.1c-.39,0-.82.06-1.29.08l-1.53,0h-1.86v-3.14c1.13,0,2.13,0,3,.07s1.61.09,2.24.16v-2.1c-.63.06-1.38.12-2.25.16s-1.86.06-3,.06v-1.8a1.27,1.27,0,0,1,.1-.52,1,1,0,0,1,.22-.36q.28-.26.24-.33s-.14-.07-.34-.07c-.43,0-.82,0-1.17,0s-.71-.06-1.08-.11a9.7,9.7,0,0,1,.07,1c0,.45,0,1.19,0,2.21-1.11,0-2.07,0-2.9-.06s-1.56-.1-2.19-.17v2.11c.62-.07,1.38-.12,2.29-.16s1.84-.07,2.8-.07v3.14c-1.18,0-2.19,0-3-.07s-1.6-.09-2.34-.16v2.1l1.28-.1Z"/><path class="cls-1" d="M432.6,206c0-.44,0-.87,0-1.31s0-.82.06-1.15a4.46,4.46,0,0,1-.51.07l-.65,0c-.26,0-.59,0-1,0h-3q-.6,0-1,0c-.27,0-.49,0-.67,0l-.51-.07c0,.33.05.72.06,1.15s0,.87,0,1.3v13.41c0,.6,0,1.18,0,1.72s-.07,1.1-.14,1.67h2.08v-2.64h3.41v2.08h2q-.15-1.68-.15-3.39Zm-1.89,12.45H427.3v-5.61h3.41Zm0-7.32H427.3v-5.79h3.41Z"/><path class="cls-1" d="M446.6,213.63l-.85.09-1,.06c-.34,0-.66,0-1,0v-.9c0-.5.05-.81.17-.92.34-.32.25-.46-.25-.41a5.56,5.56,0,0,1-1,0,10.16,10.16,0,0,1-1-.13c0,.17.06.33.08.47s.05.3.07.47,0,.38,0,.61,0,.49,0,.81h-4c-.51,0-1,0-1.48,0s-.93,0-1.34-.06l-1.11-.09a4.5,4.5,0,0,1-.76-.13v2.14l.76-.08c.33,0,.7-.06,1.11-.07l1.34,0c.48,0,1,0,1.48,0h4v5.77a1.58,1.58,0,0,1-.1.62.64.64,0,0,1-.41.37,3.09,3.09,0,0,1-.93.11,16.08,16.08,0,0,1-1.62-.1,4.34,4.34,0,0,1,.71,1.09,6,6,0,0,1,.32,1.29,20.19,20.19,0,0,0,2.11-.44,3.89,3.89,0,0,0,1.18-.5,1.32,1.32,0,0,0,.51-.66,3.59,3.59,0,0,0,.11-.95v-6.57h1l1,0,.8.05.55.05v-2.08A4,4,0,0,1,446.6,213.63Z"/><path class="cls-1" d="M149.55,169.64A10.3,10.3,0,0,0,156.73,157a7.12,7.12,0,0,0-9-5.44,10.3,10.3,0,0,0-7.19,12.66A7.14,7.14,0,0,0,149.55,169.64ZM143.94,164c-1.14-4.6.39-10,4.12-11,2.58-.63,4.47.84,5.25,4,1.13,4.6-.43,10-4.15,11C146.6,168.69,144.72,167.22,143.94,164Z"/><path class="cls-1" d="M163.86,158.87l3.48-.85c4.24-1,7.51-4.09,6.51-8.16-.65-2.65-3.06-3.76-6.47-2.93l-6.62,1.63-.08,18.09,3.17-.78Zm0-9.32,2.56-.63c2.38-.59,3.71,0,4.14,1.74.76,3.09-.86,5-4.15,5.8l-2.58.63Z"/><polygon class="cls-1" points="189.76 157.65 180.5 159.92 180.52 153.36 186.99 151.77 187.01 149.93 180.53 151.52 180.56 145.53 189.42 143.35 189.43 141.51 177.4 144.47 177.33 162.56 189.77 159.5 189.76 157.65"/><polygon class="cls-1" points="195.74 143.37 206.7 155.39 207.89 155.1 207.98 136.96 205.98 137.45 205.92 149.91 196.78 139.71 193.78 140.45 193.71 158.53 195.71 158.04 195.74 143.37"/><polygon class="cls-1" points="216.18 134.94 213.01 135.72 212.94 153.81 216.11 153.03 216.18 134.94"/><polygon class="cls-1" points="223.17 136.63 234.13 148.65 235.32 148.36 235.41 130.22 233.41 130.71 233.35 143.17 224.21 132.97 221.22 133.71 221.14 151.79 223.14 151.3 223.17 136.63"/><path class="cls-1" d="M255.1,143.45l0-8.55-3.22.79v3.13a4.66,4.66,0,0,1-3.57,4.59c-2.58.64-4.75-.85-5.57-4.16-1.22-5,.82-9.39,4.62-10.32a4,4,0,0,1,4.89,2.8l1.65-1c-.94-2.69-3.68-4.37-7.45-3.44-5.31,1.31-8.56,7-7.14,12.75a7,7,0,0,0,8.77,5.44,6.81,6.81,0,0,0,4.65-3.88l1.13,2.2Z"/><path class="cls-1" d="M269.83,132l2.8-.68c2-.49,2.68,0,3.24,1.63l1,2.64a9.3,9.3,0,0,0,1.12,2.26l3.36-.83a6.93,6.93,0,0,1-1.49-2.47l-.88-2.34c-.64-1.86-1.74-2.54-3.88-2.25v-.05c2.61-.72,5.8-3.08,4.93-6.63-.63-2.54-3.19-3.22-6.29-2.46l-7,1.73-.08,18.09,3.17-.78Zm0-8.47,3-.74c2.14-.53,3.46-.1,3.84,1.46.68,2.75-1,4.55-3.87,5.26l-3,.74Z"/><polygon class="cls-1" points="288 126.95 294.48 125.36 294.49 123.52 288.02 125.11 288.04 119.12 296.9 116.94 296.92 115.11 284.89 118.06 284.82 136.15 297.26 133.09 297.24 131.24 287.99 133.51 288 126.95"/><path class="cls-1" d="M308.68,130.54a8.35,8.35,0,0,0,6.19-6l-1.57-.7c-.79,2.65-2.16,4.14-4.54,4.73s-4.62-.93-5.42-4.17c-1.22-5,.67-9.36,4.45-10.28a3.92,3.92,0,0,1,4.87,2.8l1.65-1c-.94-2.69-3.63-4.37-7.35-3.46-5.31,1.3-8.44,7.06-7,12.73A7,7,0,0,0,308.68,130.54Z"/><polygon class="cls-1" points="330.61 123.04 321.36 125.31 321.37 118.75 327.85 117.16 327.86 115.32 321.39 116.91 321.41 110.92 330.27 108.74 330.29 106.91 318.26 109.86 318.19 127.95 330.63 124.89 330.61 123.04"/><path class="cls-1" d="M337.74,116.15l3.48-.86c4.24-1,7.52-4.09,6.52-8.15-.65-2.66-3.07-3.77-6.48-2.93l-6.62,1.63-.07,18.09,3.16-.78Zm0-9.33,2.56-.63c2.39-.58,3.71,0,4.15,1.75.76,3.09-.87,5-4.16,5.79l-2.58.64Z"/><polygon class="cls-1" points="355.92 102.42 355.84 118.7 359.01 117.92 359.08 101.64 365.51 100.06 365.51 98.25 349.49 102.19 349.49 104 355.92 102.42"/><polygon class="cls-1" points="372.32 96.58 369.15 97.36 369.08 115.45 372.25 114.67 372.32 96.58"/><path class="cls-1" d="M385.3,111.72A10.32,10.32,0,0,0,392.49,99a7.14,7.14,0,0,0-9.06-5.44,10.31,10.31,0,0,0-7.19,12.66A7.16,7.16,0,0,0,385.3,111.72Zm-1.49-16.57c2.58-.64,4.47.84,5.25,4,1.13,4.6-.42,10-4.15,10.95-2.55.63-4.44-.84-5.22-4C378.56,101.5,380.09,96.06,383.81,95.15Z"/><polygon class="cls-1" points="398.47 93.56 409.43 105.58 410.62 105.29 410.7 87.15 408.71 87.64 408.65 100.1 399.5 89.9 396.51 90.64 396.44 108.72 398.43 108.23 398.47 93.56"/><path class="cls-1" d="M156.33,260.35l3.21-.79-7.47-16.34-1.32.33-7.52,20,2.22-.55,2-5.53,6.82-1.67Zm-8.18-4.7,2.72-7.43,2.73,6.09Z"/><path class="cls-1" d="M175.73,237.51l-2,.49,0,10.78c0,3.72-1.38,5.81-4.33,6.53-2.72.67-4.43-1-4.41-4.38l.07-10.79-3.17.78,0,10.83c0,4.73,3.32,6.7,7.46,5.68s6.41-4.08,6.42-8.88Z"/><path class="cls-1" d="M186.57,234.59c-5.31,1.3-8.56,7-7.14,12.75a7,7,0,0,0,8.77,5.44,6.81,6.81,0,0,0,4.65-3.88l1.13,2.2,1.22-.3,0-8.55L192,243v3.13a4.66,4.66,0,0,1-3.57,4.59c-2.58.63-4.76-.85-5.57-4.16-1.22-5,.82-9.39,4.62-10.32a4,4,0,0,1,4.89,2.8L194,238C193.08,235.34,190.34,233.66,186.57,234.59Z"/><path class="cls-1" d="M206.55,248.27c4.14-1,6.41-4.08,6.42-8.88l.05-11-2,.49,0,10.78c0,3.72-1.38,5.81-4.33,6.53-2.73.67-4.43-1-4.41-4.39L202.3,231l-3.16.78,0,10.83C199.06,247.32,202.41,249.29,206.55,248.27Z"/><path class="cls-1" d="M225,233.31l-2.36-.27c-1.76-.22-2.75-.57-3.07-1.91-.42-1.7.87-3.08,2.86-3.57a4.58,4.58,0,0,1,5.34,2.18l1.29-1.48c-1.22-2-4-3.14-7-2.38-3.63.89-6,3.65-5.16,7.05.53,2.15,2.32,2.94,4.45,3.2l2.41.25c1.68.21,2.62.68,2.92,1.92.49,2-1.16,3.44-3.23,3.95a5.89,5.89,0,0,1-6.31-2.33l-1.25,1.6c1.61,2.26,4.85,3.27,8,2.51,3.8-.93,6.49-3.95,5.62-7.5C228.91,234.41,227.23,233.58,225,233.31Z"/><polygon class="cls-1" points="237.21 240.48 240.37 239.7 240.45 223.42 246.88 221.84 246.87 220.03 230.85 223.97 230.86 225.77 237.29 224.19 237.21 240.48"/><path class="cls-1" d="M260,234.87l3.07-.76.07-18.29-1.83.45a26.45,26.45,0,0,1-5.66,7.3l.64,1.37a13.89,13.89,0,0,0,3.76-4.15Z"/><path class="cls-1" d="M274.26,219.94a5.7,5.7,0,0,0-4,3.83c-.25-4.66,1.57-8.41,4.81-9.21,1.65-.41,2.59.27,2.82,1.19a2.31,2.31,0,0,1-.7,2.19l1.22.76a3.4,3.4,0,0,0,1.42-3.56c-.4-1.63-2.14-2.93-5-2.22-5.81,1.43-8.71,7.93-7.27,13.79.88,3.58,3.6,5.7,7.17,4.83a6.9,6.9,0,0,0,5.38-8.17A4.51,4.51,0,0,0,274.26,219.94Zm0,10.2a2.63,2.63,0,0,1-3.16-2.22c-.58-2.38.22-5.63,2.61-6.21a2.4,2.4,0,0,1,3.08,2C277.4,226.32,276.74,229.52,274.24,230.14Z"/><polygon class="cls-1" points="288.86 227.79 292.02 227.01 292.1 210.73 298.53 209.15 298.52 207.34 282.5 211.28 282.51 213.08 288.94 211.5 288.86 227.79"/><polygon class="cls-1" points="317.34 220.79 317.39 202.71 314.22 203.48 314.19 211.34 305.3 213.52 305.34 205.67 302.17 206.44 302.1 224.53 305.26 223.76 305.31 215.33 314.19 213.15 314.17 221.57 317.34 220.79"/><path class="cls-1" d="M335.4,204.92a5.7,5.7,0,0,0-4,3.83c-.24-4.67,1.57-8.42,4.81-9.21,1.65-.41,2.59.26,2.82,1.19a2.3,2.3,0,0,1-.7,2.18l1.22.76a3.36,3.36,0,0,0,1.42-3.55c-.4-1.63-2.14-2.93-5-2.22-5.82,1.43-8.72,7.92-7.28,13.79.88,3.58,3.6,5.7,7.18,4.82a6.89,6.89,0,0,0,5.37-8.16A4.51,4.51,0,0,0,335.4,204.92Zm0,10.2a2.63,2.63,0,0,1-3.16-2.22c-.58-2.39.22-5.63,2.61-6.22a2.4,2.4,0,0,1,3.08,2.06C338.54,211.29,337.88,214.5,335.38,215.12Z"/><polygon class="cls-1" points="353.95 203.2 344.23 205.58 344.22 207.63 353.93 205.24 353.95 203.2"/><path class="cls-1" d="M369.64,196.17c-.88-3.61-3.56-5.69-7.14-4.81a6.87,6.87,0,0,0-5.38,8.14,4.51,4.51,0,0,0,5.77,3.44,5.73,5.73,0,0,0,4-3.84c.2,4.6-1.38,8.37-4.61,9.17-1.61.39-2.62-.26-2.85-1.19a2.3,2.3,0,0,1,.7-2.18l-1.22-.76a3.36,3.36,0,0,0-1.42,3.55c.4,1.63,2.22,2.94,5.06,2.24C368.46,208.49,371.06,201.94,369.64,196.17Zm-6.2,5a2.43,2.43,0,0,1-3.09-2.06c-.63-2.56.06-5.77,2.54-6.38A2.62,2.62,0,0,1,366,195C366.63,197.35,365.85,200.58,363.44,201.18Z"/><path class="cls-1" d="M376.93,199.15l3.48-.85c4.24-1,7.51-4.1,6.51-8.16-.65-2.66-3.06-3.77-6.47-2.93l-6.62,1.63-.08,18.09,3.17-.78Zm0-9.33,2.56-.62c2.38-.59,3.71,0,4.14,1.74.76,3.09-.86,5-4.15,5.8l-2.58.63Z"/><polygon class="cls-1" points="399.19 200.76 404.94 184.16 404.89 199.28 408 198.51 408.05 180.43 404.11 181.4 399.27 195.73 394.35 183.8 390.45 184.75 390.4 202.84 392.4 202.35 392.45 187.23 398.06 201.03 399.19 200.76"/><path class="cls-1" d="M231.37,160.16l-1.18,0c-.4,0-.79,0-1.18-.08,0,.39,0,.82,0,1.31s0,1,0,1.52v13.87c0,.45,0,.86,0,1.25s0,.76,0,1.13,0,.74-.06,1.11-.05.78-.09,1.22h2.26c-.08-.84-.14-1.61-.16-2.32s0-1.51,0-2.4v-8.84h4.21q.59,0,1.17,0l1.16.07c0-.36-.06-.74-.07-1.12s0-.86,0-1.41v-2.58c0-.55,0-1.06,0-1.54s.05-.91.08-1.29l-1.17.08-1.16,0Zm4.31,6.27h-4.76v-1.56h4.76Zm0-3.11h-4.76v-1.6h4.76Z"/><path class="cls-1" d="M236.4,169.35l-1.59,0c-.44,0-.8,0-1.08-.08l-.8-.1v1.93c.85-.11,1.73-.19,2.63-.22v2.8c-.62,0-1.24,0-1.85,0s-1.2-.09-1.73-.15v1.93a16.73,16.73,0,0,1,1.69-.14l1.79-.07a6.08,6.08,0,0,1-1,2.5,4.94,4.94,0,0,1-2.06,1.69,4.5,4.5,0,0,1,1.06.63,3.49,3.49,0,0,1,.69.7,8.21,8.21,0,0,0,2.08-2.52,10,10,0,0,0,1.05-3h2.91v2.26a26.37,26.37,0,0,1-.15,3.25h2.08c-.05-.38-.09-.85-.12-1.4s-.06-1.17-.06-1.85v-2.26c.62,0,1.25,0,1.88.05s1.22.08,1.76.15v-1.93c-.54.07-1.12.12-1.76.15s-1.26,0-1.88,0v-2.81a26.13,26.13,0,0,1,2.66.23v-1.93a7.4,7.4,0,0,1-.84.11c-.3,0-.66,0-1.09.06l-1.58,0-2.31,0Zm3.75,4.29h-2.81v-2.8h2.81Z"/><path class="cls-1" d="M248.39,160.15c-.39,0-.78.06-1.17.08l-1.16,0H242l-1.16,0c-.4,0-.79,0-1.17-.07,0,.38.06.81.08,1.29s0,1,0,1.54v2.56c0,.55,0,1,0,1.33s0,.69-.08,1.07c.39,0,.78-.06,1.17-.07l1.16,0h4.49v10.53a4,4,0,0,1-.05.68.62.62,0,0,1-.27.41,1.35,1.35,0,0,1-.62.17,8.24,8.24,0,0,1-1.14,0,2.9,2.9,0,0,1,.54,1,3.81,3.81,0,0,1,.11,1.16c.68-.09,1.24-.19,1.67-.29a2.58,2.58,0,0,0,1-.46,1.45,1.45,0,0,0,.5-.78,5.18,5.18,0,0,0,.14-1.31V163c0-.54,0-1.05,0-1.53S248.37,160.54,248.39,160.15Zm-6.89,1.61h5v1.58h-5Zm0,4.56v-1.58h5v1.58Z"/><path class="cls-1" d="M258,172.38c0,.23,0,.5,0,.8s-.05.68-.1,1.13h2v-4h3.73c0,.38,0,.8,0,1.25s0,.9,0,1.35,0,.89-.05,1.31,0,.78-.06,1.1h2.13c0-.32-.06-.69-.08-1.1s0-.86-.05-1.31,0-.9,0-1.35,0-.87,0-1.25h3.86V172a.94.94,0,0,1-.07.39.51.51,0,0,1-.31.25,2.2,2.2,0,0,1-.73.09c-.33,0-.76,0-1.32-.1a3.37,3.37,0,0,1,.63.9,4.13,4.13,0,0,1,.3,1.05c2.24-.2,3.36-.78,3.36-1.73v-3.13c.47.31,1,.62,1.51.91s1.15.59,1.82.89a3.73,3.73,0,0,1,.49-1.14,5.91,5.91,0,0,1,.89-1,15.46,15.46,0,0,1-1.92-.39,11.4,11.4,0,0,1-1.59-.57,8.53,8.53,0,0,1-1.35-.79,14.17,14.17,0,0,1-1.23-1c1.15,0,2.16,0,3,.08s1.7.1,2.52.19v-2c-1,.08-2,.14-3.24.16s-2.5,0-3.91,0H263c.16-.21.31-.43.45-.65l.4-.67h5l.82,0,.94,0,1.24,0c0-1.22-.08-2.37-.08-3.46,0-.6,0-1.16,0-1.68s0-1,.06-1.53l-1.71.09c-.56,0-1.23,0-2,0v-1.43c1.39,0,2.66,0,3.81.05s2.14.09,3,.18v-2c-.82.08-1.8.14-3,.16s-2.42,0-3.81,0v-.82a.87.87,0,0,1,.05-.33.59.59,0,0,1,.23-.2c.13-.08.19-.16.16-.24s-.11-.11-.26-.11a11,11,0,0,1-1.14,0l-1.14-.09c0,.23.06.51.09.81s0,.64,0,1H262v-.65a.71.71,0,0,1,.05-.33.55.55,0,0,1,.22-.2c.14-.08.19-.16.17-.24s-.12-.11-.27-.11c-.32,0-.67,0-1.08-.05l-1.1-.1c0,.23.06.49.09.76s0,.58,0,.92c-1.29,0-2.47,0-3.54,0s-2-.08-2.8-.16v2c.77-.09,1.7-.15,2.79-.19s2.29-.08,3.57-.09v1.43l-1.88,0c-.55,0-1.09,0-1.62-.08,0,.55.06,1.08.08,1.59s0,1.05,0,1.62,0,1.13,0,1.68-.06,1.14-.09,1.75c.7,0,1.46-.05,2.27-.06h2.87a6.76,6.76,0,0,1-.83,1.33c-1.09,0-2,0-2.74,0l-1.92,0c-.54,0-1,0-1.41-.05l-1.15-.08v2l1.23-.13,1.28-.09,1.47,0h1.76a15.73,15.73,0,0,1-2.88,2,18,18,0,0,1-3.48,1.5,4.87,4.87,0,0,1,.86.75,7.8,7.8,0,0,1,.74,1,36.37,36.37,0,0,0,3.29-2Zm10.14-5.74a8.2,8.2,0,0,0,1.81,2.22h-4.64v-2.23Zm-2-10.76v1.43H262v-1.42Zm-7.62,2.92h11.38v1.13H258.55Zm0,3.5v-1.07h11.38v1.08Zm3.16,4.34h1.86v2.23h-4.24A25.27,25.27,0,0,0,261.71,166.64Z"/><path class="cls-1" d="M283.46,148.19c-.54-.34-1.11-.66-1.69-1l-1.3,1.6a20,20,0,0,1,1.8,1.09,12.92,12.92,0,0,1,1.51,1.22l1.3-1.86C284.54,148.88,284,148.52,283.46,148.19Z"/><path class="cls-1" d="M293.37,147.91c-2,0-3.67,0-4.9,0s-2.22-.06-3-.11v2.1c.57,0,1.28-.06,2.13-.08l2.61-.07v2.83h-2.36c-.75,0-1.34,0-1.78-.06.05.65.08,1.41.08,2.28v10.6c0,.34,0,.68,0,1s0,.7,0,1.09,0,.82,0,1.3h2V167h9.82v1.4H300c0-.53-.05-1-.06-1.4s0-.78,0-1.12,0-.67,0-1V154.75c0-.87,0-1.63.07-2.29-.43,0-1,.06-1.74.07h-2.67v-2.86c1.1,0,2.1,0,3,.08s1.7.06,2.42.1v-2.11c-.38,0-.8.06-1.26.08l-1.58,0-2.06,0Zm.38,1.78v2.85h-1.63v-2.85Zm4.17,15.63h-9.83v-2.21h9.83Zm0-11.18v3.39c-.57,0-1,0-1.33,0a3.75,3.75,0,0,1-.72-.07.41.41,0,0,1-.29-.19,1,1,0,0,1-.05-.33v-2.8Zm-2.25,5.13c.55,0,1.3,0,2.26,0v2.2h-9.83v-7.32h2.13c0,.68-.06,1.28-.12,1.79a8.32,8.32,0,0,1-.3,1.38,5.92,5.92,0,0,1-.52,1.14,9.36,9.36,0,0,1-.76,1.08,5,5,0,0,1,1.85,1,8,8,0,0,0,1.27-2.7,17.09,17.09,0,0,0,.46-3.67h1.65V158a1.66,1.66,0,0,0,.11.69.8.8,0,0,0,.54.41A4.37,4.37,0,0,0,295.66,159.27Z"/><path class="cls-1" d="M280.54,153.08l-1.05,1.85c.65.29,1.31.62,2,1a13.64,13.64,0,0,1,1.73,1.16l1.16-1.84c-.56-.38-1.18-.77-1.87-1.16S281.15,153.36,280.54,153.08Z"/><path class="cls-1" d="M283.41,164.25c.15-.52.27-1,.37-1.33s.19-.69.28-1,.16-.54.25-.78.17-.5.27-.76a6.47,6.47,0,0,1-1.1-.44,5,5,0,0,1-1-.69,40.35,40.35,0,0,1-1.05,4.14c-.22.63-.46,1.28-.73,1.95a15.59,15.59,0,0,1-.9,1.88A8.57,8.57,0,0,1,281,168c.4.27.82.58,1.25.91.15-.74.31-1.46.49-2.18S283.16,165.17,283.41,164.25Z"/><path class="cls-1" d="M312.69,149l-1.76.78a9.14,9.14,0,0,1,1,2.08l1.9-.8a8.47,8.47,0,0,0-.5-1C313.14,149.73,312.92,149.38,312.69,149Z"/><path class="cls-1" d="M321.72,162.51h2.1a8.8,8.8,0,0,1-.14-1q0-.57,0-1v-4a5.87,5.87,0,0,1,.18-1.88c-.17,0-.51,0-1,0l-1.85,0-2.35,0h-4.9l-2.34,0-1.88,0-1,0a6.63,6.63,0,0,1,.15,1.88v4.06a10.51,10.51,0,0,1-.17,2h2v-1.26h11.31Zm-11.31-6.39h11.3v1.21h-11.3Zm0,3.73v-1.22h11.31v1.23Z"/><path class="cls-1" d="M314,141c-.28.3-.62.62-1,1s-.84.72-1.35,1.12a14.63,14.63,0,0,1-1.43,1c-.55.33-1.14.66-1.76,1s-1.26.61-1.92.88-1.32.5-2,.7a8.12,8.12,0,0,1,.68.81,6.11,6.11,0,0,1,.5,1c.28-.14.56-.26.83-.38s.53-.24.8-.38v2.76c0,.49,0,1,0,1.57s-.05,1.06-.08,1.51l4-.09,4.9,0H321l2,0,1.87,0c0-.53-.06-1-.08-1.53s0-1,0-1.58,0-1,0-1.51,0-1,.07-1.47l.59.25.67.25a6.83,6.83,0,0,1,.56-1.4,4.65,4.65,0,0,1,.79-1,16.64,16.64,0,0,1-3.2-.63,19.42,19.42,0,0,1-3.07-1.27,18.71,18.71,0,0,1-2.32-1.38,9,9,0,0,1-1.54-1.32l.25-.08c.27-.07.39-.17.36-.32s-.15-.26-.38-.3L317,140c-.22-.06-.44-.14-.65-.22l-.63-.25-.53-.23a6.14,6.14,0,0,1-.52.84A7.66,7.66,0,0,1,314,141Zm-4.81,11v-3.13H315V152Zm10.43,0a12.45,12.45,0,0,1,.95-1.3,2.93,2.93,0,0,1,.55-.48c.36-.15.36-.28,0-.4a8.32,8.32,0,0,1-.88-.3,8.11,8.11,0,0,1-1-.45,14.28,14.28,0,0,1-.56,1.52A12.57,12.57,0,0,1,318,152h-1.2v-3.14H323V152Zm1.65-5.61v-.75c.57.3,1.12.58,1.66.84l1.8.83c-1.2,0-2.52.07-4,.08s-3,0-4.61,0l-4.32,0c-1.35,0-2.6,0-3.75-.08l1.54-.83c.49-.26,1-.54,1.42-.82v.72l1-.07,1.1,0q.6,0,1.32,0h3.29l1.35,0,1.12.05ZM316,141.65a17.91,17.91,0,0,0,1.79,1.8,14.71,14.71,0,0,0,1.89,1.34h-7.37a21.42,21.42,0,0,0,2.05-1.53A20.63,20.63,0,0,0,316,141.65Z"/><polygon class="cls-1" points="286.87 62.73 297.06 62.7 297.1 60.11 286.91 60.07 286.87 62.73"/><polygon class="cls-1" points="292.12 75.13 284.97 67.94 283.11 69.84 290.25 77.03 292.12 75.13"/><polygon class="cls-1" points="277.21 72.24 274.66 72.24 274.63 82.32 277.21 82.39 277.21 72.24"/><polygon class="cls-1" points="266.68 68.51 259.57 75.62 261.28 77.37 268.43 70.3 266.68 68.51"/><polygon class="cls-1" points="292.08 46.65 290.33 44.9 283.26 52.01 284.97 53.76 292.08 46.65"/><polygon class="cls-1" points="264.59 59.99 254.51 60.03 254.51 62.66 264.55 62.7 264.59 59.99"/><polygon class="cls-1" points="277.25 40.79 274.7 40.83 274.66 50.98 277.29 50.95 277.25 40.79"/><polygon class="cls-1" points="269.49 52.35 262.34 45.2 260.37 47.03 267.67 54.25 269.49 52.35"/><path class="cls-1" d="M269.49,67.81a8.44,8.44,0,0,0,6.24,2.64,9.08,9.08,0,0,0,6.43-2.58,8.09,8.09,0,0,0,2.73-6.05,9.3,9.3,0,0,0-2.54-6.69A8.46,8.46,0,0,0,276,52.47a8.81,8.81,0,0,0-6.45,2.58,8.63,8.63,0,0,0-2.6,6.35A8.84,8.84,0,0,0,269.49,67.81Z"/><rect class="cls-2" width="554.67" height="349.31"/></g></g></svg>