<svg xmlns="http://www.w3.org/2000/svg" viewBox="0 0 42.59 58.16"><defs><style>.cls-1{fill:#fff;}</style></defs><title>sunrise</title><g id="Layer_2" data-name="Layer 2"><g id="Layer_1-2" data-name="Layer 1"><polygon class="cls-1" points="14.98 47.82 7.83 40.67 5.86 42.49 13.16 49.72 14.98 47.82"/><polygon class="cls-1" points="20.15 46.45 22.78 46.41 22.74 36.26 20.19 36.3 20.15 46.45"/><polygon class="cls-1" points="30.46 49.23 37.57 42.11 35.82 40.37 28.75 47.48 30.46 49.23"/><path class="cls-1" d="M42.55,55.58V55.5H30.24a9,9,0,0,0-2.41-4.91,8.46,8.46,0,0,0-6.38-2.66A8.78,8.78,0,0,0,15,50.52a8.44,8.44,0,0,0-2.5,5H10.08v0l-10,0H0v2.66H42.55l0-2.58Z"/><polygon class="cls-1" points="19.97 5.21 19.97 28.41 22.66 28.41 22.66 5.26 28.02 10.5 29.97 8.57 21.32 0 12 8.69 13.95 10.62 19.97 5.21"/></g></g></svg>