<svg xmlns="http://www.w3.org/2000/svg" viewBox="0 0 42.59 55.04"><defs><style>.cls-1{fill:#fff;}</style></defs><title>sunset_1</title><g id="Layer_2" data-name="Layer 2"><g id="Layer_1-2" data-name="Layer 1"><path class="cls-1" d="M42.59,19.32h0v-.08H30.24a8.9,8.9,0,0,0-2.41-4.9,8.43,8.43,0,0,0-6.38-2.67A8.82,8.82,0,0,0,15,14.26a8.44,8.44,0,0,0-2.5,5H10.08v0L0,19.24H0V21.9H42.55Z"/><polygon class="cls-1" points="37.57 5.86 35.82 4.11 28.75 11.22 30.46 12.97 37.57 5.86"/><polygon class="cls-1" points="22.74 0 20.19 0.04 20.15 10.19 22.78 10.15 22.74 0"/><polygon class="cls-1" points="14.98 11.56 7.83 4.41 5.86 6.24 13.16 13.46 14.98 11.56"/><path class="cls-1" d="M21.31,55l-8.65-8.57,1.95-1.93L20,49.78V26.64h2.69v23.2l6-5.42,1.95,1.93Z"/></g></g></svg>