<svg xmlns="http://www.w3.org/2000/svg" viewBox="0 0 554.67 130.84"><defs><style>.cls-1,.cls-2{fill:#fff;}.cls-1{fill-rule:evenodd;}.cls-3{fill:none;}</style></defs><title>support</title><g id="Layer_2" data-name="Layer 2"><g id="Layer_1-2" data-name="Layer 1"><path class="cls-1" d="M282.42,56.22s6.44-4.69,6.38-10.4-6.59-10.25-6.59-10.25-6.44,4.69-6.38,10.39S282.42,56.22,282.42,56.22Z"/><path class="cls-1" d="M270.51,63.38c-8-2.56-14.85-3.52-15.29-2.16s5.7,4.55,13.71,7.11,14.85,3.53,15.29,2.16S278.52,65.94,270.51,63.38Z"/><path class="cls-1" d="M265.32,59.8c-2.63-2.1-4.09-3.79-3.69-4.48.73-1.23,7.19,1.21,14.44,5.47a63.2,63.2,0,0,1,9.65,6.76l0,.07c-.26-2-5.9-6.69-13.45-11.12-8.28-4.87-15.74-7.56-16.65-6-.76,1.3,3.37,5.21,9.66,9.32Z"/><path class="cls-1" d="M286.48,71c.74.1,1.23,0,1.4-.28s-.22-1.25-1.25-2.31a76.57,76.57,0,0,1,4.86-16.11c4.19-10.39,9-18.24,10.8-17.52s-.18,9.72-4.37,20.12-9,18.24-10.8,17.52c-.37-.14-.58-.65-.64-1.45Z"/><path class="cls-1" d="M303,48.59c3.15-3.44,5.64-5.32,6.53-4.7,1.58,1.09-2.31,9.45-8.68,18.67a78,78,0,0,1-10,12.21h-.05c2.6,0,9.47-7.11,16.15-16.79,7.29-10.54,11.6-20.19,9.63-21.55-1.68-1.15-7.36,4.07-13.51,12.15Z"/><path class="cls-1" d="M302.27,66.57c7.87,1,12.91,2.63,12.93,4.5,0,3.31-15.64,6.15-35,6.35-11,.12-20.76-.64-27.21-1.92h0c3,3.56,19.64,6.13,39.69,5.93,22.14-.23,40.05-3.77,40-7.9,0-3.51-13-6.32-30.46-7Z"/><path class="cls-1" d="M352.84,65.71a6.09,6.09,0,0,0-1,.15c-.82.15-1.72.28-2.7.38l0,1.41,6.61-.07v1.26l-5.4,0a15.59,15.59,0,0,0,2.67,1.84,13.89,13.89,0,0,0,3.23,1.1l-1.11,1.32c-.59-.23-1.16-.47-1.7-.73l.07,6.92-1.44,0v-.61l-6.95.07v.61h-1.44l-.08-6.94a15.4,15.4,0,0,1-1.7.79l-1.12-1.43a13,13,0,0,0,5.89-2.93l-5.79.06V67.73l6.75-.07,0-1.29c-1.32.09-2.77.15-4.34.16l-.86-1.3,1.92,0a35.64,35.64,0,0,0,8-.93l1.16,1.14a.34.34,0,0,1,.1.29c0,.08,0,.13-.07.13a.85.85,0,0,1-.35-.08Zm-7.68,11.87,6.95-.07,0-1.44-6.95.07Zm0-2.61,6.95-.08V73.52l-6.95.07Zm-1.32-2.54,9.49-.1a16.31,16.31,0,0,1-1.44-.79,19.06,19.06,0,0,1-2.66-2.08l0,2.31-1.51,0,0-2.28A16.81,16.81,0,0,1,343.81,72.43Z"/><path class="cls-1" d="M364.85,64.35a12.86,12.86,0,0,1,2.37,1.6l-.91,1a16.67,16.67,0,0,0-2.44-1.62ZM364,68.8a14.75,14.75,0,0,1,2.56,1.69l-1,1.06a18.09,18.09,0,0,0-2.65-1.68Zm2.59,4.44.87,1a41.8,41.8,0,0,1-2.64,4.41c0,.35-.08.53-.26.54l-1.26-1A28.36,28.36,0,0,0,366.57,73.24Zm1.17-7.16,2.5,0,0-2,1.28.09c.24,0,.37.07.37.17s-.09.21-.27.38l0,1.38,2,0,0-2,1.32.1c.26,0,.39.09.39.22s-.09.17-.26.32V66l2.69,0v1.25l-2.69,0,0,1.63,3.09,0v1.31l-2.57,0a8,8,0,0,0,1.24,1.18,6.48,6.48,0,0,0,1.87.95l-1.17,1.39a11.67,11.67,0,0,1-1.78-1.31l0,3.49-4.92,0v1.12c0,.44.18.66.53.65l4,0a.78.78,0,0,0,.65-.27,3.75,3.75,0,0,0,.37-1.52l1.45.39a3.83,3.83,0,0,1-.72,2.1,1.85,1.85,0,0,1-1.35.54l-4.72,0c-1.09,0-1.65-.38-1.65-1.16l-.06-5a12.66,12.66,0,0,1-1.36,1l-1.32-1.16a13.16,13.16,0,0,0,2.38-1.47,8.1,8.1,0,0,0,.93-.93l-2.48,0V69l2.68,0,0-1.63-2.5,0Zm3.16,7.11,0,1.51,3.47,0V73.15ZM370.35,72l5,0A13.45,13.45,0,0,1,374,70.21l-2.41,0A10.76,10.76,0,0,1,370.35,72Zm1.3-3,2,0,0-1.62-2,0Z"/><path class="cls-1" d="M385.79,64.85l5,0V64L392,64c.22,0,.33.07.33.17s-.08.17-.25.32v.27l3.14,0V63.9l1.24.09c.22,0,.34.06.34.16s-.09.18-.27.32v.27l4.33,0,0,1.17-4.33,0v.65h-1.31v-.65l-3.14,0v.86H390.8V66l-5,.06Zm.89,2.61,2.55,0v-.72l1.18.09c.22,0,.33.06.33.16s-.08.18-.26.33v.13l2.23,0v.92l-2.23,0v.59l3.15,0v.92h-1.44a8.19,8.19,0,0,0,1.71,1.36l-1,.6A10.85,10.85,0,0,1,391,69.85l-1.95,0a5,5,0,0,1-.88,1.11h1.16v-.72l1,.06c.19,0,.29,0,.29.13a.71.71,0,0,1-.2.32V71h1.24v.85h-1.24v.62l2.23-.25V73c-1.19.16-3.09.37-5.7.65-.08.13-.17.2-.25.2s-.1,0-.12-.15l-.22-1c1-.05,2-.13,3-.21v-.72H388v-.7a9.29,9.29,0,0,1-1.3.9l-1.06-.65a6.89,6.89,0,0,0,1.48-1,4.66,4.66,0,0,0,.55-.54l-1.78,0V69l3.34,0v-.58l-2.55,0Zm7.93.7H396V67.7a6.09,6.09,0,0,0-.08-.86l1.16.09c.19,0,.29.06.29.15a.42.42,0,0,1-.25.34v.72l2.68,0-.55,3.8c0,.13.09.2.26.2h.2a.42.42,0,0,0,.32-.23,6.94,6.94,0,0,0,.25-1.4l1.06.51a4.09,4.09,0,0,1-.45,1.66,1,1,0,0,1-.83.52h-1.2a.76.76,0,0,1-.86-.85l.47-3.16-1.34,0v.13a4.85,4.85,0,0,1-.3,1.88q.54.42,1.05.87L397,73a10.59,10.59,0,0,0-.79-.85l-.44.41a6,6,0,0,1-1.26.85l-1-.83a8.82,8.82,0,0,0,1.16-.63,3.68,3.68,0,0,0,.65-.55,13.39,13.39,0,0,0-1.31-.85l.65-.73c.39.22.78.45,1.15.69a3.61,3.61,0,0,0,.15-1.17v-.14h-1.37Zm-5.84,5.63,9.9-.1v.92l-9.9.11Zm-2.87,1.68L401,75.31l0,1-2.89,0a22.39,22.39,0,0,1,2.25,2.07l-1.16.8c-.31-.37-.63-.73-.95-1.06-2.35.23-5.91.53-10.67.92-.08.17-.16.26-.25.27s-.14-.07-.15-.2l-.33-1.24,3-.17a7.35,7.35,0,0,0,1.3-1.32l-5.18.06Zm11.33,1.76-1-.83-3.32,0a8.29,8.29,0,0,1-1.16,1.22C393.58,77.53,395.42,77.39,397.23,77.23Z"/><path class="cls-1" d="M411.3,63.93l1.33.44c.17,0,.26.11.26.2s-.05.11-.13.2-.4.33-.78.88a14.35,14.35,0,0,1-2.33,2.43l-1.45-.78A11.28,11.28,0,0,0,411.3,63.93Zm0,3.54,1.31.44c.17,0,.26.11.26.2s0,.11-.12.19-.44.4-.84,1.06l-.33.47.09,9.16h-1.38l-.07-7.51q-.37.39-.78.78L408,71.5A13.35,13.35,0,0,0,411.29,67.47Zm1.43-.93,2.1,0,0-2.88,1.33.1c.25,0,.37.08.37.22s-.09.17-.27.32l0,2.23,2,0v1.24l-2,0,.11,10.81-1.42,0-.12-10.81-2.09,0Zm.22,2.88,1.26.07c.17,0,.25.07.25.16s-.06.18-.2.27q-.06,2.94-.24,4.35a17.76,17.76,0,0,1-.41,2.08l-1.38-.25a15.35,15.35,0,0,0,.45-2A35,35,0,0,0,412.94,69.42Zm4.06,0,1.16.1c.19,0,.28,0,.29.13a.56.56,0,0,1-.19.34l.05,4.39a.4.4,0,0,0,.46.45.34.34,0,0,0,.28-.12,5.16,5.16,0,0,0,.22-1.39l1.2.45c-.11,1.09-.3,1.73-.55,1.92a1.65,1.65,0,0,1-1.14.31,2.17,2.17,0,0,1-1.4-.28,1.25,1.25,0,0,1-.33-.94Zm2.25-4.74,3.81,0v1.31l-3.81,0Zm-.56,3.14,4.92,0,0,1.31h-1.18l.08,7.93a1.56,1.56,0,0,1-.59,1.38,4.34,4.34,0,0,1-2.54.48l-.54-1.37h1.48a.73.73,0,0,0,.81-.73l-.08-7.66-2.36,0Zm-1.28-3.72a9.18,9.18,0,0,1,1.46,1.36l-.91.79a9.23,9.23,0,0,0-1.39-1.36Z"/><path class="cls-1" d="M432,64.17l5.32,0,.25-.36a.31.31,0,0,1,.2-.1c.11,0,.21.08.3.23l.6.7a.4.4,0,0,1,.09.23c0,.12-.15.23-.45.34A10.74,10.74,0,0,1,435,68.08l-.1,0,2.37,0,0,4-3.54,0c-.1.46-.2.92-.31,1.38l3.86,0a10.09,10.09,0,0,1-.36,3.68,1.62,1.62,0,0,1-1.08,1,10.66,10.66,0,0,1-3,.33l-.6-1.32a15.56,15.56,0,0,0,2.75-.16,1.11,1.11,0,0,0,.65-.56,3.52,3.52,0,0,0,.33-1.73l-2.92,0-.18.59-1.44-.44a22.39,22.39,0,0,0,1.13-4.07l3.34,0,0-1.39-2.87,0V69a17.32,17.32,0,0,1-1.71.6l-.93-1.1a17.42,17.42,0,0,0,2.81-1,13.16,13.16,0,0,0-1.32-.88l1-.93a10.42,10.42,0,0,1,1.62,1.11l.37-.23a7.62,7.62,0,0,0,1.43-1.32l-4.35,0Zm10.69-.63,1,.95a.37.37,0,0,1,.09.22c0,.08-.13.13-.39.13-.5.4-1,.79-1.56,1.16l.27.23a6.79,6.79,0,0,0,.56.4,15.39,15.39,0,0,0,2.05-1.53l1,.94a.36.36,0,0,1,.11.22c0,.09-.14.14-.41.14-.48.29-1,.59-1.53.89a17.11,17.11,0,0,0,2.54.93l-1,1.31A18.46,18.46,0,0,1,443,68.45l0,2c0,.39.16.59.48.58h.38a.32.32,0,0,0,.3-.19,3.92,3.92,0,0,0,.16-1.06l1.38.38a3.34,3.34,0,0,1-.5,1.68,1.19,1.19,0,0,1-.92.43h-1.13c-1,0-1.51-.36-1.52-1.09l0-1.78h-1.29a5,5,0,0,1-.38,1.68,3.64,3.64,0,0,1-1.7,1.56l-.92-1a2.72,2.72,0,0,0,1.28-1.06,2.42,2.42,0,0,0,.33-1.14l0-1.22,3.61,0a12.91,12.91,0,0,1-1.28-.86,8.25,8.25,0,0,1-2.37-3.16l1.31-.35a9,9,0,0,0,.8,1.33A14,14,0,0,0,442.68,63.54Zm-4.76,9.36,5.27-.06a1.21,1.21,0,0,1,.3-.2.41.41,0,0,1,.29.13l.71.65a.35.35,0,0,1,.12.25c0,.11-.15.25-.45.4a8.07,8.07,0,0,1-1.49,2.33,6.5,6.5,0,0,0,.9.36,13.58,13.58,0,0,0,2.52.5l-1.16,1.32a12.08,12.08,0,0,1-2.59-.86c-.27-.14-.53-.27-.76-.42a11.83,11.83,0,0,1-3.41,1.28l-.92-1.16a16.46,16.46,0,0,0,2.19-.51,7,7,0,0,0,1-.43l0,0a5.58,5.58,0,0,1-1.19-1.57,4.25,4.25,0,0,1-.29-.73h-1Zm2.25,1.22a2.9,2.9,0,0,0,.27.48,3.85,3.85,0,0,0,1.09,1.13,5.34,5.34,0,0,0,1.14-1.64Z"/><path class="cls-1" d="M455.09,63.66l11.8-.12,0,4.15-10.36.1V68c0,1.75,0,3.17-.08,4.26l3,0,0-1.5-2,0V69.41l2,0,0-1.31,1.33.1c.26,0,.39.08.39.22s-.09.17-.27.32v.65l2.43,0V68l1.33.1c.24,0,.37.08.37.22s-.09.17-.27.32v.65l2.17,0v1.31l-2.16,0v1.51l3.15,0,0,1.31-4.68,0a8.46,8.46,0,0,0,1.25,1.58l0,0a15.51,15.51,0,0,0,1.68-1.38l1,1a.33.33,0,0,1,.11.23c0,.09-.16.14-.47.14-.41.27-.84.54-1.29.8.26.15.55.3.85.45a7.4,7.4,0,0,0,2.17.56l-1.16,1.39a5,5,0,0,1-1.79-.71,6.88,6.88,0,0,1-2.2-1.65,10.31,10.31,0,0,1-1.67-2.43l-2,0,0,2.68q1.29-.22,2.55-.54v1.19c-1.09.28-2.82.66-5.17,1.16-.1.21-.21.32-.32.32s-.16-.07-.18-.22l-.35-1.4c.68-.08,1.35-.17,2-.27l0-2.91-2.06,0a15.78,15.78,0,0,1-.63,2.48,12.86,12.86,0,0,1-1.13,2.31l-1.32-.82a10.94,10.94,0,0,0,.82-1.47,9.41,9.41,0,0,0,.76-2.49,32.73,32.73,0,0,0,.28-5.57Zm1.45,1.25,0,1.62,8.91-.09V64.82ZM461,72.19l2.43,0v-1.5l-2.44,0Z"/><path class="cls-1" d="M479.26,64.54l0,1.83,8.52-.09,0-1.83Zm0,3.07,0,1.37,11.44-.12a36.46,36.46,0,0,1-.28,6.73,2.6,2.6,0,0,1-.94,1.87,4.88,4.88,0,0,1-2.62.55l-.74-1.49a5,5,0,0,0,2.33-.32,1.87,1.87,0,0,0,.54-1.13,24.89,24.89,0,0,0,.27-4.87l-10.09.11a23.36,23.36,0,0,1-.4,3,28.21,28.21,0,0,1-1.55,4.92l-1.45-.71a20.7,20.7,0,0,0,1.53-4.54,26.75,26.75,0,0,0,.53-5.56l0-4.06,11.41-.12.05,4.31Zm1.22,4,6.15-.06,0,4.37-1.38,0v-.66l-3.41,0v.86h-1.38Zm1.4,2.47,3.4,0V72.79l-3.41,0Z"/><polygon class="cls-1" points="262.2 87.81 259.93 87.83 259.98 92.06 255.43 92.11 255.38 87.88 253.11 87.91 253.22 98.42 255.49 98.39 255.45 94.14 260 94.09 260.04 98.35 262.31 98.32 262.2 87.81"/><path class="cls-1" d="M270.75,94.69a3.48,3.48,0,1,0-6.95.06,3.48,3.48,0,1,0,6.95-.06Zm-2.07,0c0,1.56-.46,2.43-1.37,2.44-.73,0-1.42-.53-1.44-2.36,0-1.61.55-2.37,1.39-2.38S268.66,93.26,268.68,94.65Z"/><path class="cls-1" d="M274,91.1l-1.93,0,.07,7.1,1.94,0,0-4.58c.5-.88.86-1.18,1.34-1.18s1,.41,1,1.41l0,4.33,1.94,0,0-4.52c0-2.09-1.31-2.71-2.27-2.7a2.37,2.37,0,0,0-2,1.17Z"/><path class="cls-1" d="M286.1,91l-3.66,0a2.55,2.55,0,0,0-2.73,2.62,2.15,2.15,0,0,0,1.75,2.17v0c-.36.09-1.12.3-1.11,1.06a1,1,0,0,0,.75.92v0c-1.36.41-1.63,1.18-1.62,1.79,0,.94.71,2.05,3.31,2,2,0,3.25-.78,3.24-2.43a2.18,2.18,0,0,0-.51-1.36c-1-1.18-3.38-.45-3.39-1.26s1.8-.11,2.88-1.39a2.34,2.34,0,0,0,.54-1.56,2.48,2.48,0,0,0-.32-1.19h.89Zm-4.59,2.67a1.21,1.21,0,0,1,1.11-1.31,1.16,1.16,0,0,1,1.13,1.21,1.26,1.26,0,0,1-1.1,1.37A1.24,1.24,0,0,1,281.51,93.64Zm2.74,5.78c0,.48-.53.9-1.38.91-1,0-1.6-.28-1.6-.82s.55-.85,1.46-.86S284.24,98.91,284.25,99.42Z"/><polygon class="cls-1" points="298.63 87.43 296.13 87.46 293.31 92.25 293.28 92.25 293.23 87.49 290.95 87.51 291.06 98.03 293.34 98 293.29 93.07 296.95 97.97 299.8 97.94 295.71 92.4 298.63 87.43"/><path class="cls-1" d="M306.29,94.32A3.48,3.48,0,1,0,302.87,98,3.4,3.4,0,0,0,306.29,94.32Zm-2.07,0c0,1.56-.46,2.43-1.37,2.44-.73,0-1.42-.53-1.44-2.36,0-1.6.55-2.37,1.39-2.37S304.2,92.9,304.22,94.28Z"/><path class="cls-1" d="M309.5,90.73l-1.94,0,.07,7.1,1.94,0-.05-4.57c.5-.89.86-1.18,1.34-1.19s1,.41,1,1.41l0,4.33,1.94,0,0-4.52c0-2.09-1.32-2.71-2.28-2.7a2.36,2.36,0,0,0-2,1.18Z"/><path class="cls-1" d="M321.64,90.6l-3.66,0a2.55,2.55,0,0,0-2.73,2.62A2.16,2.16,0,0,0,317,95.43v0c-.36.1-1.12.3-1.11,1.06a1,1,0,0,0,.76.92v0c-1.36.41-1.64,1.19-1.63,1.79,0,.94.72,2.06,3.31,2,2,0,3.26-.77,3.24-2.42a2.08,2.08,0,0,0-.51-1.37c-1-1.18-3.37-.44-3.38-1.26s1.79-.11,2.87-1.39a2.4,2.4,0,0,0,.55-1.56,2.56,2.56,0,0,0-.32-1.18h.88Zm-4.58,2.67A1.21,1.21,0,0,1,318.17,92a1.15,1.15,0,0,1,1.12,1.21,1.26,1.26,0,0,1-1.1,1.37A1.22,1.22,0,0,1,317.06,93.27Zm2.73,5.78c0,.48-.52.9-1.38.91-1,0-1.59-.27-1.6-.81s.55-.86,1.46-.87S319.79,98.55,319.79,99.05Z"/><path class="cls-1" d="M330.51,87.1l-2.64,0L324.3,97.68l2.41,0,.66-2.09,4.08,0,.77,2.07,2.45,0Zm.25,6.6-2.81,0,1.3-4.1Z"/><path class="cls-1" d="M337.44,90.44l-1.94,0,.07,7.1,1.94,0,0-3.06c.41-1.32.86-2.09,1.57-2.1a2.1,2.1,0,0,1,1.15.51l.52-2a2,2,0,0,0-1.29-.63c-.75,0-1.39.71-1.95,2.19h0Z"/><path class="cls-1" d="M346.13,90.35l-2.24,0,0-2.23h-.24l-2.54,3.36v.43H342l0,3c0,2,1.13,2.66,2.42,2.64a3.77,3.77,0,0,0,1.78-.46V95.53a2.52,2.52,0,0,1-1.3.43c-.6,0-.95-.44-1-1.13l0-2.93,2.25,0Z"/><path class="cls-1" d="M351.38,90.68a3.7,3.7,0,0,0-2-.5,2.26,2.26,0,0,0-2.53,2.21c0,2.33,3.09,2.11,3.1,3.15,0,.32-.36.52-.93.53a4.46,4.46,0,0,1-2-.58v1.57a5,5,0,0,0,2.22.5,2.2,2.2,0,0,0,2.49-2.34c0-2.37-3.09-2.37-3.1-3.15,0-.5.44-.56.69-.57a4,4,0,0,1,2.07.77Z"/><path class="cls-1" d="M356.73,86.83l.11,10.51,3.77,0c3.64,0,5.28-2.28,5.24-5.3s-1.76-5.25-5.09-5.22Zm2.3,1.91,1.45,0c2.16,0,3,1.49,3,3.3,0,1.54-.64,3.34-2.93,3.36H359.1Z"/><path class="cls-1" d="M373.37,95a3.38,3.38,0,0,1-2.28,1,1.91,1.91,0,0,1-2-2l4.43,0c.06-2.59-1.44-4-3.23-4S367,91.54,367,93.71a3.4,3.4,0,0,0,3.61,3.63,4,4,0,0,0,2.74-1Zm-4.3-2.12c.07-1,.56-1.56,1.32-1.56s1.26.57,1.35,1.54Z"/><polygon class="cls-1" points="376.43 97.28 377.52 97.27 380.28 90 378.22 90.02 376.94 93.95 375.58 90.04 373.51 90.06 376.43 97.28"/><path class="cls-1" d="M386.91,94.83a3.38,3.38,0,0,1-2.27,1,1.92,1.92,0,0,1-2.06-2l4.43,0c.06-2.59-1.43-4-3.23-4s-3.23,1.58-3.21,3.75a3.41,3.41,0,0,0,3.61,3.63,4,4,0,0,0,2.75-1Zm-4.3-2.12c.07-1,.56-1.56,1.32-1.56s1.26.57,1.35,1.54Z"/><rect class="cls-2" x="388.29" y="86.5" width="1.94" height="10.51" transform="translate(-0.93 4.04) rotate(-0.59)"/><path class="cls-1" d="M398.54,93.37a3.49,3.49,0,1,0-3.43,3.72A3.41,3.41,0,0,0,398.54,93.37Zm-2.07,0c0,1.55-.46,2.42-1.37,2.43-.74,0-1.42-.52-1.44-2.36,0-1.6.55-2.36,1.39-2.37S396.45,91.94,396.47,93.33Z"/><path class="cls-1" d="M401.7,89.77l-1.94,0,.11,10.65,1.94,0,0-3.89a2.93,2.93,0,0,0,1.6.47c1.83,0,3-1.53,3-3.81,0-2-1.3-3.59-2.9-3.57a2.39,2.39,0,0,0-1.76.77Zm0,2a1.7,1.7,0,0,1,1.2-.58c.93,0,1.47.77,1.48,2.13s-.56,2.16-1.51,2.17a1.71,1.71,0,0,1-1.13-.45Z"/><path class="cls-1" d="M409.58,89.69l-1.93,0,.07,7.11,1.94,0L409.61,92a2,2,0,0,1,1.47-1c.58,0,1.18.38,1.2,1.53l0,4.21,1.94,0-.05-4.55c.43-.79,1-1.21,1.51-1.22s1.15.56,1.16,1.58l0,4.16,1.94,0-.05-4.56a2.44,2.44,0,0,0-2.43-2.66A3,3,0,0,0,414,91a2.24,2.24,0,0,0-2.24-1.49,2.47,2.47,0,0,0-1.1.26,3.94,3.94,0,0,0-1,.81Z"/><path class="cls-1" d="M426.5,94.42a3.42,3.42,0,0,1-2.28,1,1.92,1.92,0,0,1-2.06-2l4.43,0c.07-2.59-1.43-4-3.22-4s-3.24,1.58-3.21,3.75a3.39,3.39,0,0,0,3.6,3.63,4.07,4.07,0,0,0,2.75-1Zm-4.31-2.12c.07-1,.56-1.56,1.32-1.56s1.27.57,1.36,1.54Z"/><path class="cls-1" d="M429.75,89.48l-1.94,0,.08,7.11,1.94,0L429.78,92c.5-.88.86-1.18,1.34-1.18s1,.4,1,1.4l.05,4.33,1.94,0L434,92c0-2.1-1.31-2.72-2.27-2.71a2.41,2.41,0,0,0-2,1.18Z"/><path class="cls-1" d="M440,89.38l-2.25,0,0-2.24h-.24L435,90.52V91h.88l0,3c0,2,1.14,2.65,2.42,2.64a4,4,0,0,0,1.79-.47l0-1.61a2.49,2.49,0,0,1-1.29.43c-.6,0-.95-.44-1-1.14l0-2.92,2.25,0Z"/><path class="cls-1" d="M453.52,93.14a6.46,6.46,0,0,1-3.29,1.19,3.21,3.21,0,1,1,0-6.42,5.76,5.76,0,0,1,3.15,1l0-2.34a5.73,5.73,0,0,0-3.32-.89,5.27,5.27,0,0,0-5.42,5.48A5.1,5.1,0,0,0,450,96.52a6.44,6.44,0,0,0,3.58-1.09Z"/><path class="cls-1" d="M461.76,92.71a3.48,3.48,0,1,0-6.95.06,3.48,3.48,0,1,0,6.95-.06Zm-2.07,0c0,1.56-.46,2.43-1.37,2.44-.73,0-1.42-.53-1.44-2.36,0-1.61.55-2.37,1.4-2.37S459.68,91.28,459.69,92.67Z"/><path class="cls-1" d="M467.36,96.2l1.93,0-.07-7.11-2,0,.05,4.54A1.56,1.56,0,0,1,466,94.86c-.5,0-1-.35-1-1.35l0-4.39-1.94,0,.05,4.54c0,1.84,1.07,2.69,2.28,2.68a2.39,2.39,0,0,0,2-1.18Z"/><path class="cls-1" d="M472.77,89l-1.94,0,.07,7.1,1.94,0,0-4.58c.5-.88.85-1.18,1.33-1.18s1,.41,1,1.41l.05,4.33,1.94,0-.05-4.52c0-2.09-1.31-2.71-2.28-2.7a2.4,2.4,0,0,0-2,1.17Z"/><path class="cls-1" d="M484.07,94.08a4.32,4.32,0,0,1-1.73.52,1.88,1.88,0,0,1-1.87-2.08,1.86,1.86,0,0,1,1.89-2.07,3.17,3.17,0,0,1,1.59.46l0-1.66a5.65,5.65,0,0,0-2.08-.45,3.48,3.48,0,0,0-3.45,3.76A3.4,3.4,0,0,0,482,96.19a5.42,5.42,0,0,0,2.08-.5Z"/><path class="cls-1" d="M487.3,88.89l-1.94,0,.08,7.1,1.94,0Zm-1-3.54a1.25,1.25,0,1,0,1.08,1.22A1.17,1.17,0,0,0,486.29,85.35Z"/><rect class="cls-2" x="489.01" y="85.45" width="1.94" height="10.51" transform="translate(-0.91 5.08) rotate(-0.59)"/><path class="cls-2" d="M40,80.46c-.22-.86-.88-1.18-2.05-1.31L36.3,79c-1.48-.16-2.74-.7-3.12-2.19-.61-2.37,1-4.3,3.54-5a4.34,4.34,0,0,1,4.92,1.61l-.89,1A3.18,3.18,0,0,0,37,73c-1.39.35-2.28,1.32-2,2.51.24.93.93,1.16,2.16,1.3l1.65.17c1.56.18,2.73.74,3.11,2.22.63,2.47-1.22,4.58-3.86,5.26a5.28,5.28,0,0,1-5.58-1.69l.87-1.12a4.09,4.09,0,0,0,4.41,1.57C39.24,82.86,40.39,81.83,40,80.46Z"/><path class="cls-2" d="M54,67.58l0,7.69c0,3.35-1.53,5.5-4.4,6.23s-5.23-.6-5.25-3.9l0-7.54,2.2-.57,0,7.51c0,2.36,1.2,3.52,3.1,3,2.05-.53,3-2,3-4.59l0-7.5Z"/><path class="cls-2" d="M59.61,73.88l0,4.88-2.2.56-.08-12.6L62,65.54c2.37-.61,4.06.14,4.53,2,.73,2.82-1.53,5-4.48,5.73Zm1.79-1.7c2.28-.59,3.4-1.92,2.85-4.07-.32-1.22-1.25-1.61-2.9-1.18l-1.78.45,0,5.26Z"/><path class="cls-2" d="M71.19,70.91l0,4.88-2.2.56L69,63.75l4.61-1.18c2.37-.61,4.06.14,4.53,2,.73,2.82-1.54,5-4.48,5.73ZM73,69.21c2.29-.59,3.41-1.92,2.85-4.07-.31-1.22-1.24-1.61-2.9-1.19l-1.78.46,0,5.26Z"/><path class="cls-2" d="M86.49,72.05a5,5,0,0,1-6.35-3.74,7.19,7.19,0,0,1,4.92-8.88,5,5,0,0,1,6.35,3.73A7.18,7.18,0,0,1,86.49,72.05ZM86.21,71c2.59-.66,3.63-4.47,2.81-7.67-.57-2.21-1.89-3.22-3.69-2.76-2.59.66-3.61,4.46-2.79,7.66C83.11,70.39,84.43,71.41,86.21,71Z"/><path class="cls-2" d="M96.43,69.32l-2.2.56-.08-12.6L99,56c2.15-.55,3.95-.09,4.4,1.67.63,2.47-1.57,4.14-3.39,4.66v0a2.13,2.13,0,0,1,2.72,1.54l.63,1.63a4.77,4.77,0,0,0,1,1.71l-2.33.6a6.61,6.61,0,0,1-.8-1.56l-.71-1.84c-.4-1.14-.89-1.47-2.27-1.12l-1.94.5Zm0-6.7,2.08-.54c2-.51,3.15-1.78,2.66-3.69-.28-1.08-1.2-1.37-2.69-1l-2.1.54Z"/><path class="cls-2" d="M109.77,54.53l-4.46,1.15,0-1.26,11.13-2.86,0,1.26L112,54,112,65.31l-2.2.57Z"/><path class="cls-2" d="M119,50.91l8.36-2.15V50l-6.16,1.58,0,4.18,4.5-1.16v1.28l-4.5,1.16,0,4.57L127.67,60l0,1.29L119,63.51Z"/><path class="cls-2" d="M130.43,60.59,130.35,48,134,47c3.49-.9,6,.49,6.66,3.23,1.13,4.42-1.67,8.11-6,9.24Zm8-9.73c-.58-2.23-2-3.23-4.32-2.62l-1.54.39.06,10.2,1.82-.47C137.62,57.54,139.37,54.63,138.4,50.86Z"/><path class="cls-2" d="M148.52,56l-.08-12.61,4.47-1.15c2.17-.55,3.84-.1,4.25,1.53.53,2.06-1.1,3.63-2.93,4.23v0c1.54-.3,3.1.2,3.47,1.64.65,2.56-1.6,4.38-4.31,5.07Zm2.16-6.42,0,4.61,2.15-.55c1.88-.48,3.09-1.61,2.6-3.5-.29-1.15-1.21-1.48-2.83-1.06Zm0-1.24,1.81-.47c1.71-.44,2.92-1.56,2.45-3.39-.26-1-1.08-1.25-2.45-.9l-1.83.47Z"/><path class="cls-2" d="M168.33,38.24l1.64-.43-4.42,8.44,0,5.31-2.2.57,0-5.32-4.5-6.15,2.27-.58,3.65,5Z"/><path class="cls-2" d="M88.58,83q-1,.42-2.07.93c-.73.33-1.53.72-2.39,1.16-.08-.19-.18-.39-.29-.6a7,7,0,0,0-.42-.66,7.56,7.56,0,0,0,1-.26c.4-.13.83-.29,1.3-.48s.93-.4,1.39-.62a10,10,0,0,0,1.23-.69,4.25,4.25,0,0,0,.11.72A1.91,1.91,0,0,0,88.58,83Zm.85,8.33c.14.1.29.2.46.3a2.69,2.69,0,0,0,.44.23q.21.09.18.18c0,.07-.1.11-.25.12a.47.47,0,0,0-.17,0l-.25.08-.41.15-.63.28c-.59.27-1.25.54-2,.8s-1.44.48-2.14.68a3.5,3.5,0,0,0-.32-.6,2,2,0,0,0-.53-.53,12.71,12.71,0,0,0,1.33-.28c.46-.12.92-.26,1.37-.41s.89-.32,1.29-.5a9.56,9.56,0,0,0,1.06-.52l-1.6,0c-.56,0-1,0-1.45.07a6,6,0,0,0,.11-.7c0-.24,0-.49,0-.77l0-3.72a4.59,4.59,0,0,0-.17-1.45c.28,0,.65,0,1.12,0l1.5,0a1.65,1.65,0,0,0-.22-.36,1.92,1.92,0,0,0-.35-.35A7.54,7.54,0,0,0,91.1,83a3.7,3.7,0,0,0,1.51-2.13l-1.56,0c-.2.31-.41.59-.62.86s-.35.46-.45.57a3.16,3.16,0,0,0-1.24-.58,6.63,6.63,0,0,0,1.43-1.63,7.2,7.2,0,0,0,.82-2,5.51,5.51,0,0,0,1.28.51c.32.07.32.2,0,.4a1.28,1.28,0,0,0-.22.27c-.11.15-.22.31-.33.49l3.18,0c.75,0,1.42,0,2-.07s1-.07,1.28-.11L97.17,82.4l-1.37-.24.6-1.29-2.52,0c0,.19-.12.36-.18.53l-.21.49,1.19.45,1.22.49,1.32.56,1.52.65L98,85.27c-.65-.41-1.41-.84-2.29-1.29S93.9,83.13,93,82.77A4.17,4.17,0,0,1,91.7,84a8.72,8.72,0,0,1-1.93.84l6.93-.07c0,.19,0,.41,0,.67s0,.49,0,.69l0,3.73,0,.78a4,4,0,0,0,.09.68l-.9,0-1.24,0-2,0Zm-2-9.94a14.42,14.42,0,0,0-1.57-.86,15,15,0,0,0-1.56-.63L85,78.85l.84.33.87.37.82.37.65.31Zm7.84,4.44L87.19,86v.84l8.12-.09Zm0,1.79-8.12.08v.82l8.12-.08Zm0,1.73-8.12.08v.82l8.12-.08Zm2.41,4.78a13.17,13.17,0,0,0-2.36-1.08,18.84,18.84,0,0,0-2.83-.74l.62-1,1.36.3,1.43.37,1.38.42c.44.14.85.28,1.23.43Z"/><path class="cls-2" d="M103.81,76.32a18.13,18.13,0,0,0-.08-1.93,9.14,9.14,0,0,0,1.1.08c.46,0,1.08,0,1.86,0l1.11,0,.8,0,.58,0a3.11,3.11,0,0,0,.44-.06c0,.27,0,.57,0,.89s0,.67,0,1.05l.09,9.18.86-.17a2.27,2.27,0,0,0-.12.6,5.17,5.17,0,0,0,0,.68l-4.9,1.13-.63.16-.68.17-.65.18-.51.15a5.41,5.41,0,0,0-.17-.88,4.43,4.43,0,0,0-.29-.83,3.57,3.57,0,0,0,.56,0,6.79,6.79,0,0,0,.77-.09Zm4.41-.63-3.06,0,0,2.58,3.06,0Zm-3,6.49,3.06,0,0-2.71-3.06,0Zm3.07,1.14-3.06,0,0,2.94,3-.59ZM114,76.88c.9,0,1.67-.09,2.28-.13s1.07-.1,1.35-.15l-.22,9.14a13.32,13.32,0,0,1-.11,1.37,1.66,1.66,0,0,1-.39.87,2.4,2.4,0,0,1-.91.56,13.92,13.92,0,0,1-1.63.47,3.77,3.77,0,0,0-.3-1,3.44,3.44,0,0,0-.58-.91,5.43,5.43,0,0,0,1.22.06,1.51,1.51,0,0,0,.75-.24,1,1,0,0,0,.39-.58,4,4,0,0,0,.12-1l.19-7.3-2.2.12c0,1.08-.08,2-.13,2.7s-.11,1.31-.18,1.78a19.4,19.4,0,0,1-.37,2,10,10,0,0,1-.54,1.63,8.69,8.69,0,0,1-.85,1.5,14.8,14.8,0,0,1-1.29,1.59,3.3,3.3,0,0,0-.8-.58,4.27,4.27,0,0,0-1-.35,12,12,0,0,0,1.31-1.06,5.89,5.89,0,0,0,.93-1.13,6.52,6.52,0,0,0,.65-1.41,12.63,12.63,0,0,0,.46-1.86,19.16,19.16,0,0,0,.26-2.09c.06-.8.1-1.67.11-2.62-.33,0-.66.07-1,.12l-1,.18-.07-1.62h.89l1.12,0c0-.59,0-1.08,0-1.49s0-.75-.06-1,0-.52-.06-.7a2.18,2.18,0,0,0-.08-.48,4.25,4.25,0,0,0,.9.24,4.57,4.57,0,0,0,1.06,0c.13,0,.21,0,.24.08s0,.17-.11.34a2.33,2.33,0,0,0-.14.31q-.06.19-.12.42a3.11,3.11,0,0,0-.07.44,3,3,0,0,0,0,.41c0,.24,0,.48,0,.71S114,76.66,114,76.88Z"/><rect class="cls-3" width="554.67" height="130.84"/></g></g></svg>